999
dxflib 3.17.0.0
  0
SECTION
  2
HEADER
  9
$ACADVER
  1
AC1015
  9
$HANDSEED
  5
FFFF
  9
$DIMADEC
 70
0
  9
$DIMASZ
 40
2.5
  9
$DIMAUNIT
 70
0
  9
$DIMAZIN
 70
2
  9
$DIMDEC
 70
4
  9
$DIMDSEP
 70
46
  9
$DIMEXE
 40
1.25
  9
$DIMEXO
 40
0.625
  9
$DIMGAP
 40
0.625
  9
$DIMLUNIT
 70
2
  9
$DIMSCALE
 40
1.0
  9
$DIMTSZ
 40
0.0
  9
$DIMTXT
 40
2.5
  9
$DIMZIN
 70
8
  9
$DWGCODEPAGE
  3
ANSI_1252
  9
$INSUNITS
 70
4
  9
$LTSCALE
 40
1.0
  9
$MAXACTVP
 70
64
  9
$MEASUREMENT
 70
1
  9
$PDMODE
 70
0
  9
$PDSIZE
 40
0.0
  0
ENDSEC
  0
SECTION
  2
TABLES
  0
TABLE
  2
VPORT
  5
8
100
AcDbSymbolTable
 70
1
  0
VPORT
  5
30
100
AcDbSymbolTableRecord
100
AcDbViewportTableRecord
  2
*Active
 70
0
 10
0.0
 20
0.0
 11
1.0
 21
1.0
 12
286.3055555555554861
 22
148.5
 13
0.0
 23
0.0
 14
10.0
 24
10.0
 15
10.0
 25
10.0
 16
0.0
 26
0.0
 36
1.0
 17
0.0
 27
0.0
 37
0.0
 40
297.0
 41
1.92798353909465
 42
50.0
 43
0.0
 44
0.0
 50
0.0
 51
0.0
 71
0
 72
100
 73
1
 74
3
 75
1
 76
1
 77
0
 78
0
281
0
 65
1
110
0.0
120
0.0
130
0.0
111
1.0
121
0.0
131
0.0
112
0.0
122
1.0
132
0.0
 79
0
146
0.0
  0
ENDTAB
  0
TABLE
  2
LTYPE
  5
5
100
AcDbSymbolTable
 70
41
  0
LTYPE
  5
16
100
AcDbSymbolTableRecord
100
AcDbLinetypeTableRecord
  2
Continuous
 70
0
  3
Solid line
 72
65
 73
0
 40
0.0
  0
LTYPE
  5
31
100
AcDbSymbolTableRecord
100
AcDbLinetypeTableRecord
  2
DOTX2
 70
0
  3
Dot (2x) .  .  .  .  .  .  .  .  .  .  .  .  .  .
 72
65
 73
2
 40
12.6999999999999993
 49
0.1
 74
0
 49
-12.5999999999999996
 74
0
  0
LTYPE
  5
32
100
AcDbSymbolTableRecord
100
AcDbLinetypeTableRecord
  2
BORDER2
 70
0
  3
Border (.5x) __.__.__.__.__.__.__.__.__.__.__.
 72
65
 73
6
 40
22.2250000000000014
 49
6.3499999999999996
 74
0
 49
-3.1749999999999998
 74
0
 49
6.3499999999999996
 74
0
 49
-3.125
 74
0
 49
0.1
 74
0
 49
-3.125
 74
0
  0
LTYPE
  5
33
100
AcDbSymbolTableRecord
100
AcDbLinetypeTableRecord
  2
ACAD_ISO06W100
 70
0
  3
ISO long-dash triple-dot ____ ... ____ ... ____
 72
65
 73
8
 40
36.0000000000000071
 49
24.0
 74
0
 49
-2.9500000000000002
 74
0
 49
0.1
 74
0
 49
-2.9000000000000004
 74
0
 49
0.1
 74
0
 49
-2.9000000000000004
 74
0
 49
0.1
 74
0
 49
-2.9500000000000002
 74
0
  0
LTYPE
  5
34
100
AcDbSymbolTableRecord
100
AcDbLinetypeTableRecord
  2
DASHEDX2
 70
0
  3
Dashed (2x) ____  ____  ____  ____  ____  ___
 72
65
 73
2
 40
38.0999999999999943
 49
25.3999999999999986
 74
0
 49
-12.6999999999999993
 74
0
  0
LTYPE
  5
35
100
AcDbSymbolTableRecord
100
AcDbLinetypeTableRecord
  2
DASHDOT2
 70
0
  3
Dash dot (.5x) _._._._._._._._._._._._._._._.
 72
65
 73
4
 40
12.6999999999999993
 49
6.3499999999999996
 74
0
 49
-3.125
 74
0
 49
0.1
 74
0
 49
-3.125
 74
0
  0
LTYPE
  5
36
100
AcDbSymbolTableRecord
100
AcDbLinetypeTableRecord
  2
ACAD_ISO02W100
 70
0
  3
ISO dash __ __ __ __ __ __ __ __ __ __ __ __ __
 72
65
 73
2
 40
15.0
 49
12.0
 74
0
 49
-3.0
 74
0
  0
LTYPE
  5
37
100
AcDbSymbolTableRecord
100
AcDbLinetypeTableRecord
  2
DIVIDE2
 70
0
  3
Divide (.5x) __..__..__..__..__..__..__..__.._
 72
65
 73
6
 40
15.8749999999999982
 49
6.3499999999999996
 74
0
 49
-3.125
 74
0
 49
0.1
 74
0
 49
-3.0750000000000002
 74
0
 49
0.1
 74
0
 49
-3.125
 74
0
  0
LTYPE
  5
38
100
AcDbSymbolTableRecord
100
AcDbLinetypeTableRecord
  2
DOT2
 70
0
  3
Dot (.5x) ........................................
 72
65
 73
2
 40
3.1749999999999998
 49
0.1
 74
0
 49
-3.0749999999999997
 74
0
  0
LTYPE
  5
39
100
AcDbSymbolTableRecord
100
AcDbLinetypeTableRecord
  2
ACAD_ISO09W100
 70
0
  3
ISO long-dash double-short-dash ____ __ __ ____
 72
65
 73
6
 40
45.0
 49
24.0
 74
0
 49
-3.0
 74
0
 49
6.0
 74
0
 49
-3.0
 74
0
 49
6.0
 74
0
 49
-3.0
 74
0
  0
LTYPE
  5
3A
100
AcDbSymbolTableRecord
100
AcDbLinetypeTableRecord
  2
PHANTOMX2
 70
0
  3
Phantom (2x) ____________    ____    ____   _
 72
65
 73
6
 40
127.0000000000000142
 49
63.5
 74
0
 49
-12.6999999999999993
 74
0
 49
12.6999999999999993
 74
0
 49
-12.6999999999999993
 74
0
 49
12.6999999999999993
 74
0
 49
-12.6999999999999993
 74
0
  0
LTYPE
  5
3B
100
AcDbSymbolTableRecord
100
AcDbLinetypeTableRecord
  2
ACAD_ISO13W100
 70
0
  3
ISO double-dash double-dot __ __ . . __ __ . . _
 72
65
 73
8
 40
36.0000000000000071
 49
12.0
 74
0
 49
-3.0
 74
0
 49
12.0
 74
0
 49
-2.9500000000000002
 74
0
 49
0.1
 74
0
 49
-2.9000000000000004
 74
0
 49
0.1
 74
0
 49
-2.9500000000000002
 74
0
  0
LTYPE
  5
3C
100
AcDbSymbolTableRecord
100
AcDbLinetypeTableRecord
  2
CENTER
 70
0
  3
Center ____ _ ____ _ ____ _ ____ _ ____ _ ____
 72
65
 73
4
 40
50.8000000000000043
 49
31.75
 74
0
 49
-6.3499999999999996
 74
0
 49
6.3499999999999996
 74
0
 49
-6.3499999999999996
 74
0
  0
LTYPE
  5
3D
100
AcDbSymbolTableRecord
100
AcDbLinetypeTableRecord
  2
ACAD_ISO14W100
 70
0
  3
ISO dash triple-dot __ . . . __ . . . __ . . . _
 72
65
 73
8
 40
24.0000000000000036
 49
12.0
 74
0
 49
-2.9500000000000002
 74
0
 49
0.1
 74
0
 49
-2.9000000000000004
 74
0
 49
0.1
 74
0
 49
-2.9000000000000004
 74
0
 49
0.1
 74
0
 49
-2.9500000000000002
 74
0
  0
LTYPE
  5
3E
100
AcDbSymbolTableRecord
100
AcDbLinetypeTableRecord
  2
BORDERX2
 70
0
  3
Border (2x) ____  ____  .  ____  ____  .  ___
 72
65
 73
6
 40
88.8999999999999773
 49
25.3999999999999986
 74
0
 49
-12.6999999999999993
 74
0
 49
25.3999999999999986
 74
0
 49
-12.6499999999999986
 74
0
 49
0.1
 74
0
 49
-12.6499999999999986
 74
0
  0
LTYPE
  5
3F
100
AcDbSymbolTableRecord
100
AcDbLinetypeTableRecord
  2
BORDER
 70
0
  3
Border __ __ . __ __ . __ __ . __ __ . __ __ .
 72
65
 73
6
 40
44.4499999999999957
 49
12.6999999999999993
 74
0
 49
-6.3499999999999996
 74
0
 49
12.6999999999999993
 74
0
 49
-6.2999999999999998
 74
0
 49
0.1
 74
0
 49
-6.2999999999999998
 74
0
  0
LTYPE
  5
40
100
AcDbSymbolTableRecord
100
AcDbLinetypeTableRecord
  2
CENTERX2
 70
0
  3
Center (2x) ________  __  ________  __  _____
 72
65
 73
4
 40
101.6000000000000085
 49
63.5
 74
0
 49
-12.6999999999999993
 74
0
 49
12.6999999999999993
 74
0
 49
-12.6999999999999993
 74
0
  0
LTYPE
  5
41
100
AcDbSymbolTableRecord
100
AcDbLinetypeTableRecord
  2
DASHED
 70
0
  3
Dashed __ __ __ __ __ __ __ __ __ __ __ __ __ _
 72
65
 73
2
 40
19.0499999999999972
 49
12.6999999999999993
 74
0
 49
-6.3499999999999996
 74
0
  0
LTYPE
  5
42
100
AcDbSymbolTableRecord
100
AcDbLinetypeTableRecord
  2
ACAD_ISO07W100
 70
0
  3
ISO dot . . . . . . . . . . . . . . . . . . . . 
 72
65
 73
2
 40
3.0
 49
0.1
 74
0
 49
-2.8999999999999999
 74
0
  0
LTYPE
  5
43
100
AcDbSymbolTableRecord
100
AcDbLinetypeTableRecord
  2
CENTER2
 70
0
  3
Center (.5x) ___ _ ___ _ ___ _ ___ _ ___ _ ___
 72
65
 73
4
 40
28.5750000000000028
 49
19.0500000000000007
 74
0
 49
-3.1749999999999998
 74
0
 49
3.1749999999999998
 74
0
 49
-3.1749999999999998
 74
0
  0
LTYPE
  5
44
100
AcDbSymbolTableRecord
100
AcDbLinetypeTableRecord
  2
ACAD_ISO12W100
 70
0
  3
ISO dash double-dot __ . . __ . . __ . . __ . . 
 72
65
 73
6
 40
21.0
 49
12.0
 74
0
 49
-2.9500000000000002
 74
0
 49
0.1
 74
0
 49
-2.9000000000000004
 74
0
 49
0.1
 74
0
 49
-2.9500000000000002
 74
0
  0
LTYPE
  5
45
100
AcDbSymbolTableRecord
100
AcDbLinetypeTableRecord
  2
ACAD_ISO04W100
 70
0
  3
ISO long-dash dot ____ . ____ . ____ . ____ . _
 72
65
 73
4
 40
30.0
 49
24.0
 74
0
 49
-2.9500000000000002
 74
0
 49
0.1
 74
0
 49
-2.9500000000000002
 74
0
  0
LTYPE
  5
46
100
AcDbSymbolTableRecord
100
AcDbLinetypeTableRecord
  2
PHANTOM2
 70
0
  3
Phantom (.5x) ___ _ _ ___ _ _ ___ _ _ ___ _ _
 72
65
 73
6
 40
31.7500000000000036
 49
15.875
 74
0
 49
-3.1749999999999998
 74
0
 49
3.1749999999999998
 74
0
 49
-3.1749999999999998
 74
0
 49
3.1749999999999998
 74
0
 49
-3.1749999999999998
 74
0
  0
LTYPE
  5
47
100
AcDbSymbolTableRecord
100
AcDbLinetypeTableRecord
  2
ACAD_ISO08W100
 70
0
  3
ISO long-dash short-dash ____ __ ____ __ ____ _
 72
65
 73
4
 40
36.0
 49
24.0
 74
0
 49
-3.0
 74
0
 49
6.0
 74
0
 49
-3.0
 74
0
  0
LTYPE
  5
48
100
AcDbSymbolTableRecord
100
AcDbLinetypeTableRecord
  2
DASHED2
 70
0
  3
Dashed (.5x) _ _ _ _ _ _ _ _ _ _ _ _ _ _ _ _ _ 
 72
65
 73
2
 40
9.5249999999999986
 49
6.3499999999999996
 74
0
 49
-3.1749999999999998
 74
0
  0
LTYPE
  5
49
100
AcDbSymbolTableRecord
100
AcDbLinetypeTableRecord
  2
ACAD_ISO05W100
 70
0
  3
ISO long-dash double-dot ____ .. ____ .. ____ . 
 72
65
 73
6
 40
33.0000000000000071
 49
24.0
 74
0
 49
-2.9500000000000002
 74
0
 49
0.1
 74
0
 49
-2.9000000000000004
 74
0
 49
0.1
 74
0
 49
-2.9500000000000002
 74
0
  0
LTYPE
  5
15
100
AcDbSymbolTableRecord
100
AcDbLinetypeTableRecord
  2
BYLAYER
 70
0
  3

 72
65
 73
0
 40
0.0
  0
LTYPE
  5
4A
100
AcDbSymbolTableRecord
100
AcDbLinetypeTableRecord
  2
PHANTOM
 70
0
  3
Phantom ______  __  __  ______  __  __  ______ 
 72
65
 73
6
 40
63.5000000000000071
 49
31.75
 74
0
 49
-6.3499999999999996
 74
0
 49
6.3499999999999996
 74
0
 49
-6.3499999999999996
 74
0
 49
6.3499999999999996
 74
0
 49
-6.3499999999999996
 74
0
  0
LTYPE
  5
4B
100
AcDbSymbolTableRecord
100
AcDbLinetypeTableRecord
  2
DASHDOT
 70
0
  3
Dash dot __ . __ . __ . __ . __ . __ . __ . __
 72
65
 73
4
 40
25.4000000000000021
 49
12.6999999999999993
 74
0
 49
-6.2999999999999998
 74
0
 49
0.1
 74
0
 49
-6.2999999999999998
 74
0
  0
LTYPE
  5
4C
100
AcDbSymbolTableRecord
100
AcDbLinetypeTableRecord
  2
DIVIDEX2
 70
0
  3
Divide (2x) ________  .  .  ________  .  .  _
 72
65
 73
6
 40
63.5
 49
25.3999999999999986
 74
0
 49
-12.6499999999999986
 74
0
 49
0.1
 74
0
 49
-12.5999999999999979
 74
0
 49
0.1
 74
0
 49
-12.6499999999999986
 74
0
  0
LTYPE
  5
14
100
AcDbSymbolTableRecord
100
AcDbLinetypeTableRecord
  2
BYBLOCK
 70
0
  3

 72
65
 73
0
 40
0.0
  0
LTYPE
  5
4D
100
AcDbSymbolTableRecord
100
AcDbLinetypeTableRecord
  2
HIDDEN
 70
0
  3
Hidden __ __ __ __ __ __ __ __ __ __ __ __ __ __
 72
65
 73
2
 40
9.5249999999999986
 49
6.3499999999999996
 74
0
 49
-3.1749999999999998
 74
0
  0
LTYPE
  5
4E
100
AcDbSymbolTableRecord
100
AcDbLinetypeTableRecord
  2
ACAD_ISO03W100
 70
0
  3
ISO dash space __    __    __    __    __    __
 72
65
 73
2
 40
30.0
 49
12.0
 74
0
 49
-18.0
 74
0
  0
LTYPE
  5
4F
100
AcDbSymbolTableRecord
100
AcDbLinetypeTableRecord
  2
ACAD_ISO10W100
 70
0
  3
ISO dash dot __ . __ . __ . __ . __ . __ . __ . 
 72
65
 73
4
 40
18.0
 49
12.0
 74
0
 49
-2.9500000000000002
 74
0
 49
0.1
 74
0
 49
-2.9500000000000002
 74
0
  0
LTYPE
  5
50
100
AcDbSymbolTableRecord
100
AcDbLinetypeTableRecord
  2
DASHDOTX2
 70
0
  3
Dash dot (2x) ____  .  ____  .  ____  .  ___
 72
65
 73
4
 40
50.7999999999999972
 49
25.3999999999999986
 74
0
 49
-12.6499999999999986
 74
0
 49
0.1
 74
0
 49
-12.6499999999999986
 74
0
  0
LTYPE
  5
51
100
AcDbSymbolTableRecord
100
AcDbLinetypeTableRecord
  2
HIDDENX2
 70
0
  3
Hidden (2x) ____ ____ ____ ____ ____ ____ ____ 
 72
65
 73
2
 40
19.0499999999999972
 49
12.6999999999999993
 74
0
 49
-6.3499999999999996
 74
0
  0
LTYPE
  5
52
100
AcDbSymbolTableRecord
100
AcDbLinetypeTableRecord
  2
DIVIDE
 70
0
  3
Divide ____ . . ____ . . ____ . . ____ . . ____
 72
65
 73
6
 40
31.7500000000000036
 49
12.6999999999999993
 74
0
 49
-6.2999999999999998
 74
0
 49
0.1
 74
0
 49
-6.25
 74
0
 49
0.1
 74
0
 49
-6.2999999999999998
 74
0
  0
LTYPE
  5
53
100
AcDbSymbolTableRecord
100
AcDbLinetypeTableRecord
  2
HIDDEN2
 70
0
  3
Hidden (.5x) _ _ _ _ _ _ _ _ _ _ _ _ _ _ _ _ _ 
 72
65
 73
2
 40
4.7624999999999993
 49
3.1749999999999998
 74
0
 49
-1.5874999999999999
 74
0
  0
LTYPE
  5
54
100
AcDbSymbolTableRecord
100
AcDbLinetypeTableRecord
  2
ACAD_ISO11W100
 70
0
  3
ISO double-dash dot __ __ . __ __ . __ __ . __ _
 72
65
 73
6
 40
33.0
 49
12.0
 74
0
 49
-3.0
 74
0
 49
12.0
 74
0
 49
-2.9500000000000002
 74
0
 49
0.1
 74
0
 49
-2.9500000000000002
 74
0
  0
LTYPE
  5
55
100
AcDbSymbolTableRecord
100
AcDbLinetypeTableRecord
  2
DOT
 70
0
  3
Dot . . . . . . . . . . . . . . . . . . . . . . . .
 72
65
 73
2
 40
6.3499999999999996
 49
0.1
 74
0
 49
-6.25
 74
0
  0
LTYPE
  5
56
100
AcDbSymbolTableRecord
100
AcDbLinetypeTableRecord
  2
ACAD_ISO15W100
 70
0
  3
ISO double-dash triple-dot __ __ . . . __ __ . .
 72
65
 73
10
 40
39.0000000000000071
 49
12.0
 74
0
 49
-3.0
 74
0
 49
12.0
 74
0
 49
-2.9500000000000002
 74
0
 49
0.1
 74
0
 49
-2.9000000000000004
 74
0
 49
0.1
 74
0
 49
-2.9000000000000004
 74
0
 49
0.1
 74
0
 49
-2.9500000000000002
 74
0
  0
ENDTAB
  0
TABLE
  2
LAYER
  5
2
100
AcDbSymbolTable
 70
8
  0
LAYER
  5
57
100
AcDbSymbolTableRecord
100
AcDbLayerTableRecord
  2
10mm
 70
0
 62
30
420
16744192
  6
Continuous
370
25
390
F
  0
LAYER
  5
58
100
AcDbSymbolTableRecord
100
AcDbLayerTableRecord
  2
l\U+00f6cher
 70
0
 62
1
420
16711680
  6
Continuous
370
25
390
F
  0
LAYER
  5
59
100
AcDbSymbolTableRecord
100
AcDbLayerTableRecord
  2
doku
 70
0
 62
9
420
12632256
  6
Continuous
370
25
390
F
  0
LAYER
  5
10
100
AcDbSymbolTableRecord
100
AcDbLayerTableRecord
  2
0
 70
0
 62
7
420
16777215
  6
Continuous
370
25
390
F
  0
LAYER
  5
5A
100
AcDbSymbolTableRecord
100
AcDbLayerTableRecord
  2
12mm
 70
0
 62
2
420
16776960
  6
Continuous
370
25
390
F
  0
LAYER
  5
5B
100
AcDbSymbolTableRecord
100
AcDbLayerTableRecord
  2
6mm
 70
0
 62
30
420
16744192
  6
Continuous
370
25
390
F
  0
LAYER
  5
5C
100
AcDbSymbolTableRecord
100
AcDbLayerTableRecord
  2
18mm
 70
0
 62
2
420
16776960
  6
Continuous
370
25
390
F
  0
LAYER
  5
5D
100
AcDbSymbolTableRecord
100
AcDbLayerTableRecord
  2
1mm
 70
0
 62
30
420
16744192
  6
Continuous
370
25
390
F
  0
ENDTAB
  0
TABLE
  2
STYLE
  5
3
100
AcDbSymbolTable
 70
12
  0
STYLE
  5
5E
100
AcDbSymbolTableRecord
100
AcDbTextStyleTableRecord
  2
Standard
 70
0
 40
0.0
 41
1.0
 50
0.0
 71
0
 42
2.5
  3

  4

1001
ACAD
1000
txt
1071
0
  0
STYLE
  5
5F
100
AcDbSymbolTableRecord
100
AcDbTextStyleTableRecord
  2
textstyle0
 70
0
 40
0.0
 41
1.0
 50
0.0
 71
0
 42
6.0
  3

  4

1001
ACAD
1000
SansNS
1071
0
  0
STYLE
  5
60
100
AcDbSymbolTableRecord
100
AcDbTextStyleTableRecord
  2
textstyle1
 70
0
 40
0.0
 41
1.0
 50
0.0
 71
0
 42
6.0
  3

  4

1001
ACAD
1000
SansNS
1071
0
  0
STYLE
  5
61
100
AcDbSymbolTableRecord
100
AcDbTextStyleTableRecord
  2
textstyle2
 70
0
 40
0.0
 41
1.0
 50
0.0
 71
0
 42
6.0
  3

  4

1001
ACAD
1000
SansNS
1071
0
  0
STYLE
  5
62
100
AcDbSymbolTableRecord
100
AcDbTextStyleTableRecord
  2
textstyle3
 70
0
 40
0.0
 41
1.0
 50
0.0
 71
0
 42
6.0
  3

  4

1001
ACAD
1000
SansNS
1071
0
  0
STYLE
  5
63
100
AcDbSymbolTableRecord
100
AcDbTextStyleTableRecord
  2
textstyle4
 70
0
 40
0.0
 41
1.0
 50
0.0
 71
0
 42
6.0
  3

  4

1001
ACAD
1000
SansNS
1071
0
  0
STYLE
  5
64
100
AcDbSymbolTableRecord
100
AcDbTextStyleTableRecord
  2
textstyle5
 70
0
 40
0.0
 41
1.0
 50
0.0
 71
0
 42
20.0
  3

  4

1001
ACAD
1000
SansNS
1071
0
  0
STYLE
  5
65
100
AcDbSymbolTableRecord
100
AcDbTextStyleTableRecord
  2
textstyle6
 70
0
 40
0.0
 41
1.0
 50
0.0
 71
0
 42
20.0
  3

  4

1001
ACAD
1000
SansNS
1071
0
  0
STYLE
  5
66
100
AcDbSymbolTableRecord
100
AcDbTextStyleTableRecord
  2
textstyle7
 70
0
 40
0.0
 41
1.0
 50
0.0
 71
0
 42
6.0
  3

  4

1001
ACAD
1000
SansNS
1071
0
  0
STYLE
  5
67
100
AcDbSymbolTableRecord
100
AcDbTextStyleTableRecord
  2
textstyle8
 70
0
 40
0.0
 41
1.0
 50
0.0
 71
0
 42
6.0
  3

  4

1001
ACAD
1000
SansNS
1071
0
  0
STYLE
  5
68
100
AcDbSymbolTableRecord
100
AcDbTextStyleTableRecord
  2
textstyle9
 70
0
 40
0.0
 41
1.0
 50
0.0
 71
0
 42
8.0
  3

  4

1001
ACAD
1000
SansNS
1071
0
  0
STYLE
  5
69
100
AcDbSymbolTableRecord
100
AcDbTextStyleTableRecord
  2
textstyle10
 70
0
 40
0.0
 41
1.0
 50
0.0
 71
0
 42
8.0
  3

  4

1001
ACAD
1000
SansNS
1071
0
  0
ENDTAB
  0
TABLE
  2
VIEW
  5
6
100
AcDbSymbolTable
 70
0
  0
ENDTAB
  0
TABLE
  2
UCS
  5
7
100
AcDbSymbolTable
 70
0
  0
ENDTAB
  0
TABLE
  2
APPID
  5
9
100
AcDbSymbolTable
 70
1
  0
APPID
  5
12
100
AcDbSymbolTableRecord
100
AcDbRegAppTableRecord
  2
ACAD
 70
0
  0
APPID
  5
6A
100
AcDbSymbolTableRecord
100
AcDbRegAppTableRecord
  2
QCAD
 70
0
  0
ENDTAB
  0
TABLE
  2
DIMSTYLE
  5
A
100
AcDbSymbolTable
 70
1
100
AcDbDimStyleTable
 71
0
  0
DIMSTYLE
105
27
100
AcDbSymbolTableRecord
100
AcDbDimStyleTableRecord
  2
Standard
 41
2.5
 42
0.625
 43
3.75
 44
1.25
 70
0
 73
0
 74
0
 77
1
 78
8
140
2.5
141
2.5
143
0.03937007874016
147
0.625
171
3
172
1
271
2
272
2
274
3
278
44
283
0
284
8
340
5E
  0
ENDTAB
  0
TABLE
  2
BLOCK_RECORD
  5
1
100
AcDbSymbolTable
 70
1
  0
BLOCK_RECORD
  5
1F
100
AcDbSymbolTableRecord
100
AcDbBlockTableRecord
  2
*Model_Space
340
22
  0
BLOCK_RECORD
  5
1B
100
AcDbSymbolTableRecord
100
AcDbBlockTableRecord
  2
*Paper_Space
340
1E
  0
BLOCK_RECORD
  5
23
100
AcDbSymbolTableRecord
100
AcDbBlockTableRecord
  2
*Paper_Space0
340
26
  0
BLOCK_RECORD
  5
6B
100
AcDbSymbolTableRecord
100
AcDbBlockTableRecord
  2
block 2
340
0
  0
ENDTAB
  0
ENDSEC
  0
SECTION
  2
BLOCKS
  0
BLOCK
  5
20
100
AcDbEntity
  8
0
100
AcDbBlockBegin
  2
*Model_Space
 70
0
 10
0.0
 20
0.0
 30
0.0
  3
*Model_Space
  1

  0
ENDBLK
  5
21
100
AcDbEntity
  8
0
100
AcDbBlockEnd
  0
BLOCK
  5
1C
100
AcDbEntity
 67
1
  8
0
100
AcDbBlockBegin
  2
*Paper_Space
 70
0
 10
0.0
 20
0.0
 30
0.0
  3
*Paper_Space
  1

  0
ENDBLK
  5
1D
100
AcDbEntity
 67
1
  8
0
100
AcDbBlockEnd
  0
BLOCK
  5
24
100
AcDbEntity
  8
0
100
AcDbBlockBegin
  2
*Paper_Space0
 70
0
 10
0.0
 20
0.0
 30
0.0
  3
*Paper_Space0
  1

  0
ENDBLK
  5
25
100
AcDbEntity
  8
0
100
AcDbBlockEnd
  0
BLOCK
  5
6C
100
AcDbEntity
  8
0
100
AcDbBlockBegin
  2
block 2
 70
0
 10
0.0
 20
0.0
 30
0.0
  3
block 2
  1

  0
ENDBLK
  5
6D
100
AcDbEntity
  8
0
100
AcDbBlockEnd
  0
ENDSEC
  0
SECTION
  2
ENTITIES
  0
INSERT
  5
6E
100
AcDbEntity
  8
doku
 62
256
370
-1
 48
1.0
  6
BYLAYER
100
AcDbBlockReference
  2
block 2
 10
0.6023458703997591
 20
229.7672485908201168
 30
0.0
 41
0.039316914
 42
0.039316914
 43
1.0
 50
90.0
  0
LINE
  5
6F
100
AcDbEntity
  8
doku
 62
256
370
-1
 48
1.0
  6
BYLAYER
100
AcDbLine
 10
0.0
 20
0.0
 30
0.0
 11
0.0
 21
600.0
 31
0.0
  0
LINE
  5
70
100
AcDbEntity
  8
doku
 62
256
370
-1
 48
1.0
  6
BYLAYER
100
AcDbLine
 10
182.6023458703998017
 20
317.0848999024087789
 30
0.0
 11
182.6023458703997449
 21
383.0848999024087789
 31
0.0
  0
LINE
  5
71
100
AcDbEntity
  8
doku
 62
256
370
-1
 48
1.0
  6
BYLAYER
100
AcDbLine
 10
182.6023458703998017
 20
227.0848999024088073
 30
0.0
 11
182.6023458703997449
 21
293.0848999024087789
 31
0.0
  0
LINE
  5
72
100
AcDbEntity
  8
doku
 62
256
370
-1
 48
1.0
  6
BYLAYER
100
AcDbLine
 10
600.0
 20
0.0
 30
0.0
 11
600.0
 21
600.0
 31
0.0
  0
LINE
  5
73
100
AcDbEntity
  8
doku
 62
256
370
-1
 48
1.0
  6
BYLAYER
100
AcDbLine
 10
0.0
 20
600.0
 30
0.0
 11
400.0
 21
600.0
 31
0.0
  0
LINE
  5
74
100
AcDbEntity
  8
doku
 62
256
370
-1
 48
1.0
  6
BYLAYER
100
AcDbLine
 10
185.6023458703997449
 20
386.0848999024087789
 30
0.0
 11
375.6023458703997449
 21
386.0848999024090062
 31
0.0
  0
LINE
  5
75
100
AcDbEntity
  8
doku
 62
256
370
-1
 48
1.0
  6
BYLAYER
100
AcDbLine
 10
185.6023458703997449
 20
296.0848999024087789
 30
0.0
 11
375.6023458703997449
 21
296.0848999024090062
 31
0.0
  0
LINE
  5
76
100
AcDbEntity
  8
doku
 62
256
370
-1
 48
1.0
  6
BYLAYER
100
AcDbLine
 10
600.0
 20
600.0
 30
0.0
 11
1000.0
 21
600.0
 31
0.0
  0
LINE
  5
77
100
AcDbEntity
  8
doku
 62
256
370
-1
 48
1.0
  6
BYLAYER
100
AcDbLine
 10
400.0
 20
600.0
 30
0.0
 11
400.0
 21
0.0
 31
0.0
  0
LINE
  5
78
100
AcDbEntity
  8
doku
 62
256
370
-1
 48
1.0
  6
BYLAYER
100
AcDbLine
 10
378.6023458703997449
 20
383.0848999024087789
 30
0.0
 11
378.6023458703997449
 21
317.0848999024088926
 31
0.0
  0
LINE
  5
79
100
AcDbEntity
  8
doku
 62
256
370
-1
 48
1.0
  6
BYLAYER
100
AcDbLine
 10
378.6023458703997449
 20
293.0848999024087789
 30
0.0
 11
378.6023458703997449
 21
227.084899902408921
 31
0.0
  0
LINE
  5
7A
100
AcDbEntity
  8
doku
 62
256
370
-1
 48
1.0
  6
BYLAYER
100
AcDbLine
 10
1000.0
 20
600.0
 30
0.0
 11
1000.0
 21
0.0
 31
0.0
  0
LINE
  5
7B
100
AcDbEntity
  8
doku
 62
256
370
-1
 48
1.0
  6
BYLAYER
100
AcDbLine
 10
400.0
 20
0.0
 30
0.0
 11
0.0
 21
0.0
 31
0.0
  0
LINE
  5
7C
100
AcDbEntity
  8
doku
 62
256
370
-1
 48
1.0
  6
BYLAYER
100
AcDbLine
 10
375.6023458703997449
 20
314.0848999024087789
 30
0.0
 11
185.6023458703997449
 21
314.0848999024087789
 31
0.0
  0
LINE
  5
7D
100
AcDbEntity
  8
doku
 62
256
370
-1
 48
1.0
  6
BYLAYER
100
AcDbLine
 10
375.6023458703997449
 20
224.0848999024088073
 30
0.0
 11
185.6023458703997449
 21
224.0848999024088073
 31
0.0
  0
LINE
  5
7E
100
AcDbEntity
  8
doku
 62
256
370
-1
 48
1.0
  6
BYLAYER
100
AcDbLine
 10
1000.0
 20
0.0
 30
0.0
 11
600.0
 21
0.0
 31
0.0
  0
ARC
  5
7F
100
AcDbEntity
  8
doku
 62
256
370
-1
 48
1.0
  6
BYLAYER
100
AcDbCircle
 10
185.6023458703998017
 20
317.0848999024087789
 30
0.0
 40
3.0
100
AcDbArc
 50
180.0
 51
270.0
  0
ARC
  5
80
100
AcDbEntity
  8
doku
 62
256
370
-1
 48
1.0
  6
BYLAYER
100
AcDbCircle
 10
185.6023458703998017
 20
227.0848999024088073
 30
0.0
 40
3.0
100
AcDbArc
 50
180.0
 51
270.0
  0
ARC
  5
81
100
AcDbEntity
  8
doku
 62
256
370
-1
 48
1.0
  6
BYLAYER
100
AcDbCircle
 10
185.6023458703997449
 20
383.0848999024087789
 30
0.0
 40
3.0
100
AcDbArc
 50
90.0000000000000142
 51
180.0
  0
ARC
  5
82
100
AcDbEntity
  8
doku
 62
256
370
-1
 48
1.0
  6
BYLAYER
100
AcDbCircle
 10
185.6023458703997449
 20
293.0848999024087789
 30
0.0
 40
3.0
100
AcDbArc
 50
90.0000000000000142
 51
180.0
  0
ARC
  5
83
100
AcDbEntity
  8
doku
 62
256
370
-1
 48
1.0
  6
BYLAYER
100
AcDbCircle
 10
375.6023458703997449
 20
383.0848999024087789
 30
0.0
 40
3.0000000000000142
100
AcDbArc
 50
0.0
 51
90.0000000000000142
  0
ARC
  5
84
100
AcDbEntity
  8
doku
 62
256
370
-1
 48
1.0
  6
BYLAYER
100
AcDbCircle
 10
375.6023458703997449
 20
293.0848999024087789
 30
0.0
 40
3.0000000000000142
100
AcDbArc
 50
0.0
 51
90.0000000000000142
  0
CIRCLE
  5
85
100
AcDbEntity
  8
l\U+00f6cher
 62
256
370
-1
 48
1.0
  6
BYLAYER
100
AcDbCircle
 10
67.0
 20
45.0
 30
0.0
 40
4.0
  0
CIRCLE
  5
86
100
AcDbEntity
  8
l\U+00f6cher
 62
256
370
-1
 48
1.0
  6
BYLAYER
100
AcDbCircle
 10
333.0
 20
44.9999999999999218
 30
0.0
 40
4.0
  0
ARC
  5
87
100
AcDbEntity
  8
doku
 62
256
370
-1
 48
1.0
  6
BYLAYER
100
AcDbCircle
 10
375.6023458703997449
 20
317.0848999024087789
 30
0.0
 40
3.0
100
AcDbArc
 50
270.0
 51
0.0
  0
ARC
  5
88
100
AcDbEntity
  8
doku
 62
256
370
-1
 48
1.0
  6
BYLAYER
100
AcDbCircle
 10
375.6023458703997449
 20
227.0848999024088073
 30
0.0
 40
3.0
100
AcDbArc
 50
270.0
 51
0.0
  0
CIRCLE
  5
89
100
AcDbEntity
  8
l\U+00f6cher
 62
256
370
-1
 48
1.0
  6
BYLAYER
100
AcDbCircle
 10
67.0
 20
125.0
 30
0.0
 40
4.0
  0
CIRCLE
  5
8A
100
AcDbEntity
  8
l\U+00f6cher
 62
256
370
-1
 48
1.0
  6
BYLAYER
100
AcDbCircle
 10
333.0
 20
124.9999999999999716
 30
0.0
 40
4.0
  0
ARC
  5
8B
100
AcDbEntity
  8
doku
 62
256
370
-1
 48
1.0
  6
BYLAYER
100
AcDbCircle
 10
244.1023458703997449
 20
392.0848999024087789
 30
0.0
 40
6.0
100
AcDbArc
 50
0.0
 51
180.0
  0
ARC
  5
8C
100
AcDbEntity
  8
doku
 62
256
370
-1
 48
1.0
  6
BYLAYER
100
AcDbCircle
 10
318.6023458703997449
 20
392.0848999024088926
 30
0.0
 40
6.0
100
AcDbArc
 50
0.0
 51
180.0
  0
ARC
  5
8D
100
AcDbEntity
  8
doku
 62
256
370
-1
 48
1.0
  6
BYLAYER
100
AcDbCircle
 10
384.6023458703997449
 20
357.0848999024086652
 30
0.0
 40
6.0
100
AcDbArc
 50
270.0
 51
90.0000000000000142
  0
ARC
  5
8E
100
AcDbEntity
  8
doku
 62
256
370
-1
 48
1.0
  6
BYLAYER
100
AcDbCircle
 10
176.6023458703997449
 20
357.0848999024087789
 30
0.0
 40
6.0
100
AcDbArc
 50
90.0000000000000142
 51
270.0
  0
ARC
  5
8F
100
AcDbEntity
  8
doku
 62
256
370
-1
 48
1.0
  6
BYLAYER
100
AcDbCircle
 10
244.1023458703997449
 20
302.0848999024087789
 30
0.0
 40
6.0
100
AcDbArc
 50
0.0
 51
180.0
  0
ARC
  5
90
100
AcDbEntity
  8
doku
 62
256
370
-1
 48
1.0
  6
BYLAYER
100
AcDbCircle
 10
318.6023458703997449
 20
302.0848999024088926
 30
0.0
 40
6.0
100
AcDbArc
 50
0.0
 51
180.0
  0
ARC
  5
91
100
AcDbEntity
  8
doku
 62
256
370
-1
 48
1.0
  6
BYLAYER
100
AcDbCircle
 10
384.6023458703997449
 20
267.0848999024086652
 30
0.0
 40
6.0
100
AcDbArc
 50
270.0
 51
90.0000000000000142
  0
ARC
  5
92
100
AcDbEntity
  8
doku
 62
256
370
-1
 48
1.0
  6
BYLAYER
100
AcDbCircle
 10
176.6023458703997449
 20
267.0848999024087789
 30
0.0
 40
6.0
100
AcDbArc
 50
90.0000000000000142
 51
270.0
  0
CIRCLE
  5
93
100
AcDbEntity
  8
l\U+00f6cher
 62
256
370
-1
 48
1.0
  6
BYLAYER
100
AcDbCircle
 10
17.0
 20
125.0
 30
0.0
 40
4.0
  0
CIRCLE
  5
94
100
AcDbEntity
  8
l\U+00f6cher
 62
256
370
-1
 48
1.0
  6
BYLAYER
100
AcDbCircle
 10
383.0
 20
125.0000000000000284
 30
0.0
 40
4.0
  0
CIRCLE
  5
95
100
AcDbEntity
  8
doku
 62
256
370
-1
 48
1.0
  6
BYLAYER
100
AcDbCircle
 10
244.1023458703997449
 20
392.0848999024087789
 30
0.0
 40
3.0
  0
CIRCLE
  5
96
100
AcDbEntity
  8
doku
 62
256
370
-1
 48
1.0
  6
BYLAYER
100
AcDbCircle
 10
318.6023458703997449
 20
392.0848999024088926
 30
0.0
 40
3.0
  0
CIRCLE
  5
97
100
AcDbEntity
  8
doku
 62
256
370
-1
 48
1.0
  6
BYLAYER
100
AcDbCircle
 10
384.6023458703997449
 20
357.0848999024086652
 30
0.0
 40
3.0
  0
CIRCLE
  5
98
100
AcDbEntity
  8
doku
 62
256
370
-1
 48
1.0
  6
BYLAYER
100
AcDbCircle
 10
176.6023458703997449
 20
357.0848999024087789
 30
0.0
 40
3.0
  0
CIRCLE
  5
99
100
AcDbEntity
  8
doku
 62
256
370
-1
 48
1.0
  6
BYLAYER
100
AcDbCircle
 10
244.1023458703997449
 20
302.0848999024087789
 30
0.0
 40
3.0
  0
CIRCLE
  5
9A
100
AcDbEntity
  8
doku
 62
256
370
-1
 48
1.0
  6
BYLAYER
100
AcDbCircle
 10
318.6023458703997449
 20
302.0848999024088926
 30
0.0
 40
3.0
  0
CIRCLE
  5
9B
100
AcDbEntity
  8
doku
 62
256
370
-1
 48
1.0
  6
BYLAYER
100
AcDbCircle
 10
384.6023458703997449
 20
267.0848999024086652
 30
0.0
 40
3.0
  0
CIRCLE
  5
9C
100
AcDbEntity
  8
doku
 62
256
370
-1
 48
1.0
  6
BYLAYER
100
AcDbCircle
 10
176.6023458703997449
 20
267.0848999024087789
 30
0.0
 40
3.0
  0
CIRCLE
  5
9D
100
AcDbEntity
  8
l\U+00f6cher
 62
256
370
-1
 48
1.0
  6
BYLAYER
100
AcDbCircle
 10
17.0
 20
45.0
 30
0.0
 40
4.0
  0
CIRCLE
  5
9E
100
AcDbEntity
  8
l\U+00f6cher
 62
256
370
-1
 48
1.0
  6
BYLAYER
100
AcDbCircle
 10
383.0
 20
44.9999999999999076
 30
0.0
 40
4.0
  0
LINE
  5
9F
100
AcDbEntity
  8
doku
 62
256
370
-1
 48
1.0
  6
BYLAYER
100
AcDbLine
 10
250.1023458703997449
 20
392.0848999024087789
 30
0.0
 11
250.1023458703997449
 21
386.0848999024088926
 31
0.0
  0
LINE
  5
A0
100
AcDbEntity
  8
doku
 62
256
370
-1
 48
1.0
  6
BYLAYER
100
AcDbLine
 10
324.6023458703997449
 20
392.0848999024088926
 30
0.0
 11
324.6023458703997449
 21
386.0848999024087789
 31
0.0
  0
LINE
  5
A1
100
AcDbEntity
  8
doku
 62
256
370
-1
 48
1.0
  6
BYLAYER
100
AcDbLine
 10
384.6023458703997449
 20
351.0848999024082104
 30
0.0
 11
378.6023458703997449
 21
351.0848999024083241
 31
0.0
  0
LINE
  5
A2
100
AcDbEntity
  8
doku
 62
256
370
-1
 48
1.0
  6
BYLAYER
100
AcDbLine
 10
176.6023458703998017
 20
363.0848999024087789
 30
0.0
 11
182.6023458703997449
 21
363.0848999024087789
 31
0.0
  0
LINE
  5
A3
100
AcDbEntity
  8
doku
 62
256
370
-1
 48
1.0
  6
BYLAYER
100
AcDbLine
 10
250.1023458703997449
 20
302.0848999024087789
 30
0.0
 11
250.1023458703997449
 21
296.0848999024088926
 31
0.0
  0
LINE
  5
A4
100
AcDbEntity
  8
doku
 62
256
370
-1
 48
1.0
  6
BYLAYER
100
AcDbLine
 10
324.6023458703997449
 20
302.0848999024088926
 30
0.0
 11
324.6023458703997449
 21
296.0848999024087789
 31
0.0
  0
LINE
  5
A5
100
AcDbEntity
  8
doku
 62
256
370
-1
 48
1.0
  6
BYLAYER
100
AcDbLine
 10
384.6023458703997449
 20
261.0848999024082104
 30
0.0
 11
378.6023458703997449
 21
261.0848999024083241
 31
0.0
  0
LINE
  5
A6
100
AcDbEntity
  8
doku
 62
256
370
-1
 48
1.0
  6
BYLAYER
100
AcDbLine
 10
176.6023458703998017
 20
273.0848999024087789
 30
0.0
 11
182.6023458703997449
 21
273.0848999024087789
 31
0.0
  0
CIRCLE
  5
A7
100
AcDbEntity
  8
l\U+00f6cher
 62
256
370
-1
 48
1.0
  6
BYLAYER
100
AcDbCircle
 10
36.0
 20
510.0
 30
0.0
 40
4.0
  0
CIRCLE
  5
A8
100
AcDbEntity
  8
l\U+00f6cher
 62
256
370
-1
 48
1.0
  6
BYLAYER
100
AcDbCircle
 10
86.0
 20
510.0
 30
0.0
 40
4.0
  0
CIRCLE
  5
A9
100
AcDbEntity
  8
l\U+00f6cher
 62
256
370
-1
 48
1.0
  6
BYLAYER
100
AcDbCircle
 10
86.0
 20
560.0
 30
0.0
 40
4.0
  0
CIRCLE
  5
AA
100
AcDbEntity
  8
l\U+00f6cher
 62
256
370
-1
 48
1.0
  6
BYLAYER
100
AcDbCircle
 10
36.0
 20
560.0
 30
0.0
 40
4.0
  0
CIRCLE
  5
AB
100
AcDbEntity
  8
l\U+00f6cher
 62
256
370
-1
 48
1.0
  6
BYLAYER
100
AcDbCircle
 10
314.0
 20
560.0
 30
0.0
 40
4.0
  0
CIRCLE
  5
AC
100
AcDbEntity
  8
l\U+00f6cher
 62
256
370
-1
 48
1.0
  6
BYLAYER
100
AcDbCircle
 10
364.0
 20
509.9999999999998863
 30
0.0
 40
4.0
  0
CIRCLE
  5
AD
100
AcDbEntity
  8
l\U+00f6cher
 62
256
370
-1
 48
1.0
  6
BYLAYER
100
AcDbCircle
 10
364.0
 20
560.0
 30
0.0
 40
4.0
  0
CIRCLE
  5
AE
100
AcDbEntity
  8
l\U+00f6cher
 62
256
370
-1
 48
1.0
  6
BYLAYER
100
AcDbCircle
 10
314.0
 20
510.0
 30
0.0
 40
4.0
  0
LINE
  5
AF
100
AcDbEntity
  8
doku
 62
256
370
-1
 48
1.0
  6
BYLAYER
100
AcDbLine
 10
238.1023458703997449
 20
392.0848999024087789
 30
0.0
 11
238.1023458703997449
 21
386.0848999024087789
 31
0.0
  0
LINE
  5
B0
100
AcDbEntity
  8
doku
 62
256
370
-1
 48
1.0
  6
BYLAYER
100
AcDbLine
 10
312.6023458703997449
 20
392.0848999024087789
 30
0.0
 11
312.6023458703997449
 21
386.0848999024088926
 31
0.0
  0
LINE
  5
B1
100
AcDbEntity
  8
doku
 62
256
370
-1
 48
1.0
  6
BYLAYER
100
AcDbLine
 10
384.6023458703997449
 20
363.0848999024086652
 30
0.0
 11
378.6023458703997449
 21
363.0848999024088926
 31
0.0
  0
LINE
  5
B2
100
AcDbEntity
  8
doku
 62
256
370
-1
 48
1.0
  6
BYLAYER
100
AcDbLine
 10
176.6023458703997449
 20
351.0848999024088926
 30
0.0
 11
182.6023458703997449
 21
351.0848999024088926
 31
0.0
  0
LINE
  5
B3
100
AcDbEntity
  8
doku
 62
256
370
-1
 48
1.0
  6
BYLAYER
100
AcDbLine
 10
238.1023458703997449
 20
302.0848999024087789
 30
0.0
 11
238.1023458703997449
 21
296.0848999024087789
 31
0.0
  0
LINE
  5
B4
100
AcDbEntity
  8
doku
 62
256
370
-1
 48
1.0
  6
BYLAYER
100
AcDbLine
 10
312.6023458703997449
 20
302.0848999024087789
 30
0.0
 11
312.6023458703997449
 21
296.0848999024088926
 31
0.0
  0
LINE
  5
B5
100
AcDbEntity
  8
doku
 62
256
370
-1
 48
1.0
  6
BYLAYER
100
AcDbLine
 10
384.6023458703997449
 20
273.0848999024086652
 30
0.0
 11
378.6023458703997449
 21
273.0848999024088926
 31
0.0
  0
LINE
  5
B6
100
AcDbEntity
  8
doku
 62
256
370
-1
 48
1.0
  6
BYLAYER
100
AcDbLine
 10
176.6023458703997449
 20
261.0848999024088926
 30
0.0
 11
182.6023458703997449
 21
261.0848999024088926
 31
0.0
  0
LINE
  5
B7
100
AcDbEntity
  8
doku
 62
256
370
-1
 48
1.0
  6
BYLAYER
100
AcDbLine
 10
66.6681121587468084
 20
311.9004838932199846
 30
0.0
 11
66.6681121587468084
 21
227.9004838932198993
 31
0.0
  0
LINE
  5
B8
100
AcDbEntity
  8
doku
 62
256
370
-1
 48
1.0
  6
BYLAYER
100
AcDbLine
 10
66.6681121587468084
 20
311.9004838932199846
 30
0.0
 11
66.6681121587468084
 21
395.9004838932199846
 31
0.0
  0
LINE
  5
B9
100
AcDbEntity
  8
doku
 62
256
370
-1
 48
1.0
  6
BYLAYER
100
AcDbLine
 10
66.6681121587468084
 20
227.9004838932198993
 30
0.0
 11
86.6681121587468084
 21
227.9004838932199277
 31
0.0
  0
LINE
  5
BA
100
AcDbEntity
  8
doku
 62
256
370
-1
 48
1.0
  6
BYLAYER
100
AcDbLine
 10
66.6681121587468084
 20
395.9004838932199846
 30
0.0
 11
86.6681121587468652
 21
395.9004838932199846
 31
0.0
  0
LINE
  5
BB
100
AcDbEntity
  8
6mm
 62
256
370
-1
 48
1.0
  6
BYLAYER
100
AcDbLine
 10
185.6023458703997449
 20
313.0848999024087789
 30
0.0
 11
375.6023458703997449
 21
313.0848999024087789
 31
0.0
  0
LINE
  5
BC
100
AcDbEntity
  8
6mm
 62
256
370
-1
 48
1.0
  6
BYLAYER
100
AcDbLine
 10
185.6023458703997449
 20
223.0848999024088073
 30
0.0
 11
375.6023458703997449
 21
223.0848999024088073
 31
0.0
  0
LINE
  5
BD
100
AcDbEntity
  8
doku
 62
256
370
-1
 48
1.0
  6
BYLAYER
100
AcDbLine
 10
86.6681121587468084
 20
227.9004838932199277
 30
0.0
 11
86.6681121587468084
 21
239.9004838932199277
 31
0.0
  0
LINE
  5
BE
100
AcDbEntity
  8
doku
 62
256
370
-1
 48
1.0
  6
BYLAYER
100
AcDbLine
 10
86.6681121587468652
 20
395.9004838932199846
 30
0.0
 11
86.6681121587468084
 21
383.9004838932199846
 31
0.0
  0
LINE
  5
BF
100
AcDbEntity
  8
6mm
 62
256
370
-1
 48
1.0
  6
BYLAYER
100
AcDbLine
 10
378.6023458703997449
 20
316.0848999024087789
 30
0.0
 11
378.6023458703997449
 21
384.0848999024087789
 31
0.0
  0
LINE
  5
C0
100
AcDbEntity
  8
6mm
 62
256
370
-1
 48
1.0
  6
BYLAYER
100
AcDbLine
 10
378.6023458703997449
 20
226.0848999024088073
 30
0.0
 11
378.6023458703997449
 21
294.0848999024087789
 31
0.0
  0
LINE
  5
C1
100
AcDbEntity
  8
doku
 62
256
370
-1
 48
1.0
  6
BYLAYER
100
AcDbLine
 10
86.6681121587468084
 20
239.9004838932199277
 30
0.0
 11
133.668112158746851
 21
239.9004838932199277
 31
0.0
  0
LINE
  5
C2
100
AcDbEntity
  8
doku
 62
256
370
-1
 48
1.0
  6
BYLAYER
100
AcDbLine
 10
86.6681121587468084
 20
383.9004838932199846
 30
0.0
 11
133.6681121587467374
 21
383.9004838932199846
 31
0.0
  0
LINE
  5
C3
100
AcDbEntity
  8
6mm
 62
256
370
-1
 48
1.0
  6
BYLAYER
100
AcDbLine
 10
375.6023458703997449
 20
387.0848999024087789
 30
0.0
 11
185.6023458703997449
 21
387.0848999024087789
 31
0.0
  0
LINE
  5
C4
100
AcDbEntity
  8
6mm
 62
256
370
-1
 48
1.0
  6
BYLAYER
100
AcDbLine
 10
375.6023458703997449
 20
297.0848999024087789
 30
0.0
 11
185.6023458703997449
 21
297.0848999024087789
 31
0.0
  0
CIRCLE
  5
C5
100
AcDbEntity
  8
doku
 62
256
370
-1
 48
1.0
  6
BYLAYER
100
AcDbCircle
 10
78.0634303124461582
 20
233.9004838932199277
 30
0.0
 40
2.5
  0
CIRCLE
  5
C6
100
AcDbEntity
  8
doku
 62
256
370
-1
 48
1.0
  6
BYLAYER
100
AcDbCircle
 10
130.6681121587467942
 20
245.9004838932199277
 30
0.0
 40
2.5
  0
CIRCLE
  5
C7
100
AcDbEntity
  8
doku
 62
256
370
-1
 48
1.0
  6
BYLAYER
100
AcDbCircle
 10
130.6681121587467942
 20
377.9004838932199846
 30
0.0
 40
2.5
  0
CIRCLE
  5
C8
100
AcDbEntity
  8
doku
 62
256
370
-1
 48
1.0
  6
BYLAYER
100
AcDbCircle
 10
78.0634303124461582
 20
389.9004838932199846
 30
0.0
 40
2.5
  0
ARC
  5
C9
100
AcDbEntity
  8
6mm
 62
256
370
-1
 48
1.0
  6
BYLAYER
100
AcDbCircle
 10
185.6023458703997449
 20
384.0848999024087789
 30
0.0
 40
3.0
100
AcDbArc
 50
90.0
 51
180.0
  0
ARC
  5
CA
100
AcDbEntity
  8
6mm
 62
256
370
-1
 48
1.0
  6
BYLAYER
100
AcDbCircle
 10
185.6023458703997449
 20
294.0848999024087789
 30
0.0
 40
3.0
100
AcDbArc
 50
90.0
 51
180.0
  0
LINE
  5
CB
100
AcDbEntity
  8
doku
 62
256
370
-1
 48
1.0
  6
BYLAYER
100
AcDbLine
 10
133.668112158746851
 20
239.9004838932199277
 30
0.0
 11
159.6681121587467942
 21
265.9004838932199846
 31
0.0
  0
LINE
  5
CC
100
AcDbEntity
  8
doku
 62
256
370
-1
 48
1.0
  6
BYLAYER
100
AcDbLine
 10
133.6681121587467374
 20
383.9004838932199846
 30
0.0
 11
159.6681121587467942
 21
357.9004838932199846
 31
0.0
  0
ARC
  5
CD
100
AcDbEntity
  8
6mm
 62
256
370
-1
 48
1.0
  6
BYLAYER
100
AcDbCircle
 10
185.6023458703997449
 20
316.0848999024087789
 30
0.0
 40
3.0
100
AcDbArc
 50
180.0
 51
270.0
  0
ARC
  5
CE
100
AcDbEntity
  8
6mm
 62
256
370
-1
 48
1.0
  6
BYLAYER
100
AcDbCircle
 10
185.6023458703997449
 20
226.0848999024088073
 30
0.0
 40
3.0
100
AcDbArc
 50
180.0
 51
270.0
  0
LINE
  5
CF
100
AcDbEntity
  8
doku
 62
256
370
-1
 48
1.0
  6
BYLAYER
100
AcDbLine
 10
159.6681121587467942
 20
265.9004838932199846
 30
0.0
 11
159.6681121587467942
 21
311.9004838932199846
 31
0.0
  0
LINE
  5
D0
100
AcDbEntity
  8
doku
 62
256
370
-1
 48
1.0
  6
BYLAYER
100
AcDbLine
 10
159.6681121587467942
 20
357.9004838932199846
 30
0.0
 11
159.6681121587467942
 21
311.9004838932199846
 31
0.0
  0
ARC
  5
D1
100
AcDbEntity
  8
6mm
 62
256
370
-1
 48
1.0
  6
BYLAYER
100
AcDbCircle
 10
375.6023458703997449
 20
316.0848999024087789
 30
0.0
 40
3.0
100
AcDbArc
 50
270.0
 51
0.0
  0
ARC
  5
D2
100
AcDbEntity
  8
6mm
 62
256
370
-1
 48
1.0
  6
BYLAYER
100
AcDbCircle
 10
375.6023458703997449
 20
226.0848999024088073
 30
0.0
 40
3.0
100
AcDbArc
 50
270.0
 51
0.0
  0
ARC
  5
D3
100
AcDbEntity
  8
6mm
 62
256
370
-1
 48
1.0
  6
BYLAYER
100
AcDbCircle
 10
375.6023458703997449
 20
384.0848999024087789
 30
0.0
 40
2.9999999999999716
100
AcDbArc
 50
0.0
 51
90.0
  0
ARC
  5
D4
100
AcDbEntity
  8
6mm
 62
256
370
-1
 48
1.0
  6
BYLAYER
100
AcDbCircle
 10
375.6023458703997449
 20
294.0848999024087789
 30
0.0
 40
2.9999999999999716
100
AcDbArc
 50
0.0
 51
90.0
  0
MTEXT
  5
D5
100
AcDbEntity
  8
6mm
 62
256
370
-1
 48
1.0
  6
BYLAYER
100
AcDbMText
 10
388.6412576282933742
 20
330.381206783281641
 30
0.0
 40
6.0
 41
0.0
 71
1
 72
1
  1
6mm\P
  7
textstyle2
 50
270.0
 73
2
 44
1.0
  0
MTEXT
  5
D6
100
AcDbEntity
  8
6mm
 62
256
370
-1
 48
1.0
  6
BYLAYER
100
AcDbMText
 10
388.6412576282933742
 20
240.3812067832816695
 30
0.0
 40
6.0
 41
0.0
 71
1
 72
1
  1
6mm\P
  7
textstyle3
 50
270.0
 73
2
 44
1.0
  0
LINE
  5
D7
100
AcDbEntity
  8
12mm
 62
256
370
-1
 48
1.0
  6
BYLAYER
100
AcDbLine
 10
172.6023458703997449
 20
346.0848999024087789
 30
0.0
 11
172.6023458703997449
 21
336.0848999024087789
 31
0.0
  0
LINE
  5
D8
100
AcDbEntity
  8
12mm
 62
256
370
-1
 48
1.0
  6
BYLAYER
100
AcDbLine
 10
172.6023458703997449
 20
256.0848999024087789
 30
0.0
 11
172.6023458703997449
 21
246.0848999024088073
 31
0.0
  0
LINE
  5
D9
100
AcDbEntity
  8
12mm
 62
256
370
-1
 48
1.0
  6
BYLAYER
100
AcDbLine
 10
175.6023458703997449
 20
333.0848999024087789
 30
0.0
 11
189.6023458703997449
 21
333.0848999024087789
 31
0.0
  0
LINE
  5
DA
100
AcDbEntity
  8
12mm
 62
256
370
-1
 48
1.0
  6
BYLAYER
100
AcDbLine
 10
175.6023458703997449
 20
243.0848999024088073
 30
0.0
 11
189.6023458703997449
 21
243.0848999024088073
 31
0.0
  0
LINE
  5
DB
100
AcDbEntity
  8
6mm
 62
256
370
-1
 48
1.0
  6
BYLAYER
100
AcDbLine
 10
182.6023458703997449
 20
352.0848999024087789
 30
0.0
 11
182.6023458703997449
 21
316.0848999024087789
 31
0.0
  0
LINE
  5
DC
100
AcDbEntity
  8
6mm
 62
256
370
-1
 48
1.0
  6
BYLAYER
100
AcDbLine
 10
182.6023458703997449
 20
262.0848999024087789
 30
0.0
 11
182.6023458703997449
 21
226.0848999024088073
 31
0.0
  0
LINE
  5
DD
100
AcDbEntity
  8
12mm
 62
256
370
-1
 48
1.0
  6
BYLAYER
100
AcDbLine
 10
175.6023458703997449
 20
349.0848999024087789
 30
0.0
 11
189.6023458703997449
 21
349.0848999024087789
 31
0.0
  0
LINE
  5
DE
100
AcDbEntity
  8
12mm
 62
256
370
-1
 48
1.0
  6
BYLAYER
100
AcDbLine
 10
175.6023458703997449
 20
259.0848999024087789
 30
0.0
 11
189.6023458703997449
 21
259.0848999024087789
 31
0.0
  0
LINE
  5
DF
100
AcDbEntity
  8
6mm
 62
256
370
-1
 48
1.0
  6
BYLAYER
100
AcDbLine
 10
182.6023458703997449
 20
352.0848999024087789
 30
0.0
 11
182.6023458703997449
 21
384.0848999024087789
 31
0.0
  0
LINE
  5
E0
100
AcDbEntity
  8
6mm
 62
256
370
-1
 48
1.0
  6
BYLAYER
100
AcDbLine
 10
182.6023458703997449
 20
262.0848999024087789
 30
0.0
 11
182.6023458703997449
 21
294.0848999024087789
 31
0.0
  0
LINE
  5
E1
100
AcDbEntity
  8
doku
 62
256
370
-1
 48
1.0
  6
BYLAYER
100
AcDbLine
 10
2.0
 20
135.0
 30
0.0
 11
72.0
 21
135.0
 31
0.0
  0
LINE
  5
E2
100
AcDbEntity
  8
doku
 62
256
370
-1
 48
1.0
  6
BYLAYER
100
AcDbLine
 10
398.0
 20
134.9999999999999432
 30
0.0
 11
328.0
 21
135.0
 31
0.0
  0
ARC
  5
E3
100
AcDbEntity
  8
12mm
 62
256
370
-1
 48
1.0
  6
BYLAYER
100
AcDbCircle
 10
175.6023458703997449
 20
346.0848999024087789
 30
0.0
 40
3.0
100
AcDbArc
 50
90.0
 51
180.0
  0
ARC
  5
E4
100
AcDbEntity
  8
12mm
 62
256
370
-1
 48
1.0
  6
BYLAYER
100
AcDbCircle
 10
175.6023458703997449
 20
256.0848999024087789
 30
0.0
 40
3.0
100
AcDbArc
 50
90.0
 51
180.0
  0
ARC
  5
E5
100
AcDbEntity
  8
12mm
 62
256
370
-1
 48
1.0
  6
BYLAYER
100
AcDbCircle
 10
175.6023458703997449
 20
336.0848999024087789
 30
0.0
 40
3.0
100
AcDbArc
 50
180.0
 51
270.0
  0
ARC
  5
E6
100
AcDbEntity
  8
12mm
 62
256
370
-1
 48
1.0
  6
BYLAYER
100
AcDbCircle
 10
175.6023458703997449
 20
246.0848999024088073
 30
0.0
 40
3.0
100
AcDbArc
 50
180.0
 51
270.0
  0
LINE
  5
E7
100
AcDbEntity
  8
doku
 62
256
370
-1
 48
1.0
  6
BYLAYER
100
AcDbLine
 10
77.0
 20
130.0
 30
0.0
 11
77.0
 21
40.0
 31
0.0
  0
LINE
  5
E8
100
AcDbEntity
  8
doku
 62
256
370
-1
 48
1.0
  6
BYLAYER
100
AcDbLine
 10
323.0000000000000568
 20
129.9999999999999716
 30
0.0
 11
323.0
 21
39.9999999999999716
 31
0.0
  0
ARC
  5
E9
100
AcDbEntity
  8
12mm
 62
256
370
-1
 48
1.0
  6
BYLAYER
100
AcDbCircle
 10
189.6023458703997449
 20
330.0848999024087789
 30
0.0
 40
3.0
100
AcDbArc
 50
354.6986758606766443
 51
90.0
  0
ARC
  5
EA
100
AcDbEntity
  8
12mm
 62
256
370
-1
 48
1.0
  6
BYLAYER
100
AcDbCircle
 10
189.6023458703997449
 20
240.0848999024088073
 30
0.0
 40
3.0
100
AcDbArc
 50
354.6986758606766443
 51
90.0
  0
ARC
  5
EB
100
AcDbEntity
  8
12mm
 62
256
370
-1
 48
1.0
  6
BYLAYER
100
AcDbCircle
 10
189.6023458703997449
 20
352.0848999024087789
 30
0.0
 40
3.0
100
AcDbArc
 50
270.0
 51
0.0
  0
ARC
  5
EC
100
AcDbEntity
  8
12mm
 62
256
370
-1
 48
1.0
  6
BYLAYER
100
AcDbCircle
 10
189.6023458703997449
 20
262.0848999024087789
 30
0.0
 40
3.0
100
AcDbArc
 50
270.0
 51
0.0
  0
LINE
  5
ED
100
AcDbEntity
  8
doku
 62
256
370
-1
 48
1.0
  6
BYLAYER
100
AcDbLine
 10
72.0
 20
35.0
 30
0.0
 11
2.0
 21
35.0
 31
0.0
  0
LINE
  5
EE
100
AcDbEntity
  8
doku
 62
256
370
-1
 48
1.0
  6
BYLAYER
100
AcDbLine
 10
328.0
 20
34.9999999999999076
 30
0.0
 11
398.0
 21
34.9999999999999858
 31
0.0
  0
LINE
  5
EF
100
AcDbEntity
  8
12mm
 62
256
370
-1
 48
1.0
  6
BYLAYER
100
AcDbLine
 10
192.6023458703997449
 20
352.0848999024087789
 30
0.0
 11
192.6023458703997449
 21
382.0848999024087789
 31
0.0
  0
LINE
  5
F0
100
AcDbEntity
  8
12mm
 62
256
370
-1
 48
1.0
  6
BYLAYER
100
AcDbLine
 10
192.6023458703997449
 20
262.0848999024087789
 30
0.0
 11
192.6023458703997449
 21
292.0848999024087789
 31
0.0
  0
LINE
  5
F1
100
AcDbEntity
  8
12mm
 62
256
370
-1
 48
1.0
  6
BYLAYER
100
AcDbLine
 10
195.6023458703997449
 20
385.0848999024087789
 30
0.0
 11
220.6023458703997449
 21
385.0848999024087789
 31
0.0
  0
LINE
  5
F2
100
AcDbEntity
  8
12mm
 62
256
370
-1
 48
1.0
  6
BYLAYER
100
AcDbLine
 10
195.6023458703997449
 20
295.0848999024087789
 30
0.0
 11
220.6023458703997449
 21
295.0848999024087789
 31
0.0
  0
LINE
  5
F3
100
AcDbEntity
  8
12mm
 62
256
370
-1
 48
1.0
  6
BYLAYER
100
AcDbLine
 10
223.6023458703997449
 20
382.0848999024087789
 30
0.0
 11
223.6023458703997449
 21
354.0848999024087789
 31
0.0
  0
LINE
  5
F4
100
AcDbEntity
  8
12mm
 62
256
370
-1
 48
1.0
  6
BYLAYER
100
AcDbLine
 10
223.6023458703997449
 20
292.0848999024087789
 30
0.0
 11
223.6023458703997449
 21
264.0848999024087789
 31
0.0
  0
LINE
  5
F5
100
AcDbEntity
  8
12mm
 62
256
370
-1
 48
1.0
  6
BYLAYER
100
AcDbLine
 10
226.6023458703997449
 20
351.0848999024087789
 30
0.0
 11
279.6023458703997449
 21
351.0848999024087789
 31
0.0
  0
LINE
  5
F6
100
AcDbEntity
  8
12mm
 62
256
370
-1
 48
1.0
  6
BYLAYER
100
AcDbLine
 10
226.6023458703997449
 20
261.0848999024087789
 30
0.0
 11
279.6023458703997449
 21
261.0848999024087789
 31
0.0
  0
LINE
  5
F7
100
AcDbEntity
  8
12mm
 62
256
370
-1
 48
1.0
  6
BYLAYER
100
AcDbLine
 10
282.6023458703997449
 20
348.0848999024087789
 30
0.0
 11
282.6023458703997449
 21
334.0848999024087789
 31
0.0
  0
LINE
  5
F8
100
AcDbEntity
  8
12mm
 62
256
370
-1
 48
1.0
  6
BYLAYER
100
AcDbLine
 10
282.6023458703997449
 20
258.0848999024087789
 30
0.0
 11
282.6023458703997449
 21
244.0848999024088073
 31
0.0
  0
LINE
  5
F9
100
AcDbEntity
  8
12mm
 62
256
370
-1
 48
1.0
  6
BYLAYER
100
AcDbLine
 10
285.6023458703997449
 20
331.0848999024087789
 30
0.0
 11
364.6023458703997449
 21
331.0848999024087789
 31
0.0
  0
LINE
  5
FA
100
AcDbEntity
  8
12mm
 62
256
370
-1
 48
1.0
  6
BYLAYER
100
AcDbLine
 10
285.6023458703997449
 20
241.0848999024088073
 30
0.0
 11
364.6023458703997449
 21
241.0848999024088073
 31
0.0
  0
ARC
  5
FB
100
AcDbEntity
  8
doku
 62
256
370
-1
 48
1.0
  6
BYLAYER
100
AcDbCircle
 10
72.0
 20
40.0
 30
0.0
 40
5.0
100
AcDbArc
 50
270.0
 51
0.0
  0
ARC
  5
FC
100
AcDbEntity
  8
doku
 62
256
370
-1
 48
1.0
  6
BYLAYER
100
AcDbCircle
 10
328.0
 20
39.9999999999999716
 30
0.0
 40
5.0
100
AcDbArc
 50
180.0
 51
270.0
  0
LINE
  5
FD
100
AcDbEntity
  8
12mm
 62
256
370
-1
 48
1.0
  6
BYLAYER
100
AcDbLine
 10
367.6023458703997449
 20
328.0848999024087789
 30
0.0
 11
367.6023458703997449
 21
319.0848999024087789
 31
0.0
  0
LINE
  5
FE
100
AcDbEntity
  8
12mm
 62
256
370
-1
 48
1.0
  6
BYLAYER
100
AcDbLine
 10
367.6023458703997449
 20
238.0848999024088073
 30
0.0
 11
367.6023458703997449
 21
229.0848999024088073
 31
0.0
  0
LINE
  5
FF
100
AcDbEntity
  8
12mm
 62
256
370
-1
 48
1.0
  6
BYLAYER
100
AcDbLine
 10
364.6023458703997449
 20
316.0848999024087789
 30
0.0
 11
196.6023458703997449
 21
316.0848999024087789
 31
0.0
  0
LINE
  5
100
100
AcDbEntity
  8
12mm
 62
256
370
-1
 48
1.0
  6
BYLAYER
100
AcDbLine
 10
364.6023458703997449
 20
226.0848999024088073
 30
0.0
 11
196.6023458703997449
 21
226.0848999024088073
 31
0.0
  0
ARC
  5
101
100
AcDbEntity
  8
doku
 62
256
370
-1
 48
1.0
  6
BYLAYER
100
AcDbCircle
 10
72.0
 20
130.0
 30
0.0
 40
5.0
100
AcDbArc
 50
0.0
 51
90.0
  0
ARC
  5
102
100
AcDbEntity
  8
doku
 62
256
370
-1
 48
1.0
  6
BYLAYER
100
AcDbCircle
 10
328.0
 20
130.0
 30
0.0
 40
5.0
100
AcDbArc
 50
90.0
 51
180.0
  0
LINE
  5
103
100
AcDbEntity
  8
12mm
 62
256
370
-1
 48
1.0
  6
BYLAYER
100
AcDbLine
 10
196.6023458703997449
 20
316.0848999024087789
 30
0.0
 11
195.6023458703997449
 21
316.0848999024087789
 31
0.0
  0
LINE
  5
104
100
AcDbEntity
  8
12mm
 62
256
370
-1
 48
1.0
  6
BYLAYER
100
AcDbLine
 10
196.6023458703997449
 20
226.0848999024088073
 30
0.0
 11
195.6023458703997449
 21
226.0848999024088073
 31
0.0
  0
LINE
  5
105
100
AcDbEntity
  8
doku
 62
256
370
-1
 48
1.0
  6
BYLAYER
100
AcDbLine
 10
167.0
 20
488.0
 30
0.0
 11
233.0
 21
488.0
 31
0.0
  0
LINE
  5
106
100
AcDbEntity
  8
12mm
 62
256
370
-1
 48
1.0
  6
BYLAYER
100
AcDbLine
 10
192.6023458703997449
 20
319.0848999024087789
 30
0.0
 11
192.5895135599391779
 21
329.80771910478461
 31
0.0
  0
LINE
  5
107
100
AcDbEntity
  8
12mm
 62
256
370
-1
 48
1.0
  6
BYLAYER
100
AcDbLine
 10
192.6023458703997449
 20
229.0848999024088073
 30
0.0
 11
192.5895135599391779
 21
239.8077191047845531
 31
0.0
  0
LINE
  5
108
100
AcDbEntity
  8
doku
 62
256
370
-1
 48
1.0
  6
BYLAYER
100
AcDbLine
 10
167.0
 20
488.0
 30
0.0
 11
167.0
 21
575.0
 31
0.0
  0
ARC
  5
109
100
AcDbEntity
  8
12mm
 62
256
370
-1
 48
1.0
  6
BYLAYER
100
AcDbCircle
 10
195.6023458703997449
 20
319.0848999024087789
 30
0.0
 40
3.0
100
AcDbArc
 50
180.0
 51
270.0
  0
ARC
  5
10A
100
AcDbEntity
  8
12mm
 62
256
370
-1
 48
1.0
  6
BYLAYER
100
AcDbCircle
 10
195.6023458703997449
 20
229.0848999024088073
 30
0.0
 40
3.0
100
AcDbArc
 50
180.0
 51
270.0
  0
LINE
  5
10B
100
AcDbEntity
  8
doku
 62
256
370
-1
 48
1.0
  6
BYLAYER
100
AcDbLine
 10
233.0
 20
488.0
 30
0.0
 11
233.0
 21
575.0
 31
0.0
  0
ARC
  5
10C
100
AcDbEntity
  8
12mm
 62
256
370
-1
 48
1.0
  6
BYLAYER
100
AcDbCircle
 10
364.6023458703997449
 20
319.0848999024087789
 30
0.0
 40
3.0
100
AcDbArc
 50
270.0
 51
0.0
  0
ARC
  5
10D
100
AcDbEntity
  8
12mm
 62
256
370
-1
 48
1.0
  6
BYLAYER
100
AcDbCircle
 10
364.6023458703997449
 20
229.0848999024088073
 30
0.0
 40
3.0
100
AcDbArc
 50
270.0
 51
0.0
  0
ARC
  5
10E
100
AcDbEntity
  8
doku
 62
256
370
-1
 48
1.0
  6
BYLAYER
100
AcDbCircle
 10
182.0
 20
575.0
 30
0.0
 40
15.0
100
AcDbArc
 50
90.0
 51
180.0
  0
ARC
  5
10F
100
AcDbEntity
  8
12mm
 62
256
370
-1
 48
1.0
  6
BYLAYER
100
AcDbCircle
 10
364.6023458703997449
 20
328.0848999024087789
 30
0.0
 40
3.0
100
AcDbArc
 50
0.0
 51
90.0
  0
ARC
  5
110
100
AcDbEntity
  8
12mm
 62
256
370
-1
 48
1.0
  6
BYLAYER
100
AcDbCircle
 10
364.6023458703997449
 20
238.0848999024088073
 30
0.0
 40
3.0
100
AcDbArc
 50
0.0
 51
90.0
  0
ARC
  5
111
100
AcDbEntity
  8
doku
 62
256
370
-1
 48
1.0
  6
BYLAYER
100
AcDbCircle
 10
218.0
 20
575.0
 30
0.0
 40
15.0
100
AcDbArc
 50
0.0
 51
90.0
  0
ARC
  5
112
100
AcDbEntity
  8
12mm
 62
256
370
-1
 48
1.0
  6
BYLAYER
100
AcDbCircle
 10
285.6023458703997449
 20
334.0848999024087789
 30
0.0
 40
3.0
100
AcDbArc
 50
180.0
 51
270.0
  0
ARC
  5
113
100
AcDbEntity
  8
12mm
 62
256
370
-1
 48
1.0
  6
BYLAYER
100
AcDbCircle
 10
285.6023458703997449
 20
244.0848999024088073
 30
0.0
 40
3.0
100
AcDbArc
 50
180.0
 51
270.0
  0
LINE
  5
114
100
AcDbEntity
  8
doku
 62
256
370
-1
 48
1.0
  6
BYLAYER
100
AcDbLine
 10
182.0
 20
590.0
 30
0.0
 11
218.0
 21
590.0
 31
0.0
  0
ARC
  5
115
100
AcDbEntity
  8
12mm
 62
256
370
-1
 48
1.0
  6
BYLAYER
100
AcDbCircle
 10
279.6023458703997449
 20
348.0848999024087789
 30
0.0
 40
3.0
100
AcDbArc
 50
0.0
 51
90.0
  0
ARC
  5
116
100
AcDbEntity
  8
12mm
 62
256
370
-1
 48
1.0
  6
BYLAYER
100
AcDbCircle
 10
279.6023458703997449
 20
258.0848999024087789
 30
0.0
 40
3.0
100
AcDbArc
 50
0.0
 51
90.0
  0
CIRCLE
  5
117
100
AcDbEntity
  8
doku
 62
256
370
-1
 48
1.0
  6
BYLAYER
100
AcDbCircle
 10
174.0
 20
497.0
 30
0.0
 40
1.4142135623730951
  0
CIRCLE
  5
118
100
AcDbEntity
  8
doku
 62
256
370
-1
 48
1.0
  6
BYLAYER
100
AcDbCircle
 10
226.0
 20
497.0
 30
0.0
 40
1.4142135623730951
  0
ARC
  5
119
100
AcDbEntity
  8
12mm
 62
256
370
-1
 48
1.0
  6
BYLAYER
100
AcDbCircle
 10
226.6023458703997449
 20
354.0848999024087789
 30
0.0
 40
3.0
100
AcDbArc
 50
180.0
 51
270.0
  0
ARC
  5
11A
100
AcDbEntity
  8
12mm
 62
256
370
-1
 48
1.0
  6
BYLAYER
100
AcDbCircle
 10
226.6023458703997449
 20
264.0848999024087789
 30
0.0
 40
3.0
100
AcDbArc
 50
180.0
 51
270.0
  0
CIRCLE
  5
11B
100
AcDbEntity
  8
doku
 62
256
370
-1
 48
1.0
  6
BYLAYER
100
AcDbCircle
 10
174.0
 20
554.0
 30
0.0
 40
1.4142135623730951
  0
CIRCLE
  5
11C
100
AcDbEntity
  8
doku
 62
256
370
-1
 48
1.0
  6
BYLAYER
100
AcDbCircle
 10
226.0
 20
554.0
 30
0.0
 40
1.4142135623730951
  0
ARC
  5
11D
100
AcDbEntity
  8
12mm
 62
256
370
-1
 48
1.0
  6
BYLAYER
100
AcDbCircle
 10
220.6023458703997449
 20
382.0848999024087789
 30
0.0
 40
3.0
100
AcDbArc
 50
0.0
 51
90.0
  0
ARC
  5
11E
100
AcDbEntity
  8
12mm
 62
256
370
-1
 48
1.0
  6
BYLAYER
100
AcDbCircle
 10
220.6023458703997449
 20
292.0848999024087789
 30
0.0
 40
3.0
100
AcDbArc
 50
0.0
 51
90.0
  0
LINE
  5
11F
100
AcDbEntity
  8
doku
 62
256
370
-1
 48
1.0
  6
BYLAYER
100
AcDbLine
 10
402.0
 20
85.0
 30
0.0
 11
402.0
 21
162.0
 31
0.0
  0
LINE
  5
120
100
AcDbEntity
  8
doku
 62
256
370
-1
 48
1.0
  6
BYLAYER
100
AcDbLine
 10
440.0
 20
85.0
 30
0.0
 11
440.0
 21
162.0
 31
0.0
  0
LINE
  5
121
100
AcDbEntity
  8
doku
 62
256
370
-1
 48
1.0
  6
BYLAYER
100
AcDbLine
 10
-2.0000000000000284
 20
85.0000000000000284
 30
0.0
 11
-1.9999999999999716
 21
162.0000000000002842
 31
0.0
  0
LINE
  5
122
100
AcDbEntity
  8
doku
 62
256
370
-1
 48
1.0
  6
BYLAYER
100
AcDbLine
 10
-40.0
 20
85.0000000000000568
 30
0.0
 11
-40.0
 21
162.0
 31
0.0
  0
ARC
  5
123
100
AcDbEntity
  8
12mm
 62
256
370
-1
 48
1.0
  6
BYLAYER
100
AcDbCircle
 10
195.6023458703997449
 20
382.0848999024087789
 30
0.0
 40
3.0
100
AcDbArc
 50
90.0
 51
180.0
  0
ARC
  5
124
100
AcDbEntity
  8
12mm
 62
256
370
-1
 48
1.0
  6
BYLAYER
100
AcDbCircle
 10
195.6023458703997449
 20
292.0848999024087789
 30
0.0
 40
3.0
100
AcDbArc
 50
90.0
 51
180.0
  0
LINE
  5
125
100
AcDbEntity
  8
doku
 62
256
370
-1
 48
1.0
  6
BYLAYER
100
AcDbLine
 10
1002.0
 20
85.0
 30
0.0
 11
1002.0
 21
162.0
 31
0.0
  0
LINE
  5
126
100
AcDbEntity
  8
doku
 62
256
370
-1
 48
1.0
  6
BYLAYER
100
AcDbLine
 10
1040.0
 20
85.0
 30
0.0
 11
1040.0
 21
162.0
 31
0.0
  0
LINE
  5
127
100
AcDbEntity
  8
doku
 62
256
370
-1
 48
1.0
  6
BYLAYER
100
AcDbLine
 10
598.0
 20
85.0000000000000284
 30
0.0
 11
598.0
 21
162.0000000000002842
 31
0.0
  0
LINE
  5
128
100
AcDbEntity
  8
doku
 62
256
370
-1
 48
1.0
  6
BYLAYER
100
AcDbLine
 10
560.0
 20
85.0000000000000568
 30
0.0
 11
560.0
 21
162.0
 31
0.0
  0
LINE
  5
129
100
AcDbEntity
  8
doku
 62
256
370
-1
 48
1.0
  6
BYLAYER
100
AcDbLine
 10
402.0
 20
85.0
 30
0.0
 11
402.0
 21
8.0
 31
0.0
  0
LINE
  5
12A
100
AcDbEntity
  8
doku
 62
256
370
-1
 48
1.0
  6
BYLAYER
100
AcDbLine
 10
440.0
 20
85.0
 30
0.0
 11
440.0
 21
8.0
 31
0.0
  0
LINE
  5
12B
100
AcDbEntity
  8
doku
 62
256
370
-1
 48
1.0
  6
BYLAYER
100
AcDbLine
 10
-2.0000000000000284
 20
85.0000000000000284
 30
0.0
 11
-2.0000000000000284
 21
8.0000000000000284
 31
0.0
  0
LINE
  5
12C
100
AcDbEntity
  8
doku
 62
256
370
-1
 48
1.0
  6
BYLAYER
100
AcDbLine
 10
-40.0
 20
85.0000000000000568
 30
0.0
 11
-40.0
 21
7.9999999999999716
 31
0.0
  0
MTEXT
  5
12D
100
AcDbEntity
  8
12mm
 62
256
370
-1
 48
1.0
  6
BYLAYER
100
AcDbMText
 10
375.9330752652079468
 20
334.8137300183846037
 30
0.0
 40
6.0
 41
0.0
 71
1
 72
1
  1
12mm\P
  7
textstyle0
 50
270.0
 73
2
 44
1.0
  0
MTEXT
  5
12E
100
AcDbEntity
  8
12mm
 62
256
370
-1
 48
1.0
  6
BYLAYER
100
AcDbMText
 10
375.9330752652079468
 20
244.8137300183845753
 30
0.0
 40
6.0
 41
0.0
 71
1
 72
1
  1
12mm\P
  7
textstyle1
 50
270.0
 73
2
 44
1.0
  0
LINE
  5
12F
100
AcDbEntity
  8
doku
 62
256
370
-1
 48
1.0
  6
BYLAYER
100
AcDbLine
 10
1002.0
 20
85.0
 30
0.0
 11
1002.0
 21
8.0
 31
0.0
  0
LINE
  5
130
100
AcDbEntity
  8
doku
 62
256
370
-1
 48
1.0
  6
BYLAYER
100
AcDbLine
 10
1040.0
 20
85.0
 30
0.0
 11
1040.0
 21
8.0
 31
0.0
  0
LINE
  5
131
100
AcDbEntity
  8
doku
 62
256
370
-1
 48
1.0
  6
BYLAYER
100
AcDbLine
 10
598.0
 20
85.0000000000000284
 30
0.0
 11
598.0
 21
8.0
 31
0.0
  0
LINE
  5
132
100
AcDbEntity
  8
doku
 62
256
370
-1
 48
1.0
  6
BYLAYER
100
AcDbLine
 10
560.0
 20
85.0000000000000568
 30
0.0
 11
560.0
 21
8.0
 31
0.0
  0
ARC
  5
133
100
AcDbEntity
  8
doku
 62
256
370
-1
 48
1.0
  6
BYLAYER
100
AcDbCircle
 10
421.0
 20
150.0
 30
0.0
 40
22.4722050542442311
100
AcDbArc
 50
32.2756443145776331
 51
147.7243556854223812
  0
ARC
  5
134
100
AcDbEntity
  8
doku
 62
256
370
-1
 48
1.0
  6
BYLAYER
100
AcDbCircle
 10
421.0
 20
19.9999999999999858
 30
0.0
 40
22.4722050542442311
100
AcDbArc
 50
212.2756443145775904
 51
327.7243556854223812
  0
ARC
  5
135
100
AcDbEntity
  8
doku
 62
256
370
-1
 48
1.0
  6
BYLAYER
100
AcDbCircle
 10
-21.0
 20
149.9999999999999716
 30
0.0
 40
22.4722050542442311
100
AcDbArc
 50
32.2756443145776046
 51
147.7243556854223812
  0
ARC
  5
136
100
AcDbEntity
  8
doku
 62
256
370
-1
 48
1.0
  6
BYLAYER
100
AcDbCircle
 10
-20.9999999999999716
 20
19.9999999999999432
 30
0.0
 40
22.4722050542442311
100
AcDbArc
 50
212.2756443145775904
 51
327.7243556854223812
  0
ARC
  5
137
100
AcDbEntity
  8
doku
 62
256
370
-1
 48
1.0
  6
BYLAYER
100
AcDbCircle
 10
1021.0
 20
150.0
 30
0.0
 40
22.4722050542442311
100
AcDbArc
 50
32.2756443145776331
 51
147.7243556854223812
  0
ARC
  5
138
100
AcDbEntity
  8
doku
 62
256
370
-1
 48
1.0
  6
BYLAYER
100
AcDbCircle
 10
1021.0
 20
20.0
 30
0.0
 40
22.4722050542442311
100
AcDbArc
 50
212.2756443145775904
 51
327.7243556854223812
  0
ARC
  5
139
100
AcDbEntity
  8
doku
 62
256
370
-1
 48
1.0
  6
BYLAYER
100
AcDbCircle
 10
579.0
 20
149.9999999999999716
 30
0.0
 40
22.4722050542442311
100
AcDbArc
 50
32.2756443145776046
 51
147.7243556854223812
  0
ARC
  5
13A
100
AcDbEntity
  8
doku
 62
256
370
-1
 48
1.0
  6
BYLAYER
100
AcDbCircle
 10
579.0
 20
19.9999999999999432
 30
0.0
 40
22.4722050542442311
100
AcDbArc
 50
212.2756443145775904
 51
327.7243556854223812
  0
LINE
  5
13B
100
AcDbEntity
  8
doku
 62
256
370
-1
 48
1.0
  6
BYLAYER
100
AcDbLine
 10
0.0
 20
400.0
 30
0.0
 11
400.0
 21
400.0
 31
0.0
  0
LINE
  5
13C
100
AcDbEntity
  8
doku
 62
256
370
-1
 48
1.0
  6
BYLAYER
100
AcDbLine
 10
399.986509722714402
 20
410.4971805466119577
 30
0.0
 11
-0.013490277285598
 21
410.4971805466119577
 31
0.0
  0
LINE
  5
13D
100
AcDbEntity
  8
doku
 62
256
370
-1
 48
1.0
  6
BYLAYER
100
AcDbLine
 10
399.9999999999999432
 20
209.4999999999999716
 30
0.0
 11
-0.0000000000000568
 21
209.4999999999999716
 31
0.0
  0
LINE
  5
13E
100
AcDbEntity
  8
doku
 62
256
370
-1
 48
1.0
  6
BYLAYER
100
AcDbLine
 10
0.0
 20
220.0
 30
0.0
 11
400.0
 21
220.0
 31
0.0
  0
LINE
  5
13F
100
AcDbEntity
  8
10mm
 62
256
370
-1
 48
1.0
  6
BYLAYER
100
AcDbLine
 10
178.0
 20
510.0
 30
0.0
 11
207.0
 21
510.0
 31
0.0
  0
LINE
  5
140
100
AcDbEntity
  8
10mm
 62
256
370
-1
 48
1.0
  6
BYLAYER
100
AcDbLine
 10
210.0
 20
513.0
 30
0.0
 11
210.0
 21
547.0
 31
0.0
  0
LINE
  5
141
100
AcDbEntity
  8
10mm
 62
256
370
-1
 48
1.0
  6
BYLAYER
100
AcDbLine
 10
207.0
 20
550.0
 30
0.0
 11
178.0
 21
550.0
 31
0.0
  0
LINE
  5
142
100
AcDbEntity
  8
10mm
 62
256
370
-1
 48
1.0
  6
BYLAYER
100
AcDbLine
 10
175.0
 20
547.0
 30
0.0
 11
175.0
 21
513.0
 31
0.0
  0
ARC
  5
143
100
AcDbEntity
  8
10mm
 62
256
370
-1
 48
1.0
  6
BYLAYER
100
AcDbCircle
 10
178.0
 20
547.0
 30
0.0
 40
3.0
100
AcDbArc
 50
90.0
 51
180.0
  0
ARC
  5
144
100
AcDbEntity
  8
10mm
 62
256
370
-1
 48
1.0
  6
BYLAYER
100
AcDbCircle
 10
178.0
 20
513.0
 30
0.0
 40
3.0
100
AcDbArc
 50
180.0
 51
270.0
  0
ARC
  5
145
100
AcDbEntity
  8
10mm
 62
256
370
-1
 48
1.0
  6
BYLAYER
100
AcDbCircle
 10
207.0
 20
513.0
 30
0.0
 40
3.0
100
AcDbArc
 50
270.0
 51
0.0
  0
ARC
  5
146
100
AcDbEntity
  8
10mm
 62
256
370
-1
 48
1.0
  6
BYLAYER
100
AcDbCircle
 10
207.0
 20
547.0
 30
0.0
 40
3.0
100
AcDbArc
 50
0.0
 51
90.0
  0
MTEXT
  5
147
100
AcDbEntity
  8
10mm
 62
256
370
-1
 48
1.0
  6
BYLAYER
100
AcDbMText
 10
218.0
 20
535.0
 30
0.0
 40
6.0
 41
0.0
 71
1
 72
1
  1
10mm\P
  7
textstyle4
 50
270.0
 73
2
 44
1.0
  0
LINE
  5
148
100
AcDbEntity
  8
1mm
 62
256
370
-1
 48
1.0
  6
BYLAYER
100
AcDbLine
 10
-0.013490277285598
 20
410.4971805466119577
 30
0.0
 11
399.986509722714402
 21
410.4971805466119577
 31
0.0
  0
LINE
  5
149
100
AcDbEntity
  8
1mm
 62
256
370
-1
 48
1.0
  6
BYLAYER
100
AcDbLine
 10
0.0
 20
220.0
 30
0.0
 11
400.0
 21
220.0
 31
0.0
  0
LINE
  5
14A
100
AcDbEntity
  8
1mm
 62
256
370
-1
 48
1.0
  6
BYLAYER
100
AcDbLine
 10
402.986509722714402
 20
407.4971805466119577
 30
0.0
 11
403.0
 21
403.0
 31
0.0
  0
LINE
  5
14B
100
AcDbEntity
  8
1mm
 62
256
370
-1
 48
1.0
  6
BYLAYER
100
AcDbLine
 10
403.0
 20
217.0
 30
0.0
 11
402.9999999999999432
 21
212.4999999999999716
 31
0.0
  0
LINE
  5
14C
100
AcDbEntity
  8
1mm
 62
256
370
-1
 48
1.0
  6
BYLAYER
100
AcDbLine
 10
400.0
 20
400.0
 30
0.0
 11
-0.0
 21
400.0
 31
0.0
  0
LINE
  5
14D
100
AcDbEntity
  8
1mm
 62
256
370
-1
 48
1.0
  6
BYLAYER
100
AcDbLine
 10
399.9999999999999432
 20
209.4999999999999716
 30
0.0
 11
-0.0000000000000568
 21
209.4999999999999716
 31
0.0
  0
LINE
  5
14E
100
AcDbEntity
  8
1mm
 62
256
370
-1
 48
1.0
  6
BYLAYER
100
AcDbLine
 10
-3.0
 20
403.0
 30
0.0
 11
-3.013490277285598
 21
407.4971805466119577
 31
0.0
  0
LINE
  5
14F
100
AcDbEntity
  8
1mm
 62
256
370
-1
 48
1.0
  6
BYLAYER
100
AcDbLine
 10
-3.0000000000000568
 20
212.4999999999999716
 30
0.0
 11
-3.0
 21
217.0
 31
0.0
  0
ARC
  5
150
100
AcDbEntity
  8
1mm
 62
256
370
-1
 48
1.0
  6
BYLAYER
100
AcDbCircle
 10
0.0
 20
403.0
 30
0.0
 40
3.0
100
AcDbArc
 50
180.0
 51
270.0
  0
ARC
  5
151
100
AcDbEntity
  8
1mm
 62
256
370
-1
 48
1.0
  6
BYLAYER
100
AcDbCircle
 10
-0.0000000000000568
 20
212.4999999999999716
 30
0.0
 40
3.0
100
AcDbArc
 50
180.0
 51
270.0
  0
ARC
  5
152
100
AcDbEntity
  8
1mm
 62
256
370
-1
 48
1.0
  6
BYLAYER
100
AcDbCircle
 10
-0.013490277285598
 20
407.4971805466119577
 30
0.0
 40
3.0
100
AcDbArc
 50
90.0
 51
180.0
  0
ARC
  5
153
100
AcDbEntity
  8
1mm
 62
256
370
-1
 48
1.0
  6
BYLAYER
100
AcDbCircle
 10
0.0
 20
217.0
 30
0.0
 40
3.0
100
AcDbArc
 50
90.0
 51
180.0
  0
ARC
  5
154
100
AcDbEntity
  8
1mm
 62
256
370
-1
 48
1.0
  6
BYLAYER
100
AcDbCircle
 10
400.0
 20
403.0
 30
0.0
 40
3.0
100
AcDbArc
 50
270.0
 51
0.0
  0
ARC
  5
155
100
AcDbEntity
  8
1mm
 62
256
370
-1
 48
1.0
  6
BYLAYER
100
AcDbCircle
 10
399.9999999999999432
 20
212.4999999999999716
 30
0.0
 40
3.0
100
AcDbArc
 50
270.0
 51
0.0
  0
ARC
  5
156
100
AcDbEntity
  8
1mm
 62
256
370
-1
 48
1.0
  6
BYLAYER
100
AcDbCircle
 10
399.986509722714402
 20
407.4971805466119577
 30
0.0
 40
3.0
100
AcDbArc
 50
0.0
 51
90.0
  0
ARC
  5
157
100
AcDbEntity
  8
1mm
 62
256
370
-1
 48
1.0
  6
BYLAYER
100
AcDbCircle
 10
400.0
 20
217.0
 30
0.0
 40
3.0
100
AcDbArc
 50
0.0
 51
90.0
  0
MTEXT
  5
158
100
AcDbEntity
  8
1mm
 62
256
370
-1
 48
1.0
  6
BYLAYER
100
AcDbMText
 10
414.156304788478792
 20
410.5402110729982041
 30
0.0
 40
6.0
 41
0.0
 71
1
 72
1
  1
1mm\P
  7
textstyle8
 50
270.0
 73
2
 44
1.0
  0
MTEXT
  5
159
100
AcDbEntity
  8
1mm
 62
256
370
-1
 48
1.0
  6
BYLAYER
100
AcDbMText
 10
414.5146228684787957
 20
220.9899467529987191
 30
0.0
 40
6.0
 41
0.0
 71
1
 72
1
  1
1mm\P
  7
textstyle7
 50
270.0
 73
2
 44
1.0
  0
MTEXT
  5
15A
100
AcDbEntity
  8
doku
 62
256
370
-1
 48
1.0
  6
BYLAYER
100
AcDbMText
 10
120.0
 20
-20.0
 30
0.0
 40
20.0
 41
0.0
 71
1
 72
1
  1
Bottom view
  7
textstyle6
 50
0.0
 73
2
 44
1.0
  0
MTEXT
  5
15B
100
AcDbEntity
  8
doku
 62
256
370
-1
 48
1.0
  6
BYLAYER
100
AcDbMText
 10
750.0
 20
-20.0
 30
0.0
 40
20.0
 41
0.0
 71
1
 72
1
  1
Top view
  7
textstyle5
 50
0.0
 73
2
 44
1.0
  0
LINE
  5
15C
100
AcDbEntity
  8
6mm
 62
256
370
-1
 48
1.0
  6
BYLAYER
100
AcDbLine
 10
610.0
 20
10.0
 30
0.0
 11
610.0
 21
590.0
 31
0.0
  0
LINE
  5
15D
100
AcDbEntity
  8
6mm
 62
256
370
-1
 48
1.0
  6
BYLAYER
100
AcDbLine
 10
610.0
 20
590.0
 30
0.0
 11
990.0
 21
590.0
 31
0.0
  0
LINE
  5
15E
100
AcDbEntity
  8
6mm
 62
256
370
-1
 48
1.0
  6
BYLAYER
100
AcDbLine
 10
990.0
 20
590.0
 30
0.0
 11
990.0
 21
10.0
 31
0.0
  0
LINE
  5
15F
100
AcDbEntity
  8
6mm
 62
256
370
-1
 48
1.0
  6
BYLAYER
100
AcDbLine
 10
990.0
 20
10.0
 30
0.0
 11
610.0
 21
10.0
 31
0.0
  0
LINE
  5
160
100
AcDbEntity
  8
18mm
 62
256
370
-1
 48
1.0
  6
BYLAYER
100
AcDbLine
 10
750.0
 20
590.0
 30
0.0
 11
850.0
 21
590.0
 31
0.0
  0
LINE
  5
161
100
AcDbEntity
  8
18mm
 62
256
370
-1
 48
1.0
  6
BYLAYER
100
AcDbLine
 10
960.0
 20
190.0
 30
0.0
 11
960.0
 21
290.0
 31
0.0
  0
LINE
  5
162
100
AcDbEntity
  8
18mm
 62
256
370
-1
 48
1.0
  6
BYLAYER
100
AcDbLine
 10
860.0
 20
580.0
 30
0.0
 11
860.0
 21
570.0
 31
0.0
  0
LINE
  5
163
100
AcDbEntity
  8
18mm
 62
256
370
-1
 48
1.0
  6
BYLAYER
100
AcDbLine
 10
970.0
 20
300.0
 30
0.0
 11
980.0
 21
300.0
 31
0.0
  0
LINE
  5
164
100
AcDbEntity
  8
18mm
 62
256
370
-1
 48
1.0
  6
BYLAYER
100
AcDbLine
 10
850.0
 20
560.0
 30
0.0
 11
750.0
 21
560.0
 31
0.0
  0
LINE
  5
165
100
AcDbEntity
  8
18mm
 62
256
370
-1
 48
1.0
  6
BYLAYER
100
AcDbLine
 10
990.0
 20
290.0
 30
0.0
 11
990.0
 21
190.0
 31
0.0
  0
LINE
  5
166
100
AcDbEntity
  8
18mm
 62
256
370
-1
 48
1.0
  6
BYLAYER
100
AcDbLine
 10
740.0
 20
570.0
 30
0.0
 11
740.0
 21
580.0
 31
0.0
  0
LINE
  5
167
100
AcDbEntity
  8
18mm
 62
256
370
-1
 48
1.0
  6
BYLAYER
100
AcDbLine
 10
980.0
 20
180.0
 30
0.0
 11
970.0
 21
180.0
 31
0.0
  0
ARC
  5
168
100
AcDbEntity
  8
18mm
 62
256
370
-1
 48
1.0
  6
BYLAYER
100
AcDbCircle
 10
750.0
 20
580.0
 30
0.0
 40
10.0
100
AcDbArc
 50
90.0
 51
180.0
  0
ARC
  5
169
100
AcDbEntity
  8
18mm
 62
256
370
-1
 48
1.0
  6
BYLAYER
100
AcDbCircle
 10
970.0
 20
190.0
 30
0.0
 40
10.0
100
AcDbArc
 50
180.0
 51
270.0
  0
ARC
  5
16A
100
AcDbEntity
  8
18mm
 62
256
370
-1
 48
1.0
  6
BYLAYER
100
AcDbCircle
 10
750.0
 20
570.0
 30
0.0
 40
10.0
100
AcDbArc
 50
180.0
 51
270.0
  0
ARC
  5
16B
100
AcDbEntity
  8
18mm
 62
256
370
-1
 48
1.0
  6
BYLAYER
100
AcDbCircle
 10
980.0
 20
190.0
 30
0.0
 40
10.0
100
AcDbArc
 50
270.0
 51
0.0
  0
ARC
  5
16C
100
AcDbEntity
  8
18mm
 62
256
370
-1
 48
1.0
  6
BYLAYER
100
AcDbCircle
 10
850.0
 20
570.0
 30
0.0
 40
10.0
100
AcDbArc
 50
270.0
 51
0.0
  0
ARC
  5
16D
100
AcDbEntity
  8
18mm
 62
256
370
-1
 48
1.0
  6
BYLAYER
100
AcDbCircle
 10
980.0
 20
290.0
 30
0.0
 40
10.0
100
AcDbArc
 50
0.0
 51
90.0
  0
ARC
  5
16E
100
AcDbEntity
  8
18mm
 62
256
370
-1
 48
1.0
  6
BYLAYER
100
AcDbCircle
 10
850.0
 20
580.0
 30
0.0
 40
10.0
100
AcDbArc
 50
0.0
 51
90.0
  0
ARC
  5
16F
100
AcDbEntity
  8
18mm
 62
256
370
-1
 48
1.0
  6
BYLAYER
100
AcDbCircle
 10
970.0
 20
290.0
 30
0.0
 40
10.0
100
AcDbArc
 50
90.0
 51
180.0
  0
MTEXT
  5
170
100
AcDbEntity
  8
18mm
 62
256
370
-1
 48
1.0
  6
BYLAYER
100
AcDbMText
 10
790.0
 20
550.0
 30
0.0
 40
8.0
 41
0.0
 71
1
 72
1
  1
18mm\P
  7
textstyle10
 50
0.0
 73
2
 44
1.0
  0
MTEXT
  5
171
100
AcDbEntity
  8
6mm
 62
256
370
-1
 48
1.0
  6
BYLAYER
100
AcDbMText
 10
780.0
 20
20.0
 30
0.0
 40
8.0
 41
0.0
 71
1
 72
1
  1
5mm
  7
textstyle9
 50
0.0
 73
2
 44
1.0
  0
ENDSEC
  0
SECTION
  2
OBJECTS
  0
DICTIONARY
  5
C
100
AcDbDictionary
280
0
281
1
  3
ACAD_GROUP
350
D
  3
ACAD_LAYOUT
350
1A
  3
ACAD_MLINESTYLE
350
17
  3
ACAD_PLOTSETTINGS
350
19
  3
ACAD_PLOTSTYLENAME
350
E
  3
AcDbVariableDictionary
350
172
  3
QCAD_OBJECTS
350
173
  0
DICTIONARY
  5
D
100
AcDbDictionary
280
0
281
1
  0
ACDBDICTIONARYWDFLT
  5
E
100
AcDbDictionary
281
1
  3
Normal
350
F
100
AcDbDictionaryWithDefault
340
F
  0
ACDBPLACEHOLDER
  5
F
  0
DICTIONARY
  5
17
100
AcDbDictionary
280
0
281
1
  3
Standard
350
18
  0
MLINESTYLE
  5
18
100
AcDbMlineStyle
  2
STANDARD
 70
0
  3

 62
256
 51
90.0
 52
90.0
 71
2
 49
0.5
 62
256
  6
BYLAYER
 49
-0.5
 62
256
  6
BYLAYER
  0
DICTIONARY
  5
19
100
AcDbDictionary
280
0
281
1
  0
DICTIONARY
  5
1A
100
AcDbDictionary
281
1
  3
Layout1
350
1E
  3
Layout2
350
26
  3
Model
350
22
  0
LAYOUT
  5
1E
100
AcDbPlotSettings
  1

  2
none_device
  4

  6

 40
0.0
 41
0.0
 42
0.0
 43
0.0
 44
0.0
 45
0.0
 46
0.0
 47
0.0
 48
0.0
 49
0.0
140
0.0
141
0.0
142
1.0
143
1.0
 70
688
 72
0
 73
0
 74
5
  7

 75
16
147
1.0
148
0.0
149
0.0
100
AcDbLayout
  1
Layout1
 70
1
 71
1
 10
0.0
 20
0.0
 11
420.0
 21
297.0
 12
0.0
 22
0.0
 32
0.0
 14
100000000000000000000.0
 24
100000000000000000000.0
 34
100000000000000000000.0
 15
-100000000000000000000.0
 25
-100000000000000000000.0
 35
-100000000000000000000.0
146
0.0
 13
0.0
 23
0.0
 33
0.0
 16
1.0
 26
0.0
 36
0.0
 17
0.0
 27
1.0
 37
0.0
 76
0
330
1B
  0
LAYOUT
  5
22
100
AcDbPlotSettings
  1

  2
none_device
  4

  6

 40
0.0
 41
0.0
 42
0.0
 43
0.0
 44
0.0
 45
0.0
 46
0.0
 47
0.0
 48
0.0
 49
0.0
140
0.0
141
0.0
142
1.0
143
1.0
 70
1712
 72
0
 73
0
 74
0
  7

 75
0
147
1.0
148
0.0
149
0.0
100
AcDbLayout
  1
Model
 70
1
 71
0
 10
0.0
 20
0.0
 11
12.0
 21
9.0
 12
0.0
 22
0.0
 32
0.0
 14
0.0
 24
0.0
 34
0.0
 15
0.0
 25
0.0
 35
0.0
146
0.0
 13
0.0
 23
0.0
 33
0.0
 16
1.0
 26
0.0
 36
0.0
 17
0.0
 27
1.0
 37
0.0
 76
0
330
1F
  0
LAYOUT
  5
26
100
AcDbPlotSettings
  1

  2
none_device
  4

  6

 40
0.0
 41
0.0
 42
0.0
 43
0.0
 44
0.0
 45
0.0
 46
0.0
 47
0.0
 48
0.0
 49
0.0
140
0.0
141
0.0
142
1.0
143
1.0
 70
688
 72
0
 73
0
 74
5
  7

 75
16
147
1.0
148
0.0
149
0.0
100
AcDbLayout
  1
Layout2
 70
1
 71
2
 10
0.0
 20
0.0
 11
12.0
 21
9.0
 12
0.0
 22
0.0
 32
0.0
 14
0.0
 24
0.0
 34
0.0
 15
0.0
 25
0.0
 35
0.0
146
0.0
 13
0.0
 23
0.0
 33
0.0
 16
1.0
 26
0.0
 36
0.0
 17
0.0
 27
1.0
 37
0.0
 76
0
330
23
  0
DICTIONARY
  5
172
100
AcDbDictionary
281
1
  3
DIMASSOC
350
175
  3
HIDETEXT
350
174
  0
DICTIONARYVAR
  5
174
100
DictionaryVariables
280
0
  1
2
  0
DICTIONARYVAR
  5
175
100
DictionaryVariables
280
0
  1
1
  0
DICTIONARY
  5
173
100
AcDbDictionary
281
1
  3
ColorSettings/BackgroundColor
350
176
  3
ColorSettings/ColorMode
350
177
  3
Grid/DisplayGrid00
350
178
  3
Grid/DisplayGrid01
350
179
  3
Grid/DisplayGrid02
350
17A
  3
Grid/DisplayGrid03
350
17B
  3
Grid/GridSpacingX00
350
17C
  3
Grid/GridSpacingX01
350
17D
  3
Grid/GridSpacingX02
350
17E
  3
Grid/GridSpacingX03
350
17F
  3
Grid/GridSpacingY00
350
180
  3
Grid/GridSpacingY01
350
181
  3
Grid/GridSpacingY02
350
182
  3
Grid/GridSpacingY03
350
183
  3
Grid/IsometricGrid00
350
184
  3
Grid/IsometricGrid01
350
185
  3
Grid/IsometricGrid02
350
186
  3
Grid/IsometricGrid03
350
187
  3
Grid/IsometricProjection00
350
188
  3
Grid/IsometricProjection01
350
189
  3
Grid/IsometricProjection02
350
18A
  3
Grid/IsometricProjection03
350
18B
  3
Grid/MetaGridSpacingX00
350
18C
  3
Grid/MetaGridSpacingX01
350
18D
  3
Grid/MetaGridSpacingX02
350
18E
  3
Grid/MetaGridSpacingX03
350
18F
  3
Grid/MetaGridSpacingY00
350
190
  3
Grid/MetaGridSpacingY01
350
191
  3
Grid/MetaGridSpacingY02
350
192
  3
Grid/MetaGridSpacingY03
350
193
  3
MultiPageSettings/Columns
350
194
  3
MultiPageSettings/GlueMarginsBottom
350
195
  3
MultiPageSettings/GlueMarginsLeft
350
196
  3
MultiPageSettings/GlueMarginsRight
350
197
  3
MultiPageSettings/GlueMarginsTop
350
198
  3
MultiPageSettings/PrintCropMarks
350
199
  3
MultiPageSettings/Rows
350
19A
  3
PageSettings/OffsetX
350
19B
  3
PageSettings/OffsetY
350
19C
  3
PageSettings/PageOrientation
350
19D
  3
PageSettings/PaperHeight
350
19E
  3
PageSettings/PaperWidth
350
19F
  3
PageSettings/Scale
350
1A0
  3
PageSettings/ShowPaperBorders
350
1A1
  3
QCADVersion
350
1A2
  3
UnitSettings/PaperUnit
350
1A3
  3
ViewportCenter
350
1A4
  3
ViewportHeight
350
1A5
  3
ViewportWidth
350
1A6
  0
XRECORD
  5
176
330
173
100
AcDbXrecord
280
1
1000
White
  0
XRECORD
  5
177
330
173
100
AcDbXrecord
280
1
1000
FullColor
  0
XRECORD
  5
178
330
173
100
AcDbXrecord
280
1
290
1
  0
XRECORD
  5
179
330
173
100
AcDbXrecord
280
1
290
1
  0
XRECORD
  5
17A
330
173
100
AcDbXrecord
280
1
290
1
  0
XRECORD
  5
17B
330
173
100
AcDbXrecord
280
1
290
1
  0
XRECORD
  5
17C
330
173
100
AcDbXrecord
280
1
1000
auto
  0
XRECORD
  5
17D
330
173
100
AcDbXrecord
280
1
1000
auto
  0
XRECORD
  5
17E
330
173
100
AcDbXrecord
280
1
1000
auto
  0
XRECORD
  5
17F
330
173
100
AcDbXrecord
280
1
1000
auto
  0
XRECORD
  5
180
330
173
100
AcDbXrecord
280
1
1000
auto
  0
XRECORD
  5
181
330
173
100
AcDbXrecord
280
1
1000
auto
  0
XRECORD
  5
182
330
173
100
AcDbXrecord
280
1
1000
auto
  0
XRECORD
  5
183
330
173
100
AcDbXrecord
280
1
1000
auto
  0
XRECORD
  5
184
330
173
100
AcDbXrecord
280
1
290
0
  0
XRECORD
  5
185
330
173
100
AcDbXrecord
280
1
290
0
  0
XRECORD
  5
186
330
173
100
AcDbXrecord
280
1
290
0
  0
XRECORD
  5
187
330
173
100
AcDbXrecord
280
1
290
0
  0
XRECORD
  5
188
330
173
100
AcDbXrecord
280
1
 90
65537
  0
XRECORD
  5
189
330
173
100
AcDbXrecord
280
1
 90
65537
  0
XRECORD
  5
18A
330
173
100
AcDbXrecord
280
1
 90
65537
  0
XRECORD
  5
18B
330
173
100
AcDbXrecord
280
1
 90
65537
  0
XRECORD
  5
18C
330
173
100
AcDbXrecord
280
1
1000
auto
  0
XRECORD
  5
18D
330
173
100
AcDbXrecord
280
1
1000
auto
  0
XRECORD
  5
18E
330
173
100
AcDbXrecord
280
1
1000
auto
  0
XRECORD
  5
18F
330
173
100
AcDbXrecord
280
1
1000
auto
  0
XRECORD
  5
190
330
173
100
AcDbXrecord
280
1
1000
auto
  0
XRECORD
  5
191
330
173
100
AcDbXrecord
280
1
1000
auto
  0
XRECORD
  5
192
330
173
100
AcDbXrecord
280
1
1000
auto
  0
XRECORD
  5
193
330
173
100
AcDbXrecord
280
1
1000
auto
  0
XRECORD
  5
194
330
173
100
AcDbXrecord
280
1
 90
1
  0
XRECORD
  5
195
330
173
100
AcDbXrecord
280
1
 40
10.0
  0
XRECORD
  5
196
330
173
100
AcDbXrecord
280
1
 40
10.0
  0
XRECORD
  5
197
330
173
100
AcDbXrecord
280
1
 40
10.0
  0
XRECORD
  5
198
330
173
100
AcDbXrecord
280
1
 40
10.0
  0
XRECORD
  5
199
330
173
100
AcDbXrecord
280
1
290
0
  0
XRECORD
  5
19A
330
173
100
AcDbXrecord
280
1
 90
1
  0
XRECORD
  5
19B
330
173
100
AcDbXrecord
280
1
 40
0.0
  0
XRECORD
  5
19C
330
173
100
AcDbXrecord
280
1
 40
0.0
  0
XRECORD
  5
19D
330
173
100
AcDbXrecord
280
1
1000
Portrait
  0
XRECORD
  5
19E
330
173
100
AcDbXrecord
280
1
 40
297.0
  0
XRECORD
  5
19F
330
173
100
AcDbXrecord
280
1
 40
210.0
  0
XRECORD
  5
1A0
330
173
100
AcDbXrecord
280
1
1000
1:1
  0
XRECORD
  5
1A1
330
173
100
AcDbXrecord
280
1
290
1
  0
XRECORD
  5
1A2
330
173
100
AcDbXrecord
280
1
1000
3.20.1
  0
XRECORD
  5
1A3
330
173
100
AcDbXrecord
280
1
 90
4
  0
XRECORD
  5
1A5
330
173
100
AcDbXrecord
280
1
 40
46.4689202375708845
  0
XRECORD
  5
1A6
330
173
100
AcDbXrecord
280
1
 40
71.9000280078632841
  0
ENDSEC
  0
EOF
