  0
SECTION
  2
BLOCKS
  0
ENDSEC
  0
SECTION
  2
ENTITIES
  0
LINE
  8
0
 10
7.5
 20
20
 11
7.5
 21
-40
  0
LINE
  8
0
 10
7.5
 20
-40
 11
50
 21
-40
  0
LINE
  8
0
 10
50
 20
-40
 11
50
 21
40
  0
LINE
  8
0
 10
50
 20
40
 11
-50
 21
40
  0
LINE
  8
0
 10
-50
 20
40
 11
-50
 21
-40
  0
LINE
  8
0
 10
-50
 20
-40
 11
-7.5
 21
-40
  0
LINE
  8
0
 10
-7.5
 20
-40
 11
-7.5
 21
20
  0
LINE
  8
0
 10
-7.5
 20
20
 11
7.5
 21
20
  0
LINE
  8
0
 10
-40.1221
 20
26.5021
 11
-40.3658
 21
26.5192
  0
LINE
  8
0
 10
-40.3658
 20
26.5192
 11
-40.6078
 21
26.5532
  0
LINE
  8
0
 10
-40.6078
 20
26.5532
 11
-40.8467
 21
26.604
  0
LINE
  8
0
 10
-40.8467
 20
26.604
 11
-41.0816
 21
26.6713
  0
LINE
  8
0
 10
-41.0816
 20
26.6713
 11
-41.3111
 21
26.7549
  0
LINE
  8
0
 10
-41.3111
 20
26.7549
 11
-41.5343
 21
26.8542
  0
LINE
  8
0
 10
-41.5343
 20
26.8542
 11
-41.75
 21
26.9689
  0
LINE
  8
0
 10
-41.75
 20
26.9689
 11
-41.9572
 21
27.0984
  0
LINE
  8
0
 10
-41.9572
 20
27.0984
 11
-42.1548
 21
27.242
  0
LINE
  8
0
 10
-42.1548
 20
27.242
 11
-42.3419
 21
27.399
  0
LINE
  8
0
 10
-42.3419
 20
27.399
 11
-42.5177
 21
27.5687
  0
LINE
  8
0
 10
-42.5177
 20
27.5687
 11
-42.6812
 21
27.7502
  0
LINE
  8
0
 10
-42.6812
 20
27.7502
 11
-42.8316
 21
27.9427
  0
LINE
  8
0
 10
-42.8316
 20
27.9427
 11
-42.9682
 21
28.1453
  0
LINE
  8
0
 10
-42.9682
 20
28.1453
 11
-43.0903
 21
28.3568
  0
LINE
  8
0
 10
-43.0903
 20
28.3568
 11
-43.1974
 21
28.5764
  0
LINE
  8
0
 10
-43.1974
 20
28.5764
 11
-43.2889
 21
28.8029
  0
LINE
  8
0
 10
-43.2889
 20
28.8029
 11
-43.3644
 21
29.0353
  0
LINE
  8
0
 10
-43.3644
 20
29.0353
 11
-43.4235
 21
29.2723
  0
LINE
  8
0
 10
-43.4235
 20
29.2723
 11
-43.4659
 21
29.5129
  0
LINE
  8
0
 10
-43.4659
 20
29.5129
 11
-43.4915
 21
29.7558
  0
LINE
  8
0
 10
-43.4915
 20
29.7558
 11
-43.5
 21
30
  0
LINE
  8
0
 10
-43.5
 20
30
 11
-43.4915
 21
30.2441
  0
LINE
  8
0
 10
-43.4915
 20
30.2441
 11
-43.4659
 21
30.4871
  0
LINE
  8
0
 10
-43.4659
 20
30.4871
 11
-43.4235
 21
30.7277
  0
LINE
  8
0
 10
-43.4235
 20
30.7277
 11
-43.3644
 21
30.9647
  0
LINE
  8
0
 10
-43.3644
 20
30.9647
 11
-43.2889
 21
31.1971
  0
LINE
  8
0
 10
-43.2889
 20
31.1971
 11
-43.1974
 21
31.4236
  0
LINE
  8
0
 10
-43.1974
 20
31.4236
 11
-43.0903
 21
31.6431
  0
LINE
  8
0
 10
-43.0903
 20
31.6431
 11
-42.9682
 21
31.8547
  0
LINE
  8
0
 10
-42.9682
 20
31.8547
 11
-42.8316
 21
32.0572
  0
LINE
  8
0
 10
-42.8316
 20
32.0572
 11
-42.6812
 21
32.2498
  0
LINE
  8
0
 10
-42.6812
 20
32.2498
 11
-42.5177
 21
32.4313
  0
LINE
  8
0
 10
-42.5177
 20
32.4313
 11
-42.3419
 21
32.601
  0
LINE
  8
0
 10
-42.3419
 20
32.601
 11
-42.1548
 21
32.758
  0
LINE
  8
0
 10
-42.1548
 20
32.758
 11
-41.9572
 21
32.9016
  0
LINE
  8
0
 10
-41.9572
 20
32.9016
 11
-41.75
 21
33.0311
  0
LINE
  8
0
 10
-41.75
 20
33.0311
 11
-41.5343
 21
33.1458
  0
LINE
  8
0
 10
-41.5343
 20
33.1458
 11
-41.3111
 21
33.2451
  0
LINE
  8
0
 10
-41.3111
 20
33.2451
 11
-41.0816
 21
33.3287
  0
LINE
  8
0
 10
-41.0816
 20
33.3287
 11
-40.8467
 21
33.396
  0
LINE
  8
0
 10
-40.8467
 20
33.396
 11
-40.6078
 21
33.4468
  0
LINE
  8
0
 10
-40.6078
 20
33.4468
 11
-40.3658
 21
33.4808
  0
LINE
  8
0
 10
-40.3658
 20
33.4808
 11
-40.1221
 21
33.4979
  0
LINE
  8
0
 10
-40.1221
 20
33.4979
 11
-39.8778
 21
33.4979
  0
LINE
  8
0
 10
-39.8778
 20
33.4979
 11
-39.6341
 21
33.4808
  0
LINE
  8
0
 10
-39.6341
 20
33.4808
 11
-39.3922
 21
33.4468
  0
LINE
  8
0
 10
-39.3922
 20
33.4468
 11
-39.1533
 21
33.396
  0
LINE
  8
0
 10
-39.1533
 20
33.396
 11
-38.9184
 21
33.3287
  0
LINE
  8
0
 10
-38.9184
 20
33.3287
 11
-38.6889
 21
33.2451
  0
LINE
  8
0
 10
-38.6889
 20
33.2451
 11
-38.4657
 21
33.1458
  0
LINE
  8
0
 10
-38.4657
 20
33.1458
 11
-38.25
 21
33.0311
  0
LINE
  8
0
 10
-38.25
 20
33.0311
 11
-38.0428
 21
32.9016
  0
LINE
  8
0
 10
-38.0428
 20
32.9016
 11
-37.8452
 21
32.758
  0
LINE
  8
0
 10
-37.8452
 20
32.758
 11
-37.658
 21
32.601
  0
LINE
  8
0
 10
-37.658
 20
32.601
 11
-37.4823
 21
32.4313
  0
LINE
  8
0
 10
-37.4823
 20
32.4313
 11
-37.3188
 21
32.2498
  0
LINE
  8
0
 10
-37.3188
 20
32.2498
 11
-37.1684
 21
32.0572
  0
LINE
  8
0
 10
-37.1684
 20
32.0572
 11
-37.0318
 21
31.8547
  0
LINE
  8
0
 10
-37.0318
 20
31.8547
 11
-36.9097
 21
31.6431
  0
LINE
  8
0
 10
-36.9097
 20
31.6431
 11
-36.8026
 21
31.4236
  0
LINE
  8
0
 10
-36.8026
 20
31.4236
 11
-36.7111
 21
31.1971
  0
LINE
  8
0
 10
-36.7111
 20
31.1971
 11
-36.6356
 21
30.9647
  0
LINE
  8
0
 10
-36.6356
 20
30.9647
 11
-36.5765
 21
30.7277
  0
LINE
  8
0
 10
-36.5765
 20
30.7277
 11
-36.5341
 21
30.4871
  0
LINE
  8
0
 10
-36.5341
 20
30.4871
 11
-36.5085
 21
30.2441
  0
LINE
  8
0
 10
-36.5085
 20
30.2441
 11
-36.5
 21
30
  0
LINE
  8
0
 10
-36.5
 20
30
 11
-36.5085
 21
29.7558
  0
LINE
  8
0
 10
-36.5085
 20
29.7558
 11
-36.5341
 21
29.5129
  0
LINE
  8
0
 10
-36.5341
 20
29.5129
 11
-36.5765
 21
29.2723
  0
LINE
  8
0
 10
-36.5765
 20
29.2723
 11
-36.6356
 21
29.0353
  0
LINE
  8
0
 10
-36.6356
 20
29.0353
 11
-36.7111
 21
28.8029
  0
LINE
  8
0
 10
-36.7111
 20
28.8029
 11
-36.8026
 21
28.5764
  0
LINE
  8
0
 10
-36.8026
 20
28.5764
 11
-36.9097
 21
28.3568
  0
LINE
  8
0
 10
-36.9097
 20
28.3568
 11
-37.0318
 21
28.1453
  0
LINE
  8
0
 10
-37.0318
 20
28.1453
 11
-37.1684
 21
27.9427
  0
LINE
  8
0
 10
-37.1684
 20
27.9427
 11
-37.3188
 21
27.7502
  0
LINE
  8
0
 10
-37.3188
 20
27.7502
 11
-37.4823
 21
27.5687
  0
LINE
  8
0
 10
-37.4823
 20
27.5687
 11
-37.658
 21
27.399
  0
LINE
  8
0
 10
-37.658
 20
27.399
 11
-37.8452
 21
27.242
  0
LINE
  8
0
 10
-37.8452
 20
27.242
 11
-38.0428
 21
27.0984
  0
LINE
  8
0
 10
-38.0428
 20
27.0984
 11
-38.25
 21
26.9689
  0
LINE
  8
0
 10
-38.25
 20
26.9689
 11
-38.4657
 21
26.8542
  0
LINE
  8
0
 10
-38.4657
 20
26.8542
 11
-38.6889
 21
26.7549
  0
LINE
  8
0
 10
-38.6889
 20
26.7549
 11
-38.9184
 21
26.6713
  0
LINE
  8
0
 10
-38.9184
 20
26.6713
 11
-39.1533
 21
26.604
  0
LINE
  8
0
 10
-39.1533
 20
26.604
 11
-39.3922
 21
26.5532
  0
LINE
  8
0
 10
-39.3922
 20
26.5532
 11
-39.6341
 21
26.5192
  0
LINE
  8
0
 10
-39.6341
 20
26.5192
 11
-39.8778
 21
26.5021
  0
LINE
  8
0
 10
-39.8778
 20
26.5021
 11
-40.1221
 21
26.5021
  0
LINE
  8
0
 10
39.8778
 20
26.5021
 11
39.6341
 21
26.5192
  0
LINE
  8
0
 10
39.6341
 20
26.5192
 11
39.3922
 21
26.5532
  0
LINE
  8
0
 10
39.3922
 20
26.5532
 11
39.1533
 21
26.604
  0
LINE
  8
0
 10
39.1533
 20
26.604
 11
38.9184
 21
26.6713
  0
LINE
  8
0
 10
38.9184
 20
26.6713
 11
38.6889
 21
26.7549
  0
LINE
  8
0
 10
38.6889
 20
26.7549
 11
38.4657
 21
26.8542
  0
LINE
  8
0
 10
38.4657
 20
26.8542
 11
38.25
 21
26.9689
  0
LINE
  8
0
 10
38.25
 20
26.9689
 11
38.0428
 21
27.0984
  0
LINE
  8
0
 10
38.0428
 20
27.0984
 11
37.8452
 21
27.242
  0
LINE
  8
0
 10
37.8452
 20
27.242
 11
37.658
 21
27.399
  0
LINE
  8
0
 10
37.658
 20
27.399
 11
37.4823
 21
27.5687
  0
LINE
  8
0
 10
37.4823
 20
27.5687
 11
37.3188
 21
27.7502
  0
LINE
  8
0
 10
37.3188
 20
27.7502
 11
37.1684
 21
27.9427
  0
LINE
  8
0
 10
37.1684
 20
27.9427
 11
37.0318
 21
28.1453
  0
LINE
  8
0
 10
37.0318
 20
28.1453
 11
36.9097
 21
28.3568
  0
LINE
  8
0
 10
36.9097
 20
28.3568
 11
36.8026
 21
28.5764
  0
LINE
  8
0
 10
36.8026
 20
28.5764
 11
36.7111
 21
28.8029
  0
LINE
  8
0
 10
36.7111
 20
28.8029
 11
36.6356
 21
29.0353
  0
LINE
  8
0
 10
36.6356
 20
29.0353
 11
36.5765
 21
29.2723
  0
LINE
  8
0
 10
36.5765
 20
29.2723
 11
36.5341
 21
29.5129
  0
LINE
  8
0
 10
36.5341
 20
29.5129
 11
36.5085
 21
29.7558
  0
LINE
  8
0
 10
36.5085
 20
29.7558
 11
36.5
 21
30
  0
LINE
  8
0
 10
36.5
 20
30
 11
36.5085
 21
30.2441
  0
LINE
  8
0
 10
36.5085
 20
30.2441
 11
36.5341
 21
30.4871
  0
LINE
  8
0
 10
36.5341
 20
30.4871
 11
36.5765
 21
30.7277
  0
LINE
  8
0
 10
36.5765
 20
30.7277
 11
36.6356
 21
30.9647
  0
LINE
  8
0
 10
36.6356
 20
30.9647
 11
36.7111
 21
31.1971
  0
LINE
  8
0
 10
36.7111
 20
31.1971
 11
36.8026
 21
31.4236
  0
LINE
  8
0
 10
36.8026
 20
31.4236
 11
36.9097
 21
31.6431
  0
LINE
  8
0
 10
36.9097
 20
31.6431
 11
37.0318
 21
31.8547
  0
LINE
  8
0
 10
37.0318
 20
31.8547
 11
37.1684
 21
32.0572
  0
LINE
  8
0
 10
37.1684
 20
32.0572
 11
37.3188
 21
32.2498
  0
LINE
  8
0
 10
37.3188
 20
32.2498
 11
37.4823
 21
32.4313
  0
LINE
  8
0
 10
37.4823
 20
32.4313
 11
37.658
 21
32.601
  0
LINE
  8
0
 10
37.658
 20
32.601
 11
37.8452
 21
32.758
  0
LINE
  8
0
 10
37.8452
 20
32.758
 11
38.0428
 21
32.9016
  0
LINE
  8
0
 10
38.0428
 20
32.9016
 11
38.25
 21
33.0311
  0
LINE
  8
0
 10
38.25
 20
33.0311
 11
38.4657
 21
33.1458
  0
LINE
  8
0
 10
38.4657
 20
33.1458
 11
38.6889
 21
33.2451
  0
LINE
  8
0
 10
38.6889
 20
33.2451
 11
38.9184
 21
33.3287
  0
LINE
  8
0
 10
38.9184
 20
33.3287
 11
39.1533
 21
33.396
  0
LINE
  8
0
 10
39.1533
 20
33.396
 11
39.3922
 21
33.4468
  0
LINE
  8
0
 10
39.3922
 20
33.4468
 11
39.6341
 21
33.4808
  0
LINE
  8
0
 10
39.6341
 20
33.4808
 11
39.8778
 21
33.4979
  0
LINE
  8
0
 10
39.8778
 20
33.4979
 11
40.1221
 21
33.4979
  0
LINE
  8
0
 10
40.1221
 20
33.4979
 11
40.3658
 21
33.4808
  0
LINE
  8
0
 10
40.3658
 20
33.4808
 11
40.6078
 21
33.4468
  0
LINE
  8
0
 10
40.6078
 20
33.4468
 11
40.8467
 21
33.396
  0
LINE
  8
0
 10
40.8467
 20
33.396
 11
41.0816
 21
33.3287
  0
LINE
  8
0
 10
41.0816
 20
33.3287
 11
41.3111
 21
33.2451
  0
LINE
  8
0
 10
41.3111
 20
33.2451
 11
41.5343
 21
33.1458
  0
LINE
  8
0
 10
41.5343
 20
33.1458
 11
41.75
 21
33.0311
  0
LINE
  8
0
 10
41.75
 20
33.0311
 11
41.9572
 21
32.9016
  0
LINE
  8
0
 10
41.9572
 20
32.9016
 11
42.1548
 21
32.758
  0
LINE
  8
0
 10
42.1548
 20
32.758
 11
42.3419
 21
32.601
  0
LINE
  8
0
 10
42.3419
 20
32.601
 11
42.5177
 21
32.4313
  0
LINE
  8
0
 10
42.5177
 20
32.4313
 11
42.6812
 21
32.2498
  0
LINE
  8
0
 10
42.6812
 20
32.2498
 11
42.8316
 21
32.0572
  0
LINE
  8
0
 10
42.8316
 20
32.0572
 11
42.9682
 21
31.8547
  0
LINE
  8
0
 10
42.9682
 20
31.8547
 11
43.0903
 21
31.6431
  0
LINE
  8
0
 10
43.0903
 20
31.6431
 11
43.1974
 21
31.4236
  0
LINE
  8
0
 10
43.1974
 20
31.4236
 11
43.2889
 21
31.1971
  0
LINE
  8
0
 10
43.2889
 20
31.1971
 11
43.3644
 21
30.9647
  0
LINE
  8
0
 10
43.3644
 20
30.9647
 11
43.4235
 21
30.7277
  0
LINE
  8
0
 10
43.4235
 20
30.7277
 11
43.4659
 21
30.4871
  0
LINE
  8
0
 10
43.4659
 20
30.4871
 11
43.4915
 21
30.2441
  0
LINE
  8
0
 10
43.4915
 20
30.2441
 11
43.5
 21
30
  0
LINE
  8
0
 10
43.5
 20
30
 11
43.4915
 21
29.7558
  0
LINE
  8
0
 10
43.4915
 20
29.7558
 11
43.4659
 21
29.5129
  0
LINE
  8
0
 10
43.4659
 20
29.5129
 11
43.4235
 21
29.2723
  0
LINE
  8
0
 10
43.4235
 20
29.2723
 11
43.3644
 21
29.0353
  0
LINE
  8
0
 10
43.3644
 20
29.0353
 11
43.2889
 21
28.8029
  0
LINE
  8
0
 10
43.2889
 20
28.8029
 11
43.1974
 21
28.5764
  0
LINE
  8
0
 10
43.1974
 20
28.5764
 11
43.0903
 21
28.3568
  0
LINE
  8
0
 10
43.0903
 20
28.3568
 11
42.9682
 21
28.1453
  0
LINE
  8
0
 10
42.9682
 20
28.1453
 11
42.8316
 21
27.9427
  0
LINE
  8
0
 10
42.8316
 20
27.9427
 11
42.6812
 21
27.7502
  0
LINE
  8
0
 10
42.6812
 20
27.7502
 11
42.5177
 21
27.5687
  0
LINE
  8
0
 10
42.5177
 20
27.5687
 11
42.3419
 21
27.399
  0
LINE
  8
0
 10
42.3419
 20
27.399
 11
42.1548
 21
27.242
  0
LINE
  8
0
 10
42.1548
 20
27.242
 11
41.9572
 21
27.0984
  0
LINE
  8
0
 10
41.9572
 20
27.0984
 11
41.75
 21
26.9689
  0
LINE
  8
0
 10
41.75
 20
26.9689
 11
41.5343
 21
26.8542
  0
LINE
  8
0
 10
41.5343
 20
26.8542
 11
41.3111
 21
26.7549
  0
LINE
  8
0
 10
41.3111
 20
26.7549
 11
41.0816
 21
26.6713
  0
LINE
  8
0
 10
41.0816
 20
26.6713
 11
40.8467
 21
26.604
  0
LINE
  8
0
 10
40.8467
 20
26.604
 11
40.6078
 21
26.5532
  0
LINE
  8
0
 10
40.6078
 20
26.5532
 11
40.3658
 21
26.5192
  0
LINE
  8
0
 10
40.3658
 20
26.5192
 11
40.1221
 21
26.5021
  0
LINE
  8
0
 10
40.1221
 20
26.5021
 11
39.8778
 21
26.5021
  0
LINE
  8
0
 10
-15.1221
 20
-4.99786
 11
-15.3658
 21
-4.98082
  0
LINE
  8
0
 10
-15.3658
 20
-4.98082
 11
-15.6078
 21
-4.94682
  0
LINE
  8
0
 10
-15.6078
 20
-4.94682
 11
-15.8467
 21
-4.89603
  0
LINE
  8
0
 10
-15.8467
 20
-4.89603
 11
-16.0816
 21
-4.82869
  0
LINE
  8
0
 10
-16.0816
 20
-4.82869
 11
-16.3111
 21
-4.74513
  0
LINE
  8
0
 10
-16.3111
 20
-4.74513
 11
-16.5343
 21
-4.64577
  0
LINE
  8
0
 10
-16.5343
 20
-4.64577
 11
-16.75
 21
-4.53108
  0
LINE
  8
0
 10
-16.75
 20
-4.53108
 11
-16.9572
 21
-4.40163
  0
LINE
  8
0
 10
-16.9572
 20
-4.40163
 11
-17.1548
 21
-4.25803
  0
LINE
  8
0
 10
-17.1548
 20
-4.25803
 11
-17.3419
 21
-4.101
  0
LINE
  8
0
 10
-17.3419
 20
-4.101
 11
-17.5177
 21
-3.93129
  0
LINE
  8
0
 10
-17.5177
 20
-3.93129
 11
-17.6812
 21
-3.74976
  0
LINE
  8
0
 10
-17.6812
 20
-3.74976
 11
-17.8316
 21
-3.55724
  0
LINE
  8
0
 10
-17.8316
 20
-3.55724
 11
-17.9682
 21
-3.35471
  0
LINE
  8
0
 10
-17.9682
 20
-3.35471
 11
-18.0903
 21
-3.14314
  0
LINE
  8
0
 10
-18.0903
 20
-3.14314
 11
-18.1974
 21
-2.92357
  0
LINE
  8
0
 10
-18.1974
 20
-2.92357
 11
-18.2889
 21
-2.69707
  0
LINE
  8
0
 10
-18.2889
 20
-2.69707
 11
-18.3644
 21
-2.46472
  0
LINE
  8
0
 10
-18.3644
 20
-2.46472
 11
-18.4235
 21
-2.22768
  0
LINE
  8
0
 10
-18.4235
 20
-2.22768
 11
-18.4659
 21
-1.98709
  0
LINE
  8
0
 10
-18.4659
 20
-1.98709
 11
-18.4915
 21
-1.74414
  0
LINE
  8
0
 10
-18.4915
 20
-1.74414
 11
-18.5
 21
-1.49998
  0
LINE
  8
0
 10
-18.5
 20
-1.49998
 11
-18.4915
 21
-1.25584
  0
LINE
  8
0
 10
-18.4915
 20
-1.25584
 11
-18.4659
 21
-1.01289
  0
LINE
  8
0
 10
-18.4659
 20
-1.01289
 11
-18.4235
 21
-0.772308
  0
LINE
  8
0
 10
-18.4235
 20
-0.772308
 11
-18.3644
 21
-0.535263
  0
LINE
  8
0
 10
-18.3644
 20
-0.535263
 11
-18.2889
 21
-0.302917
  0
LINE
  8
0
 10
-18.2889
 20
-0.302917
 11
-18.1974
 21
-0.076416
  0
LINE
  8
0
 10
-18.1974
 20
-0.076416
 11
-18.0903
 21
0.143143
  0
LINE
  8
0
 10
-18.0903
 20
0.143143
 11
-17.9682
 21
0.354706
  0
LINE
  8
0
 10
-17.9682
 20
0.354706
 11
-17.8316
 21
0.557236
  0
LINE
  8
0
 10
-17.8316
 20
0.557236
 11
-17.6812
 21
0.749756
  0
LINE
  8
0
 10
-17.6812
 20
0.749756
 11
-17.5177
 21
0.93129
  0
LINE
  8
0
 10
-17.5177
 20
0.93129
 11
-17.3419
 21
1.101
  0
LINE
  8
0
 10
-17.3419
 20
1.101
 11
-17.1548
 21
1.25803
  0
LINE
  8
0
 10
-17.1548
 20
1.25803
 11
-16.9572
 21
1.40163
  0
LINE
  8
0
 10
-16.9572
 20
1.40163
 11
-16.75
 21
1.53108
  0
LINE
  8
0
 10
-16.75
 20
1.53108
 11
-16.5343
 21
1.64577
  0
LINE
  8
0
 10
-16.5343
 20
1.64577
 11
-16.3111
 21
1.74513
  0
LINE
  8
0
 10
-16.3111
 20
1.74513
 11
-16.0816
 21
1.82869
  0
LINE
  8
0
 10
-16.0816
 20
1.82869
 11
-15.8467
 21
1.89603
  0
LINE
  8
0
 10
-15.8467
 20
1.89603
 11
-15.6078
 21
1.94682
  0
LINE
  8
0
 10
-15.6078
 20
1.94682
 11
-15.3658
 21
1.98082
  0
LINE
  8
0
 10
-15.3658
 20
1.98082
 11
-15.1221
 21
1.99786
  0
LINE
  8
0
 10
-15.1221
 20
1.99786
 11
-14.8778
 21
1.99786
  0
LINE
  8
0
 10
-14.8778
 20
1.99786
 11
-14.6341
 21
1.98082
  0
LINE
  8
0
 10
-14.6341
 20
1.98082
 11
-14.3922
 21
1.94682
  0
LINE
  8
0
 10
-14.3922
 20
1.94682
 11
-14.1533
 21
1.89603
  0
LINE
  8
0
 10
-14.1533
 20
1.89603
 11
-13.9184
 21
1.82869
  0
LINE
  8
0
 10
-13.9184
 20
1.82869
 11
-13.6889
 21
1.74513
  0
LINE
  8
0
 10
-13.6889
 20
1.74513
 11
-13.4657
 21
1.64577
  0
LINE
  8
0
 10
-13.4657
 20
1.64577
 11
-13.25
 21
1.53108
  0
LINE
  8
0
 10
-13.25
 20
1.53108
 11
-13.0428
 21
1.40163
  0
LINE
  8
0
 10
-13.0428
 20
1.40163
 11
-12.8452
 21
1.25803
  0
LINE
  8
0
 10
-12.8452
 20
1.25803
 11
-12.658
 21
1.101
  0
LINE
  8
0
 10
-12.658
 20
1.101
 11
-12.4823
 21
0.93129
  0
LINE
  8
0
 10
-12.4823
 20
0.93129
 11
-12.3188
 21
0.749756
  0
LINE
  8
0
 10
-12.3188
 20
0.749756
 11
-12.1684
 21
0.557236
  0
LINE
  8
0
 10
-12.1684
 20
0.557236
 11
-12.0318
 21
0.354706
  0
LINE
  8
0
 10
-12.0318
 20
0.354706
 11
-11.9097
 21
0.143143
  0
LINE
  8
0
 10
-11.9097
 20
0.143143
 11
-11.8026
 21
-0.076416
  0
LINE
  8
0
 10
-11.8026
 20
-0.076416
 11
-11.7111
 21
-0.302917
  0
LINE
  8
0
 10
-11.7111
 20
-0.302917
 11
-11.6356
 21
-0.535263
  0
LINE
  8
0
 10
-11.6356
 20
-0.535263
 11
-11.5765
 21
-0.772308
  0
LINE
  8
0
 10
-11.5765
 20
-0.772308
 11
-11.5341
 21
-1.01289
  0
LINE
  8
0
 10
-11.5341
 20
-1.01289
 11
-11.5085
 21
-1.25584
  0
LINE
  8
0
 10
-11.5085
 20
-1.25584
 11
-11.5
 21
-1.5
  0
LINE
  8
0
 10
-11.5
 20
-1.5
 11
-11.5085
 21
-1.74414
  0
LINE
  8
0
 10
-11.5085
 20
-1.74414
 11
-11.5341
 21
-1.98709
  0
LINE
  8
0
 10
-11.5341
 20
-1.98709
 11
-11.5765
 21
-2.22768
  0
LINE
  8
0
 10
-11.5765
 20
-2.22768
 11
-11.6356
 21
-2.46472
  0
LINE
  8
0
 10
-11.6356
 20
-2.46472
 11
-11.7111
 21
-2.69707
  0
LINE
  8
0
 10
-11.7111
 20
-2.69707
 11
-11.8026
 21
-2.92357
  0
LINE
  8
0
 10
-11.8026
 20
-2.92357
 11
-11.9097
 21
-3.14314
  0
LINE
  8
0
 10
-11.9097
 20
-3.14314
 11
-12.0318
 21
-3.35471
  0
LINE
  8
0
 10
-12.0318
 20
-3.35471
 11
-12.1684
 21
-3.55724
  0
LINE
  8
0
 10
-12.1684
 20
-3.55724
 11
-12.3188
 21
-3.74976
  0
LINE
  8
0
 10
-12.3188
 20
-3.74976
 11
-12.4823
 21
-3.93129
  0
LINE
  8
0
 10
-12.4823
 20
-3.93129
 11
-12.658
 21
-4.101
  0
LINE
  8
0
 10
-12.658
 20
-4.101
 11
-12.8452
 21
-4.25803
  0
LINE
  8
0
 10
-12.8452
 20
-4.25803
 11
-13.0428
 21
-4.40163
  0
LINE
  8
0
 10
-13.0428
 20
-4.40163
 11
-13.25
 21
-4.53108
  0
LINE
  8
0
 10
-13.25
 20
-4.53108
 11
-13.4657
 21
-4.64577
  0
LINE
  8
0
 10
-13.4657
 20
-4.64577
 11
-13.6889
 21
-4.74513
  0
LINE
  8
0
 10
-13.6889
 20
-4.74513
 11
-13.9184
 21
-4.82869
  0
LINE
  8
0
 10
-13.9184
 20
-4.82869
 11
-14.1533
 21
-4.89603
  0
LINE
  8
0
 10
-14.1533
 20
-4.89603
 11
-14.3922
 21
-4.94682
  0
LINE
  8
0
 10
-14.3922
 20
-4.94682
 11
-14.6341
 21
-4.98082
  0
LINE
  8
0
 10
-14.6341
 20
-4.98082
 11
-14.8778
 21
-4.99786
  0
LINE
  8
0
 10
-14.8778
 20
-4.99786
 11
-15.1221
 21
-4.99786
  0
LINE
  8
0
 10
14.8778
 20
-4.99786
 11
14.6341
 21
-4.98082
  0
LINE
  8
0
 10
14.6341
 20
-4.98082
 11
14.3922
 21
-4.94682
  0
LINE
  8
0
 10
14.3922
 20
-4.94682
 11
14.1533
 21
-4.89603
  0
LINE
  8
0
 10
14.1533
 20
-4.89603
 11
13.9184
 21
-4.82869
  0
LINE
  8
0
 10
13.9184
 20
-4.82869
 11
13.6889
 21
-4.74513
  0
LINE
  8
0
 10
13.6889
 20
-4.74513
 11
13.4657
 21
-4.64577
  0
LINE
  8
0
 10
13.4657
 20
-4.64577
 11
13.25
 21
-4.53108
  0
LINE
  8
0
 10
13.25
 20
-4.53108
 11
13.0428
 21
-4.40163
  0
LINE
  8
0
 10
13.0428
 20
-4.40163
 11
12.8452
 21
-4.25803
  0
LINE
  8
0
 10
12.8452
 20
-4.25803
 11
12.658
 21
-4.101
  0
LINE
  8
0
 10
12.658
 20
-4.101
 11
12.4823
 21
-3.93129
  0
LINE
  8
0
 10
12.4823
 20
-3.93129
 11
12.3188
 21
-3.74976
  0
LINE
  8
0
 10
12.3188
 20
-3.74976
 11
12.1684
 21
-3.55724
  0
LINE
  8
0
 10
12.1684
 20
-3.55724
 11
12.0318
 21
-3.35471
  0
LINE
  8
0
 10
12.0318
 20
-3.35471
 11
11.9097
 21
-3.14314
  0
LINE
  8
0
 10
11.9097
 20
-3.14314
 11
11.8026
 21
-2.92357
  0
LINE
  8
0
 10
11.8026
 20
-2.92357
 11
11.7111
 21
-2.69707
  0
LINE
  8
0
 10
11.7111
 20
-2.69707
 11
11.6356
 21
-2.46472
  0
LINE
  8
0
 10
11.6356
 20
-2.46472
 11
11.5765
 21
-2.22768
  0
LINE
  8
0
 10
11.5765
 20
-2.22768
 11
11.5341
 21
-1.98709
  0
LINE
  8
0
 10
11.5341
 20
-1.98709
 11
11.5085
 21
-1.74414
  0
LINE
  8
0
 10
11.5085
 20
-1.74414
 11
11.5
 21
-1.49998
  0
LINE
  8
0
 10
11.5
 20
-1.49998
 11
11.5085
 21
-1.25584
  0
LINE
  8
0
 10
11.5085
 20
-1.25584
 11
11.5341
 21
-1.01289
  0
LINE
  8
0
 10
11.5341
 20
-1.01289
 11
11.5765
 21
-0.772308
  0
LINE
  8
0
 10
11.5765
 20
-0.772308
 11
11.6356
 21
-0.535263
  0
LINE
  8
0
 10
11.6356
 20
-0.535263
 11
11.7111
 21
-0.302917
  0
LINE
  8
0
 10
11.7111
 20
-0.302917
 11
11.8026
 21
-0.076416
  0
LINE
  8
0
 10
11.8026
 20
-0.076416
 11
11.9097
 21
0.143143
  0
LINE
  8
0
 10
11.9097
 20
0.143143
 11
12.0318
 21
0.354706
  0
LINE
  8
0
 10
12.0318
 20
0.354706
 11
12.1684
 21
0.557236
  0
LINE
  8
0
 10
12.1684
 20
0.557236
 11
12.3188
 21
0.749756
  0
LINE
  8
0
 10
12.3188
 20
0.749756
 11
12.4823
 21
0.93129
  0
LINE
  8
0
 10
12.4823
 20
0.93129
 11
12.658
 21
1.101
  0
LINE
  8
0
 10
12.658
 20
1.101
 11
12.8452
 21
1.25803
  0
LINE
  8
0
 10
12.8452
 20
1.25803
 11
13.0428
 21
1.40163
  0
LINE
  8
0
 10
13.0428
 20
1.40163
 11
13.25
 21
1.53108
  0
LINE
  8
0
 10
13.25
 20
1.53108
 11
13.4657
 21
1.64577
  0
LINE
  8
0
 10
13.4657
 20
1.64577
 11
13.6889
 21
1.74513
  0
LINE
  8
0
 10
13.6889
 20
1.74513
 11
13.9184
 21
1.82869
  0
LINE
  8
0
 10
13.9184
 20
1.82869
 11
14.1533
 21
1.89603
  0
LINE
  8
0
 10
14.1533
 20
1.89603
 11
14.3922
 21
1.94682
  0
LINE
  8
0
 10
14.3922
 20
1.94682
 11
14.6341
 21
1.98082
  0
LINE
  8
0
 10
14.6341
 20
1.98082
 11
14.8778
 21
1.99786
  0
LINE
  8
0
 10
14.8778
 20
1.99786
 11
15.1221
 21
1.99786
  0
LINE
  8
0
 10
15.1221
 20
1.99786
 11
15.3658
 21
1.98082
  0
LINE
  8
0
 10
15.3658
 20
1.98082
 11
15.6078
 21
1.94682
  0
LINE
  8
0
 10
15.6078
 20
1.94682
 11
15.8467
 21
1.89603
  0
LINE
  8
0
 10
15.8467
 20
1.89603
 11
16.0816
 21
1.82869
  0
LINE
  8
0
 10
16.0816
 20
1.82869
 11
16.3111
 21
1.74513
  0
LINE
  8
0
 10
16.3111
 20
1.74513
 11
16.5343
 21
1.64577
  0
LINE
  8
0
 10
16.5343
 20
1.64577
 11
16.75
 21
1.53108
  0
LINE
  8
0
 10
16.75
 20
1.53108
 11
16.9572
 21
1.40163
  0
LINE
  8
0
 10
16.9572
 20
1.40163
 11
17.1548
 21
1.25803
  0
LINE
  8
0
 10
17.1548
 20
1.25803
 11
17.3419
 21
1.101
  0
LINE
  8
0
 10
17.3419
 20
1.101
 11
17.5177
 21
0.93129
  0
LINE
  8
0
 10
17.5177
 20
0.93129
 11
17.6812
 21
0.749756
  0
LINE
  8
0
 10
17.6812
 20
0.749756
 11
17.8316
 21
0.557236
  0
LINE
  8
0
 10
17.8316
 20
0.557236
 11
17.9682
 21
0.354706
  0
LINE
  8
0
 10
17.9682
 20
0.354706
 11
18.0903
 21
0.143143
  0
LINE
  8
0
 10
18.0903
 20
0.143143
 11
18.1974
 21
-0.076416
  0
LINE
  8
0
 10
18.1974
 20
-0.076416
 11
18.2889
 21
-0.302917
  0
LINE
  8
0
 10
18.2889
 20
-0.302917
 11
18.3644
 21
-0.535263
  0
LINE
  8
0
 10
18.3644
 20
-0.535263
 11
18.4235
 21
-0.772308
  0
LINE
  8
0
 10
18.4235
 20
-0.772308
 11
18.4659
 21
-1.01289
  0
LINE
  8
0
 10
18.4659
 20
-1.01289
 11
18.4915
 21
-1.25584
  0
LINE
  8
0
 10
18.4915
 20
-1.25584
 11
18.5
 21
-1.5
  0
LINE
  8
0
 10
18.5
 20
-1.5
 11
18.4915
 21
-1.74414
  0
LINE
  8
0
 10
18.4915
 20
-1.74414
 11
18.4659
 21
-1.98709
  0
LINE
  8
0
 10
18.4659
 20
-1.98709
 11
18.4235
 21
-2.22768
  0
LINE
  8
0
 10
18.4235
 20
-2.22768
 11
18.3644
 21
-2.46472
  0
LINE
  8
0
 10
18.3644
 20
-2.46472
 11
18.2889
 21
-2.69707
  0
LINE
  8
0
 10
18.2889
 20
-2.69707
 11
18.1974
 21
-2.92357
  0
LINE
  8
0
 10
18.1974
 20
-2.92357
 11
18.0903
 21
-3.14314
  0
LINE
  8
0
 10
18.0903
 20
-3.14314
 11
17.9682
 21
-3.35471
  0
LINE
  8
0
 10
17.9682
 20
-3.35471
 11
17.8316
 21
-3.55724
  0
LINE
  8
0
 10
17.8316
 20
-3.55724
 11
17.6812
 21
-3.74976
  0
LINE
  8
0
 10
17.6812
 20
-3.74976
 11
17.5177
 21
-3.93129
  0
LINE
  8
0
 10
17.5177
 20
-3.93129
 11
17.3419
 21
-4.101
  0
LINE
  8
0
 10
17.3419
 20
-4.101
 11
17.1548
 21
-4.25803
  0
LINE
  8
0
 10
17.1548
 20
-4.25803
 11
16.9572
 21
-4.40163
  0
LINE
  8
0
 10
16.9572
 20
-4.40163
 11
16.75
 21
-4.53108
  0
LINE
  8
0
 10
16.75
 20
-4.53108
 11
16.5343
 21
-4.64577
  0
LINE
  8
0
 10
16.5343
 20
-4.64577
 11
16.3111
 21
-4.74513
  0
LINE
  8
0
 10
16.3111
 20
-4.74513
 11
16.0816
 21
-4.82869
  0
LINE
  8
0
 10
16.0816
 20
-4.82869
 11
15.8467
 21
-4.89603
  0
LINE
  8
0
 10
15.8467
 20
-4.89603
 11
15.6078
 21
-4.94682
  0
LINE
  8
0
 10
15.6078
 20
-4.94682
 11
15.3658
 21
-4.98082
  0
LINE
  8
0
 10
15.3658
 20
-4.98082
 11
15.1221
 21
-4.99786
  0
LINE
  8
0
 10
15.1221
 20
-4.99786
 11
14.8778
 21
-4.99786
  0
LINE
  8
0
 10
-40.1221
 20
-23.4979
 11
-40.3658
 21
-23.4808
  0
LINE
  8
0
 10
-40.3658
 20
-23.4808
 11
-40.6078
 21
-23.4468
  0
LINE
  8
0
 10
-40.6078
 20
-23.4468
 11
-40.8467
 21
-23.396
  0
LINE
  8
0
 10
-40.8467
 20
-23.396
 11
-41.0816
 21
-23.3287
  0
LINE
  8
0
 10
-41.0816
 20
-23.3287
 11
-41.3111
 21
-23.2451
  0
LINE
  8
0
 10
-41.3111
 20
-23.2451
 11
-41.5343
 21
-23.1458
  0
LINE
  8
0
 10
-41.5343
 20
-23.1458
 11
-41.75
 21
-23.0311
  0
LINE
  8
0
 10
-41.75
 20
-23.0311
 11
-41.9572
 21
-22.9016
  0
LINE
  8
0
 10
-41.9572
 20
-22.9016
 11
-42.1548
 21
-22.758
  0
LINE
  8
0
 10
-42.1548
 20
-22.758
 11
-42.3419
 21
-22.601
  0
LINE
  8
0
 10
-42.3419
 20
-22.601
 11
-42.5177
 21
-22.4313
  0
LINE
  8
0
 10
-42.5177
 20
-22.4313
 11
-42.6812
 21
-22.2498
  0
LINE
  8
0
 10
-42.6812
 20
-22.2498
 11
-42.8316
 21
-22.0572
  0
LINE
  8
0
 10
-42.8316
 20
-22.0572
 11
-42.9682
 21
-21.8547
  0
LINE
  8
0
 10
-42.9682
 20
-21.8547
 11
-43.0903
 21
-21.6431
  0
LINE
  8
0
 10
-43.0903
 20
-21.6431
 11
-43.1974
 21
-21.4236
  0
LINE
  8
0
 10
-43.1974
 20
-21.4236
 11
-43.2889
 21
-21.1971
  0
LINE
  8
0
 10
-43.2889
 20
-21.1971
 11
-43.3644
 21
-20.9647
  0
LINE
  8
0
 10
-43.3644
 20
-20.9647
 11
-43.4235
 21
-20.7277
  0
LINE
  8
0
 10
-43.4235
 20
-20.7277
 11
-43.4659
 21
-20.4871
  0
LINE
  8
0
 10
-43.4659
 20
-20.4871
 11
-43.4915
 21
-20.2441
  0
LINE
  8
0
 10
-43.4915
 20
-20.2441
 11
-43.5
 21
-20
  0
LINE
  8
0
 10
-43.5
 20
-20
 11
-43.4915
 21
-19.7558
  0
LINE
  8
0
 10
-43.4915
 20
-19.7558
 11
-43.4659
 21
-19.5129
  0
LINE
  8
0
 10
-43.4659
 20
-19.5129
 11
-43.4235
 21
-19.2723
  0
LINE
  8
0
 10
-43.4235
 20
-19.2723
 11
-43.3644
 21
-19.0353
  0
LINE
  8
0
 10
-43.3644
 20
-19.0353
 11
-43.2889
 21
-18.8029
  0
LINE
  8
0
 10
-43.2889
 20
-18.8029
 11
-43.1974
 21
-18.5764
  0
LINE
  8
0
 10
-43.1974
 20
-18.5764
 11
-43.0903
 21
-18.3568
  0
LINE
  8
0
 10
-43.0903
 20
-18.3568
 11
-42.9682
 21
-18.1453
  0
LINE
  8
0
 10
-42.9682
 20
-18.1453
 11
-42.8316
 21
-17.9427
  0
LINE
  8
0
 10
-42.8316
 20
-17.9427
 11
-42.6812
 21
-17.7502
  0
LINE
  8
0
 10
-42.6812
 20
-17.7502
 11
-42.5177
 21
-17.5687
  0
LINE
  8
0
 10
-42.5177
 20
-17.5687
 11
-42.3419
 21
-17.399
  0
LINE
  8
0
 10
-42.3419
 20
-17.399
 11
-42.1548
 21
-17.242
  0
LINE
  8
0
 10
-42.1548
 20
-17.242
 11
-41.9572
 21
-17.0984
  0
LINE
  8
0
 10
-41.9572
 20
-17.0984
 11
-41.75
 21
-16.9689
  0
LINE
  8
0
 10
-41.75
 20
-16.9689
 11
-41.5343
 21
-16.8542
  0
LINE
  8
0
 10
-41.5343
 20
-16.8542
 11
-41.3111
 21
-16.7549
  0
LINE
  8
0
 10
-41.3111
 20
-16.7549
 11
-41.0816
 21
-16.6713
  0
LINE
  8
0
 10
-41.0816
 20
-16.6713
 11
-40.8467
 21
-16.604
  0
LINE
  8
0
 10
-40.8467
 20
-16.604
 11
-40.6078
 21
-16.5532
  0
LINE
  8
0
 10
-40.6078
 20
-16.5532
 11
-40.3658
 21
-16.5192
  0
LINE
  8
0
 10
-40.3658
 20
-16.5192
 11
-40.1221
 21
-16.5021
  0
LINE
  8
0
 10
-40.1221
 20
-16.5021
 11
-39.8778
 21
-16.5021
  0
LINE
  8
0
 10
-39.8778
 20
-16.5021
 11
-39.6341
 21
-16.5192
  0
LINE
  8
0
 10
-39.6341
 20
-16.5192
 11
-39.3922
 21
-16.5532
  0
LINE
  8
0
 10
-39.3922
 20
-16.5532
 11
-39.1533
 21
-16.604
  0
LINE
  8
0
 10
-39.1533
 20
-16.604
 11
-38.9184
 21
-16.6713
  0
LINE
  8
0
 10
-38.9184
 20
-16.6713
 11
-38.6889
 21
-16.7549
  0
LINE
  8
0
 10
-38.6889
 20
-16.7549
 11
-38.4657
 21
-16.8542
  0
LINE
  8
0
 10
-38.4657
 20
-16.8542
 11
-38.25
 21
-16.9689
  0
LINE
  8
0
 10
-38.25
 20
-16.9689
 11
-38.0428
 21
-17.0984
  0
LINE
  8
0
 10
-38.0428
 20
-17.0984
 11
-37.8452
 21
-17.242
  0
LINE
  8
0
 10
-37.8452
 20
-17.242
 11
-37.658
 21
-17.399
  0
LINE
  8
0
 10
-37.658
 20
-17.399
 11
-37.4823
 21
-17.5687
  0
LINE
  8
0
 10
-37.4823
 20
-17.5687
 11
-37.3188
 21
-17.7502
  0
LINE
  8
0
 10
-37.3188
 20
-17.7502
 11
-37.1684
 21
-17.9427
  0
LINE
  8
0
 10
-37.1684
 20
-17.9427
 11
-37.0318
 21
-18.1453
  0
LINE
  8
0
 10
-37.0318
 20
-18.1453
 11
-36.9097
 21
-18.3568
  0
LINE
  8
0
 10
-36.9097
 20
-18.3568
 11
-36.8026
 21
-18.5764
  0
LINE
  8
0
 10
-36.8026
 20
-18.5764
 11
-36.7111
 21
-18.8029
  0
LINE
  8
0
 10
-36.7111
 20
-18.8029
 11
-36.6356
 21
-19.0353
  0
LINE
  8
0
 10
-36.6356
 20
-19.0353
 11
-36.5765
 21
-19.2723
  0
LINE
  8
0
 10
-36.5765
 20
-19.2723
 11
-36.5341
 21
-19.5129
  0
LINE
  8
0
 10
-36.5341
 20
-19.5129
 11
-36.5085
 21
-19.7558
  0
LINE
  8
0
 10
-36.5085
 20
-19.7558
 11
-36.5
 21
-20
  0
LINE
  8
0
 10
-36.5
 20
-20
 11
-36.5085
 21
-20.2441
  0
LINE
  8
0
 10
-36.5085
 20
-20.2441
 11
-36.5341
 21
-20.4871
  0
LINE
  8
0
 10
-36.5341
 20
-20.4871
 11
-36.5765
 21
-20.7277
  0
LINE
  8
0
 10
-36.5765
 20
-20.7277
 11
-36.6356
 21
-20.9647
  0
LINE
  8
0
 10
-36.6356
 20
-20.9647
 11
-36.7111
 21
-21.1971
  0
LINE
  8
0
 10
-36.7111
 20
-21.1971
 11
-36.8026
 21
-21.4236
  0
LINE
  8
0
 10
-36.8026
 20
-21.4236
 11
-36.9097
 21
-21.6431
  0
LINE
  8
0
 10
-36.9097
 20
-21.6431
 11
-37.0318
 21
-21.8547
  0
LINE
  8
0
 10
-37.0318
 20
-21.8547
 11
-37.1684
 21
-22.0572
  0
LINE
  8
0
 10
-37.1684
 20
-22.0572
 11
-37.3188
 21
-22.2498
  0
LINE
  8
0
 10
-37.3188
 20
-22.2498
 11
-37.4823
 21
-22.4313
  0
LINE
  8
0
 10
-37.4823
 20
-22.4313
 11
-37.658
 21
-22.601
  0
LINE
  8
0
 10
-37.658
 20
-22.601
 11
-37.8452
 21
-22.758
  0
LINE
  8
0
 10
-37.8452
 20
-22.758
 11
-38.0428
 21
-22.9016
  0
LINE
  8
0
 10
-38.0428
 20
-22.9016
 11
-38.25
 21
-23.0311
  0
LINE
  8
0
 10
-38.25
 20
-23.0311
 11
-38.4657
 21
-23.1458
  0
LINE
  8
0
 10
-38.4657
 20
-23.1458
 11
-38.6889
 21
-23.2451
  0
LINE
  8
0
 10
-38.6889
 20
-23.2451
 11
-38.9184
 21
-23.3287
  0
LINE
  8
0
 10
-38.9184
 20
-23.3287
 11
-39.1533
 21
-23.396
  0
LINE
  8
0
 10
-39.1533
 20
-23.396
 11
-39.3922
 21
-23.4468
  0
LINE
  8
0
 10
-39.3922
 20
-23.4468
 11
-39.6341
 21
-23.4808
  0
LINE
  8
0
 10
-39.6341
 20
-23.4808
 11
-39.8778
 21
-23.4979
  0
LINE
  8
0
 10
-39.8778
 20
-23.4979
 11
-40.1221
 21
-23.4979
  0
LINE
  8
0
 10
39.8778
 20
-23.4979
 11
39.6341
 21
-23.4808
  0
LINE
  8
0
 10
39.6341
 20
-23.4808
 11
39.3922
 21
-23.4468
  0
LINE
  8
0
 10
39.3922
 20
-23.4468
 11
39.1533
 21
-23.396
  0
LINE
  8
0
 10
39.1533
 20
-23.396
 11
38.9184
 21
-23.3287
  0
LINE
  8
0
 10
38.9184
 20
-23.3287
 11
38.6889
 21
-23.2451
  0
LINE
  8
0
 10
38.6889
 20
-23.2451
 11
38.4657
 21
-23.1458
  0
LINE
  8
0
 10
38.4657
 20
-23.1458
 11
38.25
 21
-23.0311
  0
LINE
  8
0
 10
38.25
 20
-23.0311
 11
38.0428
 21
-22.9016
  0
LINE
  8
0
 10
38.0428
 20
-22.9016
 11
37.8452
 21
-22.758
  0
LINE
  8
0
 10
37.8452
 20
-22.758
 11
37.658
 21
-22.601
  0
LINE
  8
0
 10
37.658
 20
-22.601
 11
37.4823
 21
-22.4313
  0
LINE
  8
0
 10
37.4823
 20
-22.4313
 11
37.3188
 21
-22.2498
  0
LINE
  8
0
 10
37.3188
 20
-22.2498
 11
37.1684
 21
-22.0572
  0
LINE
  8
0
 10
37.1684
 20
-22.0572
 11
37.0318
 21
-21.8547
  0
LINE
  8
0
 10
37.0318
 20
-21.8547
 11
36.9097
 21
-21.6431
  0
LINE
  8
0
 10
36.9097
 20
-21.6431
 11
36.8026
 21
-21.4236
  0
LINE
  8
0
 10
36.8026
 20
-21.4236
 11
36.7111
 21
-21.1971
  0
LINE
  8
0
 10
36.7111
 20
-21.1971
 11
36.6356
 21
-20.9647
  0
LINE
  8
0
 10
36.6356
 20
-20.9647
 11
36.5765
 21
-20.7277
  0
LINE
  8
0
 10
36.5765
 20
-20.7277
 11
36.5341
 21
-20.4871
  0
LINE
  8
0
 10
36.5341
 20
-20.4871
 11
36.5085
 21
-20.2441
  0
LINE
  8
0
 10
36.5085
 20
-20.2441
 11
36.5
 21
-20
  0
LINE
  8
0
 10
36.5
 20
-20
 11
36.5085
 21
-19.7558
  0
LINE
  8
0
 10
36.5085
 20
-19.7558
 11
36.5341
 21
-19.5129
  0
LINE
  8
0
 10
36.5341
 20
-19.5129
 11
36.5765
 21
-19.2723
  0
LINE
  8
0
 10
36.5765
 20
-19.2723
 11
36.6356
 21
-19.0353
  0
LINE
  8
0
 10
36.6356
 20
-19.0353
 11
36.7111
 21
-18.8029
  0
LINE
  8
0
 10
36.7111
 20
-18.8029
 11
36.8026
 21
-18.5764
  0
LINE
  8
0
 10
36.8026
 20
-18.5764
 11
36.9097
 21
-18.3568
  0
LINE
  8
0
 10
36.9097
 20
-18.3568
 11
37.0318
 21
-18.1453
  0
LINE
  8
0
 10
37.0318
 20
-18.1453
 11
37.1684
 21
-17.9427
  0
LINE
  8
0
 10
37.1684
 20
-17.9427
 11
37.3188
 21
-17.7502
  0
LINE
  8
0
 10
37.3188
 20
-17.7502
 11
37.4823
 21
-17.5687
  0
LINE
  8
0
 10
37.4823
 20
-17.5687
 11
37.658
 21
-17.399
  0
LINE
  8
0
 10
37.658
 20
-17.399
 11
37.8452
 21
-17.242
  0
LINE
  8
0
 10
37.8452
 20
-17.242
 11
38.0428
 21
-17.0984
  0
LINE
  8
0
 10
38.0428
 20
-17.0984
 11
38.25
 21
-16.9689
  0
LINE
  8
0
 10
38.25
 20
-16.9689
 11
38.4657
 21
-16.8542
  0
LINE
  8
0
 10
38.4657
 20
-16.8542
 11
38.6889
 21
-16.7549
  0
LINE
  8
0
 10
38.6889
 20
-16.7549
 11
38.9184
 21
-16.6713
  0
LINE
  8
0
 10
38.9184
 20
-16.6713
 11
39.1533
 21
-16.604
  0
LINE
  8
0
 10
39.1533
 20
-16.604
 11
39.3922
 21
-16.5532
  0
LINE
  8
0
 10
39.3922
 20
-16.5532
 11
39.6341
 21
-16.5192
  0
LINE
  8
0
 10
39.6341
 20
-16.5192
 11
39.8778
 21
-16.5021
  0
LINE
  8
0
 10
39.8778
 20
-16.5021
 11
40.1221
 21
-16.5021
  0
LINE
  8
0
 10
40.1221
 20
-16.5021
 11
40.3658
 21
-16.5192
  0
LINE
  8
0
 10
40.3658
 20
-16.5192
 11
40.6078
 21
-16.5532
  0
LINE
  8
0
 10
40.6078
 20
-16.5532
 11
40.8467
 21
-16.604
  0
LINE
  8
0
 10
40.8467
 20
-16.604
 11
41.0816
 21
-16.6713
  0
LINE
  8
0
 10
41.0816
 20
-16.6713
 11
41.3111
 21
-16.7549
  0
LINE
  8
0
 10
41.3111
 20
-16.7549
 11
41.5343
 21
-16.8542
  0
LINE
  8
0
 10
41.5343
 20
-16.8542
 11
41.75
 21
-16.9689
  0
LINE
  8
0
 10
41.75
 20
-16.9689
 11
41.9572
 21
-17.0984
  0
LINE
  8
0
 10
41.9572
 20
-17.0984
 11
42.1548
 21
-17.242
  0
LINE
  8
0
 10
42.1548
 20
-17.242
 11
42.3419
 21
-17.399
  0
LINE
  8
0
 10
42.3419
 20
-17.399
 11
42.5177
 21
-17.5687
  0
LINE
  8
0
 10
42.5177
 20
-17.5687
 11
42.6812
 21
-17.7502
  0
LINE
  8
0
 10
42.6812
 20
-17.7502
 11
42.8316
 21
-17.9427
  0
LINE
  8
0
 10
42.8316
 20
-17.9427
 11
42.9682
 21
-18.1453
  0
LINE
  8
0
 10
42.9682
 20
-18.1453
 11
43.0903
 21
-18.3568
  0
LINE
  8
0
 10
43.0903
 20
-18.3568
 11
43.1974
 21
-18.5764
  0
LINE
  8
0
 10
43.1974
 20
-18.5764
 11
43.2889
 21
-18.8029
  0
LINE
  8
0
 10
43.2889
 20
-18.8029
 11
43.3644
 21
-19.0353
  0
LINE
  8
0
 10
43.3644
 20
-19.0353
 11
43.4235
 21
-19.2723
  0
LINE
  8
0
 10
43.4235
 20
-19.2723
 11
43.4659
 21
-19.5129
  0
LINE
  8
0
 10
43.4659
 20
-19.5129
 11
43.4915
 21
-19.7558
  0
LINE
  8
0
 10
43.4915
 20
-19.7558
 11
43.5
 21
-20
  0
LINE
  8
0
 10
43.5
 20
-20
 11
43.4915
 21
-20.2441
  0
LINE
  8
0
 10
43.4915
 20
-20.2441
 11
43.4659
 21
-20.4871
  0
LINE
  8
0
 10
43.4659
 20
-20.4871
 11
43.4235
 21
-20.7277
  0
LINE
  8
0
 10
43.4235
 20
-20.7277
 11
43.3644
 21
-20.9647
  0
LINE
  8
0
 10
43.3644
 20
-20.9647
 11
43.2889
 21
-21.1971
  0
LINE
  8
0
 10
43.2889
 20
-21.1971
 11
43.1974
 21
-21.4236
  0
LINE
  8
0
 10
43.1974
 20
-21.4236
 11
43.0903
 21
-21.6431
  0
LINE
  8
0
 10
43.0903
 20
-21.6431
 11
42.9682
 21
-21.8547
  0
LINE
  8
0
 10
42.9682
 20
-21.8547
 11
42.8316
 21
-22.0572
  0
LINE
  8
0
 10
42.8316
 20
-22.0572
 11
42.6812
 21
-22.2498
  0
LINE
  8
0
 10
42.6812
 20
-22.2498
 11
42.5177
 21
-22.4313
  0
LINE
  8
0
 10
42.5177
 20
-22.4313
 11
42.3419
 21
-22.601
  0
LINE
  8
0
 10
42.3419
 20
-22.601
 11
42.1548
 21
-22.758
  0
LINE
  8
0
 10
42.1548
 20
-22.758
 11
41.9572
 21
-22.9016
  0
LINE
  8
0
 10
41.9572
 20
-22.9016
 11
41.75
 21
-23.0311
  0
LINE
  8
0
 10
41.75
 20
-23.0311
 11
41.5343
 21
-23.1458
  0
LINE
  8
0
 10
41.5343
 20
-23.1458
 11
41.3111
 21
-23.2451
  0
LINE
  8
0
 10
41.3111
 20
-23.2451
 11
41.0816
 21
-23.3287
  0
LINE
  8
0
 10
41.0816
 20
-23.3287
 11
40.8467
 21
-23.396
  0
LINE
  8
0
 10
40.8467
 20
-23.396
 11
40.6078
 21
-23.4468
  0
LINE
  8
0
 10
40.6078
 20
-23.4468
 11
40.3658
 21
-23.4808
  0
LINE
  8
0
 10
40.3658
 20
-23.4808
 11
40.1221
 21
-23.4979
  0
LINE
  8
0
 10
40.1221
 20
-23.4979
 11
39.8778
 21
-23.4979
  0
LINE
  8
0
 10
-15.1221
 20
-27.9979
 11
-15.3658
 21
-27.9808
  0
LINE
  8
0
 10
-15.3658
 20
-27.9808
 11
-15.6078
 21
-27.9468
  0
LINE
  8
0
 10
-15.6078
 20
-27.9468
 11
-15.8467
 21
-27.896
  0
LINE
  8
0
 10
-15.8467
 20
-27.896
 11
-16.0816
 21
-27.8287
  0
LINE
  8
0
 10
-16.0816
 20
-27.8287
 11
-16.3111
 21
-27.7451
  0
LINE
  8
0
 10
-16.3111
 20
-27.7451
 11
-16.5343
 21
-27.6458
  0
LINE
  8
0
 10
-16.5343
 20
-27.6458
 11
-16.75
 21
-27.5311
  0
LINE
  8
0
 10
-16.75
 20
-27.5311
 11
-16.9572
 21
-27.4016
  0
LINE
  8
0
 10
-16.9572
 20
-27.4016
 11
-17.1548
 21
-27.258
  0
LINE
  8
0
 10
-17.1548
 20
-27.258
 11
-17.3419
 21
-27.101
  0
LINE
  8
0
 10
-17.3419
 20
-27.101
 11
-17.5177
 21
-26.9313
  0
LINE
  8
0
 10
-17.5177
 20
-26.9313
 11
-17.6812
 21
-26.7498
  0
LINE
  8
0
 10
-17.6812
 20
-26.7498
 11
-17.8316
 21
-26.5572
  0
LINE
  8
0
 10
-17.8316
 20
-26.5572
 11
-17.9682
 21
-26.3547
  0
LINE
  8
0
 10
-17.9682
 20
-26.3547
 11
-18.0903
 21
-26.1431
  0
LINE
  8
0
 10
-18.0903
 20
-26.1431
 11
-18.1974
 21
-25.9236
  0
LINE
  8
0
 10
-18.1974
 20
-25.9236
 11
-18.2889
 21
-25.6971
  0
LINE
  8
0
 10
-18.2889
 20
-25.6971
 11
-18.3644
 21
-25.4647
  0
LINE
  8
0
 10
-18.3644
 20
-25.4647
 11
-18.4235
 21
-25.2277
  0
LINE
  8
0
 10
-18.4235
 20
-25.2277
 11
-18.4659
 21
-24.9871
  0
LINE
  8
0
 10
-18.4659
 20
-24.9871
 11
-18.4915
 21
-24.7441
  0
LINE
  8
0
 10
-18.4915
 20
-24.7441
 11
-18.5
 21
-24.5
  0
LINE
  8
0
 10
-18.5
 20
-24.5
 11
-18.4915
 21
-24.2558
  0
LINE
  8
0
 10
-18.4915
 20
-24.2558
 11
-18.4659
 21
-24.0129
  0
LINE
  8
0
 10
-18.4659
 20
-24.0129
 11
-18.4235
 21
-23.7723
  0
LINE
  8
0
 10
-18.4235
 20
-23.7723
 11
-18.3644
 21
-23.5353
  0
LINE
  8
0
 10
-18.3644
 20
-23.5353
 11
-18.2889
 21
-23.3029
  0
LINE
  8
0
 10
-18.2889
 20
-23.3029
 11
-18.1974
 21
-23.0764
  0
LINE
  8
0
 10
-18.1974
 20
-23.0764
 11
-18.0903
 21
-22.8568
  0
LINE
  8
0
 10
-18.0903
 20
-22.8568
 11
-17.9682
 21
-22.6453
  0
LINE
  8
0
 10
-17.9682
 20
-22.6453
 11
-17.8316
 21
-22.4427
  0
LINE
  8
0
 10
-17.8316
 20
-22.4427
 11
-17.6812
 21
-22.2502
  0
LINE
  8
0
 10
-17.6812
 20
-22.2502
 11
-17.5177
 21
-22.0687
  0
LINE
  8
0
 10
-17.5177
 20
-22.0687
 11
-17.3419
 21
-21.899
  0
LINE
  8
0
 10
-17.3419
 20
-21.899
 11
-17.1548
 21
-21.742
  0
LINE
  8
0
 10
-17.1548
 20
-21.742
 11
-16.9572
 21
-21.5984
  0
LINE
  8
0
 10
-16.9572
 20
-21.5984
 11
-16.75
 21
-21.4689
  0
LINE
  8
0
 10
-16.75
 20
-21.4689
 11
-16.5343
 21
-21.3542
  0
LINE
  8
0
 10
-16.5343
 20
-21.3542
 11
-16.3111
 21
-21.2549
  0
LINE
  8
0
 10
-16.3111
 20
-21.2549
 11
-16.0816
 21
-21.1713
  0
LINE
  8
0
 10
-16.0816
 20
-21.1713
 11
-15.8467
 21
-21.104
  0
LINE
  8
0
 10
-15.8467
 20
-21.104
 11
-15.6078
 21
-21.0532
  0
LINE
  8
0
 10
-15.6078
 20
-21.0532
 11
-15.3658
 21
-21.0192
  0
LINE
  8
0
 10
-15.3658
 20
-21.0192
 11
-15.1221
 21
-21.0021
  0
LINE
  8
0
 10
-15.1221
 20
-21.0021
 11
-14.8778
 21
-21.0021
  0
LINE
  8
0
 10
-14.8778
 20
-21.0021
 11
-14.6341
 21
-21.0192
  0
LINE
  8
0
 10
-14.6341
 20
-21.0192
 11
-14.3922
 21
-21.0532
  0
LINE
  8
0
 10
-14.3922
 20
-21.0532
 11
-14.1533
 21
-21.104
  0
LINE
  8
0
 10
-14.1533
 20
-21.104
 11
-13.9184
 21
-21.1713
  0
LINE
  8
0
 10
-13.9184
 20
-21.1713
 11
-13.6889
 21
-21.2549
  0
LINE
  8
0
 10
-13.6889
 20
-21.2549
 11
-13.4657
 21
-21.3542
  0
LINE
  8
0
 10
-13.4657
 20
-21.3542
 11
-13.25
 21
-21.4689
  0
LINE
  8
0
 10
-13.25
 20
-21.4689
 11
-13.0428
 21
-21.5984
  0
LINE
  8
0
 10
-13.0428
 20
-21.5984
 11
-12.8452
 21
-21.742
  0
LINE
  8
0
 10
-12.8452
 20
-21.742
 11
-12.658
 21
-21.899
  0
LINE
  8
0
 10
-12.658
 20
-21.899
 11
-12.4823
 21
-22.0687
  0
LINE
  8
0
 10
-12.4823
 20
-22.0687
 11
-12.3188
 21
-22.2502
  0
LINE
  8
0
 10
-12.3188
 20
-22.2502
 11
-12.1684
 21
-22.4427
  0
LINE
  8
0
 10
-12.1684
 20
-22.4427
 11
-12.0318
 21
-22.6453
  0
LINE
  8
0
 10
-12.0318
 20
-22.6453
 11
-11.9097
 21
-22.8568
  0
LINE
  8
0
 10
-11.9097
 20
-22.8568
 11
-11.8026
 21
-23.0764
  0
LINE
  8
0
 10
-11.8026
 20
-23.0764
 11
-11.7111
 21
-23.3029
  0
LINE
  8
0
 10
-11.7111
 20
-23.3029
 11
-11.6356
 21
-23.5353
  0
LINE
  8
0
 10
-11.6356
 20
-23.5353
 11
-11.5765
 21
-23.7723
  0
LINE
  8
0
 10
-11.5765
 20
-23.7723
 11
-11.5341
 21
-24.0129
  0
LINE
  8
0
 10
-11.5341
 20
-24.0129
 11
-11.5085
 21
-24.2558
  0
LINE
  8
0
 10
-11.5085
 20
-24.2558
 11
-11.5
 21
-24.5
  0
LINE
  8
0
 10
-11.5
 20
-24.5
 11
-11.5085
 21
-24.7441
  0
LINE
  8
0
 10
-11.5085
 20
-24.7441
 11
-11.5341
 21
-24.9871
  0
LINE
  8
0
 10
-11.5341
 20
-24.9871
 11
-11.5765
 21
-25.2277
  0
LINE
  8
0
 10
-11.5765
 20
-25.2277
 11
-11.6356
 21
-25.4647
  0
LINE
  8
0
 10
-11.6356
 20
-25.4647
 11
-11.7111
 21
-25.6971
  0
LINE
  8
0
 10
-11.7111
 20
-25.6971
 11
-11.8026
 21
-25.9236
  0
LINE
  8
0
 10
-11.8026
 20
-25.9236
 11
-11.9097
 21
-26.1431
  0
LINE
  8
0
 10
-11.9097
 20
-26.1431
 11
-12.0318
 21
-26.3547
  0
LINE
  8
0
 10
-12.0318
 20
-26.3547
 11
-12.1684
 21
-26.5572
  0
LINE
  8
0
 10
-12.1684
 20
-26.5572
 11
-12.3188
 21
-26.7498
  0
LINE
  8
0
 10
-12.3188
 20
-26.7498
 11
-12.4823
 21
-26.9313
  0
LINE
  8
0
 10
-12.4823
 20
-26.9313
 11
-12.658
 21
-27.101
  0
LINE
  8
0
 10
-12.658
 20
-27.101
 11
-12.8452
 21
-27.258
  0
LINE
  8
0
 10
-12.8452
 20
-27.258
 11
-13.0428
 21
-27.4016
  0
LINE
  8
0
 10
-13.0428
 20
-27.4016
 11
-13.25
 21
-27.5311
  0
LINE
  8
0
 10
-13.25
 20
-27.5311
 11
-13.4657
 21
-27.6458
  0
LINE
  8
0
 10
-13.4657
 20
-27.6458
 11
-13.6889
 21
-27.7451
  0
LINE
  8
0
 10
-13.6889
 20
-27.7451
 11
-13.9184
 21
-27.8287
  0
LINE
  8
0
 10
-13.9184
 20
-27.8287
 11
-14.1533
 21
-27.896
  0
LINE
  8
0
 10
-14.1533
 20
-27.896
 11
-14.3922
 21
-27.9468
  0
LINE
  8
0
 10
-14.3922
 20
-27.9468
 11
-14.6341
 21
-27.9808
  0
LINE
  8
0
 10
-14.6341
 20
-27.9808
 11
-14.8778
 21
-27.9979
  0
LINE
  8
0
 10
-14.8778
 20
-27.9979
 11
-15.1221
 21
-27.9979
  0
LINE
  8
0
 10
14.8778
 20
-27.9979
 11
14.6341
 21
-27.9808
  0
LINE
  8
0
 10
14.6341
 20
-27.9808
 11
14.3922
 21
-27.9468
  0
LINE
  8
0
 10
14.3922
 20
-27.9468
 11
14.1533
 21
-27.896
  0
LINE
  8
0
 10
14.1533
 20
-27.896
 11
13.9184
 21
-27.8287
  0
LINE
  8
0
 10
13.9184
 20
-27.8287
 11
13.6889
 21
-27.7451
  0
LINE
  8
0
 10
13.6889
 20
-27.7451
 11
13.4657
 21
-27.6458
  0
LINE
  8
0
 10
13.4657
 20
-27.6458
 11
13.25
 21
-27.5311
  0
LINE
  8
0
 10
13.25
 20
-27.5311
 11
13.0428
 21
-27.4016
  0
LINE
  8
0
 10
13.0428
 20
-27.4016
 11
12.8452
 21
-27.258
  0
LINE
  8
0
 10
12.8452
 20
-27.258
 11
12.658
 21
-27.101
  0
LINE
  8
0
 10
12.658
 20
-27.101
 11
12.4823
 21
-26.9313
  0
LINE
  8
0
 10
12.4823
 20
-26.9313
 11
12.3188
 21
-26.7498
  0
LINE
  8
0
 10
12.3188
 20
-26.7498
 11
12.1684
 21
-26.5572
  0
LINE
  8
0
 10
12.1684
 20
-26.5572
 11
12.0318
 21
-26.3547
  0
LINE
  8
0
 10
12.0318
 20
-26.3547
 11
11.9097
 21
-26.1431
  0
LINE
  8
0
 10
11.9097
 20
-26.1431
 11
11.8026
 21
-25.9236
  0
LINE
  8
0
 10
11.8026
 20
-25.9236
 11
11.7111
 21
-25.6971
  0
LINE
  8
0
 10
11.7111
 20
-25.6971
 11
11.6356
 21
-25.4647
  0
LINE
  8
0
 10
11.6356
 20
-25.4647
 11
11.5765
 21
-25.2277
  0
LINE
  8
0
 10
11.5765
 20
-25.2277
 11
11.5341
 21
-24.9871
  0
LINE
  8
0
 10
11.5341
 20
-24.9871
 11
11.5085
 21
-24.7441
  0
LINE
  8
0
 10
11.5085
 20
-24.7441
 11
11.5
 21
-24.5
  0
LINE
  8
0
 10
11.5
 20
-24.5
 11
11.5085
 21
-24.2558
  0
LINE
  8
0
 10
11.5085
 20
-24.2558
 11
11.5341
 21
-24.0129
  0
LINE
  8
0
 10
11.5341
 20
-24.0129
 11
11.5765
 21
-23.7723
  0
LINE
  8
0
 10
11.5765
 20
-23.7723
 11
11.6356
 21
-23.5353
  0
LINE
  8
0
 10
11.6356
 20
-23.5353
 11
11.7111
 21
-23.3029
  0
LINE
  8
0
 10
11.7111
 20
-23.3029
 11
11.8026
 21
-23.0764
  0
LINE
  8
0
 10
11.8026
 20
-23.0764
 11
11.9097
 21
-22.8568
  0
LINE
  8
0
 10
11.9097
 20
-22.8568
 11
12.0318
 21
-22.6453
  0
LINE
  8
0
 10
12.0318
 20
-22.6453
 11
12.1684
 21
-22.4427
  0
LINE
  8
0
 10
12.1684
 20
-22.4427
 11
12.3188
 21
-22.2502
  0
LINE
  8
0
 10
12.3188
 20
-22.2502
 11
12.4823
 21
-22.0687
  0
LINE
  8
0
 10
12.4823
 20
-22.0687
 11
12.658
 21
-21.899
  0
LINE
  8
0
 10
12.658
 20
-21.899
 11
12.8452
 21
-21.742
  0
LINE
  8
0
 10
12.8452
 20
-21.742
 11
13.0428
 21
-21.5984
  0
LINE
  8
0
 10
13.0428
 20
-21.5984
 11
13.25
 21
-21.4689
  0
LINE
  8
0
 10
13.25
 20
-21.4689
 11
13.4657
 21
-21.3542
  0
LINE
  8
0
 10
13.4657
 20
-21.3542
 11
13.6889
 21
-21.2549
  0
LINE
  8
0
 10
13.6889
 20
-21.2549
 11
13.9184
 21
-21.1713
  0
LINE
  8
0
 10
13.9184
 20
-21.1713
 11
14.1533
 21
-21.104
  0
LINE
  8
0
 10
14.1533
 20
-21.104
 11
14.3922
 21
-21.0532
  0
LINE
  8
0
 10
14.3922
 20
-21.0532
 11
14.6341
 21
-21.0192
  0
LINE
  8
0
 10
14.6341
 20
-21.0192
 11
14.8778
 21
-21.0021
  0
LINE
  8
0
 10
14.8778
 20
-21.0021
 11
15.1221
 21
-21.0021
  0
LINE
  8
0
 10
15.1221
 20
-21.0021
 11
15.3658
 21
-21.0192
  0
LINE
  8
0
 10
15.3658
 20
-21.0192
 11
15.6078
 21
-21.0532
  0
LINE
  8
0
 10
15.6078
 20
-21.0532
 11
15.8467
 21
-21.104
  0
LINE
  8
0
 10
15.8467
 20
-21.104
 11
16.0816
 21
-21.1713
  0
LINE
  8
0
 10
16.0816
 20
-21.1713
 11
16.3111
 21
-21.2549
  0
LINE
  8
0
 10
16.3111
 20
-21.2549
 11
16.5343
 21
-21.3542
  0
LINE
  8
0
 10
16.5343
 20
-21.3542
 11
16.75
 21
-21.4689
  0
LINE
  8
0
 10
16.75
 20
-21.4689
 11
16.9572
 21
-21.5984
  0
LINE
  8
0
 10
16.9572
 20
-21.5984
 11
17.1548
 21
-21.742
  0
LINE
  8
0
 10
17.1548
 20
-21.742
 11
17.3419
 21
-21.899
  0
LINE
  8
0
 10
17.3419
 20
-21.899
 11
17.5177
 21
-22.0687
  0
LINE
  8
0
 10
17.5177
 20
-22.0687
 11
17.6812
 21
-22.2502
  0
LINE
  8
0
 10
17.6812
 20
-22.2502
 11
17.8316
 21
-22.4427
  0
LINE
  8
0
 10
17.8316
 20
-22.4427
 11
17.9682
 21
-22.6453
  0
LINE
  8
0
 10
17.9682
 20
-22.6453
 11
18.0903
 21
-22.8568
  0
LINE
  8
0
 10
18.0903
 20
-22.8568
 11
18.1974
 21
-23.0764
  0
LINE
  8
0
 10
18.1974
 20
-23.0764
 11
18.2889
 21
-23.3029
  0
LINE
  8
0
 10
18.2889
 20
-23.3029
 11
18.3644
 21
-23.5353
  0
LINE
  8
0
 10
18.3644
 20
-23.5353
 11
18.4235
 21
-23.7723
  0
LINE
  8
0
 10
18.4235
 20
-23.7723
 11
18.4659
 21
-24.0129
  0
LINE
  8
0
 10
18.4659
 20
-24.0129
 11
18.4915
 21
-24.2558
  0
LINE
  8
0
 10
18.4915
 20
-24.2558
 11
18.5
 21
-24.5
  0
LINE
  8
0
 10
18.5
 20
-24.5
 11
18.4915
 21
-24.7441
  0
LINE
  8
0
 10
18.4915
 20
-24.7441
 11
18.4659
 21
-24.9871
  0
LINE
  8
0
 10
18.4659
 20
-24.9871
 11
18.4235
 21
-25.2277
  0
LINE
  8
0
 10
18.4235
 20
-25.2277
 11
18.3644
 21
-25.4647
  0
LINE
  8
0
 10
18.3644
 20
-25.4647
 11
18.2889
 21
-25.6971
  0
LINE
  8
0
 10
18.2889
 20
-25.6971
 11
18.1974
 21
-25.9236
  0
LINE
  8
0
 10
18.1974
 20
-25.9236
 11
18.0903
 21
-26.1431
  0
LINE
  8
0
 10
18.0903
 20
-26.1431
 11
17.9682
 21
-26.3547
  0
LINE
  8
0
 10
17.9682
 20
-26.3547
 11
17.8316
 21
-26.5572
  0
LINE
  8
0
 10
17.8316
 20
-26.5572
 11
17.6812
 21
-26.7498
  0
LINE
  8
0
 10
17.6812
 20
-26.7498
 11
17.5177
 21
-26.9313
  0
LINE
  8
0
 10
17.5177
 20
-26.9313
 11
17.3419
 21
-27.101
  0
LINE
  8
0
 10
17.3419
 20
-27.101
 11
17.1548
 21
-27.258
  0
LINE
  8
0
 10
17.1548
 20
-27.258
 11
16.9572
 21
-27.4016
  0
LINE
  8
0
 10
16.9572
 20
-27.4016
 11
16.75
 21
-27.5311
  0
LINE
  8
0
 10
16.75
 20
-27.5311
 11
16.5343
 21
-27.6458
  0
LINE
  8
0
 10
16.5343
 20
-27.6458
 11
16.3111
 21
-27.7451
  0
LINE
  8
0
 10
16.3111
 20
-27.7451
 11
16.0816
 21
-27.8287
  0
LINE
  8
0
 10
16.0816
 20
-27.8287
 11
15.8467
 21
-27.896
  0
LINE
  8
0
 10
15.8467
 20
-27.896
 11
15.6078
 21
-27.9468
  0
LINE
  8
0
 10
15.6078
 20
-27.9468
 11
15.3658
 21
-27.9808
  0
LINE
  8
0
 10
15.3658
 20
-27.9808
 11
15.1221
 21
-27.9979
  0
LINE
  8
0
 10
15.1221
 20
-27.9979
 11
14.8778
 21
-27.9979
  0
ENDSEC
  0
SECTION
  2
OBJECTS
  0
DICTIONARY
  0
ENDSEC
  0
EOF
