%TF.GenerationSoftware,KiCad,Pcbnew,5.0.0*%
%TF.CreationDate,2018-10-14T20:27:49+02:00*%
%TF.ProjectId,TranspOtterNG,5472616E73704F747465724E472E6B69,rev?*%
%TF.SameCoordinates,Original*%
%TF.FileFunction,Paste,Top*%
%TF.FilePolarity,Positive*%
%FSLAX46Y46*%
G04 Gerber Fmt 4.6, Leading zero omitted, Abs format (unit mm)*
G04 Created by KiCad (PCBNEW 5.0.0) date Sun Oct 14 20:27:49 2018*
%MOMM*%
%LPD*%
G01*
G04 APERTURE LIST*
%ADD10C,0.100000*%
%ADD11C,0.875000*%
%ADD12C,0.975000*%
%ADD13R,1.600000X3.000000*%
%ADD14R,3.000000X1.600000*%
%ADD15R,2.000000X3.800000*%
%ADD16R,2.000000X1.500000*%
%ADD17R,0.760000X1.600000*%
%ADD18R,2.500000X1.000000*%
%ADD19R,1.000000X1.800000*%
%ADD20R,2.300000X2.500000*%
%ADD21R,0.900000X0.800000*%
%ADD22R,2.200000X1.200000*%
%ADD23R,3.050000X2.750000*%
%ADD24R,1.500000X0.600000*%
G04 APERTURE END LIST*
D10*
G36*
X163151691Y-49983053D02*
X163172926Y-49986203D01*
X163193750Y-49991419D01*
X163213962Y-49998651D01*
X163233368Y-50007830D01*
X163251781Y-50018866D01*
X163269024Y-50031654D01*
X163284930Y-50046070D01*
X163299346Y-50061976D01*
X163312134Y-50079219D01*
X163323170Y-50097632D01*
X163332349Y-50117038D01*
X163339581Y-50137250D01*
X163344797Y-50158074D01*
X163347947Y-50179309D01*
X163349000Y-50200750D01*
X163349000Y-50638250D01*
X163347947Y-50659691D01*
X163344797Y-50680926D01*
X163339581Y-50701750D01*
X163332349Y-50721962D01*
X163323170Y-50741368D01*
X163312134Y-50759781D01*
X163299346Y-50777024D01*
X163284930Y-50792930D01*
X163269024Y-50807346D01*
X163251781Y-50820134D01*
X163233368Y-50831170D01*
X163213962Y-50840349D01*
X163193750Y-50847581D01*
X163172926Y-50852797D01*
X163151691Y-50855947D01*
X163130250Y-50857000D01*
X162617750Y-50857000D01*
X162596309Y-50855947D01*
X162575074Y-50852797D01*
X162554250Y-50847581D01*
X162534038Y-50840349D01*
X162514632Y-50831170D01*
X162496219Y-50820134D01*
X162478976Y-50807346D01*
X162463070Y-50792930D01*
X162448654Y-50777024D01*
X162435866Y-50759781D01*
X162424830Y-50741368D01*
X162415651Y-50721962D01*
X162408419Y-50701750D01*
X162403203Y-50680926D01*
X162400053Y-50659691D01*
X162399000Y-50638250D01*
X162399000Y-50200750D01*
X162400053Y-50179309D01*
X162403203Y-50158074D01*
X162408419Y-50137250D01*
X162415651Y-50117038D01*
X162424830Y-50097632D01*
X162435866Y-50079219D01*
X162448654Y-50061976D01*
X162463070Y-50046070D01*
X162478976Y-50031654D01*
X162496219Y-50018866D01*
X162514632Y-50007830D01*
X162534038Y-49998651D01*
X162554250Y-49991419D01*
X162575074Y-49986203D01*
X162596309Y-49983053D01*
X162617750Y-49982000D01*
X163130250Y-49982000D01*
X163151691Y-49983053D01*
X163151691Y-49983053D01*
G37*
D11*
X162874000Y-50419500D03*
D10*
G36*
X163151691Y-48408053D02*
X163172926Y-48411203D01*
X163193750Y-48416419D01*
X163213962Y-48423651D01*
X163233368Y-48432830D01*
X163251781Y-48443866D01*
X163269024Y-48456654D01*
X163284930Y-48471070D01*
X163299346Y-48486976D01*
X163312134Y-48504219D01*
X163323170Y-48522632D01*
X163332349Y-48542038D01*
X163339581Y-48562250D01*
X163344797Y-48583074D01*
X163347947Y-48604309D01*
X163349000Y-48625750D01*
X163349000Y-49063250D01*
X163347947Y-49084691D01*
X163344797Y-49105926D01*
X163339581Y-49126750D01*
X163332349Y-49146962D01*
X163323170Y-49166368D01*
X163312134Y-49184781D01*
X163299346Y-49202024D01*
X163284930Y-49217930D01*
X163269024Y-49232346D01*
X163251781Y-49245134D01*
X163233368Y-49256170D01*
X163213962Y-49265349D01*
X163193750Y-49272581D01*
X163172926Y-49277797D01*
X163151691Y-49280947D01*
X163130250Y-49282000D01*
X162617750Y-49282000D01*
X162596309Y-49280947D01*
X162575074Y-49277797D01*
X162554250Y-49272581D01*
X162534038Y-49265349D01*
X162514632Y-49256170D01*
X162496219Y-49245134D01*
X162478976Y-49232346D01*
X162463070Y-49217930D01*
X162448654Y-49202024D01*
X162435866Y-49184781D01*
X162424830Y-49166368D01*
X162415651Y-49146962D01*
X162408419Y-49126750D01*
X162403203Y-49105926D01*
X162400053Y-49084691D01*
X162399000Y-49063250D01*
X162399000Y-48625750D01*
X162400053Y-48604309D01*
X162403203Y-48583074D01*
X162408419Y-48562250D01*
X162415651Y-48542038D01*
X162424830Y-48522632D01*
X162435866Y-48504219D01*
X162448654Y-48486976D01*
X162463070Y-48471070D01*
X162478976Y-48456654D01*
X162496219Y-48443866D01*
X162514632Y-48432830D01*
X162534038Y-48423651D01*
X162554250Y-48416419D01*
X162575074Y-48411203D01*
X162596309Y-48408053D01*
X162617750Y-48407000D01*
X163130250Y-48407000D01*
X163151691Y-48408053D01*
X163151691Y-48408053D01*
G37*
D11*
X162874000Y-48844500D03*
D10*
G36*
X155824691Y-67931053D02*
X155845926Y-67934203D01*
X155866750Y-67939419D01*
X155886962Y-67946651D01*
X155906368Y-67955830D01*
X155924781Y-67966866D01*
X155942024Y-67979654D01*
X155957930Y-67994070D01*
X155972346Y-68009976D01*
X155985134Y-68027219D01*
X155996170Y-68045632D01*
X156005349Y-68065038D01*
X156012581Y-68085250D01*
X156017797Y-68106074D01*
X156020947Y-68127309D01*
X156022000Y-68148750D01*
X156022000Y-68661250D01*
X156020947Y-68682691D01*
X156017797Y-68703926D01*
X156012581Y-68724750D01*
X156005349Y-68744962D01*
X155996170Y-68764368D01*
X155985134Y-68782781D01*
X155972346Y-68800024D01*
X155957930Y-68815930D01*
X155942024Y-68830346D01*
X155924781Y-68843134D01*
X155906368Y-68854170D01*
X155886962Y-68863349D01*
X155866750Y-68870581D01*
X155845926Y-68875797D01*
X155824691Y-68878947D01*
X155803250Y-68880000D01*
X155365750Y-68880000D01*
X155344309Y-68878947D01*
X155323074Y-68875797D01*
X155302250Y-68870581D01*
X155282038Y-68863349D01*
X155262632Y-68854170D01*
X155244219Y-68843134D01*
X155226976Y-68830346D01*
X155211070Y-68815930D01*
X155196654Y-68800024D01*
X155183866Y-68782781D01*
X155172830Y-68764368D01*
X155163651Y-68744962D01*
X155156419Y-68724750D01*
X155151203Y-68703926D01*
X155148053Y-68682691D01*
X155147000Y-68661250D01*
X155147000Y-68148750D01*
X155148053Y-68127309D01*
X155151203Y-68106074D01*
X155156419Y-68085250D01*
X155163651Y-68065038D01*
X155172830Y-68045632D01*
X155183866Y-68027219D01*
X155196654Y-68009976D01*
X155211070Y-67994070D01*
X155226976Y-67979654D01*
X155244219Y-67966866D01*
X155262632Y-67955830D01*
X155282038Y-67946651D01*
X155302250Y-67939419D01*
X155323074Y-67934203D01*
X155344309Y-67931053D01*
X155365750Y-67930000D01*
X155803250Y-67930000D01*
X155824691Y-67931053D01*
X155824691Y-67931053D01*
G37*
D11*
X155584500Y-68405000D03*
D10*
G36*
X154249691Y-67931053D02*
X154270926Y-67934203D01*
X154291750Y-67939419D01*
X154311962Y-67946651D01*
X154331368Y-67955830D01*
X154349781Y-67966866D01*
X154367024Y-67979654D01*
X154382930Y-67994070D01*
X154397346Y-68009976D01*
X154410134Y-68027219D01*
X154421170Y-68045632D01*
X154430349Y-68065038D01*
X154437581Y-68085250D01*
X154442797Y-68106074D01*
X154445947Y-68127309D01*
X154447000Y-68148750D01*
X154447000Y-68661250D01*
X154445947Y-68682691D01*
X154442797Y-68703926D01*
X154437581Y-68724750D01*
X154430349Y-68744962D01*
X154421170Y-68764368D01*
X154410134Y-68782781D01*
X154397346Y-68800024D01*
X154382930Y-68815930D01*
X154367024Y-68830346D01*
X154349781Y-68843134D01*
X154331368Y-68854170D01*
X154311962Y-68863349D01*
X154291750Y-68870581D01*
X154270926Y-68875797D01*
X154249691Y-68878947D01*
X154228250Y-68880000D01*
X153790750Y-68880000D01*
X153769309Y-68878947D01*
X153748074Y-68875797D01*
X153727250Y-68870581D01*
X153707038Y-68863349D01*
X153687632Y-68854170D01*
X153669219Y-68843134D01*
X153651976Y-68830346D01*
X153636070Y-68815930D01*
X153621654Y-68800024D01*
X153608866Y-68782781D01*
X153597830Y-68764368D01*
X153588651Y-68744962D01*
X153581419Y-68724750D01*
X153576203Y-68703926D01*
X153573053Y-68682691D01*
X153572000Y-68661250D01*
X153572000Y-68148750D01*
X153573053Y-68127309D01*
X153576203Y-68106074D01*
X153581419Y-68085250D01*
X153588651Y-68065038D01*
X153597830Y-68045632D01*
X153608866Y-68027219D01*
X153621654Y-68009976D01*
X153636070Y-67994070D01*
X153651976Y-67979654D01*
X153669219Y-67966866D01*
X153687632Y-67955830D01*
X153707038Y-67946651D01*
X153727250Y-67939419D01*
X153748074Y-67934203D01*
X153769309Y-67931053D01*
X153790750Y-67930000D01*
X154228250Y-67930000D01*
X154249691Y-67931053D01*
X154249691Y-67931053D01*
G37*
D11*
X154009500Y-68405000D03*
D10*
G36*
X159192191Y-60880053D02*
X159213426Y-60883203D01*
X159234250Y-60888419D01*
X159254462Y-60895651D01*
X159273868Y-60904830D01*
X159292281Y-60915866D01*
X159309524Y-60928654D01*
X159325430Y-60943070D01*
X159339846Y-60958976D01*
X159352634Y-60976219D01*
X159363670Y-60994632D01*
X159372849Y-61014038D01*
X159380081Y-61034250D01*
X159385297Y-61055074D01*
X159388447Y-61076309D01*
X159389500Y-61097750D01*
X159389500Y-61535250D01*
X159388447Y-61556691D01*
X159385297Y-61577926D01*
X159380081Y-61598750D01*
X159372849Y-61618962D01*
X159363670Y-61638368D01*
X159352634Y-61656781D01*
X159339846Y-61674024D01*
X159325430Y-61689930D01*
X159309524Y-61704346D01*
X159292281Y-61717134D01*
X159273868Y-61728170D01*
X159254462Y-61737349D01*
X159234250Y-61744581D01*
X159213426Y-61749797D01*
X159192191Y-61752947D01*
X159170750Y-61754000D01*
X158658250Y-61754000D01*
X158636809Y-61752947D01*
X158615574Y-61749797D01*
X158594750Y-61744581D01*
X158574538Y-61737349D01*
X158555132Y-61728170D01*
X158536719Y-61717134D01*
X158519476Y-61704346D01*
X158503570Y-61689930D01*
X158489154Y-61674024D01*
X158476366Y-61656781D01*
X158465330Y-61638368D01*
X158456151Y-61618962D01*
X158448919Y-61598750D01*
X158443703Y-61577926D01*
X158440553Y-61556691D01*
X158439500Y-61535250D01*
X158439500Y-61097750D01*
X158440553Y-61076309D01*
X158443703Y-61055074D01*
X158448919Y-61034250D01*
X158456151Y-61014038D01*
X158465330Y-60994632D01*
X158476366Y-60976219D01*
X158489154Y-60958976D01*
X158503570Y-60943070D01*
X158519476Y-60928654D01*
X158536719Y-60915866D01*
X158555132Y-60904830D01*
X158574538Y-60895651D01*
X158594750Y-60888419D01*
X158615574Y-60883203D01*
X158636809Y-60880053D01*
X158658250Y-60879000D01*
X159170750Y-60879000D01*
X159192191Y-60880053D01*
X159192191Y-60880053D01*
G37*
D11*
X158914500Y-61316500D03*
D10*
G36*
X159192191Y-59305053D02*
X159213426Y-59308203D01*
X159234250Y-59313419D01*
X159254462Y-59320651D01*
X159273868Y-59329830D01*
X159292281Y-59340866D01*
X159309524Y-59353654D01*
X159325430Y-59368070D01*
X159339846Y-59383976D01*
X159352634Y-59401219D01*
X159363670Y-59419632D01*
X159372849Y-59439038D01*
X159380081Y-59459250D01*
X159385297Y-59480074D01*
X159388447Y-59501309D01*
X159389500Y-59522750D01*
X159389500Y-59960250D01*
X159388447Y-59981691D01*
X159385297Y-60002926D01*
X159380081Y-60023750D01*
X159372849Y-60043962D01*
X159363670Y-60063368D01*
X159352634Y-60081781D01*
X159339846Y-60099024D01*
X159325430Y-60114930D01*
X159309524Y-60129346D01*
X159292281Y-60142134D01*
X159273868Y-60153170D01*
X159254462Y-60162349D01*
X159234250Y-60169581D01*
X159213426Y-60174797D01*
X159192191Y-60177947D01*
X159170750Y-60179000D01*
X158658250Y-60179000D01*
X158636809Y-60177947D01*
X158615574Y-60174797D01*
X158594750Y-60169581D01*
X158574538Y-60162349D01*
X158555132Y-60153170D01*
X158536719Y-60142134D01*
X158519476Y-60129346D01*
X158503570Y-60114930D01*
X158489154Y-60099024D01*
X158476366Y-60081781D01*
X158465330Y-60063368D01*
X158456151Y-60043962D01*
X158448919Y-60023750D01*
X158443703Y-60002926D01*
X158440553Y-59981691D01*
X158439500Y-59960250D01*
X158439500Y-59522750D01*
X158440553Y-59501309D01*
X158443703Y-59480074D01*
X158448919Y-59459250D01*
X158456151Y-59439038D01*
X158465330Y-59419632D01*
X158476366Y-59401219D01*
X158489154Y-59383976D01*
X158503570Y-59368070D01*
X158519476Y-59353654D01*
X158536719Y-59340866D01*
X158555132Y-59329830D01*
X158574538Y-59320651D01*
X158594750Y-59313419D01*
X158615574Y-59308203D01*
X158636809Y-59305053D01*
X158658250Y-59304000D01*
X159170750Y-59304000D01*
X159192191Y-59305053D01*
X159192191Y-59305053D01*
G37*
D11*
X158914500Y-59741500D03*
D10*
G36*
X157494642Y-60880174D02*
X157518303Y-60883684D01*
X157541507Y-60889496D01*
X157564029Y-60897554D01*
X157585653Y-60907782D01*
X157606170Y-60920079D01*
X157625383Y-60934329D01*
X157643107Y-60950393D01*
X157659171Y-60968117D01*
X157673421Y-60987330D01*
X157685718Y-61007847D01*
X157695946Y-61029471D01*
X157704004Y-61051993D01*
X157709816Y-61075197D01*
X157713326Y-61098858D01*
X157714500Y-61122750D01*
X157714500Y-61610250D01*
X157713326Y-61634142D01*
X157709816Y-61657803D01*
X157704004Y-61681007D01*
X157695946Y-61703529D01*
X157685718Y-61725153D01*
X157673421Y-61745670D01*
X157659171Y-61764883D01*
X157643107Y-61782607D01*
X157625383Y-61798671D01*
X157606170Y-61812921D01*
X157585653Y-61825218D01*
X157564029Y-61835446D01*
X157541507Y-61843504D01*
X157518303Y-61849316D01*
X157494642Y-61852826D01*
X157470750Y-61854000D01*
X156558250Y-61854000D01*
X156534358Y-61852826D01*
X156510697Y-61849316D01*
X156487493Y-61843504D01*
X156464971Y-61835446D01*
X156443347Y-61825218D01*
X156422830Y-61812921D01*
X156403617Y-61798671D01*
X156385893Y-61782607D01*
X156369829Y-61764883D01*
X156355579Y-61745670D01*
X156343282Y-61725153D01*
X156333054Y-61703529D01*
X156324996Y-61681007D01*
X156319184Y-61657803D01*
X156315674Y-61634142D01*
X156314500Y-61610250D01*
X156314500Y-61122750D01*
X156315674Y-61098858D01*
X156319184Y-61075197D01*
X156324996Y-61051993D01*
X156333054Y-61029471D01*
X156343282Y-61007847D01*
X156355579Y-60987330D01*
X156369829Y-60968117D01*
X156385893Y-60950393D01*
X156403617Y-60934329D01*
X156422830Y-60920079D01*
X156443347Y-60907782D01*
X156464971Y-60897554D01*
X156487493Y-60889496D01*
X156510697Y-60883684D01*
X156534358Y-60880174D01*
X156558250Y-60879000D01*
X157470750Y-60879000D01*
X157494642Y-60880174D01*
X157494642Y-60880174D01*
G37*
D12*
X157014500Y-61366500D03*
D10*
G36*
X157494642Y-59005174D02*
X157518303Y-59008684D01*
X157541507Y-59014496D01*
X157564029Y-59022554D01*
X157585653Y-59032782D01*
X157606170Y-59045079D01*
X157625383Y-59059329D01*
X157643107Y-59075393D01*
X157659171Y-59093117D01*
X157673421Y-59112330D01*
X157685718Y-59132847D01*
X157695946Y-59154471D01*
X157704004Y-59176993D01*
X157709816Y-59200197D01*
X157713326Y-59223858D01*
X157714500Y-59247750D01*
X157714500Y-59735250D01*
X157713326Y-59759142D01*
X157709816Y-59782803D01*
X157704004Y-59806007D01*
X157695946Y-59828529D01*
X157685718Y-59850153D01*
X157673421Y-59870670D01*
X157659171Y-59889883D01*
X157643107Y-59907607D01*
X157625383Y-59923671D01*
X157606170Y-59937921D01*
X157585653Y-59950218D01*
X157564029Y-59960446D01*
X157541507Y-59968504D01*
X157518303Y-59974316D01*
X157494642Y-59977826D01*
X157470750Y-59979000D01*
X156558250Y-59979000D01*
X156534358Y-59977826D01*
X156510697Y-59974316D01*
X156487493Y-59968504D01*
X156464971Y-59960446D01*
X156443347Y-59950218D01*
X156422830Y-59937921D01*
X156403617Y-59923671D01*
X156385893Y-59907607D01*
X156369829Y-59889883D01*
X156355579Y-59870670D01*
X156343282Y-59850153D01*
X156333054Y-59828529D01*
X156324996Y-59806007D01*
X156319184Y-59782803D01*
X156315674Y-59759142D01*
X156314500Y-59735250D01*
X156314500Y-59247750D01*
X156315674Y-59223858D01*
X156319184Y-59200197D01*
X156324996Y-59176993D01*
X156333054Y-59154471D01*
X156343282Y-59132847D01*
X156355579Y-59112330D01*
X156369829Y-59093117D01*
X156385893Y-59075393D01*
X156403617Y-59059329D01*
X156422830Y-59045079D01*
X156443347Y-59032782D01*
X156464971Y-59022554D01*
X156487493Y-59014496D01*
X156510697Y-59008684D01*
X156534358Y-59005174D01*
X156558250Y-59004000D01*
X157470750Y-59004000D01*
X157494642Y-59005174D01*
X157494642Y-59005174D01*
G37*
D12*
X157014500Y-59491500D03*
D10*
G36*
X111060691Y-74726053D02*
X111081926Y-74729203D01*
X111102750Y-74734419D01*
X111122962Y-74741651D01*
X111142368Y-74750830D01*
X111160781Y-74761866D01*
X111178024Y-74774654D01*
X111193930Y-74789070D01*
X111208346Y-74804976D01*
X111221134Y-74822219D01*
X111232170Y-74840632D01*
X111241349Y-74860038D01*
X111248581Y-74880250D01*
X111253797Y-74901074D01*
X111256947Y-74922309D01*
X111258000Y-74943750D01*
X111258000Y-75381250D01*
X111256947Y-75402691D01*
X111253797Y-75423926D01*
X111248581Y-75444750D01*
X111241349Y-75464962D01*
X111232170Y-75484368D01*
X111221134Y-75502781D01*
X111208346Y-75520024D01*
X111193930Y-75535930D01*
X111178024Y-75550346D01*
X111160781Y-75563134D01*
X111142368Y-75574170D01*
X111122962Y-75583349D01*
X111102750Y-75590581D01*
X111081926Y-75595797D01*
X111060691Y-75598947D01*
X111039250Y-75600000D01*
X110526750Y-75600000D01*
X110505309Y-75598947D01*
X110484074Y-75595797D01*
X110463250Y-75590581D01*
X110443038Y-75583349D01*
X110423632Y-75574170D01*
X110405219Y-75563134D01*
X110387976Y-75550346D01*
X110372070Y-75535930D01*
X110357654Y-75520024D01*
X110344866Y-75502781D01*
X110333830Y-75484368D01*
X110324651Y-75464962D01*
X110317419Y-75444750D01*
X110312203Y-75423926D01*
X110309053Y-75402691D01*
X110308000Y-75381250D01*
X110308000Y-74943750D01*
X110309053Y-74922309D01*
X110312203Y-74901074D01*
X110317419Y-74880250D01*
X110324651Y-74860038D01*
X110333830Y-74840632D01*
X110344866Y-74822219D01*
X110357654Y-74804976D01*
X110372070Y-74789070D01*
X110387976Y-74774654D01*
X110405219Y-74761866D01*
X110423632Y-74750830D01*
X110443038Y-74741651D01*
X110463250Y-74734419D01*
X110484074Y-74729203D01*
X110505309Y-74726053D01*
X110526750Y-74725000D01*
X111039250Y-74725000D01*
X111060691Y-74726053D01*
X111060691Y-74726053D01*
G37*
D11*
X110783000Y-75162500D03*
D10*
G36*
X111060691Y-76301053D02*
X111081926Y-76304203D01*
X111102750Y-76309419D01*
X111122962Y-76316651D01*
X111142368Y-76325830D01*
X111160781Y-76336866D01*
X111178024Y-76349654D01*
X111193930Y-76364070D01*
X111208346Y-76379976D01*
X111221134Y-76397219D01*
X111232170Y-76415632D01*
X111241349Y-76435038D01*
X111248581Y-76455250D01*
X111253797Y-76476074D01*
X111256947Y-76497309D01*
X111258000Y-76518750D01*
X111258000Y-76956250D01*
X111256947Y-76977691D01*
X111253797Y-76998926D01*
X111248581Y-77019750D01*
X111241349Y-77039962D01*
X111232170Y-77059368D01*
X111221134Y-77077781D01*
X111208346Y-77095024D01*
X111193930Y-77110930D01*
X111178024Y-77125346D01*
X111160781Y-77138134D01*
X111142368Y-77149170D01*
X111122962Y-77158349D01*
X111102750Y-77165581D01*
X111081926Y-77170797D01*
X111060691Y-77173947D01*
X111039250Y-77175000D01*
X110526750Y-77175000D01*
X110505309Y-77173947D01*
X110484074Y-77170797D01*
X110463250Y-77165581D01*
X110443038Y-77158349D01*
X110423632Y-77149170D01*
X110405219Y-77138134D01*
X110387976Y-77125346D01*
X110372070Y-77110930D01*
X110357654Y-77095024D01*
X110344866Y-77077781D01*
X110333830Y-77059368D01*
X110324651Y-77039962D01*
X110317419Y-77019750D01*
X110312203Y-76998926D01*
X110309053Y-76977691D01*
X110308000Y-76956250D01*
X110308000Y-76518750D01*
X110309053Y-76497309D01*
X110312203Y-76476074D01*
X110317419Y-76455250D01*
X110324651Y-76435038D01*
X110333830Y-76415632D01*
X110344866Y-76397219D01*
X110357654Y-76379976D01*
X110372070Y-76364070D01*
X110387976Y-76349654D01*
X110405219Y-76336866D01*
X110423632Y-76325830D01*
X110443038Y-76316651D01*
X110463250Y-76309419D01*
X110484074Y-76304203D01*
X110505309Y-76301053D01*
X110526750Y-76300000D01*
X111039250Y-76300000D01*
X111060691Y-76301053D01*
X111060691Y-76301053D01*
G37*
D11*
X110783000Y-76737500D03*
D10*
G36*
X152327191Y-76460053D02*
X152348426Y-76463203D01*
X152369250Y-76468419D01*
X152389462Y-76475651D01*
X152408868Y-76484830D01*
X152427281Y-76495866D01*
X152444524Y-76508654D01*
X152460430Y-76523070D01*
X152474846Y-76538976D01*
X152487634Y-76556219D01*
X152498670Y-76574632D01*
X152507849Y-76594038D01*
X152515081Y-76614250D01*
X152520297Y-76635074D01*
X152523447Y-76656309D01*
X152524500Y-76677750D01*
X152524500Y-77115250D01*
X152523447Y-77136691D01*
X152520297Y-77157926D01*
X152515081Y-77178750D01*
X152507849Y-77198962D01*
X152498670Y-77218368D01*
X152487634Y-77236781D01*
X152474846Y-77254024D01*
X152460430Y-77269930D01*
X152444524Y-77284346D01*
X152427281Y-77297134D01*
X152408868Y-77308170D01*
X152389462Y-77317349D01*
X152369250Y-77324581D01*
X152348426Y-77329797D01*
X152327191Y-77332947D01*
X152305750Y-77334000D01*
X151793250Y-77334000D01*
X151771809Y-77332947D01*
X151750574Y-77329797D01*
X151729750Y-77324581D01*
X151709538Y-77317349D01*
X151690132Y-77308170D01*
X151671719Y-77297134D01*
X151654476Y-77284346D01*
X151638570Y-77269930D01*
X151624154Y-77254024D01*
X151611366Y-77236781D01*
X151600330Y-77218368D01*
X151591151Y-77198962D01*
X151583919Y-77178750D01*
X151578703Y-77157926D01*
X151575553Y-77136691D01*
X151574500Y-77115250D01*
X151574500Y-76677750D01*
X151575553Y-76656309D01*
X151578703Y-76635074D01*
X151583919Y-76614250D01*
X151591151Y-76594038D01*
X151600330Y-76574632D01*
X151611366Y-76556219D01*
X151624154Y-76538976D01*
X151638570Y-76523070D01*
X151654476Y-76508654D01*
X151671719Y-76495866D01*
X151690132Y-76484830D01*
X151709538Y-76475651D01*
X151729750Y-76468419D01*
X151750574Y-76463203D01*
X151771809Y-76460053D01*
X151793250Y-76459000D01*
X152305750Y-76459000D01*
X152327191Y-76460053D01*
X152327191Y-76460053D01*
G37*
D11*
X152049500Y-76896500D03*
D10*
G36*
X152327191Y-74885053D02*
X152348426Y-74888203D01*
X152369250Y-74893419D01*
X152389462Y-74900651D01*
X152408868Y-74909830D01*
X152427281Y-74920866D01*
X152444524Y-74933654D01*
X152460430Y-74948070D01*
X152474846Y-74963976D01*
X152487634Y-74981219D01*
X152498670Y-74999632D01*
X152507849Y-75019038D01*
X152515081Y-75039250D01*
X152520297Y-75060074D01*
X152523447Y-75081309D01*
X152524500Y-75102750D01*
X152524500Y-75540250D01*
X152523447Y-75561691D01*
X152520297Y-75582926D01*
X152515081Y-75603750D01*
X152507849Y-75623962D01*
X152498670Y-75643368D01*
X152487634Y-75661781D01*
X152474846Y-75679024D01*
X152460430Y-75694930D01*
X152444524Y-75709346D01*
X152427281Y-75722134D01*
X152408868Y-75733170D01*
X152389462Y-75742349D01*
X152369250Y-75749581D01*
X152348426Y-75754797D01*
X152327191Y-75757947D01*
X152305750Y-75759000D01*
X151793250Y-75759000D01*
X151771809Y-75757947D01*
X151750574Y-75754797D01*
X151729750Y-75749581D01*
X151709538Y-75742349D01*
X151690132Y-75733170D01*
X151671719Y-75722134D01*
X151654476Y-75709346D01*
X151638570Y-75694930D01*
X151624154Y-75679024D01*
X151611366Y-75661781D01*
X151600330Y-75643368D01*
X151591151Y-75623962D01*
X151583919Y-75603750D01*
X151578703Y-75582926D01*
X151575553Y-75561691D01*
X151574500Y-75540250D01*
X151574500Y-75102750D01*
X151575553Y-75081309D01*
X151578703Y-75060074D01*
X151583919Y-75039250D01*
X151591151Y-75019038D01*
X151600330Y-74999632D01*
X151611366Y-74981219D01*
X151624154Y-74963976D01*
X151638570Y-74948070D01*
X151654476Y-74933654D01*
X151671719Y-74920866D01*
X151690132Y-74909830D01*
X151709538Y-74900651D01*
X151729750Y-74893419D01*
X151750574Y-74888203D01*
X151771809Y-74885053D01*
X151793250Y-74884000D01*
X152305750Y-74884000D01*
X152327191Y-74885053D01*
X152327191Y-74885053D01*
G37*
D11*
X152049500Y-75321500D03*
D10*
G36*
X116778191Y-74726053D02*
X116799426Y-74729203D01*
X116820250Y-74734419D01*
X116840462Y-74741651D01*
X116859868Y-74750830D01*
X116878281Y-74761866D01*
X116895524Y-74774654D01*
X116911430Y-74789070D01*
X116925846Y-74804976D01*
X116938634Y-74822219D01*
X116949670Y-74840632D01*
X116958849Y-74860038D01*
X116966081Y-74880250D01*
X116971297Y-74901074D01*
X116974447Y-74922309D01*
X116975500Y-74943750D01*
X116975500Y-75381250D01*
X116974447Y-75402691D01*
X116971297Y-75423926D01*
X116966081Y-75444750D01*
X116958849Y-75464962D01*
X116949670Y-75484368D01*
X116938634Y-75502781D01*
X116925846Y-75520024D01*
X116911430Y-75535930D01*
X116895524Y-75550346D01*
X116878281Y-75563134D01*
X116859868Y-75574170D01*
X116840462Y-75583349D01*
X116820250Y-75590581D01*
X116799426Y-75595797D01*
X116778191Y-75598947D01*
X116756750Y-75600000D01*
X116244250Y-75600000D01*
X116222809Y-75598947D01*
X116201574Y-75595797D01*
X116180750Y-75590581D01*
X116160538Y-75583349D01*
X116141132Y-75574170D01*
X116122719Y-75563134D01*
X116105476Y-75550346D01*
X116089570Y-75535930D01*
X116075154Y-75520024D01*
X116062366Y-75502781D01*
X116051330Y-75484368D01*
X116042151Y-75464962D01*
X116034919Y-75444750D01*
X116029703Y-75423926D01*
X116026553Y-75402691D01*
X116025500Y-75381250D01*
X116025500Y-74943750D01*
X116026553Y-74922309D01*
X116029703Y-74901074D01*
X116034919Y-74880250D01*
X116042151Y-74860038D01*
X116051330Y-74840632D01*
X116062366Y-74822219D01*
X116075154Y-74804976D01*
X116089570Y-74789070D01*
X116105476Y-74774654D01*
X116122719Y-74761866D01*
X116141132Y-74750830D01*
X116160538Y-74741651D01*
X116180750Y-74734419D01*
X116201574Y-74729203D01*
X116222809Y-74726053D01*
X116244250Y-74725000D01*
X116756750Y-74725000D01*
X116778191Y-74726053D01*
X116778191Y-74726053D01*
G37*
D11*
X116500500Y-75162500D03*
D10*
G36*
X116778191Y-76301053D02*
X116799426Y-76304203D01*
X116820250Y-76309419D01*
X116840462Y-76316651D01*
X116859868Y-76325830D01*
X116878281Y-76336866D01*
X116895524Y-76349654D01*
X116911430Y-76364070D01*
X116925846Y-76379976D01*
X116938634Y-76397219D01*
X116949670Y-76415632D01*
X116958849Y-76435038D01*
X116966081Y-76455250D01*
X116971297Y-76476074D01*
X116974447Y-76497309D01*
X116975500Y-76518750D01*
X116975500Y-76956250D01*
X116974447Y-76977691D01*
X116971297Y-76998926D01*
X116966081Y-77019750D01*
X116958849Y-77039962D01*
X116949670Y-77059368D01*
X116938634Y-77077781D01*
X116925846Y-77095024D01*
X116911430Y-77110930D01*
X116895524Y-77125346D01*
X116878281Y-77138134D01*
X116859868Y-77149170D01*
X116840462Y-77158349D01*
X116820250Y-77165581D01*
X116799426Y-77170797D01*
X116778191Y-77173947D01*
X116756750Y-77175000D01*
X116244250Y-77175000D01*
X116222809Y-77173947D01*
X116201574Y-77170797D01*
X116180750Y-77165581D01*
X116160538Y-77158349D01*
X116141132Y-77149170D01*
X116122719Y-77138134D01*
X116105476Y-77125346D01*
X116089570Y-77110930D01*
X116075154Y-77095024D01*
X116062366Y-77077781D01*
X116051330Y-77059368D01*
X116042151Y-77039962D01*
X116034919Y-77019750D01*
X116029703Y-76998926D01*
X116026553Y-76977691D01*
X116025500Y-76956250D01*
X116025500Y-76518750D01*
X116026553Y-76497309D01*
X116029703Y-76476074D01*
X116034919Y-76455250D01*
X116042151Y-76435038D01*
X116051330Y-76415632D01*
X116062366Y-76397219D01*
X116075154Y-76379976D01*
X116089570Y-76364070D01*
X116105476Y-76349654D01*
X116122719Y-76336866D01*
X116141132Y-76325830D01*
X116160538Y-76316651D01*
X116180750Y-76309419D01*
X116201574Y-76304203D01*
X116222809Y-76301053D01*
X116244250Y-76300000D01*
X116756750Y-76300000D01*
X116778191Y-76301053D01*
X116778191Y-76301053D01*
G37*
D11*
X116500500Y-76737500D03*
D10*
G36*
X154827191Y-76460053D02*
X154848426Y-76463203D01*
X154869250Y-76468419D01*
X154889462Y-76475651D01*
X154908868Y-76484830D01*
X154927281Y-76495866D01*
X154944524Y-76508654D01*
X154960430Y-76523070D01*
X154974846Y-76538976D01*
X154987634Y-76556219D01*
X154998670Y-76574632D01*
X155007849Y-76594038D01*
X155015081Y-76614250D01*
X155020297Y-76635074D01*
X155023447Y-76656309D01*
X155024500Y-76677750D01*
X155024500Y-77115250D01*
X155023447Y-77136691D01*
X155020297Y-77157926D01*
X155015081Y-77178750D01*
X155007849Y-77198962D01*
X154998670Y-77218368D01*
X154987634Y-77236781D01*
X154974846Y-77254024D01*
X154960430Y-77269930D01*
X154944524Y-77284346D01*
X154927281Y-77297134D01*
X154908868Y-77308170D01*
X154889462Y-77317349D01*
X154869250Y-77324581D01*
X154848426Y-77329797D01*
X154827191Y-77332947D01*
X154805750Y-77334000D01*
X154293250Y-77334000D01*
X154271809Y-77332947D01*
X154250574Y-77329797D01*
X154229750Y-77324581D01*
X154209538Y-77317349D01*
X154190132Y-77308170D01*
X154171719Y-77297134D01*
X154154476Y-77284346D01*
X154138570Y-77269930D01*
X154124154Y-77254024D01*
X154111366Y-77236781D01*
X154100330Y-77218368D01*
X154091151Y-77198962D01*
X154083919Y-77178750D01*
X154078703Y-77157926D01*
X154075553Y-77136691D01*
X154074500Y-77115250D01*
X154074500Y-76677750D01*
X154075553Y-76656309D01*
X154078703Y-76635074D01*
X154083919Y-76614250D01*
X154091151Y-76594038D01*
X154100330Y-76574632D01*
X154111366Y-76556219D01*
X154124154Y-76538976D01*
X154138570Y-76523070D01*
X154154476Y-76508654D01*
X154171719Y-76495866D01*
X154190132Y-76484830D01*
X154209538Y-76475651D01*
X154229750Y-76468419D01*
X154250574Y-76463203D01*
X154271809Y-76460053D01*
X154293250Y-76459000D01*
X154805750Y-76459000D01*
X154827191Y-76460053D01*
X154827191Y-76460053D01*
G37*
D11*
X154549500Y-76896500D03*
D10*
G36*
X154827191Y-74885053D02*
X154848426Y-74888203D01*
X154869250Y-74893419D01*
X154889462Y-74900651D01*
X154908868Y-74909830D01*
X154927281Y-74920866D01*
X154944524Y-74933654D01*
X154960430Y-74948070D01*
X154974846Y-74963976D01*
X154987634Y-74981219D01*
X154998670Y-74999632D01*
X155007849Y-75019038D01*
X155015081Y-75039250D01*
X155020297Y-75060074D01*
X155023447Y-75081309D01*
X155024500Y-75102750D01*
X155024500Y-75540250D01*
X155023447Y-75561691D01*
X155020297Y-75582926D01*
X155015081Y-75603750D01*
X155007849Y-75623962D01*
X154998670Y-75643368D01*
X154987634Y-75661781D01*
X154974846Y-75679024D01*
X154960430Y-75694930D01*
X154944524Y-75709346D01*
X154927281Y-75722134D01*
X154908868Y-75733170D01*
X154889462Y-75742349D01*
X154869250Y-75749581D01*
X154848426Y-75754797D01*
X154827191Y-75757947D01*
X154805750Y-75759000D01*
X154293250Y-75759000D01*
X154271809Y-75757947D01*
X154250574Y-75754797D01*
X154229750Y-75749581D01*
X154209538Y-75742349D01*
X154190132Y-75733170D01*
X154171719Y-75722134D01*
X154154476Y-75709346D01*
X154138570Y-75694930D01*
X154124154Y-75679024D01*
X154111366Y-75661781D01*
X154100330Y-75643368D01*
X154091151Y-75623962D01*
X154083919Y-75603750D01*
X154078703Y-75582926D01*
X154075553Y-75561691D01*
X154074500Y-75540250D01*
X154074500Y-75102750D01*
X154075553Y-75081309D01*
X154078703Y-75060074D01*
X154083919Y-75039250D01*
X154091151Y-75019038D01*
X154100330Y-74999632D01*
X154111366Y-74981219D01*
X154124154Y-74963976D01*
X154138570Y-74948070D01*
X154154476Y-74933654D01*
X154171719Y-74920866D01*
X154190132Y-74909830D01*
X154209538Y-74900651D01*
X154229750Y-74893419D01*
X154250574Y-74888203D01*
X154271809Y-74885053D01*
X154293250Y-74884000D01*
X154805750Y-74884000D01*
X154827191Y-74885053D01*
X154827191Y-74885053D01*
G37*
D11*
X154549500Y-75321500D03*
D13*
X124049500Y-82909000D03*
X124049500Y-78509000D03*
D14*
X151333500Y-70500500D03*
X146933500Y-70500500D03*
D10*
G36*
X165642191Y-51124553D02*
X165663426Y-51127703D01*
X165684250Y-51132919D01*
X165704462Y-51140151D01*
X165723868Y-51149330D01*
X165742281Y-51160366D01*
X165759524Y-51173154D01*
X165775430Y-51187570D01*
X165789846Y-51203476D01*
X165802634Y-51220719D01*
X165813670Y-51239132D01*
X165822849Y-51258538D01*
X165830081Y-51278750D01*
X165835297Y-51299574D01*
X165838447Y-51320809D01*
X165839500Y-51342250D01*
X165839500Y-51779750D01*
X165838447Y-51801191D01*
X165835297Y-51822426D01*
X165830081Y-51843250D01*
X165822849Y-51863462D01*
X165813670Y-51882868D01*
X165802634Y-51901281D01*
X165789846Y-51918524D01*
X165775430Y-51934430D01*
X165759524Y-51948846D01*
X165742281Y-51961634D01*
X165723868Y-51972670D01*
X165704462Y-51981849D01*
X165684250Y-51989081D01*
X165663426Y-51994297D01*
X165642191Y-51997447D01*
X165620750Y-51998500D01*
X165108250Y-51998500D01*
X165086809Y-51997447D01*
X165065574Y-51994297D01*
X165044750Y-51989081D01*
X165024538Y-51981849D01*
X165005132Y-51972670D01*
X164986719Y-51961634D01*
X164969476Y-51948846D01*
X164953570Y-51934430D01*
X164939154Y-51918524D01*
X164926366Y-51901281D01*
X164915330Y-51882868D01*
X164906151Y-51863462D01*
X164898919Y-51843250D01*
X164893703Y-51822426D01*
X164890553Y-51801191D01*
X164889500Y-51779750D01*
X164889500Y-51342250D01*
X164890553Y-51320809D01*
X164893703Y-51299574D01*
X164898919Y-51278750D01*
X164906151Y-51258538D01*
X164915330Y-51239132D01*
X164926366Y-51220719D01*
X164939154Y-51203476D01*
X164953570Y-51187570D01*
X164969476Y-51173154D01*
X164986719Y-51160366D01*
X165005132Y-51149330D01*
X165024538Y-51140151D01*
X165044750Y-51132919D01*
X165065574Y-51127703D01*
X165086809Y-51124553D01*
X165108250Y-51123500D01*
X165620750Y-51123500D01*
X165642191Y-51124553D01*
X165642191Y-51124553D01*
G37*
D11*
X165364500Y-51561000D03*
D10*
G36*
X165642191Y-49549553D02*
X165663426Y-49552703D01*
X165684250Y-49557919D01*
X165704462Y-49565151D01*
X165723868Y-49574330D01*
X165742281Y-49585366D01*
X165759524Y-49598154D01*
X165775430Y-49612570D01*
X165789846Y-49628476D01*
X165802634Y-49645719D01*
X165813670Y-49664132D01*
X165822849Y-49683538D01*
X165830081Y-49703750D01*
X165835297Y-49724574D01*
X165838447Y-49745809D01*
X165839500Y-49767250D01*
X165839500Y-50204750D01*
X165838447Y-50226191D01*
X165835297Y-50247426D01*
X165830081Y-50268250D01*
X165822849Y-50288462D01*
X165813670Y-50307868D01*
X165802634Y-50326281D01*
X165789846Y-50343524D01*
X165775430Y-50359430D01*
X165759524Y-50373846D01*
X165742281Y-50386634D01*
X165723868Y-50397670D01*
X165704462Y-50406849D01*
X165684250Y-50414081D01*
X165663426Y-50419297D01*
X165642191Y-50422447D01*
X165620750Y-50423500D01*
X165108250Y-50423500D01*
X165086809Y-50422447D01*
X165065574Y-50419297D01*
X165044750Y-50414081D01*
X165024538Y-50406849D01*
X165005132Y-50397670D01*
X164986719Y-50386634D01*
X164969476Y-50373846D01*
X164953570Y-50359430D01*
X164939154Y-50343524D01*
X164926366Y-50326281D01*
X164915330Y-50307868D01*
X164906151Y-50288462D01*
X164898919Y-50268250D01*
X164893703Y-50247426D01*
X164890553Y-50226191D01*
X164889500Y-50204750D01*
X164889500Y-49767250D01*
X164890553Y-49745809D01*
X164893703Y-49724574D01*
X164898919Y-49703750D01*
X164906151Y-49683538D01*
X164915330Y-49664132D01*
X164926366Y-49645719D01*
X164939154Y-49628476D01*
X164953570Y-49612570D01*
X164969476Y-49598154D01*
X164986719Y-49585366D01*
X165005132Y-49574330D01*
X165024538Y-49565151D01*
X165044750Y-49557919D01*
X165065574Y-49552703D01*
X165086809Y-49549553D01*
X165108250Y-49548500D01*
X165620750Y-49548500D01*
X165642191Y-49549553D01*
X165642191Y-49549553D01*
G37*
D11*
X165364500Y-49986000D03*
D10*
G36*
X159053142Y-68270674D02*
X159076803Y-68274184D01*
X159100007Y-68279996D01*
X159122529Y-68288054D01*
X159144153Y-68298282D01*
X159164670Y-68310579D01*
X159183883Y-68324829D01*
X159201607Y-68340893D01*
X159217671Y-68358617D01*
X159231921Y-68377830D01*
X159244218Y-68398347D01*
X159254446Y-68419971D01*
X159262504Y-68442493D01*
X159268316Y-68465697D01*
X159271826Y-68489358D01*
X159273000Y-68513250D01*
X159273000Y-69000750D01*
X159271826Y-69024642D01*
X159268316Y-69048303D01*
X159262504Y-69071507D01*
X159254446Y-69094029D01*
X159244218Y-69115653D01*
X159231921Y-69136170D01*
X159217671Y-69155383D01*
X159201607Y-69173107D01*
X159183883Y-69189171D01*
X159164670Y-69203421D01*
X159144153Y-69215718D01*
X159122529Y-69225946D01*
X159100007Y-69234004D01*
X159076803Y-69239816D01*
X159053142Y-69243326D01*
X159029250Y-69244500D01*
X158116750Y-69244500D01*
X158092858Y-69243326D01*
X158069197Y-69239816D01*
X158045993Y-69234004D01*
X158023471Y-69225946D01*
X158001847Y-69215718D01*
X157981330Y-69203421D01*
X157962117Y-69189171D01*
X157944393Y-69173107D01*
X157928329Y-69155383D01*
X157914079Y-69136170D01*
X157901782Y-69115653D01*
X157891554Y-69094029D01*
X157883496Y-69071507D01*
X157877684Y-69048303D01*
X157874174Y-69024642D01*
X157873000Y-69000750D01*
X157873000Y-68513250D01*
X157874174Y-68489358D01*
X157877684Y-68465697D01*
X157883496Y-68442493D01*
X157891554Y-68419971D01*
X157901782Y-68398347D01*
X157914079Y-68377830D01*
X157928329Y-68358617D01*
X157944393Y-68340893D01*
X157962117Y-68324829D01*
X157981330Y-68310579D01*
X158001847Y-68298282D01*
X158023471Y-68288054D01*
X158045993Y-68279996D01*
X158069197Y-68274184D01*
X158092858Y-68270674D01*
X158116750Y-68269500D01*
X159029250Y-68269500D01*
X159053142Y-68270674D01*
X159053142Y-68270674D01*
G37*
D12*
X158573000Y-68757000D03*
D10*
G36*
X159053142Y-66395674D02*
X159076803Y-66399184D01*
X159100007Y-66404996D01*
X159122529Y-66413054D01*
X159144153Y-66423282D01*
X159164670Y-66435579D01*
X159183883Y-66449829D01*
X159201607Y-66465893D01*
X159217671Y-66483617D01*
X159231921Y-66502830D01*
X159244218Y-66523347D01*
X159254446Y-66544971D01*
X159262504Y-66567493D01*
X159268316Y-66590697D01*
X159271826Y-66614358D01*
X159273000Y-66638250D01*
X159273000Y-67125750D01*
X159271826Y-67149642D01*
X159268316Y-67173303D01*
X159262504Y-67196507D01*
X159254446Y-67219029D01*
X159244218Y-67240653D01*
X159231921Y-67261170D01*
X159217671Y-67280383D01*
X159201607Y-67298107D01*
X159183883Y-67314171D01*
X159164670Y-67328421D01*
X159144153Y-67340718D01*
X159122529Y-67350946D01*
X159100007Y-67359004D01*
X159076803Y-67364816D01*
X159053142Y-67368326D01*
X159029250Y-67369500D01*
X158116750Y-67369500D01*
X158092858Y-67368326D01*
X158069197Y-67364816D01*
X158045993Y-67359004D01*
X158023471Y-67350946D01*
X158001847Y-67340718D01*
X157981330Y-67328421D01*
X157962117Y-67314171D01*
X157944393Y-67298107D01*
X157928329Y-67280383D01*
X157914079Y-67261170D01*
X157901782Y-67240653D01*
X157891554Y-67219029D01*
X157883496Y-67196507D01*
X157877684Y-67173303D01*
X157874174Y-67149642D01*
X157873000Y-67125750D01*
X157873000Y-66638250D01*
X157874174Y-66614358D01*
X157877684Y-66590697D01*
X157883496Y-66567493D01*
X157891554Y-66544971D01*
X157901782Y-66523347D01*
X157914079Y-66502830D01*
X157928329Y-66483617D01*
X157944393Y-66465893D01*
X157962117Y-66449829D01*
X157981330Y-66435579D01*
X158001847Y-66423282D01*
X158023471Y-66413054D01*
X158045993Y-66404996D01*
X158069197Y-66399184D01*
X158092858Y-66395674D01*
X158116750Y-66394500D01*
X159029250Y-66394500D01*
X159053142Y-66395674D01*
X159053142Y-66395674D01*
G37*
D12*
X158573000Y-66882000D03*
D10*
G36*
X158850691Y-71493553D02*
X158871926Y-71496703D01*
X158892750Y-71501919D01*
X158912962Y-71509151D01*
X158932368Y-71518330D01*
X158950781Y-71529366D01*
X158968024Y-71542154D01*
X158983930Y-71556570D01*
X158998346Y-71572476D01*
X159011134Y-71589719D01*
X159022170Y-71608132D01*
X159031349Y-71627538D01*
X159038581Y-71647750D01*
X159043797Y-71668574D01*
X159046947Y-71689809D01*
X159048000Y-71711250D01*
X159048000Y-72148750D01*
X159046947Y-72170191D01*
X159043797Y-72191426D01*
X159038581Y-72212250D01*
X159031349Y-72232462D01*
X159022170Y-72251868D01*
X159011134Y-72270281D01*
X158998346Y-72287524D01*
X158983930Y-72303430D01*
X158968024Y-72317846D01*
X158950781Y-72330634D01*
X158932368Y-72341670D01*
X158912962Y-72350849D01*
X158892750Y-72358081D01*
X158871926Y-72363297D01*
X158850691Y-72366447D01*
X158829250Y-72367500D01*
X158316750Y-72367500D01*
X158295309Y-72366447D01*
X158274074Y-72363297D01*
X158253250Y-72358081D01*
X158233038Y-72350849D01*
X158213632Y-72341670D01*
X158195219Y-72330634D01*
X158177976Y-72317846D01*
X158162070Y-72303430D01*
X158147654Y-72287524D01*
X158134866Y-72270281D01*
X158123830Y-72251868D01*
X158114651Y-72232462D01*
X158107419Y-72212250D01*
X158102203Y-72191426D01*
X158099053Y-72170191D01*
X158098000Y-72148750D01*
X158098000Y-71711250D01*
X158099053Y-71689809D01*
X158102203Y-71668574D01*
X158107419Y-71647750D01*
X158114651Y-71627538D01*
X158123830Y-71608132D01*
X158134866Y-71589719D01*
X158147654Y-71572476D01*
X158162070Y-71556570D01*
X158177976Y-71542154D01*
X158195219Y-71529366D01*
X158213632Y-71518330D01*
X158233038Y-71509151D01*
X158253250Y-71501919D01*
X158274074Y-71496703D01*
X158295309Y-71493553D01*
X158316750Y-71492500D01*
X158829250Y-71492500D01*
X158850691Y-71493553D01*
X158850691Y-71493553D01*
G37*
D11*
X158573000Y-71930000D03*
D10*
G36*
X158850691Y-73068553D02*
X158871926Y-73071703D01*
X158892750Y-73076919D01*
X158912962Y-73084151D01*
X158932368Y-73093330D01*
X158950781Y-73104366D01*
X158968024Y-73117154D01*
X158983930Y-73131570D01*
X158998346Y-73147476D01*
X159011134Y-73164719D01*
X159022170Y-73183132D01*
X159031349Y-73202538D01*
X159038581Y-73222750D01*
X159043797Y-73243574D01*
X159046947Y-73264809D01*
X159048000Y-73286250D01*
X159048000Y-73723750D01*
X159046947Y-73745191D01*
X159043797Y-73766426D01*
X159038581Y-73787250D01*
X159031349Y-73807462D01*
X159022170Y-73826868D01*
X159011134Y-73845281D01*
X158998346Y-73862524D01*
X158983930Y-73878430D01*
X158968024Y-73892846D01*
X158950781Y-73905634D01*
X158932368Y-73916670D01*
X158912962Y-73925849D01*
X158892750Y-73933081D01*
X158871926Y-73938297D01*
X158850691Y-73941447D01*
X158829250Y-73942500D01*
X158316750Y-73942500D01*
X158295309Y-73941447D01*
X158274074Y-73938297D01*
X158253250Y-73933081D01*
X158233038Y-73925849D01*
X158213632Y-73916670D01*
X158195219Y-73905634D01*
X158177976Y-73892846D01*
X158162070Y-73878430D01*
X158147654Y-73862524D01*
X158134866Y-73845281D01*
X158123830Y-73826868D01*
X158114651Y-73807462D01*
X158107419Y-73787250D01*
X158102203Y-73766426D01*
X158099053Y-73745191D01*
X158098000Y-73723750D01*
X158098000Y-73286250D01*
X158099053Y-73264809D01*
X158102203Y-73243574D01*
X158107419Y-73222750D01*
X158114651Y-73202538D01*
X158123830Y-73183132D01*
X158134866Y-73164719D01*
X158147654Y-73147476D01*
X158162070Y-73131570D01*
X158177976Y-73117154D01*
X158195219Y-73104366D01*
X158213632Y-73093330D01*
X158233038Y-73084151D01*
X158253250Y-73076919D01*
X158274074Y-73071703D01*
X158295309Y-73068553D01*
X158316750Y-73067500D01*
X158829250Y-73067500D01*
X158850691Y-73068553D01*
X158850691Y-73068553D01*
G37*
D11*
X158573000Y-73505000D03*
D10*
G36*
X119387191Y-47765053D02*
X119408426Y-47768203D01*
X119429250Y-47773419D01*
X119449462Y-47780651D01*
X119468868Y-47789830D01*
X119487281Y-47800866D01*
X119504524Y-47813654D01*
X119520430Y-47828070D01*
X119534846Y-47843976D01*
X119547634Y-47861219D01*
X119558670Y-47879632D01*
X119567849Y-47899038D01*
X119575081Y-47919250D01*
X119580297Y-47940074D01*
X119583447Y-47961309D01*
X119584500Y-47982750D01*
X119584500Y-48420250D01*
X119583447Y-48441691D01*
X119580297Y-48462926D01*
X119575081Y-48483750D01*
X119567849Y-48503962D01*
X119558670Y-48523368D01*
X119547634Y-48541781D01*
X119534846Y-48559024D01*
X119520430Y-48574930D01*
X119504524Y-48589346D01*
X119487281Y-48602134D01*
X119468868Y-48613170D01*
X119449462Y-48622349D01*
X119429250Y-48629581D01*
X119408426Y-48634797D01*
X119387191Y-48637947D01*
X119365750Y-48639000D01*
X118853250Y-48639000D01*
X118831809Y-48637947D01*
X118810574Y-48634797D01*
X118789750Y-48629581D01*
X118769538Y-48622349D01*
X118750132Y-48613170D01*
X118731719Y-48602134D01*
X118714476Y-48589346D01*
X118698570Y-48574930D01*
X118684154Y-48559024D01*
X118671366Y-48541781D01*
X118660330Y-48523368D01*
X118651151Y-48503962D01*
X118643919Y-48483750D01*
X118638703Y-48462926D01*
X118635553Y-48441691D01*
X118634500Y-48420250D01*
X118634500Y-47982750D01*
X118635553Y-47961309D01*
X118638703Y-47940074D01*
X118643919Y-47919250D01*
X118651151Y-47899038D01*
X118660330Y-47879632D01*
X118671366Y-47861219D01*
X118684154Y-47843976D01*
X118698570Y-47828070D01*
X118714476Y-47813654D01*
X118731719Y-47800866D01*
X118750132Y-47789830D01*
X118769538Y-47780651D01*
X118789750Y-47773419D01*
X118810574Y-47768203D01*
X118831809Y-47765053D01*
X118853250Y-47764000D01*
X119365750Y-47764000D01*
X119387191Y-47765053D01*
X119387191Y-47765053D01*
G37*
D11*
X119109500Y-48201500D03*
D10*
G36*
X119387191Y-49340053D02*
X119408426Y-49343203D01*
X119429250Y-49348419D01*
X119449462Y-49355651D01*
X119468868Y-49364830D01*
X119487281Y-49375866D01*
X119504524Y-49388654D01*
X119520430Y-49403070D01*
X119534846Y-49418976D01*
X119547634Y-49436219D01*
X119558670Y-49454632D01*
X119567849Y-49474038D01*
X119575081Y-49494250D01*
X119580297Y-49515074D01*
X119583447Y-49536309D01*
X119584500Y-49557750D01*
X119584500Y-49995250D01*
X119583447Y-50016691D01*
X119580297Y-50037926D01*
X119575081Y-50058750D01*
X119567849Y-50078962D01*
X119558670Y-50098368D01*
X119547634Y-50116781D01*
X119534846Y-50134024D01*
X119520430Y-50149930D01*
X119504524Y-50164346D01*
X119487281Y-50177134D01*
X119468868Y-50188170D01*
X119449462Y-50197349D01*
X119429250Y-50204581D01*
X119408426Y-50209797D01*
X119387191Y-50212947D01*
X119365750Y-50214000D01*
X118853250Y-50214000D01*
X118831809Y-50212947D01*
X118810574Y-50209797D01*
X118789750Y-50204581D01*
X118769538Y-50197349D01*
X118750132Y-50188170D01*
X118731719Y-50177134D01*
X118714476Y-50164346D01*
X118698570Y-50149930D01*
X118684154Y-50134024D01*
X118671366Y-50116781D01*
X118660330Y-50098368D01*
X118651151Y-50078962D01*
X118643919Y-50058750D01*
X118638703Y-50037926D01*
X118635553Y-50016691D01*
X118634500Y-49995250D01*
X118634500Y-49557750D01*
X118635553Y-49536309D01*
X118638703Y-49515074D01*
X118643919Y-49494250D01*
X118651151Y-49474038D01*
X118660330Y-49454632D01*
X118671366Y-49436219D01*
X118684154Y-49418976D01*
X118698570Y-49403070D01*
X118714476Y-49388654D01*
X118731719Y-49375866D01*
X118750132Y-49364830D01*
X118769538Y-49355651D01*
X118789750Y-49348419D01*
X118810574Y-49343203D01*
X118831809Y-49340053D01*
X118853250Y-49339000D01*
X119365750Y-49339000D01*
X119387191Y-49340053D01*
X119387191Y-49340053D01*
G37*
D11*
X119109500Y-49776500D03*
D10*
G36*
X121097191Y-47765053D02*
X121118426Y-47768203D01*
X121139250Y-47773419D01*
X121159462Y-47780651D01*
X121178868Y-47789830D01*
X121197281Y-47800866D01*
X121214524Y-47813654D01*
X121230430Y-47828070D01*
X121244846Y-47843976D01*
X121257634Y-47861219D01*
X121268670Y-47879632D01*
X121277849Y-47899038D01*
X121285081Y-47919250D01*
X121290297Y-47940074D01*
X121293447Y-47961309D01*
X121294500Y-47982750D01*
X121294500Y-48420250D01*
X121293447Y-48441691D01*
X121290297Y-48462926D01*
X121285081Y-48483750D01*
X121277849Y-48503962D01*
X121268670Y-48523368D01*
X121257634Y-48541781D01*
X121244846Y-48559024D01*
X121230430Y-48574930D01*
X121214524Y-48589346D01*
X121197281Y-48602134D01*
X121178868Y-48613170D01*
X121159462Y-48622349D01*
X121139250Y-48629581D01*
X121118426Y-48634797D01*
X121097191Y-48637947D01*
X121075750Y-48639000D01*
X120563250Y-48639000D01*
X120541809Y-48637947D01*
X120520574Y-48634797D01*
X120499750Y-48629581D01*
X120479538Y-48622349D01*
X120460132Y-48613170D01*
X120441719Y-48602134D01*
X120424476Y-48589346D01*
X120408570Y-48574930D01*
X120394154Y-48559024D01*
X120381366Y-48541781D01*
X120370330Y-48523368D01*
X120361151Y-48503962D01*
X120353919Y-48483750D01*
X120348703Y-48462926D01*
X120345553Y-48441691D01*
X120344500Y-48420250D01*
X120344500Y-47982750D01*
X120345553Y-47961309D01*
X120348703Y-47940074D01*
X120353919Y-47919250D01*
X120361151Y-47899038D01*
X120370330Y-47879632D01*
X120381366Y-47861219D01*
X120394154Y-47843976D01*
X120408570Y-47828070D01*
X120424476Y-47813654D01*
X120441719Y-47800866D01*
X120460132Y-47789830D01*
X120479538Y-47780651D01*
X120499750Y-47773419D01*
X120520574Y-47768203D01*
X120541809Y-47765053D01*
X120563250Y-47764000D01*
X121075750Y-47764000D01*
X121097191Y-47765053D01*
X121097191Y-47765053D01*
G37*
D11*
X120819500Y-48201500D03*
D10*
G36*
X121097191Y-49340053D02*
X121118426Y-49343203D01*
X121139250Y-49348419D01*
X121159462Y-49355651D01*
X121178868Y-49364830D01*
X121197281Y-49375866D01*
X121214524Y-49388654D01*
X121230430Y-49403070D01*
X121244846Y-49418976D01*
X121257634Y-49436219D01*
X121268670Y-49454632D01*
X121277849Y-49474038D01*
X121285081Y-49494250D01*
X121290297Y-49515074D01*
X121293447Y-49536309D01*
X121294500Y-49557750D01*
X121294500Y-49995250D01*
X121293447Y-50016691D01*
X121290297Y-50037926D01*
X121285081Y-50058750D01*
X121277849Y-50078962D01*
X121268670Y-50098368D01*
X121257634Y-50116781D01*
X121244846Y-50134024D01*
X121230430Y-50149930D01*
X121214524Y-50164346D01*
X121197281Y-50177134D01*
X121178868Y-50188170D01*
X121159462Y-50197349D01*
X121139250Y-50204581D01*
X121118426Y-50209797D01*
X121097191Y-50212947D01*
X121075750Y-50214000D01*
X120563250Y-50214000D01*
X120541809Y-50212947D01*
X120520574Y-50209797D01*
X120499750Y-50204581D01*
X120479538Y-50197349D01*
X120460132Y-50188170D01*
X120441719Y-50177134D01*
X120424476Y-50164346D01*
X120408570Y-50149930D01*
X120394154Y-50134024D01*
X120381366Y-50116781D01*
X120370330Y-50098368D01*
X120361151Y-50078962D01*
X120353919Y-50058750D01*
X120348703Y-50037926D01*
X120345553Y-50016691D01*
X120344500Y-49995250D01*
X120344500Y-49557750D01*
X120345553Y-49536309D01*
X120348703Y-49515074D01*
X120353919Y-49494250D01*
X120361151Y-49474038D01*
X120370330Y-49454632D01*
X120381366Y-49436219D01*
X120394154Y-49418976D01*
X120408570Y-49403070D01*
X120424476Y-49388654D01*
X120441719Y-49375866D01*
X120460132Y-49364830D01*
X120479538Y-49355651D01*
X120499750Y-49348419D01*
X120520574Y-49343203D01*
X120541809Y-49340053D01*
X120563250Y-49339000D01*
X121075750Y-49339000D01*
X121097191Y-49340053D01*
X121097191Y-49340053D01*
G37*
D11*
X120819500Y-49776500D03*
D10*
G36*
X112597391Y-76301053D02*
X112618626Y-76304203D01*
X112639450Y-76309419D01*
X112659662Y-76316651D01*
X112679068Y-76325830D01*
X112697481Y-76336866D01*
X112714724Y-76349654D01*
X112730630Y-76364070D01*
X112745046Y-76379976D01*
X112757834Y-76397219D01*
X112768870Y-76415632D01*
X112778049Y-76435038D01*
X112785281Y-76455250D01*
X112790497Y-76476074D01*
X112793647Y-76497309D01*
X112794700Y-76518750D01*
X112794700Y-76956250D01*
X112793647Y-76977691D01*
X112790497Y-76998926D01*
X112785281Y-77019750D01*
X112778049Y-77039962D01*
X112768870Y-77059368D01*
X112757834Y-77077781D01*
X112745046Y-77095024D01*
X112730630Y-77110930D01*
X112714724Y-77125346D01*
X112697481Y-77138134D01*
X112679068Y-77149170D01*
X112659662Y-77158349D01*
X112639450Y-77165581D01*
X112618626Y-77170797D01*
X112597391Y-77173947D01*
X112575950Y-77175000D01*
X112063450Y-77175000D01*
X112042009Y-77173947D01*
X112020774Y-77170797D01*
X111999950Y-77165581D01*
X111979738Y-77158349D01*
X111960332Y-77149170D01*
X111941919Y-77138134D01*
X111924676Y-77125346D01*
X111908770Y-77110930D01*
X111894354Y-77095024D01*
X111881566Y-77077781D01*
X111870530Y-77059368D01*
X111861351Y-77039962D01*
X111854119Y-77019750D01*
X111848903Y-76998926D01*
X111845753Y-76977691D01*
X111844700Y-76956250D01*
X111844700Y-76518750D01*
X111845753Y-76497309D01*
X111848903Y-76476074D01*
X111854119Y-76455250D01*
X111861351Y-76435038D01*
X111870530Y-76415632D01*
X111881566Y-76397219D01*
X111894354Y-76379976D01*
X111908770Y-76364070D01*
X111924676Y-76349654D01*
X111941919Y-76336866D01*
X111960332Y-76325830D01*
X111979738Y-76316651D01*
X111999950Y-76309419D01*
X112020774Y-76304203D01*
X112042009Y-76301053D01*
X112063450Y-76300000D01*
X112575950Y-76300000D01*
X112597391Y-76301053D01*
X112597391Y-76301053D01*
G37*
D11*
X112319700Y-76737500D03*
D10*
G36*
X112597391Y-74726053D02*
X112618626Y-74729203D01*
X112639450Y-74734419D01*
X112659662Y-74741651D01*
X112679068Y-74750830D01*
X112697481Y-74761866D01*
X112714724Y-74774654D01*
X112730630Y-74789070D01*
X112745046Y-74804976D01*
X112757834Y-74822219D01*
X112768870Y-74840632D01*
X112778049Y-74860038D01*
X112785281Y-74880250D01*
X112790497Y-74901074D01*
X112793647Y-74922309D01*
X112794700Y-74943750D01*
X112794700Y-75381250D01*
X112793647Y-75402691D01*
X112790497Y-75423926D01*
X112785281Y-75444750D01*
X112778049Y-75464962D01*
X112768870Y-75484368D01*
X112757834Y-75502781D01*
X112745046Y-75520024D01*
X112730630Y-75535930D01*
X112714724Y-75550346D01*
X112697481Y-75563134D01*
X112679068Y-75574170D01*
X112659662Y-75583349D01*
X112639450Y-75590581D01*
X112618626Y-75595797D01*
X112597391Y-75598947D01*
X112575950Y-75600000D01*
X112063450Y-75600000D01*
X112042009Y-75598947D01*
X112020774Y-75595797D01*
X111999950Y-75590581D01*
X111979738Y-75583349D01*
X111960332Y-75574170D01*
X111941919Y-75563134D01*
X111924676Y-75550346D01*
X111908770Y-75535930D01*
X111894354Y-75520024D01*
X111881566Y-75502781D01*
X111870530Y-75484368D01*
X111861351Y-75464962D01*
X111854119Y-75444750D01*
X111848903Y-75423926D01*
X111845753Y-75402691D01*
X111844700Y-75381250D01*
X111844700Y-74943750D01*
X111845753Y-74922309D01*
X111848903Y-74901074D01*
X111854119Y-74880250D01*
X111861351Y-74860038D01*
X111870530Y-74840632D01*
X111881566Y-74822219D01*
X111894354Y-74804976D01*
X111908770Y-74789070D01*
X111924676Y-74774654D01*
X111941919Y-74761866D01*
X111960332Y-74750830D01*
X111979738Y-74741651D01*
X111999950Y-74734419D01*
X112020774Y-74729203D01*
X112042009Y-74726053D01*
X112063450Y-74725000D01*
X112575950Y-74725000D01*
X112597391Y-74726053D01*
X112597391Y-74726053D01*
G37*
D11*
X112319700Y-75162500D03*
D10*
G36*
X115264391Y-74726053D02*
X115285626Y-74729203D01*
X115306450Y-74734419D01*
X115326662Y-74741651D01*
X115346068Y-74750830D01*
X115364481Y-74761866D01*
X115381724Y-74774654D01*
X115397630Y-74789070D01*
X115412046Y-74804976D01*
X115424834Y-74822219D01*
X115435870Y-74840632D01*
X115445049Y-74860038D01*
X115452281Y-74880250D01*
X115457497Y-74901074D01*
X115460647Y-74922309D01*
X115461700Y-74943750D01*
X115461700Y-75381250D01*
X115460647Y-75402691D01*
X115457497Y-75423926D01*
X115452281Y-75444750D01*
X115445049Y-75464962D01*
X115435870Y-75484368D01*
X115424834Y-75502781D01*
X115412046Y-75520024D01*
X115397630Y-75535930D01*
X115381724Y-75550346D01*
X115364481Y-75563134D01*
X115346068Y-75574170D01*
X115326662Y-75583349D01*
X115306450Y-75590581D01*
X115285626Y-75595797D01*
X115264391Y-75598947D01*
X115242950Y-75600000D01*
X114730450Y-75600000D01*
X114709009Y-75598947D01*
X114687774Y-75595797D01*
X114666950Y-75590581D01*
X114646738Y-75583349D01*
X114627332Y-75574170D01*
X114608919Y-75563134D01*
X114591676Y-75550346D01*
X114575770Y-75535930D01*
X114561354Y-75520024D01*
X114548566Y-75502781D01*
X114537530Y-75484368D01*
X114528351Y-75464962D01*
X114521119Y-75444750D01*
X114515903Y-75423926D01*
X114512753Y-75402691D01*
X114511700Y-75381250D01*
X114511700Y-74943750D01*
X114512753Y-74922309D01*
X114515903Y-74901074D01*
X114521119Y-74880250D01*
X114528351Y-74860038D01*
X114537530Y-74840632D01*
X114548566Y-74822219D01*
X114561354Y-74804976D01*
X114575770Y-74789070D01*
X114591676Y-74774654D01*
X114608919Y-74761866D01*
X114627332Y-74750830D01*
X114646738Y-74741651D01*
X114666950Y-74734419D01*
X114687774Y-74729203D01*
X114709009Y-74726053D01*
X114730450Y-74725000D01*
X115242950Y-74725000D01*
X115264391Y-74726053D01*
X115264391Y-74726053D01*
G37*
D11*
X114986700Y-75162500D03*
D10*
G36*
X115264391Y-76301053D02*
X115285626Y-76304203D01*
X115306450Y-76309419D01*
X115326662Y-76316651D01*
X115346068Y-76325830D01*
X115364481Y-76336866D01*
X115381724Y-76349654D01*
X115397630Y-76364070D01*
X115412046Y-76379976D01*
X115424834Y-76397219D01*
X115435870Y-76415632D01*
X115445049Y-76435038D01*
X115452281Y-76455250D01*
X115457497Y-76476074D01*
X115460647Y-76497309D01*
X115461700Y-76518750D01*
X115461700Y-76956250D01*
X115460647Y-76977691D01*
X115457497Y-76998926D01*
X115452281Y-77019750D01*
X115445049Y-77039962D01*
X115435870Y-77059368D01*
X115424834Y-77077781D01*
X115412046Y-77095024D01*
X115397630Y-77110930D01*
X115381724Y-77125346D01*
X115364481Y-77138134D01*
X115346068Y-77149170D01*
X115326662Y-77158349D01*
X115306450Y-77165581D01*
X115285626Y-77170797D01*
X115264391Y-77173947D01*
X115242950Y-77175000D01*
X114730450Y-77175000D01*
X114709009Y-77173947D01*
X114687774Y-77170797D01*
X114666950Y-77165581D01*
X114646738Y-77158349D01*
X114627332Y-77149170D01*
X114608919Y-77138134D01*
X114591676Y-77125346D01*
X114575770Y-77110930D01*
X114561354Y-77095024D01*
X114548566Y-77077781D01*
X114537530Y-77059368D01*
X114528351Y-77039962D01*
X114521119Y-77019750D01*
X114515903Y-76998926D01*
X114512753Y-76977691D01*
X114511700Y-76956250D01*
X114511700Y-76518750D01*
X114512753Y-76497309D01*
X114515903Y-76476074D01*
X114521119Y-76455250D01*
X114528351Y-76435038D01*
X114537530Y-76415632D01*
X114548566Y-76397219D01*
X114561354Y-76379976D01*
X114575770Y-76364070D01*
X114591676Y-76349654D01*
X114608919Y-76336866D01*
X114627332Y-76325830D01*
X114646738Y-76316651D01*
X114666950Y-76309419D01*
X114687774Y-76304203D01*
X114709009Y-76301053D01*
X114730450Y-76300000D01*
X115242950Y-76300000D01*
X115264391Y-76301053D01*
X115264391Y-76301053D01*
G37*
D11*
X114986700Y-76737500D03*
D10*
G36*
X150627191Y-76460053D02*
X150648426Y-76463203D01*
X150669250Y-76468419D01*
X150689462Y-76475651D01*
X150708868Y-76484830D01*
X150727281Y-76495866D01*
X150744524Y-76508654D01*
X150760430Y-76523070D01*
X150774846Y-76538976D01*
X150787634Y-76556219D01*
X150798670Y-76574632D01*
X150807849Y-76594038D01*
X150815081Y-76614250D01*
X150820297Y-76635074D01*
X150823447Y-76656309D01*
X150824500Y-76677750D01*
X150824500Y-77115250D01*
X150823447Y-77136691D01*
X150820297Y-77157926D01*
X150815081Y-77178750D01*
X150807849Y-77198962D01*
X150798670Y-77218368D01*
X150787634Y-77236781D01*
X150774846Y-77254024D01*
X150760430Y-77269930D01*
X150744524Y-77284346D01*
X150727281Y-77297134D01*
X150708868Y-77308170D01*
X150689462Y-77317349D01*
X150669250Y-77324581D01*
X150648426Y-77329797D01*
X150627191Y-77332947D01*
X150605750Y-77334000D01*
X150093250Y-77334000D01*
X150071809Y-77332947D01*
X150050574Y-77329797D01*
X150029750Y-77324581D01*
X150009538Y-77317349D01*
X149990132Y-77308170D01*
X149971719Y-77297134D01*
X149954476Y-77284346D01*
X149938570Y-77269930D01*
X149924154Y-77254024D01*
X149911366Y-77236781D01*
X149900330Y-77218368D01*
X149891151Y-77198962D01*
X149883919Y-77178750D01*
X149878703Y-77157926D01*
X149875553Y-77136691D01*
X149874500Y-77115250D01*
X149874500Y-76677750D01*
X149875553Y-76656309D01*
X149878703Y-76635074D01*
X149883919Y-76614250D01*
X149891151Y-76594038D01*
X149900330Y-76574632D01*
X149911366Y-76556219D01*
X149924154Y-76538976D01*
X149938570Y-76523070D01*
X149954476Y-76508654D01*
X149971719Y-76495866D01*
X149990132Y-76484830D01*
X150009538Y-76475651D01*
X150029750Y-76468419D01*
X150050574Y-76463203D01*
X150071809Y-76460053D01*
X150093250Y-76459000D01*
X150605750Y-76459000D01*
X150627191Y-76460053D01*
X150627191Y-76460053D01*
G37*
D11*
X150349500Y-76896500D03*
D10*
G36*
X150627191Y-74885053D02*
X150648426Y-74888203D01*
X150669250Y-74893419D01*
X150689462Y-74900651D01*
X150708868Y-74909830D01*
X150727281Y-74920866D01*
X150744524Y-74933654D01*
X150760430Y-74948070D01*
X150774846Y-74963976D01*
X150787634Y-74981219D01*
X150798670Y-74999632D01*
X150807849Y-75019038D01*
X150815081Y-75039250D01*
X150820297Y-75060074D01*
X150823447Y-75081309D01*
X150824500Y-75102750D01*
X150824500Y-75540250D01*
X150823447Y-75561691D01*
X150820297Y-75582926D01*
X150815081Y-75603750D01*
X150807849Y-75623962D01*
X150798670Y-75643368D01*
X150787634Y-75661781D01*
X150774846Y-75679024D01*
X150760430Y-75694930D01*
X150744524Y-75709346D01*
X150727281Y-75722134D01*
X150708868Y-75733170D01*
X150689462Y-75742349D01*
X150669250Y-75749581D01*
X150648426Y-75754797D01*
X150627191Y-75757947D01*
X150605750Y-75759000D01*
X150093250Y-75759000D01*
X150071809Y-75757947D01*
X150050574Y-75754797D01*
X150029750Y-75749581D01*
X150009538Y-75742349D01*
X149990132Y-75733170D01*
X149971719Y-75722134D01*
X149954476Y-75709346D01*
X149938570Y-75694930D01*
X149924154Y-75679024D01*
X149911366Y-75661781D01*
X149900330Y-75643368D01*
X149891151Y-75623962D01*
X149883919Y-75603750D01*
X149878703Y-75582926D01*
X149875553Y-75561691D01*
X149874500Y-75540250D01*
X149874500Y-75102750D01*
X149875553Y-75081309D01*
X149878703Y-75060074D01*
X149883919Y-75039250D01*
X149891151Y-75019038D01*
X149900330Y-74999632D01*
X149911366Y-74981219D01*
X149924154Y-74963976D01*
X149938570Y-74948070D01*
X149954476Y-74933654D01*
X149971719Y-74920866D01*
X149990132Y-74909830D01*
X150009538Y-74900651D01*
X150029750Y-74893419D01*
X150050574Y-74888203D01*
X150071809Y-74885053D01*
X150093250Y-74884000D01*
X150605750Y-74884000D01*
X150627191Y-74885053D01*
X150627191Y-74885053D01*
G37*
D11*
X150349500Y-75321500D03*
D10*
G36*
X156527191Y-74885053D02*
X156548426Y-74888203D01*
X156569250Y-74893419D01*
X156589462Y-74900651D01*
X156608868Y-74909830D01*
X156627281Y-74920866D01*
X156644524Y-74933654D01*
X156660430Y-74948070D01*
X156674846Y-74963976D01*
X156687634Y-74981219D01*
X156698670Y-74999632D01*
X156707849Y-75019038D01*
X156715081Y-75039250D01*
X156720297Y-75060074D01*
X156723447Y-75081309D01*
X156724500Y-75102750D01*
X156724500Y-75540250D01*
X156723447Y-75561691D01*
X156720297Y-75582926D01*
X156715081Y-75603750D01*
X156707849Y-75623962D01*
X156698670Y-75643368D01*
X156687634Y-75661781D01*
X156674846Y-75679024D01*
X156660430Y-75694930D01*
X156644524Y-75709346D01*
X156627281Y-75722134D01*
X156608868Y-75733170D01*
X156589462Y-75742349D01*
X156569250Y-75749581D01*
X156548426Y-75754797D01*
X156527191Y-75757947D01*
X156505750Y-75759000D01*
X155993250Y-75759000D01*
X155971809Y-75757947D01*
X155950574Y-75754797D01*
X155929750Y-75749581D01*
X155909538Y-75742349D01*
X155890132Y-75733170D01*
X155871719Y-75722134D01*
X155854476Y-75709346D01*
X155838570Y-75694930D01*
X155824154Y-75679024D01*
X155811366Y-75661781D01*
X155800330Y-75643368D01*
X155791151Y-75623962D01*
X155783919Y-75603750D01*
X155778703Y-75582926D01*
X155775553Y-75561691D01*
X155774500Y-75540250D01*
X155774500Y-75102750D01*
X155775553Y-75081309D01*
X155778703Y-75060074D01*
X155783919Y-75039250D01*
X155791151Y-75019038D01*
X155800330Y-74999632D01*
X155811366Y-74981219D01*
X155824154Y-74963976D01*
X155838570Y-74948070D01*
X155854476Y-74933654D01*
X155871719Y-74920866D01*
X155890132Y-74909830D01*
X155909538Y-74900651D01*
X155929750Y-74893419D01*
X155950574Y-74888203D01*
X155971809Y-74885053D01*
X155993250Y-74884000D01*
X156505750Y-74884000D01*
X156527191Y-74885053D01*
X156527191Y-74885053D01*
G37*
D11*
X156249500Y-75321500D03*
D10*
G36*
X156527191Y-76460053D02*
X156548426Y-76463203D01*
X156569250Y-76468419D01*
X156589462Y-76475651D01*
X156608868Y-76484830D01*
X156627281Y-76495866D01*
X156644524Y-76508654D01*
X156660430Y-76523070D01*
X156674846Y-76538976D01*
X156687634Y-76556219D01*
X156698670Y-76574632D01*
X156707849Y-76594038D01*
X156715081Y-76614250D01*
X156720297Y-76635074D01*
X156723447Y-76656309D01*
X156724500Y-76677750D01*
X156724500Y-77115250D01*
X156723447Y-77136691D01*
X156720297Y-77157926D01*
X156715081Y-77178750D01*
X156707849Y-77198962D01*
X156698670Y-77218368D01*
X156687634Y-77236781D01*
X156674846Y-77254024D01*
X156660430Y-77269930D01*
X156644524Y-77284346D01*
X156627281Y-77297134D01*
X156608868Y-77308170D01*
X156589462Y-77317349D01*
X156569250Y-77324581D01*
X156548426Y-77329797D01*
X156527191Y-77332947D01*
X156505750Y-77334000D01*
X155993250Y-77334000D01*
X155971809Y-77332947D01*
X155950574Y-77329797D01*
X155929750Y-77324581D01*
X155909538Y-77317349D01*
X155890132Y-77308170D01*
X155871719Y-77297134D01*
X155854476Y-77284346D01*
X155838570Y-77269930D01*
X155824154Y-77254024D01*
X155811366Y-77236781D01*
X155800330Y-77218368D01*
X155791151Y-77198962D01*
X155783919Y-77178750D01*
X155778703Y-77157926D01*
X155775553Y-77136691D01*
X155774500Y-77115250D01*
X155774500Y-76677750D01*
X155775553Y-76656309D01*
X155778703Y-76635074D01*
X155783919Y-76614250D01*
X155791151Y-76594038D01*
X155800330Y-76574632D01*
X155811366Y-76556219D01*
X155824154Y-76538976D01*
X155838570Y-76523070D01*
X155854476Y-76508654D01*
X155871719Y-76495866D01*
X155890132Y-76484830D01*
X155909538Y-76475651D01*
X155929750Y-76468419D01*
X155950574Y-76463203D01*
X155971809Y-76460053D01*
X155993250Y-76459000D01*
X156505750Y-76459000D01*
X156527191Y-76460053D01*
X156527191Y-76460053D01*
G37*
D11*
X156249500Y-76896500D03*
D10*
G36*
X158167191Y-76460053D02*
X158188426Y-76463203D01*
X158209250Y-76468419D01*
X158229462Y-76475651D01*
X158248868Y-76484830D01*
X158267281Y-76495866D01*
X158284524Y-76508654D01*
X158300430Y-76523070D01*
X158314846Y-76538976D01*
X158327634Y-76556219D01*
X158338670Y-76574632D01*
X158347849Y-76594038D01*
X158355081Y-76614250D01*
X158360297Y-76635074D01*
X158363447Y-76656309D01*
X158364500Y-76677750D01*
X158364500Y-77115250D01*
X158363447Y-77136691D01*
X158360297Y-77157926D01*
X158355081Y-77178750D01*
X158347849Y-77198962D01*
X158338670Y-77218368D01*
X158327634Y-77236781D01*
X158314846Y-77254024D01*
X158300430Y-77269930D01*
X158284524Y-77284346D01*
X158267281Y-77297134D01*
X158248868Y-77308170D01*
X158229462Y-77317349D01*
X158209250Y-77324581D01*
X158188426Y-77329797D01*
X158167191Y-77332947D01*
X158145750Y-77334000D01*
X157633250Y-77334000D01*
X157611809Y-77332947D01*
X157590574Y-77329797D01*
X157569750Y-77324581D01*
X157549538Y-77317349D01*
X157530132Y-77308170D01*
X157511719Y-77297134D01*
X157494476Y-77284346D01*
X157478570Y-77269930D01*
X157464154Y-77254024D01*
X157451366Y-77236781D01*
X157440330Y-77218368D01*
X157431151Y-77198962D01*
X157423919Y-77178750D01*
X157418703Y-77157926D01*
X157415553Y-77136691D01*
X157414500Y-77115250D01*
X157414500Y-76677750D01*
X157415553Y-76656309D01*
X157418703Y-76635074D01*
X157423919Y-76614250D01*
X157431151Y-76594038D01*
X157440330Y-76574632D01*
X157451366Y-76556219D01*
X157464154Y-76538976D01*
X157478570Y-76523070D01*
X157494476Y-76508654D01*
X157511719Y-76495866D01*
X157530132Y-76484830D01*
X157549538Y-76475651D01*
X157569750Y-76468419D01*
X157590574Y-76463203D01*
X157611809Y-76460053D01*
X157633250Y-76459000D01*
X158145750Y-76459000D01*
X158167191Y-76460053D01*
X158167191Y-76460053D01*
G37*
D11*
X157889500Y-76896500D03*
D10*
G36*
X158167191Y-74885053D02*
X158188426Y-74888203D01*
X158209250Y-74893419D01*
X158229462Y-74900651D01*
X158248868Y-74909830D01*
X158267281Y-74920866D01*
X158284524Y-74933654D01*
X158300430Y-74948070D01*
X158314846Y-74963976D01*
X158327634Y-74981219D01*
X158338670Y-74999632D01*
X158347849Y-75019038D01*
X158355081Y-75039250D01*
X158360297Y-75060074D01*
X158363447Y-75081309D01*
X158364500Y-75102750D01*
X158364500Y-75540250D01*
X158363447Y-75561691D01*
X158360297Y-75582926D01*
X158355081Y-75603750D01*
X158347849Y-75623962D01*
X158338670Y-75643368D01*
X158327634Y-75661781D01*
X158314846Y-75679024D01*
X158300430Y-75694930D01*
X158284524Y-75709346D01*
X158267281Y-75722134D01*
X158248868Y-75733170D01*
X158229462Y-75742349D01*
X158209250Y-75749581D01*
X158188426Y-75754797D01*
X158167191Y-75757947D01*
X158145750Y-75759000D01*
X157633250Y-75759000D01*
X157611809Y-75757947D01*
X157590574Y-75754797D01*
X157569750Y-75749581D01*
X157549538Y-75742349D01*
X157530132Y-75733170D01*
X157511719Y-75722134D01*
X157494476Y-75709346D01*
X157478570Y-75694930D01*
X157464154Y-75679024D01*
X157451366Y-75661781D01*
X157440330Y-75643368D01*
X157431151Y-75623962D01*
X157423919Y-75603750D01*
X157418703Y-75582926D01*
X157415553Y-75561691D01*
X157414500Y-75540250D01*
X157414500Y-75102750D01*
X157415553Y-75081309D01*
X157418703Y-75060074D01*
X157423919Y-75039250D01*
X157431151Y-75019038D01*
X157440330Y-74999632D01*
X157451366Y-74981219D01*
X157464154Y-74963976D01*
X157478570Y-74948070D01*
X157494476Y-74933654D01*
X157511719Y-74920866D01*
X157530132Y-74909830D01*
X157549538Y-74900651D01*
X157569750Y-74893419D01*
X157590574Y-74888203D01*
X157611809Y-74885053D01*
X157633250Y-74884000D01*
X158145750Y-74884000D01*
X158167191Y-74885053D01*
X158167191Y-74885053D01*
G37*
D11*
X157889500Y-75321500D03*
D10*
G36*
X149023191Y-74885053D02*
X149044426Y-74888203D01*
X149065250Y-74893419D01*
X149085462Y-74900651D01*
X149104868Y-74909830D01*
X149123281Y-74920866D01*
X149140524Y-74933654D01*
X149156430Y-74948070D01*
X149170846Y-74963976D01*
X149183634Y-74981219D01*
X149194670Y-74999632D01*
X149203849Y-75019038D01*
X149211081Y-75039250D01*
X149216297Y-75060074D01*
X149219447Y-75081309D01*
X149220500Y-75102750D01*
X149220500Y-75540250D01*
X149219447Y-75561691D01*
X149216297Y-75582926D01*
X149211081Y-75603750D01*
X149203849Y-75623962D01*
X149194670Y-75643368D01*
X149183634Y-75661781D01*
X149170846Y-75679024D01*
X149156430Y-75694930D01*
X149140524Y-75709346D01*
X149123281Y-75722134D01*
X149104868Y-75733170D01*
X149085462Y-75742349D01*
X149065250Y-75749581D01*
X149044426Y-75754797D01*
X149023191Y-75757947D01*
X149001750Y-75759000D01*
X148489250Y-75759000D01*
X148467809Y-75757947D01*
X148446574Y-75754797D01*
X148425750Y-75749581D01*
X148405538Y-75742349D01*
X148386132Y-75733170D01*
X148367719Y-75722134D01*
X148350476Y-75709346D01*
X148334570Y-75694930D01*
X148320154Y-75679024D01*
X148307366Y-75661781D01*
X148296330Y-75643368D01*
X148287151Y-75623962D01*
X148279919Y-75603750D01*
X148274703Y-75582926D01*
X148271553Y-75561691D01*
X148270500Y-75540250D01*
X148270500Y-75102750D01*
X148271553Y-75081309D01*
X148274703Y-75060074D01*
X148279919Y-75039250D01*
X148287151Y-75019038D01*
X148296330Y-74999632D01*
X148307366Y-74981219D01*
X148320154Y-74963976D01*
X148334570Y-74948070D01*
X148350476Y-74933654D01*
X148367719Y-74920866D01*
X148386132Y-74909830D01*
X148405538Y-74900651D01*
X148425750Y-74893419D01*
X148446574Y-74888203D01*
X148467809Y-74885053D01*
X148489250Y-74884000D01*
X149001750Y-74884000D01*
X149023191Y-74885053D01*
X149023191Y-74885053D01*
G37*
D11*
X148745500Y-75321500D03*
D10*
G36*
X149023191Y-76460053D02*
X149044426Y-76463203D01*
X149065250Y-76468419D01*
X149085462Y-76475651D01*
X149104868Y-76484830D01*
X149123281Y-76495866D01*
X149140524Y-76508654D01*
X149156430Y-76523070D01*
X149170846Y-76538976D01*
X149183634Y-76556219D01*
X149194670Y-76574632D01*
X149203849Y-76594038D01*
X149211081Y-76614250D01*
X149216297Y-76635074D01*
X149219447Y-76656309D01*
X149220500Y-76677750D01*
X149220500Y-77115250D01*
X149219447Y-77136691D01*
X149216297Y-77157926D01*
X149211081Y-77178750D01*
X149203849Y-77198962D01*
X149194670Y-77218368D01*
X149183634Y-77236781D01*
X149170846Y-77254024D01*
X149156430Y-77269930D01*
X149140524Y-77284346D01*
X149123281Y-77297134D01*
X149104868Y-77308170D01*
X149085462Y-77317349D01*
X149065250Y-77324581D01*
X149044426Y-77329797D01*
X149023191Y-77332947D01*
X149001750Y-77334000D01*
X148489250Y-77334000D01*
X148467809Y-77332947D01*
X148446574Y-77329797D01*
X148425750Y-77324581D01*
X148405538Y-77317349D01*
X148386132Y-77308170D01*
X148367719Y-77297134D01*
X148350476Y-77284346D01*
X148334570Y-77269930D01*
X148320154Y-77254024D01*
X148307366Y-77236781D01*
X148296330Y-77218368D01*
X148287151Y-77198962D01*
X148279919Y-77178750D01*
X148274703Y-77157926D01*
X148271553Y-77136691D01*
X148270500Y-77115250D01*
X148270500Y-76677750D01*
X148271553Y-76656309D01*
X148274703Y-76635074D01*
X148279919Y-76614250D01*
X148287151Y-76594038D01*
X148296330Y-76574632D01*
X148307366Y-76556219D01*
X148320154Y-76538976D01*
X148334570Y-76523070D01*
X148350476Y-76508654D01*
X148367719Y-76495866D01*
X148386132Y-76484830D01*
X148405538Y-76475651D01*
X148425750Y-76468419D01*
X148446574Y-76463203D01*
X148467809Y-76460053D01*
X148489250Y-76459000D01*
X149001750Y-76459000D01*
X149023191Y-76460053D01*
X149023191Y-76460053D01*
G37*
D11*
X148745500Y-76896500D03*
D10*
G36*
X183322191Y-67925053D02*
X183343426Y-67928203D01*
X183364250Y-67933419D01*
X183384462Y-67940651D01*
X183403868Y-67949830D01*
X183422281Y-67960866D01*
X183439524Y-67973654D01*
X183455430Y-67988070D01*
X183469846Y-68003976D01*
X183482634Y-68021219D01*
X183493670Y-68039632D01*
X183502849Y-68059038D01*
X183510081Y-68079250D01*
X183515297Y-68100074D01*
X183518447Y-68121309D01*
X183519500Y-68142750D01*
X183519500Y-68655250D01*
X183518447Y-68676691D01*
X183515297Y-68697926D01*
X183510081Y-68718750D01*
X183502849Y-68738962D01*
X183493670Y-68758368D01*
X183482634Y-68776781D01*
X183469846Y-68794024D01*
X183455430Y-68809930D01*
X183439524Y-68824346D01*
X183422281Y-68837134D01*
X183403868Y-68848170D01*
X183384462Y-68857349D01*
X183364250Y-68864581D01*
X183343426Y-68869797D01*
X183322191Y-68872947D01*
X183300750Y-68874000D01*
X182863250Y-68874000D01*
X182841809Y-68872947D01*
X182820574Y-68869797D01*
X182799750Y-68864581D01*
X182779538Y-68857349D01*
X182760132Y-68848170D01*
X182741719Y-68837134D01*
X182724476Y-68824346D01*
X182708570Y-68809930D01*
X182694154Y-68794024D01*
X182681366Y-68776781D01*
X182670330Y-68758368D01*
X182661151Y-68738962D01*
X182653919Y-68718750D01*
X182648703Y-68697926D01*
X182645553Y-68676691D01*
X182644500Y-68655250D01*
X182644500Y-68142750D01*
X182645553Y-68121309D01*
X182648703Y-68100074D01*
X182653919Y-68079250D01*
X182661151Y-68059038D01*
X182670330Y-68039632D01*
X182681366Y-68021219D01*
X182694154Y-68003976D01*
X182708570Y-67988070D01*
X182724476Y-67973654D01*
X182741719Y-67960866D01*
X182760132Y-67949830D01*
X182779538Y-67940651D01*
X182799750Y-67933419D01*
X182820574Y-67928203D01*
X182841809Y-67925053D01*
X182863250Y-67924000D01*
X183300750Y-67924000D01*
X183322191Y-67925053D01*
X183322191Y-67925053D01*
G37*
D11*
X183082000Y-68399000D03*
D10*
G36*
X184897191Y-67925053D02*
X184918426Y-67928203D01*
X184939250Y-67933419D01*
X184959462Y-67940651D01*
X184978868Y-67949830D01*
X184997281Y-67960866D01*
X185014524Y-67973654D01*
X185030430Y-67988070D01*
X185044846Y-68003976D01*
X185057634Y-68021219D01*
X185068670Y-68039632D01*
X185077849Y-68059038D01*
X185085081Y-68079250D01*
X185090297Y-68100074D01*
X185093447Y-68121309D01*
X185094500Y-68142750D01*
X185094500Y-68655250D01*
X185093447Y-68676691D01*
X185090297Y-68697926D01*
X185085081Y-68718750D01*
X185077849Y-68738962D01*
X185068670Y-68758368D01*
X185057634Y-68776781D01*
X185044846Y-68794024D01*
X185030430Y-68809930D01*
X185014524Y-68824346D01*
X184997281Y-68837134D01*
X184978868Y-68848170D01*
X184959462Y-68857349D01*
X184939250Y-68864581D01*
X184918426Y-68869797D01*
X184897191Y-68872947D01*
X184875750Y-68874000D01*
X184438250Y-68874000D01*
X184416809Y-68872947D01*
X184395574Y-68869797D01*
X184374750Y-68864581D01*
X184354538Y-68857349D01*
X184335132Y-68848170D01*
X184316719Y-68837134D01*
X184299476Y-68824346D01*
X184283570Y-68809930D01*
X184269154Y-68794024D01*
X184256366Y-68776781D01*
X184245330Y-68758368D01*
X184236151Y-68738962D01*
X184228919Y-68718750D01*
X184223703Y-68697926D01*
X184220553Y-68676691D01*
X184219500Y-68655250D01*
X184219500Y-68142750D01*
X184220553Y-68121309D01*
X184223703Y-68100074D01*
X184228919Y-68079250D01*
X184236151Y-68059038D01*
X184245330Y-68039632D01*
X184256366Y-68021219D01*
X184269154Y-68003976D01*
X184283570Y-67988070D01*
X184299476Y-67973654D01*
X184316719Y-67960866D01*
X184335132Y-67949830D01*
X184354538Y-67940651D01*
X184374750Y-67933419D01*
X184395574Y-67928203D01*
X184416809Y-67925053D01*
X184438250Y-67924000D01*
X184875750Y-67924000D01*
X184897191Y-67925053D01*
X184897191Y-67925053D01*
G37*
D11*
X184657000Y-68399000D03*
D10*
G36*
X163151691Y-51317053D02*
X163172926Y-51320203D01*
X163193750Y-51325419D01*
X163213962Y-51332651D01*
X163233368Y-51341830D01*
X163251781Y-51352866D01*
X163269024Y-51365654D01*
X163284930Y-51380070D01*
X163299346Y-51395976D01*
X163312134Y-51413219D01*
X163323170Y-51431632D01*
X163332349Y-51451038D01*
X163339581Y-51471250D01*
X163344797Y-51492074D01*
X163347947Y-51513309D01*
X163349000Y-51534750D01*
X163349000Y-51972250D01*
X163347947Y-51993691D01*
X163344797Y-52014926D01*
X163339581Y-52035750D01*
X163332349Y-52055962D01*
X163323170Y-52075368D01*
X163312134Y-52093781D01*
X163299346Y-52111024D01*
X163284930Y-52126930D01*
X163269024Y-52141346D01*
X163251781Y-52154134D01*
X163233368Y-52165170D01*
X163213962Y-52174349D01*
X163193750Y-52181581D01*
X163172926Y-52186797D01*
X163151691Y-52189947D01*
X163130250Y-52191000D01*
X162617750Y-52191000D01*
X162596309Y-52189947D01*
X162575074Y-52186797D01*
X162554250Y-52181581D01*
X162534038Y-52174349D01*
X162514632Y-52165170D01*
X162496219Y-52154134D01*
X162478976Y-52141346D01*
X162463070Y-52126930D01*
X162448654Y-52111024D01*
X162435866Y-52093781D01*
X162424830Y-52075368D01*
X162415651Y-52055962D01*
X162408419Y-52035750D01*
X162403203Y-52014926D01*
X162400053Y-51993691D01*
X162399000Y-51972250D01*
X162399000Y-51534750D01*
X162400053Y-51513309D01*
X162403203Y-51492074D01*
X162408419Y-51471250D01*
X162415651Y-51451038D01*
X162424830Y-51431632D01*
X162435866Y-51413219D01*
X162448654Y-51395976D01*
X162463070Y-51380070D01*
X162478976Y-51365654D01*
X162496219Y-51352866D01*
X162514632Y-51341830D01*
X162534038Y-51332651D01*
X162554250Y-51325419D01*
X162575074Y-51320203D01*
X162596309Y-51317053D01*
X162617750Y-51316000D01*
X163130250Y-51316000D01*
X163151691Y-51317053D01*
X163151691Y-51317053D01*
G37*
D11*
X162874000Y-51753500D03*
D10*
G36*
X163151691Y-52892053D02*
X163172926Y-52895203D01*
X163193750Y-52900419D01*
X163213962Y-52907651D01*
X163233368Y-52916830D01*
X163251781Y-52927866D01*
X163269024Y-52940654D01*
X163284930Y-52955070D01*
X163299346Y-52970976D01*
X163312134Y-52988219D01*
X163323170Y-53006632D01*
X163332349Y-53026038D01*
X163339581Y-53046250D01*
X163344797Y-53067074D01*
X163347947Y-53088309D01*
X163349000Y-53109750D01*
X163349000Y-53547250D01*
X163347947Y-53568691D01*
X163344797Y-53589926D01*
X163339581Y-53610750D01*
X163332349Y-53630962D01*
X163323170Y-53650368D01*
X163312134Y-53668781D01*
X163299346Y-53686024D01*
X163284930Y-53701930D01*
X163269024Y-53716346D01*
X163251781Y-53729134D01*
X163233368Y-53740170D01*
X163213962Y-53749349D01*
X163193750Y-53756581D01*
X163172926Y-53761797D01*
X163151691Y-53764947D01*
X163130250Y-53766000D01*
X162617750Y-53766000D01*
X162596309Y-53764947D01*
X162575074Y-53761797D01*
X162554250Y-53756581D01*
X162534038Y-53749349D01*
X162514632Y-53740170D01*
X162496219Y-53729134D01*
X162478976Y-53716346D01*
X162463070Y-53701930D01*
X162448654Y-53686024D01*
X162435866Y-53668781D01*
X162424830Y-53650368D01*
X162415651Y-53630962D01*
X162408419Y-53610750D01*
X162403203Y-53589926D01*
X162400053Y-53568691D01*
X162399000Y-53547250D01*
X162399000Y-53109750D01*
X162400053Y-53088309D01*
X162403203Y-53067074D01*
X162408419Y-53046250D01*
X162415651Y-53026038D01*
X162424830Y-53006632D01*
X162435866Y-52988219D01*
X162448654Y-52970976D01*
X162463070Y-52955070D01*
X162478976Y-52940654D01*
X162496219Y-52927866D01*
X162514632Y-52916830D01*
X162534038Y-52907651D01*
X162554250Y-52900419D01*
X162575074Y-52895203D01*
X162596309Y-52892053D01*
X162617750Y-52891000D01*
X163130250Y-52891000D01*
X163151691Y-52892053D01*
X163151691Y-52892053D01*
G37*
D11*
X162874000Y-53328500D03*
D10*
G36*
X165642191Y-52482553D02*
X165663426Y-52485703D01*
X165684250Y-52490919D01*
X165704462Y-52498151D01*
X165723868Y-52507330D01*
X165742281Y-52518366D01*
X165759524Y-52531154D01*
X165775430Y-52545570D01*
X165789846Y-52561476D01*
X165802634Y-52578719D01*
X165813670Y-52597132D01*
X165822849Y-52616538D01*
X165830081Y-52636750D01*
X165835297Y-52657574D01*
X165838447Y-52678809D01*
X165839500Y-52700250D01*
X165839500Y-53137750D01*
X165838447Y-53159191D01*
X165835297Y-53180426D01*
X165830081Y-53201250D01*
X165822849Y-53221462D01*
X165813670Y-53240868D01*
X165802634Y-53259281D01*
X165789846Y-53276524D01*
X165775430Y-53292430D01*
X165759524Y-53306846D01*
X165742281Y-53319634D01*
X165723868Y-53330670D01*
X165704462Y-53339849D01*
X165684250Y-53347081D01*
X165663426Y-53352297D01*
X165642191Y-53355447D01*
X165620750Y-53356500D01*
X165108250Y-53356500D01*
X165086809Y-53355447D01*
X165065574Y-53352297D01*
X165044750Y-53347081D01*
X165024538Y-53339849D01*
X165005132Y-53330670D01*
X164986719Y-53319634D01*
X164969476Y-53306846D01*
X164953570Y-53292430D01*
X164939154Y-53276524D01*
X164926366Y-53259281D01*
X164915330Y-53240868D01*
X164906151Y-53221462D01*
X164898919Y-53201250D01*
X164893703Y-53180426D01*
X164890553Y-53159191D01*
X164889500Y-53137750D01*
X164889500Y-52700250D01*
X164890553Y-52678809D01*
X164893703Y-52657574D01*
X164898919Y-52636750D01*
X164906151Y-52616538D01*
X164915330Y-52597132D01*
X164926366Y-52578719D01*
X164939154Y-52561476D01*
X164953570Y-52545570D01*
X164969476Y-52531154D01*
X164986719Y-52518366D01*
X165005132Y-52507330D01*
X165024538Y-52498151D01*
X165044750Y-52490919D01*
X165065574Y-52485703D01*
X165086809Y-52482553D01*
X165108250Y-52481500D01*
X165620750Y-52481500D01*
X165642191Y-52482553D01*
X165642191Y-52482553D01*
G37*
D11*
X165364500Y-52919000D03*
D10*
G36*
X165642191Y-54057553D02*
X165663426Y-54060703D01*
X165684250Y-54065919D01*
X165704462Y-54073151D01*
X165723868Y-54082330D01*
X165742281Y-54093366D01*
X165759524Y-54106154D01*
X165775430Y-54120570D01*
X165789846Y-54136476D01*
X165802634Y-54153719D01*
X165813670Y-54172132D01*
X165822849Y-54191538D01*
X165830081Y-54211750D01*
X165835297Y-54232574D01*
X165838447Y-54253809D01*
X165839500Y-54275250D01*
X165839500Y-54712750D01*
X165838447Y-54734191D01*
X165835297Y-54755426D01*
X165830081Y-54776250D01*
X165822849Y-54796462D01*
X165813670Y-54815868D01*
X165802634Y-54834281D01*
X165789846Y-54851524D01*
X165775430Y-54867430D01*
X165759524Y-54881846D01*
X165742281Y-54894634D01*
X165723868Y-54905670D01*
X165704462Y-54914849D01*
X165684250Y-54922081D01*
X165663426Y-54927297D01*
X165642191Y-54930447D01*
X165620750Y-54931500D01*
X165108250Y-54931500D01*
X165086809Y-54930447D01*
X165065574Y-54927297D01*
X165044750Y-54922081D01*
X165024538Y-54914849D01*
X165005132Y-54905670D01*
X164986719Y-54894634D01*
X164969476Y-54881846D01*
X164953570Y-54867430D01*
X164939154Y-54851524D01*
X164926366Y-54834281D01*
X164915330Y-54815868D01*
X164906151Y-54796462D01*
X164898919Y-54776250D01*
X164893703Y-54755426D01*
X164890553Y-54734191D01*
X164889500Y-54712750D01*
X164889500Y-54275250D01*
X164890553Y-54253809D01*
X164893703Y-54232574D01*
X164898919Y-54211750D01*
X164906151Y-54191538D01*
X164915330Y-54172132D01*
X164926366Y-54153719D01*
X164939154Y-54136476D01*
X164953570Y-54120570D01*
X164969476Y-54106154D01*
X164986719Y-54093366D01*
X165005132Y-54082330D01*
X165024538Y-54073151D01*
X165044750Y-54065919D01*
X165065574Y-54060703D01*
X165086809Y-54057553D01*
X165108250Y-54056500D01*
X165620750Y-54056500D01*
X165642191Y-54057553D01*
X165642191Y-54057553D01*
G37*
D11*
X165364500Y-54494000D03*
D10*
G36*
X186997691Y-58796053D02*
X187018926Y-58799203D01*
X187039750Y-58804419D01*
X187059962Y-58811651D01*
X187079368Y-58820830D01*
X187097781Y-58831866D01*
X187115024Y-58844654D01*
X187130930Y-58859070D01*
X187145346Y-58874976D01*
X187158134Y-58892219D01*
X187169170Y-58910632D01*
X187178349Y-58930038D01*
X187185581Y-58950250D01*
X187190797Y-58971074D01*
X187193947Y-58992309D01*
X187195000Y-59013750D01*
X187195000Y-59451250D01*
X187193947Y-59472691D01*
X187190797Y-59493926D01*
X187185581Y-59514750D01*
X187178349Y-59534962D01*
X187169170Y-59554368D01*
X187158134Y-59572781D01*
X187145346Y-59590024D01*
X187130930Y-59605930D01*
X187115024Y-59620346D01*
X187097781Y-59633134D01*
X187079368Y-59644170D01*
X187059962Y-59653349D01*
X187039750Y-59660581D01*
X187018926Y-59665797D01*
X186997691Y-59668947D01*
X186976250Y-59670000D01*
X186463750Y-59670000D01*
X186442309Y-59668947D01*
X186421074Y-59665797D01*
X186400250Y-59660581D01*
X186380038Y-59653349D01*
X186360632Y-59644170D01*
X186342219Y-59633134D01*
X186324976Y-59620346D01*
X186309070Y-59605930D01*
X186294654Y-59590024D01*
X186281866Y-59572781D01*
X186270830Y-59554368D01*
X186261651Y-59534962D01*
X186254419Y-59514750D01*
X186249203Y-59493926D01*
X186246053Y-59472691D01*
X186245000Y-59451250D01*
X186245000Y-59013750D01*
X186246053Y-58992309D01*
X186249203Y-58971074D01*
X186254419Y-58950250D01*
X186261651Y-58930038D01*
X186270830Y-58910632D01*
X186281866Y-58892219D01*
X186294654Y-58874976D01*
X186309070Y-58859070D01*
X186324976Y-58844654D01*
X186342219Y-58831866D01*
X186360632Y-58820830D01*
X186380038Y-58811651D01*
X186400250Y-58804419D01*
X186421074Y-58799203D01*
X186442309Y-58796053D01*
X186463750Y-58795000D01*
X186976250Y-58795000D01*
X186997691Y-58796053D01*
X186997691Y-58796053D01*
G37*
D11*
X186720000Y-59232500D03*
D10*
G36*
X186997691Y-60371053D02*
X187018926Y-60374203D01*
X187039750Y-60379419D01*
X187059962Y-60386651D01*
X187079368Y-60395830D01*
X187097781Y-60406866D01*
X187115024Y-60419654D01*
X187130930Y-60434070D01*
X187145346Y-60449976D01*
X187158134Y-60467219D01*
X187169170Y-60485632D01*
X187178349Y-60505038D01*
X187185581Y-60525250D01*
X187190797Y-60546074D01*
X187193947Y-60567309D01*
X187195000Y-60588750D01*
X187195000Y-61026250D01*
X187193947Y-61047691D01*
X187190797Y-61068926D01*
X187185581Y-61089750D01*
X187178349Y-61109962D01*
X187169170Y-61129368D01*
X187158134Y-61147781D01*
X187145346Y-61165024D01*
X187130930Y-61180930D01*
X187115024Y-61195346D01*
X187097781Y-61208134D01*
X187079368Y-61219170D01*
X187059962Y-61228349D01*
X187039750Y-61235581D01*
X187018926Y-61240797D01*
X186997691Y-61243947D01*
X186976250Y-61245000D01*
X186463750Y-61245000D01*
X186442309Y-61243947D01*
X186421074Y-61240797D01*
X186400250Y-61235581D01*
X186380038Y-61228349D01*
X186360632Y-61219170D01*
X186342219Y-61208134D01*
X186324976Y-61195346D01*
X186309070Y-61180930D01*
X186294654Y-61165024D01*
X186281866Y-61147781D01*
X186270830Y-61129368D01*
X186261651Y-61109962D01*
X186254419Y-61089750D01*
X186249203Y-61068926D01*
X186246053Y-61047691D01*
X186245000Y-61026250D01*
X186245000Y-60588750D01*
X186246053Y-60567309D01*
X186249203Y-60546074D01*
X186254419Y-60525250D01*
X186261651Y-60505038D01*
X186270830Y-60485632D01*
X186281866Y-60467219D01*
X186294654Y-60449976D01*
X186309070Y-60434070D01*
X186324976Y-60419654D01*
X186342219Y-60406866D01*
X186360632Y-60395830D01*
X186380038Y-60386651D01*
X186400250Y-60379419D01*
X186421074Y-60374203D01*
X186442309Y-60371053D01*
X186463750Y-60370000D01*
X186976250Y-60370000D01*
X186997691Y-60371053D01*
X186997691Y-60371053D01*
G37*
D11*
X186720000Y-60807500D03*
D10*
G36*
X186997691Y-55296053D02*
X187018926Y-55299203D01*
X187039750Y-55304419D01*
X187059962Y-55311651D01*
X187079368Y-55320830D01*
X187097781Y-55331866D01*
X187115024Y-55344654D01*
X187130930Y-55359070D01*
X187145346Y-55374976D01*
X187158134Y-55392219D01*
X187169170Y-55410632D01*
X187178349Y-55430038D01*
X187185581Y-55450250D01*
X187190797Y-55471074D01*
X187193947Y-55492309D01*
X187195000Y-55513750D01*
X187195000Y-55951250D01*
X187193947Y-55972691D01*
X187190797Y-55993926D01*
X187185581Y-56014750D01*
X187178349Y-56034962D01*
X187169170Y-56054368D01*
X187158134Y-56072781D01*
X187145346Y-56090024D01*
X187130930Y-56105930D01*
X187115024Y-56120346D01*
X187097781Y-56133134D01*
X187079368Y-56144170D01*
X187059962Y-56153349D01*
X187039750Y-56160581D01*
X187018926Y-56165797D01*
X186997691Y-56168947D01*
X186976250Y-56170000D01*
X186463750Y-56170000D01*
X186442309Y-56168947D01*
X186421074Y-56165797D01*
X186400250Y-56160581D01*
X186380038Y-56153349D01*
X186360632Y-56144170D01*
X186342219Y-56133134D01*
X186324976Y-56120346D01*
X186309070Y-56105930D01*
X186294654Y-56090024D01*
X186281866Y-56072781D01*
X186270830Y-56054368D01*
X186261651Y-56034962D01*
X186254419Y-56014750D01*
X186249203Y-55993926D01*
X186246053Y-55972691D01*
X186245000Y-55951250D01*
X186245000Y-55513750D01*
X186246053Y-55492309D01*
X186249203Y-55471074D01*
X186254419Y-55450250D01*
X186261651Y-55430038D01*
X186270830Y-55410632D01*
X186281866Y-55392219D01*
X186294654Y-55374976D01*
X186309070Y-55359070D01*
X186324976Y-55344654D01*
X186342219Y-55331866D01*
X186360632Y-55320830D01*
X186380038Y-55311651D01*
X186400250Y-55304419D01*
X186421074Y-55299203D01*
X186442309Y-55296053D01*
X186463750Y-55295000D01*
X186976250Y-55295000D01*
X186997691Y-55296053D01*
X186997691Y-55296053D01*
G37*
D11*
X186720000Y-55732500D03*
D10*
G36*
X186997691Y-56871053D02*
X187018926Y-56874203D01*
X187039750Y-56879419D01*
X187059962Y-56886651D01*
X187079368Y-56895830D01*
X187097781Y-56906866D01*
X187115024Y-56919654D01*
X187130930Y-56934070D01*
X187145346Y-56949976D01*
X187158134Y-56967219D01*
X187169170Y-56985632D01*
X187178349Y-57005038D01*
X187185581Y-57025250D01*
X187190797Y-57046074D01*
X187193947Y-57067309D01*
X187195000Y-57088750D01*
X187195000Y-57526250D01*
X187193947Y-57547691D01*
X187190797Y-57568926D01*
X187185581Y-57589750D01*
X187178349Y-57609962D01*
X187169170Y-57629368D01*
X187158134Y-57647781D01*
X187145346Y-57665024D01*
X187130930Y-57680930D01*
X187115024Y-57695346D01*
X187097781Y-57708134D01*
X187079368Y-57719170D01*
X187059962Y-57728349D01*
X187039750Y-57735581D01*
X187018926Y-57740797D01*
X186997691Y-57743947D01*
X186976250Y-57745000D01*
X186463750Y-57745000D01*
X186442309Y-57743947D01*
X186421074Y-57740797D01*
X186400250Y-57735581D01*
X186380038Y-57728349D01*
X186360632Y-57719170D01*
X186342219Y-57708134D01*
X186324976Y-57695346D01*
X186309070Y-57680930D01*
X186294654Y-57665024D01*
X186281866Y-57647781D01*
X186270830Y-57629368D01*
X186261651Y-57609962D01*
X186254419Y-57589750D01*
X186249203Y-57568926D01*
X186246053Y-57547691D01*
X186245000Y-57526250D01*
X186245000Y-57088750D01*
X186246053Y-57067309D01*
X186249203Y-57046074D01*
X186254419Y-57025250D01*
X186261651Y-57005038D01*
X186270830Y-56985632D01*
X186281866Y-56967219D01*
X186294654Y-56949976D01*
X186309070Y-56934070D01*
X186324976Y-56919654D01*
X186342219Y-56906866D01*
X186360632Y-56895830D01*
X186380038Y-56886651D01*
X186400250Y-56879419D01*
X186421074Y-56874203D01*
X186442309Y-56871053D01*
X186463750Y-56870000D01*
X186976250Y-56870000D01*
X186997691Y-56871053D01*
X186997691Y-56871053D01*
G37*
D11*
X186720000Y-57307500D03*
D15*
X154506000Y-63769500D03*
D16*
X148206000Y-63769500D03*
X148206000Y-66069500D03*
X148206000Y-61469500D03*
D10*
G36*
X186677192Y-81335053D02*
X186698427Y-81338203D01*
X186719251Y-81343419D01*
X186739463Y-81350651D01*
X186758869Y-81359830D01*
X186777282Y-81370866D01*
X186794525Y-81383654D01*
X186810431Y-81398070D01*
X186824847Y-81413976D01*
X186837635Y-81431219D01*
X186848671Y-81449632D01*
X186857850Y-81469038D01*
X186865082Y-81489250D01*
X186870298Y-81510074D01*
X186873448Y-81531309D01*
X186874501Y-81552750D01*
X186874501Y-82065250D01*
X186873448Y-82086691D01*
X186870298Y-82107926D01*
X186865082Y-82128750D01*
X186857850Y-82148962D01*
X186848671Y-82168368D01*
X186837635Y-82186781D01*
X186824847Y-82204024D01*
X186810431Y-82219930D01*
X186794525Y-82234346D01*
X186777282Y-82247134D01*
X186758869Y-82258170D01*
X186739463Y-82267349D01*
X186719251Y-82274581D01*
X186698427Y-82279797D01*
X186677192Y-82282947D01*
X186655751Y-82284000D01*
X186218251Y-82284000D01*
X186196810Y-82282947D01*
X186175575Y-82279797D01*
X186154751Y-82274581D01*
X186134539Y-82267349D01*
X186115133Y-82258170D01*
X186096720Y-82247134D01*
X186079477Y-82234346D01*
X186063571Y-82219930D01*
X186049155Y-82204024D01*
X186036367Y-82186781D01*
X186025331Y-82168368D01*
X186016152Y-82148962D01*
X186008920Y-82128750D01*
X186003704Y-82107926D01*
X186000554Y-82086691D01*
X185999501Y-82065250D01*
X185999501Y-81552750D01*
X186000554Y-81531309D01*
X186003704Y-81510074D01*
X186008920Y-81489250D01*
X186016152Y-81469038D01*
X186025331Y-81449632D01*
X186036367Y-81431219D01*
X186049155Y-81413976D01*
X186063571Y-81398070D01*
X186079477Y-81383654D01*
X186096720Y-81370866D01*
X186115133Y-81359830D01*
X186134539Y-81350651D01*
X186154751Y-81343419D01*
X186175575Y-81338203D01*
X186196810Y-81335053D01*
X186218251Y-81334000D01*
X186655751Y-81334000D01*
X186677192Y-81335053D01*
X186677192Y-81335053D01*
G37*
D11*
X186437001Y-81809000D03*
D10*
G36*
X185102190Y-81335053D02*
X185123425Y-81338203D01*
X185144249Y-81343419D01*
X185164461Y-81350651D01*
X185183867Y-81359830D01*
X185202280Y-81370866D01*
X185219523Y-81383654D01*
X185235429Y-81398070D01*
X185249845Y-81413976D01*
X185262633Y-81431219D01*
X185273669Y-81449632D01*
X185282848Y-81469038D01*
X185290080Y-81489250D01*
X185295296Y-81510074D01*
X185298446Y-81531309D01*
X185299499Y-81552750D01*
X185299499Y-82065250D01*
X185298446Y-82086691D01*
X185295296Y-82107926D01*
X185290080Y-82128750D01*
X185282848Y-82148962D01*
X185273669Y-82168368D01*
X185262633Y-82186781D01*
X185249845Y-82204024D01*
X185235429Y-82219930D01*
X185219523Y-82234346D01*
X185202280Y-82247134D01*
X185183867Y-82258170D01*
X185164461Y-82267349D01*
X185144249Y-82274581D01*
X185123425Y-82279797D01*
X185102190Y-82282947D01*
X185080749Y-82284000D01*
X184643249Y-82284000D01*
X184621808Y-82282947D01*
X184600573Y-82279797D01*
X184579749Y-82274581D01*
X184559537Y-82267349D01*
X184540131Y-82258170D01*
X184521718Y-82247134D01*
X184504475Y-82234346D01*
X184488569Y-82219930D01*
X184474153Y-82204024D01*
X184461365Y-82186781D01*
X184450329Y-82168368D01*
X184441150Y-82148962D01*
X184433918Y-82128750D01*
X184428702Y-82107926D01*
X184425552Y-82086691D01*
X184424499Y-82065250D01*
X184424499Y-81552750D01*
X184425552Y-81531309D01*
X184428702Y-81510074D01*
X184433918Y-81489250D01*
X184441150Y-81469038D01*
X184450329Y-81449632D01*
X184461365Y-81431219D01*
X184474153Y-81413976D01*
X184488569Y-81398070D01*
X184504475Y-81383654D01*
X184521718Y-81370866D01*
X184540131Y-81359830D01*
X184559537Y-81350651D01*
X184579749Y-81343419D01*
X184600573Y-81338203D01*
X184621808Y-81335053D01*
X184643249Y-81334000D01*
X185080749Y-81334000D01*
X185102190Y-81335053D01*
X185102190Y-81335053D01*
G37*
D11*
X184861999Y-81809000D03*
D17*
X194049500Y-53949000D03*
X194049500Y-48869000D03*
X197949500Y-48869000D03*
X197949500Y-53949000D03*
D18*
X180500000Y-67900000D03*
X180500000Y-69900000D03*
X180500000Y-71900000D03*
X180500000Y-73900000D03*
X180500000Y-75900000D03*
X180500000Y-77900000D03*
X180500000Y-79900000D03*
X180500000Y-81900000D03*
X162300000Y-81900000D03*
X162300000Y-79900000D03*
X162300000Y-77900000D03*
X162300000Y-75900000D03*
X162300000Y-73900000D03*
X162300000Y-71900000D03*
X162300000Y-69900000D03*
X162300000Y-67900000D03*
X168220000Y-48540000D03*
X168220000Y-50540000D03*
X168220000Y-52540000D03*
X168220000Y-54540000D03*
X168220000Y-56540000D03*
X168220000Y-58540000D03*
X168220000Y-60540000D03*
X168220000Y-62540000D03*
D19*
X170820000Y-64040000D03*
X172820000Y-64040000D03*
X174820000Y-64040000D03*
X176820000Y-64040000D03*
X178820000Y-64040000D03*
X180820000Y-64040000D03*
D18*
X183420000Y-62540000D03*
X183420000Y-60540000D03*
X183420000Y-58540000D03*
X183420000Y-56540000D03*
X183420000Y-54540000D03*
X183420000Y-52540000D03*
X183420000Y-50540000D03*
X183420000Y-48540000D03*
D20*
X141549500Y-78459000D03*
X141549500Y-82759000D03*
D21*
X108849500Y-73359000D03*
X108849500Y-71459000D03*
X106849500Y-72409000D03*
D22*
X137449500Y-82789000D03*
X137449500Y-78229000D03*
D23*
X129474500Y-78984000D03*
X132824500Y-82034000D03*
X129474500Y-82034000D03*
X132824500Y-78984000D03*
D10*
G36*
X109077191Y-76235053D02*
X109098426Y-76238203D01*
X109119250Y-76243419D01*
X109139462Y-76250651D01*
X109158868Y-76259830D01*
X109177281Y-76270866D01*
X109194524Y-76283654D01*
X109210430Y-76298070D01*
X109224846Y-76313976D01*
X109237634Y-76331219D01*
X109248670Y-76349632D01*
X109257849Y-76369038D01*
X109265081Y-76389250D01*
X109270297Y-76410074D01*
X109273447Y-76431309D01*
X109274500Y-76452750D01*
X109274500Y-76965250D01*
X109273447Y-76986691D01*
X109270297Y-77007926D01*
X109265081Y-77028750D01*
X109257849Y-77048962D01*
X109248670Y-77068368D01*
X109237634Y-77086781D01*
X109224846Y-77104024D01*
X109210430Y-77119930D01*
X109194524Y-77134346D01*
X109177281Y-77147134D01*
X109158868Y-77158170D01*
X109139462Y-77167349D01*
X109119250Y-77174581D01*
X109098426Y-77179797D01*
X109077191Y-77182947D01*
X109055750Y-77184000D01*
X108618250Y-77184000D01*
X108596809Y-77182947D01*
X108575574Y-77179797D01*
X108554750Y-77174581D01*
X108534538Y-77167349D01*
X108515132Y-77158170D01*
X108496719Y-77147134D01*
X108479476Y-77134346D01*
X108463570Y-77119930D01*
X108449154Y-77104024D01*
X108436366Y-77086781D01*
X108425330Y-77068368D01*
X108416151Y-77048962D01*
X108408919Y-77028750D01*
X108403703Y-77007926D01*
X108400553Y-76986691D01*
X108399500Y-76965250D01*
X108399500Y-76452750D01*
X108400553Y-76431309D01*
X108403703Y-76410074D01*
X108408919Y-76389250D01*
X108416151Y-76369038D01*
X108425330Y-76349632D01*
X108436366Y-76331219D01*
X108449154Y-76313976D01*
X108463570Y-76298070D01*
X108479476Y-76283654D01*
X108496719Y-76270866D01*
X108515132Y-76259830D01*
X108534538Y-76250651D01*
X108554750Y-76243419D01*
X108575574Y-76238203D01*
X108596809Y-76235053D01*
X108618250Y-76234000D01*
X109055750Y-76234000D01*
X109077191Y-76235053D01*
X109077191Y-76235053D01*
G37*
D11*
X108837000Y-76709000D03*
D10*
G36*
X107502191Y-76235053D02*
X107523426Y-76238203D01*
X107544250Y-76243419D01*
X107564462Y-76250651D01*
X107583868Y-76259830D01*
X107602281Y-76270866D01*
X107619524Y-76283654D01*
X107635430Y-76298070D01*
X107649846Y-76313976D01*
X107662634Y-76331219D01*
X107673670Y-76349632D01*
X107682849Y-76369038D01*
X107690081Y-76389250D01*
X107695297Y-76410074D01*
X107698447Y-76431309D01*
X107699500Y-76452750D01*
X107699500Y-76965250D01*
X107698447Y-76986691D01*
X107695297Y-77007926D01*
X107690081Y-77028750D01*
X107682849Y-77048962D01*
X107673670Y-77068368D01*
X107662634Y-77086781D01*
X107649846Y-77104024D01*
X107635430Y-77119930D01*
X107619524Y-77134346D01*
X107602281Y-77147134D01*
X107583868Y-77158170D01*
X107564462Y-77167349D01*
X107544250Y-77174581D01*
X107523426Y-77179797D01*
X107502191Y-77182947D01*
X107480750Y-77184000D01*
X107043250Y-77184000D01*
X107021809Y-77182947D01*
X107000574Y-77179797D01*
X106979750Y-77174581D01*
X106959538Y-77167349D01*
X106940132Y-77158170D01*
X106921719Y-77147134D01*
X106904476Y-77134346D01*
X106888570Y-77119930D01*
X106874154Y-77104024D01*
X106861366Y-77086781D01*
X106850330Y-77068368D01*
X106841151Y-77048962D01*
X106833919Y-77028750D01*
X106828703Y-77007926D01*
X106825553Y-76986691D01*
X106824500Y-76965250D01*
X106824500Y-76452750D01*
X106825553Y-76431309D01*
X106828703Y-76410074D01*
X106833919Y-76389250D01*
X106841151Y-76369038D01*
X106850330Y-76349632D01*
X106861366Y-76331219D01*
X106874154Y-76313976D01*
X106888570Y-76298070D01*
X106904476Y-76283654D01*
X106921719Y-76270866D01*
X106940132Y-76259830D01*
X106959538Y-76250651D01*
X106979750Y-76243419D01*
X107000574Y-76238203D01*
X107021809Y-76235053D01*
X107043250Y-76234000D01*
X107480750Y-76234000D01*
X107502191Y-76235053D01*
X107502191Y-76235053D01*
G37*
D11*
X107262000Y-76709000D03*
D10*
G36*
X109064691Y-74535053D02*
X109085926Y-74538203D01*
X109106750Y-74543419D01*
X109126962Y-74550651D01*
X109146368Y-74559830D01*
X109164781Y-74570866D01*
X109182024Y-74583654D01*
X109197930Y-74598070D01*
X109212346Y-74613976D01*
X109225134Y-74631219D01*
X109236170Y-74649632D01*
X109245349Y-74669038D01*
X109252581Y-74689250D01*
X109257797Y-74710074D01*
X109260947Y-74731309D01*
X109262000Y-74752750D01*
X109262000Y-75265250D01*
X109260947Y-75286691D01*
X109257797Y-75307926D01*
X109252581Y-75328750D01*
X109245349Y-75348962D01*
X109236170Y-75368368D01*
X109225134Y-75386781D01*
X109212346Y-75404024D01*
X109197930Y-75419930D01*
X109182024Y-75434346D01*
X109164781Y-75447134D01*
X109146368Y-75458170D01*
X109126962Y-75467349D01*
X109106750Y-75474581D01*
X109085926Y-75479797D01*
X109064691Y-75482947D01*
X109043250Y-75484000D01*
X108605750Y-75484000D01*
X108584309Y-75482947D01*
X108563074Y-75479797D01*
X108542250Y-75474581D01*
X108522038Y-75467349D01*
X108502632Y-75458170D01*
X108484219Y-75447134D01*
X108466976Y-75434346D01*
X108451070Y-75419930D01*
X108436654Y-75404024D01*
X108423866Y-75386781D01*
X108412830Y-75368368D01*
X108403651Y-75348962D01*
X108396419Y-75328750D01*
X108391203Y-75307926D01*
X108388053Y-75286691D01*
X108387000Y-75265250D01*
X108387000Y-74752750D01*
X108388053Y-74731309D01*
X108391203Y-74710074D01*
X108396419Y-74689250D01*
X108403651Y-74669038D01*
X108412830Y-74649632D01*
X108423866Y-74631219D01*
X108436654Y-74613976D01*
X108451070Y-74598070D01*
X108466976Y-74583654D01*
X108484219Y-74570866D01*
X108502632Y-74559830D01*
X108522038Y-74550651D01*
X108542250Y-74543419D01*
X108563074Y-74538203D01*
X108584309Y-74535053D01*
X108605750Y-74534000D01*
X109043250Y-74534000D01*
X109064691Y-74535053D01*
X109064691Y-74535053D01*
G37*
D11*
X108824500Y-75009000D03*
D10*
G36*
X107489691Y-74535053D02*
X107510926Y-74538203D01*
X107531750Y-74543419D01*
X107551962Y-74550651D01*
X107571368Y-74559830D01*
X107589781Y-74570866D01*
X107607024Y-74583654D01*
X107622930Y-74598070D01*
X107637346Y-74613976D01*
X107650134Y-74631219D01*
X107661170Y-74649632D01*
X107670349Y-74669038D01*
X107677581Y-74689250D01*
X107682797Y-74710074D01*
X107685947Y-74731309D01*
X107687000Y-74752750D01*
X107687000Y-75265250D01*
X107685947Y-75286691D01*
X107682797Y-75307926D01*
X107677581Y-75328750D01*
X107670349Y-75348962D01*
X107661170Y-75368368D01*
X107650134Y-75386781D01*
X107637346Y-75404024D01*
X107622930Y-75419930D01*
X107607024Y-75434346D01*
X107589781Y-75447134D01*
X107571368Y-75458170D01*
X107551962Y-75467349D01*
X107531750Y-75474581D01*
X107510926Y-75479797D01*
X107489691Y-75482947D01*
X107468250Y-75484000D01*
X107030750Y-75484000D01*
X107009309Y-75482947D01*
X106988074Y-75479797D01*
X106967250Y-75474581D01*
X106947038Y-75467349D01*
X106927632Y-75458170D01*
X106909219Y-75447134D01*
X106891976Y-75434346D01*
X106876070Y-75419930D01*
X106861654Y-75404024D01*
X106848866Y-75386781D01*
X106837830Y-75368368D01*
X106828651Y-75348962D01*
X106821419Y-75328750D01*
X106816203Y-75307926D01*
X106813053Y-75286691D01*
X106812000Y-75265250D01*
X106812000Y-74752750D01*
X106813053Y-74731309D01*
X106816203Y-74710074D01*
X106821419Y-74689250D01*
X106828651Y-74669038D01*
X106837830Y-74649632D01*
X106848866Y-74631219D01*
X106861654Y-74613976D01*
X106876070Y-74598070D01*
X106891976Y-74583654D01*
X106909219Y-74570866D01*
X106927632Y-74559830D01*
X106947038Y-74550651D01*
X106967250Y-74543419D01*
X106988074Y-74538203D01*
X107009309Y-74535053D01*
X107030750Y-74534000D01*
X107468250Y-74534000D01*
X107489691Y-74535053D01*
X107489691Y-74535053D01*
G37*
D11*
X107249500Y-75009000D03*
D10*
G36*
X112337191Y-70795053D02*
X112358426Y-70798203D01*
X112379250Y-70803419D01*
X112399462Y-70810651D01*
X112418868Y-70819830D01*
X112437281Y-70830866D01*
X112454524Y-70843654D01*
X112470430Y-70858070D01*
X112484846Y-70873976D01*
X112497634Y-70891219D01*
X112508670Y-70909632D01*
X112517849Y-70929038D01*
X112525081Y-70949250D01*
X112530297Y-70970074D01*
X112533447Y-70991309D01*
X112534500Y-71012750D01*
X112534500Y-71525250D01*
X112533447Y-71546691D01*
X112530297Y-71567926D01*
X112525081Y-71588750D01*
X112517849Y-71608962D01*
X112508670Y-71628368D01*
X112497634Y-71646781D01*
X112484846Y-71664024D01*
X112470430Y-71679930D01*
X112454524Y-71694346D01*
X112437281Y-71707134D01*
X112418868Y-71718170D01*
X112399462Y-71727349D01*
X112379250Y-71734581D01*
X112358426Y-71739797D01*
X112337191Y-71742947D01*
X112315750Y-71744000D01*
X111878250Y-71744000D01*
X111856809Y-71742947D01*
X111835574Y-71739797D01*
X111814750Y-71734581D01*
X111794538Y-71727349D01*
X111775132Y-71718170D01*
X111756719Y-71707134D01*
X111739476Y-71694346D01*
X111723570Y-71679930D01*
X111709154Y-71664024D01*
X111696366Y-71646781D01*
X111685330Y-71628368D01*
X111676151Y-71608962D01*
X111668919Y-71588750D01*
X111663703Y-71567926D01*
X111660553Y-71546691D01*
X111659500Y-71525250D01*
X111659500Y-71012750D01*
X111660553Y-70991309D01*
X111663703Y-70970074D01*
X111668919Y-70949250D01*
X111676151Y-70929038D01*
X111685330Y-70909632D01*
X111696366Y-70891219D01*
X111709154Y-70873976D01*
X111723570Y-70858070D01*
X111739476Y-70843654D01*
X111756719Y-70830866D01*
X111775132Y-70819830D01*
X111794538Y-70810651D01*
X111814750Y-70803419D01*
X111835574Y-70798203D01*
X111856809Y-70795053D01*
X111878250Y-70794000D01*
X112315750Y-70794000D01*
X112337191Y-70795053D01*
X112337191Y-70795053D01*
G37*
D11*
X112097000Y-71269000D03*
D10*
G36*
X110762191Y-70795053D02*
X110783426Y-70798203D01*
X110804250Y-70803419D01*
X110824462Y-70810651D01*
X110843868Y-70819830D01*
X110862281Y-70830866D01*
X110879524Y-70843654D01*
X110895430Y-70858070D01*
X110909846Y-70873976D01*
X110922634Y-70891219D01*
X110933670Y-70909632D01*
X110942849Y-70929038D01*
X110950081Y-70949250D01*
X110955297Y-70970074D01*
X110958447Y-70991309D01*
X110959500Y-71012750D01*
X110959500Y-71525250D01*
X110958447Y-71546691D01*
X110955297Y-71567926D01*
X110950081Y-71588750D01*
X110942849Y-71608962D01*
X110933670Y-71628368D01*
X110922634Y-71646781D01*
X110909846Y-71664024D01*
X110895430Y-71679930D01*
X110879524Y-71694346D01*
X110862281Y-71707134D01*
X110843868Y-71718170D01*
X110824462Y-71727349D01*
X110804250Y-71734581D01*
X110783426Y-71739797D01*
X110762191Y-71742947D01*
X110740750Y-71744000D01*
X110303250Y-71744000D01*
X110281809Y-71742947D01*
X110260574Y-71739797D01*
X110239750Y-71734581D01*
X110219538Y-71727349D01*
X110200132Y-71718170D01*
X110181719Y-71707134D01*
X110164476Y-71694346D01*
X110148570Y-71679930D01*
X110134154Y-71664024D01*
X110121366Y-71646781D01*
X110110330Y-71628368D01*
X110101151Y-71608962D01*
X110093919Y-71588750D01*
X110088703Y-71567926D01*
X110085553Y-71546691D01*
X110084500Y-71525250D01*
X110084500Y-71012750D01*
X110085553Y-70991309D01*
X110088703Y-70970074D01*
X110093919Y-70949250D01*
X110101151Y-70929038D01*
X110110330Y-70909632D01*
X110121366Y-70891219D01*
X110134154Y-70873976D01*
X110148570Y-70858070D01*
X110164476Y-70843654D01*
X110181719Y-70830866D01*
X110200132Y-70819830D01*
X110219538Y-70810651D01*
X110239750Y-70803419D01*
X110260574Y-70798203D01*
X110281809Y-70795053D01*
X110303250Y-70794000D01*
X110740750Y-70794000D01*
X110762191Y-70795053D01*
X110762191Y-70795053D01*
G37*
D11*
X110522000Y-71269000D03*
D10*
G36*
X163127191Y-44985053D02*
X163148426Y-44988203D01*
X163169250Y-44993419D01*
X163189462Y-45000651D01*
X163208868Y-45009830D01*
X163227281Y-45020866D01*
X163244524Y-45033654D01*
X163260430Y-45048070D01*
X163274846Y-45063976D01*
X163287634Y-45081219D01*
X163298670Y-45099632D01*
X163307849Y-45119038D01*
X163315081Y-45139250D01*
X163320297Y-45160074D01*
X163323447Y-45181309D01*
X163324500Y-45202750D01*
X163324500Y-45640250D01*
X163323447Y-45661691D01*
X163320297Y-45682926D01*
X163315081Y-45703750D01*
X163307849Y-45723962D01*
X163298670Y-45743368D01*
X163287634Y-45761781D01*
X163274846Y-45779024D01*
X163260430Y-45794930D01*
X163244524Y-45809346D01*
X163227281Y-45822134D01*
X163208868Y-45833170D01*
X163189462Y-45842349D01*
X163169250Y-45849581D01*
X163148426Y-45854797D01*
X163127191Y-45857947D01*
X163105750Y-45859000D01*
X162593250Y-45859000D01*
X162571809Y-45857947D01*
X162550574Y-45854797D01*
X162529750Y-45849581D01*
X162509538Y-45842349D01*
X162490132Y-45833170D01*
X162471719Y-45822134D01*
X162454476Y-45809346D01*
X162438570Y-45794930D01*
X162424154Y-45779024D01*
X162411366Y-45761781D01*
X162400330Y-45743368D01*
X162391151Y-45723962D01*
X162383919Y-45703750D01*
X162378703Y-45682926D01*
X162375553Y-45661691D01*
X162374500Y-45640250D01*
X162374500Y-45202750D01*
X162375553Y-45181309D01*
X162378703Y-45160074D01*
X162383919Y-45139250D01*
X162391151Y-45119038D01*
X162400330Y-45099632D01*
X162411366Y-45081219D01*
X162424154Y-45063976D01*
X162438570Y-45048070D01*
X162454476Y-45033654D01*
X162471719Y-45020866D01*
X162490132Y-45009830D01*
X162509538Y-45000651D01*
X162529750Y-44993419D01*
X162550574Y-44988203D01*
X162571809Y-44985053D01*
X162593250Y-44984000D01*
X163105750Y-44984000D01*
X163127191Y-44985053D01*
X163127191Y-44985053D01*
G37*
D11*
X162849500Y-45421500D03*
D10*
G36*
X163127191Y-46560053D02*
X163148426Y-46563203D01*
X163169250Y-46568419D01*
X163189462Y-46575651D01*
X163208868Y-46584830D01*
X163227281Y-46595866D01*
X163244524Y-46608654D01*
X163260430Y-46623070D01*
X163274846Y-46638976D01*
X163287634Y-46656219D01*
X163298670Y-46674632D01*
X163307849Y-46694038D01*
X163315081Y-46714250D01*
X163320297Y-46735074D01*
X163323447Y-46756309D01*
X163324500Y-46777750D01*
X163324500Y-47215250D01*
X163323447Y-47236691D01*
X163320297Y-47257926D01*
X163315081Y-47278750D01*
X163307849Y-47298962D01*
X163298670Y-47318368D01*
X163287634Y-47336781D01*
X163274846Y-47354024D01*
X163260430Y-47369930D01*
X163244524Y-47384346D01*
X163227281Y-47397134D01*
X163208868Y-47408170D01*
X163189462Y-47417349D01*
X163169250Y-47424581D01*
X163148426Y-47429797D01*
X163127191Y-47432947D01*
X163105750Y-47434000D01*
X162593250Y-47434000D01*
X162571809Y-47432947D01*
X162550574Y-47429797D01*
X162529750Y-47424581D01*
X162509538Y-47417349D01*
X162490132Y-47408170D01*
X162471719Y-47397134D01*
X162454476Y-47384346D01*
X162438570Y-47369930D01*
X162424154Y-47354024D01*
X162411366Y-47336781D01*
X162400330Y-47318368D01*
X162391151Y-47298962D01*
X162383919Y-47278750D01*
X162378703Y-47257926D01*
X162375553Y-47236691D01*
X162374500Y-47215250D01*
X162374500Y-46777750D01*
X162375553Y-46756309D01*
X162378703Y-46735074D01*
X162383919Y-46714250D01*
X162391151Y-46694038D01*
X162400330Y-46674632D01*
X162411366Y-46656219D01*
X162424154Y-46638976D01*
X162438570Y-46623070D01*
X162454476Y-46608654D01*
X162471719Y-46595866D01*
X162490132Y-46584830D01*
X162509538Y-46575651D01*
X162529750Y-46568419D01*
X162550574Y-46563203D01*
X162571809Y-46560053D01*
X162593250Y-46559000D01*
X163105750Y-46559000D01*
X163127191Y-46560053D01*
X163127191Y-46560053D01*
G37*
D11*
X162849500Y-46996500D03*
D10*
G36*
X136189691Y-45035053D02*
X136210926Y-45038203D01*
X136231750Y-45043419D01*
X136251962Y-45050651D01*
X136271368Y-45059830D01*
X136289781Y-45070866D01*
X136307024Y-45083654D01*
X136322930Y-45098070D01*
X136337346Y-45113976D01*
X136350134Y-45131219D01*
X136361170Y-45149632D01*
X136370349Y-45169038D01*
X136377581Y-45189250D01*
X136382797Y-45210074D01*
X136385947Y-45231309D01*
X136387000Y-45252750D01*
X136387000Y-45765250D01*
X136385947Y-45786691D01*
X136382797Y-45807926D01*
X136377581Y-45828750D01*
X136370349Y-45848962D01*
X136361170Y-45868368D01*
X136350134Y-45886781D01*
X136337346Y-45904024D01*
X136322930Y-45919930D01*
X136307024Y-45934346D01*
X136289781Y-45947134D01*
X136271368Y-45958170D01*
X136251962Y-45967349D01*
X136231750Y-45974581D01*
X136210926Y-45979797D01*
X136189691Y-45982947D01*
X136168250Y-45984000D01*
X135730750Y-45984000D01*
X135709309Y-45982947D01*
X135688074Y-45979797D01*
X135667250Y-45974581D01*
X135647038Y-45967349D01*
X135627632Y-45958170D01*
X135609219Y-45947134D01*
X135591976Y-45934346D01*
X135576070Y-45919930D01*
X135561654Y-45904024D01*
X135548866Y-45886781D01*
X135537830Y-45868368D01*
X135528651Y-45848962D01*
X135521419Y-45828750D01*
X135516203Y-45807926D01*
X135513053Y-45786691D01*
X135512000Y-45765250D01*
X135512000Y-45252750D01*
X135513053Y-45231309D01*
X135516203Y-45210074D01*
X135521419Y-45189250D01*
X135528651Y-45169038D01*
X135537830Y-45149632D01*
X135548866Y-45131219D01*
X135561654Y-45113976D01*
X135576070Y-45098070D01*
X135591976Y-45083654D01*
X135609219Y-45070866D01*
X135627632Y-45059830D01*
X135647038Y-45050651D01*
X135667250Y-45043419D01*
X135688074Y-45038203D01*
X135709309Y-45035053D01*
X135730750Y-45034000D01*
X136168250Y-45034000D01*
X136189691Y-45035053D01*
X136189691Y-45035053D01*
G37*
D11*
X135949500Y-45509000D03*
D10*
G36*
X134614691Y-45035053D02*
X134635926Y-45038203D01*
X134656750Y-45043419D01*
X134676962Y-45050651D01*
X134696368Y-45059830D01*
X134714781Y-45070866D01*
X134732024Y-45083654D01*
X134747930Y-45098070D01*
X134762346Y-45113976D01*
X134775134Y-45131219D01*
X134786170Y-45149632D01*
X134795349Y-45169038D01*
X134802581Y-45189250D01*
X134807797Y-45210074D01*
X134810947Y-45231309D01*
X134812000Y-45252750D01*
X134812000Y-45765250D01*
X134810947Y-45786691D01*
X134807797Y-45807926D01*
X134802581Y-45828750D01*
X134795349Y-45848962D01*
X134786170Y-45868368D01*
X134775134Y-45886781D01*
X134762346Y-45904024D01*
X134747930Y-45919930D01*
X134732024Y-45934346D01*
X134714781Y-45947134D01*
X134696368Y-45958170D01*
X134676962Y-45967349D01*
X134656750Y-45974581D01*
X134635926Y-45979797D01*
X134614691Y-45982947D01*
X134593250Y-45984000D01*
X134155750Y-45984000D01*
X134134309Y-45982947D01*
X134113074Y-45979797D01*
X134092250Y-45974581D01*
X134072038Y-45967349D01*
X134052632Y-45958170D01*
X134034219Y-45947134D01*
X134016976Y-45934346D01*
X134001070Y-45919930D01*
X133986654Y-45904024D01*
X133973866Y-45886781D01*
X133962830Y-45868368D01*
X133953651Y-45848962D01*
X133946419Y-45828750D01*
X133941203Y-45807926D01*
X133938053Y-45786691D01*
X133937000Y-45765250D01*
X133937000Y-45252750D01*
X133938053Y-45231309D01*
X133941203Y-45210074D01*
X133946419Y-45189250D01*
X133953651Y-45169038D01*
X133962830Y-45149632D01*
X133973866Y-45131219D01*
X133986654Y-45113976D01*
X134001070Y-45098070D01*
X134016976Y-45083654D01*
X134034219Y-45070866D01*
X134052632Y-45059830D01*
X134072038Y-45050651D01*
X134092250Y-45043419D01*
X134113074Y-45038203D01*
X134134309Y-45035053D01*
X134155750Y-45034000D01*
X134593250Y-45034000D01*
X134614691Y-45035053D01*
X134614691Y-45035053D01*
G37*
D11*
X134374500Y-45509000D03*
D10*
G36*
X134602191Y-46535053D02*
X134623426Y-46538203D01*
X134644250Y-46543419D01*
X134664462Y-46550651D01*
X134683868Y-46559830D01*
X134702281Y-46570866D01*
X134719524Y-46583654D01*
X134735430Y-46598070D01*
X134749846Y-46613976D01*
X134762634Y-46631219D01*
X134773670Y-46649632D01*
X134782849Y-46669038D01*
X134790081Y-46689250D01*
X134795297Y-46710074D01*
X134798447Y-46731309D01*
X134799500Y-46752750D01*
X134799500Y-47265250D01*
X134798447Y-47286691D01*
X134795297Y-47307926D01*
X134790081Y-47328750D01*
X134782849Y-47348962D01*
X134773670Y-47368368D01*
X134762634Y-47386781D01*
X134749846Y-47404024D01*
X134735430Y-47419930D01*
X134719524Y-47434346D01*
X134702281Y-47447134D01*
X134683868Y-47458170D01*
X134664462Y-47467349D01*
X134644250Y-47474581D01*
X134623426Y-47479797D01*
X134602191Y-47482947D01*
X134580750Y-47484000D01*
X134143250Y-47484000D01*
X134121809Y-47482947D01*
X134100574Y-47479797D01*
X134079750Y-47474581D01*
X134059538Y-47467349D01*
X134040132Y-47458170D01*
X134021719Y-47447134D01*
X134004476Y-47434346D01*
X133988570Y-47419930D01*
X133974154Y-47404024D01*
X133961366Y-47386781D01*
X133950330Y-47368368D01*
X133941151Y-47348962D01*
X133933919Y-47328750D01*
X133928703Y-47307926D01*
X133925553Y-47286691D01*
X133924500Y-47265250D01*
X133924500Y-46752750D01*
X133925553Y-46731309D01*
X133928703Y-46710074D01*
X133933919Y-46689250D01*
X133941151Y-46669038D01*
X133950330Y-46649632D01*
X133961366Y-46631219D01*
X133974154Y-46613976D01*
X133988570Y-46598070D01*
X134004476Y-46583654D01*
X134021719Y-46570866D01*
X134040132Y-46559830D01*
X134059538Y-46550651D01*
X134079750Y-46543419D01*
X134100574Y-46538203D01*
X134121809Y-46535053D01*
X134143250Y-46534000D01*
X134580750Y-46534000D01*
X134602191Y-46535053D01*
X134602191Y-46535053D01*
G37*
D11*
X134362000Y-47009000D03*
D10*
G36*
X136177191Y-46535053D02*
X136198426Y-46538203D01*
X136219250Y-46543419D01*
X136239462Y-46550651D01*
X136258868Y-46559830D01*
X136277281Y-46570866D01*
X136294524Y-46583654D01*
X136310430Y-46598070D01*
X136324846Y-46613976D01*
X136337634Y-46631219D01*
X136348670Y-46649632D01*
X136357849Y-46669038D01*
X136365081Y-46689250D01*
X136370297Y-46710074D01*
X136373447Y-46731309D01*
X136374500Y-46752750D01*
X136374500Y-47265250D01*
X136373447Y-47286691D01*
X136370297Y-47307926D01*
X136365081Y-47328750D01*
X136357849Y-47348962D01*
X136348670Y-47368368D01*
X136337634Y-47386781D01*
X136324846Y-47404024D01*
X136310430Y-47419930D01*
X136294524Y-47434346D01*
X136277281Y-47447134D01*
X136258868Y-47458170D01*
X136239462Y-47467349D01*
X136219250Y-47474581D01*
X136198426Y-47479797D01*
X136177191Y-47482947D01*
X136155750Y-47484000D01*
X135718250Y-47484000D01*
X135696809Y-47482947D01*
X135675574Y-47479797D01*
X135654750Y-47474581D01*
X135634538Y-47467349D01*
X135615132Y-47458170D01*
X135596719Y-47447134D01*
X135579476Y-47434346D01*
X135563570Y-47419930D01*
X135549154Y-47404024D01*
X135536366Y-47386781D01*
X135525330Y-47368368D01*
X135516151Y-47348962D01*
X135508919Y-47328750D01*
X135503703Y-47307926D01*
X135500553Y-47286691D01*
X135499500Y-47265250D01*
X135499500Y-46752750D01*
X135500553Y-46731309D01*
X135503703Y-46710074D01*
X135508919Y-46689250D01*
X135516151Y-46669038D01*
X135525330Y-46649632D01*
X135536366Y-46631219D01*
X135549154Y-46613976D01*
X135563570Y-46598070D01*
X135579476Y-46583654D01*
X135596719Y-46570866D01*
X135615132Y-46559830D01*
X135634538Y-46550651D01*
X135654750Y-46543419D01*
X135675574Y-46538203D01*
X135696809Y-46535053D01*
X135718250Y-46534000D01*
X136155750Y-46534000D01*
X136177191Y-46535053D01*
X136177191Y-46535053D01*
G37*
D11*
X135937000Y-47009000D03*
D10*
G36*
X134602191Y-48035053D02*
X134623426Y-48038203D01*
X134644250Y-48043419D01*
X134664462Y-48050651D01*
X134683868Y-48059830D01*
X134702281Y-48070866D01*
X134719524Y-48083654D01*
X134735430Y-48098070D01*
X134749846Y-48113976D01*
X134762634Y-48131219D01*
X134773670Y-48149632D01*
X134782849Y-48169038D01*
X134790081Y-48189250D01*
X134795297Y-48210074D01*
X134798447Y-48231309D01*
X134799500Y-48252750D01*
X134799500Y-48765250D01*
X134798447Y-48786691D01*
X134795297Y-48807926D01*
X134790081Y-48828750D01*
X134782849Y-48848962D01*
X134773670Y-48868368D01*
X134762634Y-48886781D01*
X134749846Y-48904024D01*
X134735430Y-48919930D01*
X134719524Y-48934346D01*
X134702281Y-48947134D01*
X134683868Y-48958170D01*
X134664462Y-48967349D01*
X134644250Y-48974581D01*
X134623426Y-48979797D01*
X134602191Y-48982947D01*
X134580750Y-48984000D01*
X134143250Y-48984000D01*
X134121809Y-48982947D01*
X134100574Y-48979797D01*
X134079750Y-48974581D01*
X134059538Y-48967349D01*
X134040132Y-48958170D01*
X134021719Y-48947134D01*
X134004476Y-48934346D01*
X133988570Y-48919930D01*
X133974154Y-48904024D01*
X133961366Y-48886781D01*
X133950330Y-48868368D01*
X133941151Y-48848962D01*
X133933919Y-48828750D01*
X133928703Y-48807926D01*
X133925553Y-48786691D01*
X133924500Y-48765250D01*
X133924500Y-48252750D01*
X133925553Y-48231309D01*
X133928703Y-48210074D01*
X133933919Y-48189250D01*
X133941151Y-48169038D01*
X133950330Y-48149632D01*
X133961366Y-48131219D01*
X133974154Y-48113976D01*
X133988570Y-48098070D01*
X134004476Y-48083654D01*
X134021719Y-48070866D01*
X134040132Y-48059830D01*
X134059538Y-48050651D01*
X134079750Y-48043419D01*
X134100574Y-48038203D01*
X134121809Y-48035053D01*
X134143250Y-48034000D01*
X134580750Y-48034000D01*
X134602191Y-48035053D01*
X134602191Y-48035053D01*
G37*
D11*
X134362000Y-48509000D03*
D10*
G36*
X136177191Y-48035053D02*
X136198426Y-48038203D01*
X136219250Y-48043419D01*
X136239462Y-48050651D01*
X136258868Y-48059830D01*
X136277281Y-48070866D01*
X136294524Y-48083654D01*
X136310430Y-48098070D01*
X136324846Y-48113976D01*
X136337634Y-48131219D01*
X136348670Y-48149632D01*
X136357849Y-48169038D01*
X136365081Y-48189250D01*
X136370297Y-48210074D01*
X136373447Y-48231309D01*
X136374500Y-48252750D01*
X136374500Y-48765250D01*
X136373447Y-48786691D01*
X136370297Y-48807926D01*
X136365081Y-48828750D01*
X136357849Y-48848962D01*
X136348670Y-48868368D01*
X136337634Y-48886781D01*
X136324846Y-48904024D01*
X136310430Y-48919930D01*
X136294524Y-48934346D01*
X136277281Y-48947134D01*
X136258868Y-48958170D01*
X136239462Y-48967349D01*
X136219250Y-48974581D01*
X136198426Y-48979797D01*
X136177191Y-48982947D01*
X136155750Y-48984000D01*
X135718250Y-48984000D01*
X135696809Y-48982947D01*
X135675574Y-48979797D01*
X135654750Y-48974581D01*
X135634538Y-48967349D01*
X135615132Y-48958170D01*
X135596719Y-48947134D01*
X135579476Y-48934346D01*
X135563570Y-48919930D01*
X135549154Y-48904024D01*
X135536366Y-48886781D01*
X135525330Y-48868368D01*
X135516151Y-48848962D01*
X135508919Y-48828750D01*
X135503703Y-48807926D01*
X135500553Y-48786691D01*
X135499500Y-48765250D01*
X135499500Y-48252750D01*
X135500553Y-48231309D01*
X135503703Y-48210074D01*
X135508919Y-48189250D01*
X135516151Y-48169038D01*
X135525330Y-48149632D01*
X135536366Y-48131219D01*
X135549154Y-48113976D01*
X135563570Y-48098070D01*
X135579476Y-48083654D01*
X135596719Y-48070866D01*
X135615132Y-48059830D01*
X135634538Y-48050651D01*
X135654750Y-48043419D01*
X135675574Y-48038203D01*
X135696809Y-48035053D01*
X135718250Y-48034000D01*
X136155750Y-48034000D01*
X136177191Y-48035053D01*
X136177191Y-48035053D01*
G37*
D11*
X135937000Y-48509000D03*
D10*
G36*
X138602191Y-45035053D02*
X138623426Y-45038203D01*
X138644250Y-45043419D01*
X138664462Y-45050651D01*
X138683868Y-45059830D01*
X138702281Y-45070866D01*
X138719524Y-45083654D01*
X138735430Y-45098070D01*
X138749846Y-45113976D01*
X138762634Y-45131219D01*
X138773670Y-45149632D01*
X138782849Y-45169038D01*
X138790081Y-45189250D01*
X138795297Y-45210074D01*
X138798447Y-45231309D01*
X138799500Y-45252750D01*
X138799500Y-45765250D01*
X138798447Y-45786691D01*
X138795297Y-45807926D01*
X138790081Y-45828750D01*
X138782849Y-45848962D01*
X138773670Y-45868368D01*
X138762634Y-45886781D01*
X138749846Y-45904024D01*
X138735430Y-45919930D01*
X138719524Y-45934346D01*
X138702281Y-45947134D01*
X138683868Y-45958170D01*
X138664462Y-45967349D01*
X138644250Y-45974581D01*
X138623426Y-45979797D01*
X138602191Y-45982947D01*
X138580750Y-45984000D01*
X138143250Y-45984000D01*
X138121809Y-45982947D01*
X138100574Y-45979797D01*
X138079750Y-45974581D01*
X138059538Y-45967349D01*
X138040132Y-45958170D01*
X138021719Y-45947134D01*
X138004476Y-45934346D01*
X137988570Y-45919930D01*
X137974154Y-45904024D01*
X137961366Y-45886781D01*
X137950330Y-45868368D01*
X137941151Y-45848962D01*
X137933919Y-45828750D01*
X137928703Y-45807926D01*
X137925553Y-45786691D01*
X137924500Y-45765250D01*
X137924500Y-45252750D01*
X137925553Y-45231309D01*
X137928703Y-45210074D01*
X137933919Y-45189250D01*
X137941151Y-45169038D01*
X137950330Y-45149632D01*
X137961366Y-45131219D01*
X137974154Y-45113976D01*
X137988570Y-45098070D01*
X138004476Y-45083654D01*
X138021719Y-45070866D01*
X138040132Y-45059830D01*
X138059538Y-45050651D01*
X138079750Y-45043419D01*
X138100574Y-45038203D01*
X138121809Y-45035053D01*
X138143250Y-45034000D01*
X138580750Y-45034000D01*
X138602191Y-45035053D01*
X138602191Y-45035053D01*
G37*
D11*
X138362000Y-45509000D03*
D10*
G36*
X140177191Y-45035053D02*
X140198426Y-45038203D01*
X140219250Y-45043419D01*
X140239462Y-45050651D01*
X140258868Y-45059830D01*
X140277281Y-45070866D01*
X140294524Y-45083654D01*
X140310430Y-45098070D01*
X140324846Y-45113976D01*
X140337634Y-45131219D01*
X140348670Y-45149632D01*
X140357849Y-45169038D01*
X140365081Y-45189250D01*
X140370297Y-45210074D01*
X140373447Y-45231309D01*
X140374500Y-45252750D01*
X140374500Y-45765250D01*
X140373447Y-45786691D01*
X140370297Y-45807926D01*
X140365081Y-45828750D01*
X140357849Y-45848962D01*
X140348670Y-45868368D01*
X140337634Y-45886781D01*
X140324846Y-45904024D01*
X140310430Y-45919930D01*
X140294524Y-45934346D01*
X140277281Y-45947134D01*
X140258868Y-45958170D01*
X140239462Y-45967349D01*
X140219250Y-45974581D01*
X140198426Y-45979797D01*
X140177191Y-45982947D01*
X140155750Y-45984000D01*
X139718250Y-45984000D01*
X139696809Y-45982947D01*
X139675574Y-45979797D01*
X139654750Y-45974581D01*
X139634538Y-45967349D01*
X139615132Y-45958170D01*
X139596719Y-45947134D01*
X139579476Y-45934346D01*
X139563570Y-45919930D01*
X139549154Y-45904024D01*
X139536366Y-45886781D01*
X139525330Y-45868368D01*
X139516151Y-45848962D01*
X139508919Y-45828750D01*
X139503703Y-45807926D01*
X139500553Y-45786691D01*
X139499500Y-45765250D01*
X139499500Y-45252750D01*
X139500553Y-45231309D01*
X139503703Y-45210074D01*
X139508919Y-45189250D01*
X139516151Y-45169038D01*
X139525330Y-45149632D01*
X139536366Y-45131219D01*
X139549154Y-45113976D01*
X139563570Y-45098070D01*
X139579476Y-45083654D01*
X139596719Y-45070866D01*
X139615132Y-45059830D01*
X139634538Y-45050651D01*
X139654750Y-45043419D01*
X139675574Y-45038203D01*
X139696809Y-45035053D01*
X139718250Y-45034000D01*
X140155750Y-45034000D01*
X140177191Y-45035053D01*
X140177191Y-45035053D01*
G37*
D11*
X139937000Y-45509000D03*
D10*
G36*
X140189691Y-46535053D02*
X140210926Y-46538203D01*
X140231750Y-46543419D01*
X140251962Y-46550651D01*
X140271368Y-46559830D01*
X140289781Y-46570866D01*
X140307024Y-46583654D01*
X140322930Y-46598070D01*
X140337346Y-46613976D01*
X140350134Y-46631219D01*
X140361170Y-46649632D01*
X140370349Y-46669038D01*
X140377581Y-46689250D01*
X140382797Y-46710074D01*
X140385947Y-46731309D01*
X140387000Y-46752750D01*
X140387000Y-47265250D01*
X140385947Y-47286691D01*
X140382797Y-47307926D01*
X140377581Y-47328750D01*
X140370349Y-47348962D01*
X140361170Y-47368368D01*
X140350134Y-47386781D01*
X140337346Y-47404024D01*
X140322930Y-47419930D01*
X140307024Y-47434346D01*
X140289781Y-47447134D01*
X140271368Y-47458170D01*
X140251962Y-47467349D01*
X140231750Y-47474581D01*
X140210926Y-47479797D01*
X140189691Y-47482947D01*
X140168250Y-47484000D01*
X139730750Y-47484000D01*
X139709309Y-47482947D01*
X139688074Y-47479797D01*
X139667250Y-47474581D01*
X139647038Y-47467349D01*
X139627632Y-47458170D01*
X139609219Y-47447134D01*
X139591976Y-47434346D01*
X139576070Y-47419930D01*
X139561654Y-47404024D01*
X139548866Y-47386781D01*
X139537830Y-47368368D01*
X139528651Y-47348962D01*
X139521419Y-47328750D01*
X139516203Y-47307926D01*
X139513053Y-47286691D01*
X139512000Y-47265250D01*
X139512000Y-46752750D01*
X139513053Y-46731309D01*
X139516203Y-46710074D01*
X139521419Y-46689250D01*
X139528651Y-46669038D01*
X139537830Y-46649632D01*
X139548866Y-46631219D01*
X139561654Y-46613976D01*
X139576070Y-46598070D01*
X139591976Y-46583654D01*
X139609219Y-46570866D01*
X139627632Y-46559830D01*
X139647038Y-46550651D01*
X139667250Y-46543419D01*
X139688074Y-46538203D01*
X139709309Y-46535053D01*
X139730750Y-46534000D01*
X140168250Y-46534000D01*
X140189691Y-46535053D01*
X140189691Y-46535053D01*
G37*
D11*
X139949500Y-47009000D03*
D10*
G36*
X138614691Y-46535053D02*
X138635926Y-46538203D01*
X138656750Y-46543419D01*
X138676962Y-46550651D01*
X138696368Y-46559830D01*
X138714781Y-46570866D01*
X138732024Y-46583654D01*
X138747930Y-46598070D01*
X138762346Y-46613976D01*
X138775134Y-46631219D01*
X138786170Y-46649632D01*
X138795349Y-46669038D01*
X138802581Y-46689250D01*
X138807797Y-46710074D01*
X138810947Y-46731309D01*
X138812000Y-46752750D01*
X138812000Y-47265250D01*
X138810947Y-47286691D01*
X138807797Y-47307926D01*
X138802581Y-47328750D01*
X138795349Y-47348962D01*
X138786170Y-47368368D01*
X138775134Y-47386781D01*
X138762346Y-47404024D01*
X138747930Y-47419930D01*
X138732024Y-47434346D01*
X138714781Y-47447134D01*
X138696368Y-47458170D01*
X138676962Y-47467349D01*
X138656750Y-47474581D01*
X138635926Y-47479797D01*
X138614691Y-47482947D01*
X138593250Y-47484000D01*
X138155750Y-47484000D01*
X138134309Y-47482947D01*
X138113074Y-47479797D01*
X138092250Y-47474581D01*
X138072038Y-47467349D01*
X138052632Y-47458170D01*
X138034219Y-47447134D01*
X138016976Y-47434346D01*
X138001070Y-47419930D01*
X137986654Y-47404024D01*
X137973866Y-47386781D01*
X137962830Y-47368368D01*
X137953651Y-47348962D01*
X137946419Y-47328750D01*
X137941203Y-47307926D01*
X137938053Y-47286691D01*
X137937000Y-47265250D01*
X137937000Y-46752750D01*
X137938053Y-46731309D01*
X137941203Y-46710074D01*
X137946419Y-46689250D01*
X137953651Y-46669038D01*
X137962830Y-46649632D01*
X137973866Y-46631219D01*
X137986654Y-46613976D01*
X138001070Y-46598070D01*
X138016976Y-46583654D01*
X138034219Y-46570866D01*
X138052632Y-46559830D01*
X138072038Y-46550651D01*
X138092250Y-46543419D01*
X138113074Y-46538203D01*
X138134309Y-46535053D01*
X138155750Y-46534000D01*
X138593250Y-46534000D01*
X138614691Y-46535053D01*
X138614691Y-46535053D01*
G37*
D11*
X138374500Y-47009000D03*
D10*
G36*
X138602191Y-48035053D02*
X138623426Y-48038203D01*
X138644250Y-48043419D01*
X138664462Y-48050651D01*
X138683868Y-48059830D01*
X138702281Y-48070866D01*
X138719524Y-48083654D01*
X138735430Y-48098070D01*
X138749846Y-48113976D01*
X138762634Y-48131219D01*
X138773670Y-48149632D01*
X138782849Y-48169038D01*
X138790081Y-48189250D01*
X138795297Y-48210074D01*
X138798447Y-48231309D01*
X138799500Y-48252750D01*
X138799500Y-48765250D01*
X138798447Y-48786691D01*
X138795297Y-48807926D01*
X138790081Y-48828750D01*
X138782849Y-48848962D01*
X138773670Y-48868368D01*
X138762634Y-48886781D01*
X138749846Y-48904024D01*
X138735430Y-48919930D01*
X138719524Y-48934346D01*
X138702281Y-48947134D01*
X138683868Y-48958170D01*
X138664462Y-48967349D01*
X138644250Y-48974581D01*
X138623426Y-48979797D01*
X138602191Y-48982947D01*
X138580750Y-48984000D01*
X138143250Y-48984000D01*
X138121809Y-48982947D01*
X138100574Y-48979797D01*
X138079750Y-48974581D01*
X138059538Y-48967349D01*
X138040132Y-48958170D01*
X138021719Y-48947134D01*
X138004476Y-48934346D01*
X137988570Y-48919930D01*
X137974154Y-48904024D01*
X137961366Y-48886781D01*
X137950330Y-48868368D01*
X137941151Y-48848962D01*
X137933919Y-48828750D01*
X137928703Y-48807926D01*
X137925553Y-48786691D01*
X137924500Y-48765250D01*
X137924500Y-48252750D01*
X137925553Y-48231309D01*
X137928703Y-48210074D01*
X137933919Y-48189250D01*
X137941151Y-48169038D01*
X137950330Y-48149632D01*
X137961366Y-48131219D01*
X137974154Y-48113976D01*
X137988570Y-48098070D01*
X138004476Y-48083654D01*
X138021719Y-48070866D01*
X138040132Y-48059830D01*
X138059538Y-48050651D01*
X138079750Y-48043419D01*
X138100574Y-48038203D01*
X138121809Y-48035053D01*
X138143250Y-48034000D01*
X138580750Y-48034000D01*
X138602191Y-48035053D01*
X138602191Y-48035053D01*
G37*
D11*
X138362000Y-48509000D03*
D10*
G36*
X140177191Y-48035053D02*
X140198426Y-48038203D01*
X140219250Y-48043419D01*
X140239462Y-48050651D01*
X140258868Y-48059830D01*
X140277281Y-48070866D01*
X140294524Y-48083654D01*
X140310430Y-48098070D01*
X140324846Y-48113976D01*
X140337634Y-48131219D01*
X140348670Y-48149632D01*
X140357849Y-48169038D01*
X140365081Y-48189250D01*
X140370297Y-48210074D01*
X140373447Y-48231309D01*
X140374500Y-48252750D01*
X140374500Y-48765250D01*
X140373447Y-48786691D01*
X140370297Y-48807926D01*
X140365081Y-48828750D01*
X140357849Y-48848962D01*
X140348670Y-48868368D01*
X140337634Y-48886781D01*
X140324846Y-48904024D01*
X140310430Y-48919930D01*
X140294524Y-48934346D01*
X140277281Y-48947134D01*
X140258868Y-48958170D01*
X140239462Y-48967349D01*
X140219250Y-48974581D01*
X140198426Y-48979797D01*
X140177191Y-48982947D01*
X140155750Y-48984000D01*
X139718250Y-48984000D01*
X139696809Y-48982947D01*
X139675574Y-48979797D01*
X139654750Y-48974581D01*
X139634538Y-48967349D01*
X139615132Y-48958170D01*
X139596719Y-48947134D01*
X139579476Y-48934346D01*
X139563570Y-48919930D01*
X139549154Y-48904024D01*
X139536366Y-48886781D01*
X139525330Y-48868368D01*
X139516151Y-48848962D01*
X139508919Y-48828750D01*
X139503703Y-48807926D01*
X139500553Y-48786691D01*
X139499500Y-48765250D01*
X139499500Y-48252750D01*
X139500553Y-48231309D01*
X139503703Y-48210074D01*
X139508919Y-48189250D01*
X139516151Y-48169038D01*
X139525330Y-48149632D01*
X139536366Y-48131219D01*
X139549154Y-48113976D01*
X139563570Y-48098070D01*
X139579476Y-48083654D01*
X139596719Y-48070866D01*
X139615132Y-48059830D01*
X139634538Y-48050651D01*
X139654750Y-48043419D01*
X139675574Y-48038203D01*
X139696809Y-48035053D01*
X139718250Y-48034000D01*
X140155750Y-48034000D01*
X140177191Y-48035053D01*
X140177191Y-48035053D01*
G37*
D11*
X139937000Y-48509000D03*
D10*
G36*
X165327191Y-46560053D02*
X165348426Y-46563203D01*
X165369250Y-46568419D01*
X165389462Y-46575651D01*
X165408868Y-46584830D01*
X165427281Y-46595866D01*
X165444524Y-46608654D01*
X165460430Y-46623070D01*
X165474846Y-46638976D01*
X165487634Y-46656219D01*
X165498670Y-46674632D01*
X165507849Y-46694038D01*
X165515081Y-46714250D01*
X165520297Y-46735074D01*
X165523447Y-46756309D01*
X165524500Y-46777750D01*
X165524500Y-47215250D01*
X165523447Y-47236691D01*
X165520297Y-47257926D01*
X165515081Y-47278750D01*
X165507849Y-47298962D01*
X165498670Y-47318368D01*
X165487634Y-47336781D01*
X165474846Y-47354024D01*
X165460430Y-47369930D01*
X165444524Y-47384346D01*
X165427281Y-47397134D01*
X165408868Y-47408170D01*
X165389462Y-47417349D01*
X165369250Y-47424581D01*
X165348426Y-47429797D01*
X165327191Y-47432947D01*
X165305750Y-47434000D01*
X164793250Y-47434000D01*
X164771809Y-47432947D01*
X164750574Y-47429797D01*
X164729750Y-47424581D01*
X164709538Y-47417349D01*
X164690132Y-47408170D01*
X164671719Y-47397134D01*
X164654476Y-47384346D01*
X164638570Y-47369930D01*
X164624154Y-47354024D01*
X164611366Y-47336781D01*
X164600330Y-47318368D01*
X164591151Y-47298962D01*
X164583919Y-47278750D01*
X164578703Y-47257926D01*
X164575553Y-47236691D01*
X164574500Y-47215250D01*
X164574500Y-46777750D01*
X164575553Y-46756309D01*
X164578703Y-46735074D01*
X164583919Y-46714250D01*
X164591151Y-46694038D01*
X164600330Y-46674632D01*
X164611366Y-46656219D01*
X164624154Y-46638976D01*
X164638570Y-46623070D01*
X164654476Y-46608654D01*
X164671719Y-46595866D01*
X164690132Y-46584830D01*
X164709538Y-46575651D01*
X164729750Y-46568419D01*
X164750574Y-46563203D01*
X164771809Y-46560053D01*
X164793250Y-46559000D01*
X165305750Y-46559000D01*
X165327191Y-46560053D01*
X165327191Y-46560053D01*
G37*
D11*
X165049500Y-46996500D03*
D10*
G36*
X165327191Y-44985053D02*
X165348426Y-44988203D01*
X165369250Y-44993419D01*
X165389462Y-45000651D01*
X165408868Y-45009830D01*
X165427281Y-45020866D01*
X165444524Y-45033654D01*
X165460430Y-45048070D01*
X165474846Y-45063976D01*
X165487634Y-45081219D01*
X165498670Y-45099632D01*
X165507849Y-45119038D01*
X165515081Y-45139250D01*
X165520297Y-45160074D01*
X165523447Y-45181309D01*
X165524500Y-45202750D01*
X165524500Y-45640250D01*
X165523447Y-45661691D01*
X165520297Y-45682926D01*
X165515081Y-45703750D01*
X165507849Y-45723962D01*
X165498670Y-45743368D01*
X165487634Y-45761781D01*
X165474846Y-45779024D01*
X165460430Y-45794930D01*
X165444524Y-45809346D01*
X165427281Y-45822134D01*
X165408868Y-45833170D01*
X165389462Y-45842349D01*
X165369250Y-45849581D01*
X165348426Y-45854797D01*
X165327191Y-45857947D01*
X165305750Y-45859000D01*
X164793250Y-45859000D01*
X164771809Y-45857947D01*
X164750574Y-45854797D01*
X164729750Y-45849581D01*
X164709538Y-45842349D01*
X164690132Y-45833170D01*
X164671719Y-45822134D01*
X164654476Y-45809346D01*
X164638570Y-45794930D01*
X164624154Y-45779024D01*
X164611366Y-45761781D01*
X164600330Y-45743368D01*
X164591151Y-45723962D01*
X164583919Y-45703750D01*
X164578703Y-45682926D01*
X164575553Y-45661691D01*
X164574500Y-45640250D01*
X164574500Y-45202750D01*
X164575553Y-45181309D01*
X164578703Y-45160074D01*
X164583919Y-45139250D01*
X164591151Y-45119038D01*
X164600330Y-45099632D01*
X164611366Y-45081219D01*
X164624154Y-45063976D01*
X164638570Y-45048070D01*
X164654476Y-45033654D01*
X164671719Y-45020866D01*
X164690132Y-45009830D01*
X164709538Y-45000651D01*
X164729750Y-44993419D01*
X164750574Y-44988203D01*
X164771809Y-44985053D01*
X164793250Y-44984000D01*
X165305750Y-44984000D01*
X165327191Y-44985053D01*
X165327191Y-44985053D01*
G37*
D11*
X165049500Y-45421500D03*
D10*
G36*
X133227191Y-47360052D02*
X133248426Y-47363202D01*
X133269250Y-47368418D01*
X133289462Y-47375650D01*
X133308868Y-47384829D01*
X133327281Y-47395865D01*
X133344524Y-47408653D01*
X133360430Y-47423069D01*
X133374846Y-47438975D01*
X133387634Y-47456218D01*
X133398670Y-47474631D01*
X133407849Y-47494037D01*
X133415081Y-47514249D01*
X133420297Y-47535073D01*
X133423447Y-47556308D01*
X133424500Y-47577749D01*
X133424500Y-48015249D01*
X133423447Y-48036690D01*
X133420297Y-48057925D01*
X133415081Y-48078749D01*
X133407849Y-48098961D01*
X133398670Y-48118367D01*
X133387634Y-48136780D01*
X133374846Y-48154023D01*
X133360430Y-48169929D01*
X133344524Y-48184345D01*
X133327281Y-48197133D01*
X133308868Y-48208169D01*
X133289462Y-48217348D01*
X133269250Y-48224580D01*
X133248426Y-48229796D01*
X133227191Y-48232946D01*
X133205750Y-48233999D01*
X132693250Y-48233999D01*
X132671809Y-48232946D01*
X132650574Y-48229796D01*
X132629750Y-48224580D01*
X132609538Y-48217348D01*
X132590132Y-48208169D01*
X132571719Y-48197133D01*
X132554476Y-48184345D01*
X132538570Y-48169929D01*
X132524154Y-48154023D01*
X132511366Y-48136780D01*
X132500330Y-48118367D01*
X132491151Y-48098961D01*
X132483919Y-48078749D01*
X132478703Y-48057925D01*
X132475553Y-48036690D01*
X132474500Y-48015249D01*
X132474500Y-47577749D01*
X132475553Y-47556308D01*
X132478703Y-47535073D01*
X132483919Y-47514249D01*
X132491151Y-47494037D01*
X132500330Y-47474631D01*
X132511366Y-47456218D01*
X132524154Y-47438975D01*
X132538570Y-47423069D01*
X132554476Y-47408653D01*
X132571719Y-47395865D01*
X132590132Y-47384829D01*
X132609538Y-47375650D01*
X132629750Y-47368418D01*
X132650574Y-47363202D01*
X132671809Y-47360052D01*
X132693250Y-47358999D01*
X133205750Y-47358999D01*
X133227191Y-47360052D01*
X133227191Y-47360052D01*
G37*
D11*
X132949500Y-47796499D03*
D10*
G36*
X133227191Y-48935052D02*
X133248426Y-48938202D01*
X133269250Y-48943418D01*
X133289462Y-48950650D01*
X133308868Y-48959829D01*
X133327281Y-48970865D01*
X133344524Y-48983653D01*
X133360430Y-48998069D01*
X133374846Y-49013975D01*
X133387634Y-49031218D01*
X133398670Y-49049631D01*
X133407849Y-49069037D01*
X133415081Y-49089249D01*
X133420297Y-49110073D01*
X133423447Y-49131308D01*
X133424500Y-49152749D01*
X133424500Y-49590249D01*
X133423447Y-49611690D01*
X133420297Y-49632925D01*
X133415081Y-49653749D01*
X133407849Y-49673961D01*
X133398670Y-49693367D01*
X133387634Y-49711780D01*
X133374846Y-49729023D01*
X133360430Y-49744929D01*
X133344524Y-49759345D01*
X133327281Y-49772133D01*
X133308868Y-49783169D01*
X133289462Y-49792348D01*
X133269250Y-49799580D01*
X133248426Y-49804796D01*
X133227191Y-49807946D01*
X133205750Y-49808999D01*
X132693250Y-49808999D01*
X132671809Y-49807946D01*
X132650574Y-49804796D01*
X132629750Y-49799580D01*
X132609538Y-49792348D01*
X132590132Y-49783169D01*
X132571719Y-49772133D01*
X132554476Y-49759345D01*
X132538570Y-49744929D01*
X132524154Y-49729023D01*
X132511366Y-49711780D01*
X132500330Y-49693367D01*
X132491151Y-49673961D01*
X132483919Y-49653749D01*
X132478703Y-49632925D01*
X132475553Y-49611690D01*
X132474500Y-49590249D01*
X132474500Y-49152749D01*
X132475553Y-49131308D01*
X132478703Y-49110073D01*
X132483919Y-49089249D01*
X132491151Y-49069037D01*
X132500330Y-49049631D01*
X132511366Y-49031218D01*
X132524154Y-49013975D01*
X132538570Y-48998069D01*
X132554476Y-48983653D01*
X132571719Y-48970865D01*
X132590132Y-48959829D01*
X132609538Y-48950650D01*
X132629750Y-48943418D01*
X132650574Y-48938202D01*
X132671809Y-48935052D01*
X132693250Y-48933999D01*
X133205750Y-48933999D01*
X133227191Y-48935052D01*
X133227191Y-48935052D01*
G37*
D11*
X132949500Y-49371499D03*
D10*
G36*
X133227191Y-45860053D02*
X133248426Y-45863203D01*
X133269250Y-45868419D01*
X133289462Y-45875651D01*
X133308868Y-45884830D01*
X133327281Y-45895866D01*
X133344524Y-45908654D01*
X133360430Y-45923070D01*
X133374846Y-45938976D01*
X133387634Y-45956219D01*
X133398670Y-45974632D01*
X133407849Y-45994038D01*
X133415081Y-46014250D01*
X133420297Y-46035074D01*
X133423447Y-46056309D01*
X133424500Y-46077750D01*
X133424500Y-46515250D01*
X133423447Y-46536691D01*
X133420297Y-46557926D01*
X133415081Y-46578750D01*
X133407849Y-46598962D01*
X133398670Y-46618368D01*
X133387634Y-46636781D01*
X133374846Y-46654024D01*
X133360430Y-46669930D01*
X133344524Y-46684346D01*
X133327281Y-46697134D01*
X133308868Y-46708170D01*
X133289462Y-46717349D01*
X133269250Y-46724581D01*
X133248426Y-46729797D01*
X133227191Y-46732947D01*
X133205750Y-46734000D01*
X132693250Y-46734000D01*
X132671809Y-46732947D01*
X132650574Y-46729797D01*
X132629750Y-46724581D01*
X132609538Y-46717349D01*
X132590132Y-46708170D01*
X132571719Y-46697134D01*
X132554476Y-46684346D01*
X132538570Y-46669930D01*
X132524154Y-46654024D01*
X132511366Y-46636781D01*
X132500330Y-46618368D01*
X132491151Y-46598962D01*
X132483919Y-46578750D01*
X132478703Y-46557926D01*
X132475553Y-46536691D01*
X132474500Y-46515250D01*
X132474500Y-46077750D01*
X132475553Y-46056309D01*
X132478703Y-46035074D01*
X132483919Y-46014250D01*
X132491151Y-45994038D01*
X132500330Y-45974632D01*
X132511366Y-45956219D01*
X132524154Y-45938976D01*
X132538570Y-45923070D01*
X132554476Y-45908654D01*
X132571719Y-45895866D01*
X132590132Y-45884830D01*
X132609538Y-45875651D01*
X132629750Y-45868419D01*
X132650574Y-45863203D01*
X132671809Y-45860053D01*
X132693250Y-45859000D01*
X133205750Y-45859000D01*
X133227191Y-45860053D01*
X133227191Y-45860053D01*
G37*
D11*
X132949500Y-46296500D03*
D10*
G36*
X133227191Y-44285053D02*
X133248426Y-44288203D01*
X133269250Y-44293419D01*
X133289462Y-44300651D01*
X133308868Y-44309830D01*
X133327281Y-44320866D01*
X133344524Y-44333654D01*
X133360430Y-44348070D01*
X133374846Y-44363976D01*
X133387634Y-44381219D01*
X133398670Y-44399632D01*
X133407849Y-44419038D01*
X133415081Y-44439250D01*
X133420297Y-44460074D01*
X133423447Y-44481309D01*
X133424500Y-44502750D01*
X133424500Y-44940250D01*
X133423447Y-44961691D01*
X133420297Y-44982926D01*
X133415081Y-45003750D01*
X133407849Y-45023962D01*
X133398670Y-45043368D01*
X133387634Y-45061781D01*
X133374846Y-45079024D01*
X133360430Y-45094930D01*
X133344524Y-45109346D01*
X133327281Y-45122134D01*
X133308868Y-45133170D01*
X133289462Y-45142349D01*
X133269250Y-45149581D01*
X133248426Y-45154797D01*
X133227191Y-45157947D01*
X133205750Y-45159000D01*
X132693250Y-45159000D01*
X132671809Y-45157947D01*
X132650574Y-45154797D01*
X132629750Y-45149581D01*
X132609538Y-45142349D01*
X132590132Y-45133170D01*
X132571719Y-45122134D01*
X132554476Y-45109346D01*
X132538570Y-45094930D01*
X132524154Y-45079024D01*
X132511366Y-45061781D01*
X132500330Y-45043368D01*
X132491151Y-45023962D01*
X132483919Y-45003750D01*
X132478703Y-44982926D01*
X132475553Y-44961691D01*
X132474500Y-44940250D01*
X132474500Y-44502750D01*
X132475553Y-44481309D01*
X132478703Y-44460074D01*
X132483919Y-44439250D01*
X132491151Y-44419038D01*
X132500330Y-44399632D01*
X132511366Y-44381219D01*
X132524154Y-44363976D01*
X132538570Y-44348070D01*
X132554476Y-44333654D01*
X132571719Y-44320866D01*
X132590132Y-44309830D01*
X132609538Y-44300651D01*
X132629750Y-44293419D01*
X132650574Y-44288203D01*
X132671809Y-44285053D01*
X132693250Y-44284000D01*
X133205750Y-44284000D01*
X133227191Y-44285053D01*
X133227191Y-44285053D01*
G37*
D11*
X132949500Y-44721500D03*
D24*
X151299500Y-45664000D03*
X151299500Y-46934000D03*
X151299500Y-48204000D03*
X151299500Y-49474000D03*
X151299500Y-50744000D03*
X151299500Y-52014000D03*
X151299500Y-53284000D03*
X151299500Y-54554000D03*
X160599500Y-54554000D03*
X160599500Y-53284000D03*
X160599500Y-52014000D03*
X160599500Y-50744000D03*
X160599500Y-49474000D03*
X160599500Y-48204000D03*
X160599500Y-46934000D03*
X160599500Y-45664000D03*
M02*
