M48
;DRILL file {KiCad 5.0.0} date Sun Oct 14 20:27:51 2018
;FORMAT={-:-/ absolute / inch / decimal}
FMAT,2
INCH,TZ
T1C0.0157
T2C0.0236
T3C0.0250
T4C0.0374
T5C0.0394
T6C0.0512
T7C0.0750
T8C0.1024
T9C0.1260
%
G90
G05
M72
T1
X4.1626Y-3.0653
X4.2145Y-2.7984
X4.2185Y-1.7208
X4.2669Y-2.2059
X4.272Y-2.5488
X4.3019Y-1.9098
X4.3287Y-3.1027
X4.3622Y-2.9059
X4.4201Y-2.1866
X4.5886Y-2.9098
X4.6342Y-1.8606
X4.6618Y-2.3322
X4.7122Y-1.8311
X4.809Y-3.2484
X4.8405Y-1.9728
X4.9311Y-1.8862
X4.9523Y-3.1838
X5.1358Y-1.9295
X5.3248Y-1.961
X5.3366Y-2.0791
X5.3886Y-2.4523
X5.3996Y-1.7996
X5.3996Y-1.8507
X5.3996Y-1.9019
X5.4248Y-3.1567
X5.4649Y-2.8716
X5.4681Y-2.3346
X5.4901Y-3.083
X5.498Y-2.2326
X5.5433Y-2.5051
X5.5807Y-1.9689
X5.6082Y-2.2248
X5.624Y-2.3586
X5.6844Y-2.1113
X5.6909Y-3.2878
X5.7228Y-2.4488
X5.7264Y-3.0555
X5.7295Y-2.7007
X5.7295Y-2.85
X5.8614Y-1.7618
X5.8917Y-2.3429
X5.8956Y-1.7996
X5.8956Y-1.8468
X5.8956Y-1.898
X5.913Y-2.5059
X6.0295Y-1.8468
X6.0374Y-2.9649
X6.1433Y-2.6421
X6.1791Y-2.1224
X6.1795Y-2.4937
X6.2145Y-1.8311
X6.2421Y-1.8704
X6.25Y-1.7878
X6.287Y-3.0307
X6.3523Y-2.3507
X6.3878Y-2.2641
X6.4586Y-2.02
X6.4736Y-3.2122
X6.4834Y-2.5354
X6.4838Y-2.435
X6.5177Y-2.2287
X6.5964Y-2.6578
X6.6535Y-2.9385
X6.6579Y-3.0429
X6.7059Y-2.7409
X6.7067Y-1.9492
X6.7342Y-2.4334
X6.8327Y-2.6819
X7.0177Y-3.2366
X7.0256Y-3.1815
X7.0275Y-2.9069
X7.0453Y-3.2838
X7.0689Y-2.0043
X7.0736Y-2.3047
X7.0768Y-2.398
X7.0862Y-2.5972
X7.1122Y-3.2917
X7.1712Y-3.2838
X7.187Y-3.1775
X7.2264Y-3.2641
X7.2382Y-3.1657
X7.2677Y-2.6287
X7.2815Y-3.2759
X7.2972Y-3.1578
X7.309Y-2.4689
X7.3327Y-2.1303
X7.3405Y-3.2759
X7.3563Y-3.1618
X7.3996Y-3.2641
X7.4153Y-3.1815
X7.4311Y-3.1263
X7.435Y-2.5476
X7.4626Y-3.2563
X7.4783Y-3.0988
X7.5098Y-3.2641
X7.5334Y-3.1067
X7.5531Y-1.9334
X7.5571Y-3.2405
X7.5728Y-3.1421
X7.5807Y-3.1933
X7.7145Y-2.1185
T3
X4.1986Y-1.9957
X4.1986Y-2.0707
X4.2736Y-1.9957
X4.2736Y-2.0707
X4.3486Y-1.9957
X4.3486Y-2.0707
T4
X5.8908Y-3.1776
X5.9893Y-3.1776
X6.0877Y-3.1776
X6.1861Y-3.1776
X4.3268Y-3.176
X4.4252Y-3.176
X4.5236Y-3.176
X4.622Y-3.176
T5
X7.487Y-1.9444
X7.487Y-2.0444
X7.487Y-2.1444
X7.487Y-2.2444
X7.487Y-2.3444
X4.5102Y-2.2838
X4.5102Y-2.3838
X4.5102Y-2.4838
X4.5102Y-2.5838
X4.0713Y-2.5964
X4.0713Y-2.6964
X4.0713Y-2.7964
X4.0713Y-2.8964
X4.9468Y-1.6736
X5.0468Y-1.6736
X5.1468Y-1.6736
X5.2468Y-1.6736
X5.3468Y-1.6736
X5.4468Y-1.6736
X5.5468Y-1.6736
X5.6468Y-1.6736
X5.7468Y-1.6736
X5.8468Y-1.6736
X5.9468Y-1.6736
X6.0468Y-1.6736
X6.1468Y-1.6736
X6.2468Y-1.6736
X6.3468Y-1.6736
X6.4468Y-1.6736
X7.498Y-3.1815
T6
X4.7555Y-2.1043
X5.0555Y-2.9043
X5.1555Y-2.1043
X5.2555Y-2.9043
X5.5555Y-2.1043
T7
X4.0236Y-1.7507
X4.0236Y-1.9607
X4.5236Y-1.7507
X4.5236Y-1.9607
T8
X7.5358Y-2.6405
X7.5358Y-2.8846
T9
X7.7559Y-2.3031
X7.7559Y-3.2283
X4.0551Y-3.2283
X4.0551Y-2.3031
T2
X7.7917Y-2.5126G85X7.7523Y-2.5126
G05
X7.7917Y-3.0126G85X7.7523Y-3.0126
G05
T0
M30
