%TF.GenerationSoftware,KiCad,Pcbnew,5.0.0*%
%TF.CreationDate,2018-10-14T20:27:49+02:00*%
%TF.ProjectId,TranspOtterNG,5472616E73704F747465724E472E6B69,rev?*%
%TF.SameCoordinates,Original*%
%TF.FileFunction,Soldermask,Bot*%
%TF.FilePolarity,Negative*%
%FSLAX46Y46*%
G04 Gerber Fmt 4.6, Leading zero omitted, Abs format (unit mm)*
G04 Created by KiCad (PCBNEW 5.0.0) date Sun Oct 14 20:27:49 2018*
%MOMM*%
%LPD*%
G01*
G04 APERTURE LIST*
%ADD10C,4.400000*%
%ADD11O,2.900000X1.900000*%
%ADD12R,2.100000X2.350000*%
%ADD13O,2.100000X2.350000*%
%ADD14R,2.100000X2.100000*%
%ADD15O,2.100000X2.100000*%
%ADD16C,3.600000*%
%ADD17C,2.400000*%
%ADD18C,2.940000*%
%ADD19R,1.670000X1.670000*%
%ADD20C,1.670000*%
%ADD21C,3.448000*%
G04 APERTURE END LIST*
D10*
X191409500Y-73269000D03*
X191409500Y-67069000D03*
D11*
X197409500Y-76519000D03*
X197409500Y-63819000D03*
D12*
X109899700Y-80671400D03*
D13*
X112399700Y-80671400D03*
X114899700Y-80671400D03*
X117399700Y-80671400D03*
X157127500Y-80711600D03*
X154627500Y-80711600D03*
X152127500Y-80711600D03*
D12*
X149627500Y-80711600D03*
D14*
X190169500Y-49389000D03*
D15*
X190169500Y-51929000D03*
X190169500Y-54469000D03*
X190169500Y-57009000D03*
X190169500Y-59549000D03*
D16*
X197000000Y-82000000D03*
X197000000Y-58500000D03*
X103000000Y-82000000D03*
X103000000Y-58500000D03*
D17*
X190449500Y-80809000D03*
D18*
X128409500Y-73769000D03*
X133489500Y-73769000D03*
X141109500Y-53449000D03*
X130949500Y-53449000D03*
X120789500Y-53449000D03*
D14*
X125649500Y-42509000D03*
D15*
X128189500Y-42509000D03*
X130729500Y-42509000D03*
X133269500Y-42509000D03*
X135809500Y-42509000D03*
X138349500Y-42509000D03*
X140889500Y-42509000D03*
X143429500Y-42509000D03*
X145969500Y-42509000D03*
X148509500Y-42509000D03*
X151049500Y-42509000D03*
X153589500Y-42509000D03*
X156129500Y-42509000D03*
X158669500Y-42509000D03*
X161209500Y-42509000D03*
X163749500Y-42509000D03*
D19*
X110454500Y-52597000D03*
D20*
X110454500Y-50692000D03*
X108549500Y-52597000D03*
X108549500Y-50692000D03*
X106644500Y-52597000D03*
X106644500Y-50692000D03*
D21*
X114899500Y-49803000D03*
X102199500Y-44469000D03*
X114899500Y-44469000D03*
X102199500Y-49803000D03*
D14*
X103410500Y-73568500D03*
D15*
X103410500Y-71028500D03*
X103410500Y-68488500D03*
X103410500Y-65948500D03*
D14*
X114559500Y-65629000D03*
D15*
X114559500Y-63089000D03*
X114559500Y-60549000D03*
X114559500Y-58009000D03*
M02*
