%TF.GenerationSoftware,KiCad,Pcbnew,5.0.0*%
%TF.CreationDate,2018-10-14T20:27:49+02:00*%
%TF.ProjectId,TranspOtterNG,5472616E73704F747465724E472E6B69,rev?*%
%TF.SameCoordinates,Original*%
%TF.FileFunction,Copper,L2,Bot,Signal*%
%TF.FilePolarity,Positive*%
%FSLAX46Y46*%
G04 Gerber Fmt 4.6, Leading zero omitted, Abs format (unit mm)*
G04 Created by KiCad (PCBNEW 5.0.0) date Sun Oct 14 20:27:49 2018*
%MOMM*%
%LPD*%
G01*
G04 APERTURE LIST*
%ADD10C,4.000000*%
%ADD11O,2.500000X1.500000*%
%ADD12R,1.700000X1.950000*%
%ADD13O,1.700000X1.950000*%
%ADD14R,1.700000X1.700000*%
%ADD15O,1.700000X1.700000*%
%ADD16C,2.000000*%
%ADD17C,2.540000*%
%ADD18R,1.270000X1.270000*%
%ADD19C,1.270000*%
%ADD20C,3.048000*%
%ADD21C,0.800000*%
%ADD22C,0.800000*%
%ADD23C,0.300000*%
%ADD24C,1.000000*%
%ADD25C,1.200000*%
%ADD26C,0.254000*%
G04 APERTURE END LIST*
D10*
X191409500Y-73269000D03*
X191409500Y-67069000D03*
D11*
X197409500Y-76519000D03*
X197409500Y-63819000D03*
D12*
X109899700Y-80671400D03*
D13*
X112399700Y-80671400D03*
X114899700Y-80671400D03*
X117399700Y-80671400D03*
X157127500Y-80711600D03*
X154627500Y-80711600D03*
X152127500Y-80711600D03*
D12*
X149627500Y-80711600D03*
D14*
X190169500Y-49389000D03*
D15*
X190169500Y-51929000D03*
X190169500Y-54469000D03*
X190169500Y-57009000D03*
X190169500Y-59549000D03*
D16*
X190449500Y-80809000D03*
D17*
X128409500Y-73769000D03*
X133489500Y-73769000D03*
X141109500Y-53449000D03*
X130949500Y-53449000D03*
X120789500Y-53449000D03*
D14*
X125649500Y-42509000D03*
D15*
X128189500Y-42509000D03*
X130729500Y-42509000D03*
X133269500Y-42509000D03*
X135809500Y-42509000D03*
X138349500Y-42509000D03*
X140889500Y-42509000D03*
X143429500Y-42509000D03*
X145969500Y-42509000D03*
X148509500Y-42509000D03*
X151049500Y-42509000D03*
X153589500Y-42509000D03*
X156129500Y-42509000D03*
X158669500Y-42509000D03*
X161209500Y-42509000D03*
X163749500Y-42509000D03*
D18*
X110454500Y-52597000D03*
D19*
X110454500Y-50692000D03*
X108549500Y-52597000D03*
X108549500Y-50692000D03*
X106644500Y-52597000D03*
X106644500Y-50692000D03*
D20*
X114899500Y-49803000D03*
X102199500Y-44469000D03*
X114899500Y-44469000D03*
X102199500Y-49803000D03*
D14*
X103410500Y-73568500D03*
D15*
X103410500Y-71028500D03*
X103410500Y-68488500D03*
X103410500Y-65948500D03*
D14*
X114559500Y-65629000D03*
D15*
X114559500Y-63089000D03*
X114559500Y-60549000D03*
X114559500Y-58009000D03*
D21*
X188349500Y-80809000D03*
X188749500Y-79409000D03*
X189949500Y-78709000D03*
X191349500Y-78909000D03*
X192349500Y-79809000D03*
X192549500Y-81109000D03*
X191949500Y-82309000D03*
X190749500Y-82909000D03*
X189549500Y-82709000D03*
X186849500Y-80309000D03*
X185349500Y-80209000D03*
X183849500Y-80409000D03*
X187949500Y-82909000D03*
X186449500Y-83209000D03*
X184949500Y-83209000D03*
X183549500Y-82909000D03*
X182149500Y-83409000D03*
X182549500Y-80709000D03*
X178449500Y-80809000D03*
X178249500Y-82209000D03*
X178949500Y-83409000D03*
X180649500Y-83609000D03*
X148879500Y-44749000D03*
X184599500Y-66769000D03*
X179989500Y-65969000D03*
X109269500Y-48509000D03*
X108379500Y-56029000D03*
X112269500Y-55539000D03*
X108509500Y-64739000D03*
X105729500Y-77859000D03*
X125789500Y-80869000D03*
X137789500Y-80179000D03*
X159689500Y-76979000D03*
X156039500Y-67109000D03*
X145529500Y-68599000D03*
X145529500Y-72389000D03*
X145359500Y-62199000D03*
X136869500Y-62289000D03*
X138809500Y-72939000D03*
X164679500Y-64399000D03*
X173549500Y-68119000D03*
X170329500Y-69619000D03*
X169109500Y-77289000D03*
X168999500Y-74639000D03*
X164429500Y-81589000D03*
X186249500Y-54109000D03*
X191849500Y-49109000D03*
X144384943Y-53627022D03*
X122949500Y-50109000D03*
X125249500Y-47909000D03*
X130449500Y-49009000D03*
X135549500Y-52809000D03*
X135249500Y-49809000D03*
X153149500Y-46909000D03*
X158749500Y-45409000D03*
X156949500Y-53909000D03*
X139649500Y-56709000D03*
X142449500Y-56509000D03*
X142849500Y-59909000D03*
X171049500Y-61809000D03*
X179749500Y-60909000D03*
X185649500Y-62709000D03*
X188849500Y-64709000D03*
X179549500Y-50909000D03*
X195949500Y-53809000D03*
X145449500Y-77609000D03*
X144549500Y-83509000D03*
X122149500Y-82509000D03*
X107149500Y-43709000D03*
X165549500Y-56609000D03*
X164049500Y-51309000D03*
X170349500Y-49509000D03*
X167549500Y-67509000D03*
X149649500Y-59509000D03*
X161349500Y-59709000D03*
X162249500Y-57509000D03*
X153349500Y-75309000D03*
X116549500Y-73909000D03*
X109949500Y-78809000D03*
X178499498Y-73834000D03*
X150189501Y-63648999D03*
X164689500Y-61849000D03*
X140799500Y-63629000D03*
X156959500Y-63339000D03*
X107049500Y-71079000D03*
X119689500Y-46508999D03*
X157849500Y-46509000D03*
X110799500Y-73809000D03*
X117709500Y-47259000D03*
X158549500Y-47509000D03*
X139449500Y-78309000D03*
X141749500Y-50009000D03*
X149749500Y-45709000D03*
X137149500Y-45709000D03*
X149749500Y-46909000D03*
X137149500Y-47009000D03*
X149749500Y-48209000D03*
X137149500Y-48309000D03*
X179668500Y-58540000D03*
X118409500Y-59239000D03*
X138889500Y-59299000D03*
D22*
X150159502Y-63619000D02*
X150189501Y-63648999D01*
X178499498Y-73834000D02*
X176674500Y-73834000D01*
X165089499Y-62248999D02*
X164689500Y-61849000D01*
X176674500Y-73834000D02*
X165089499Y-62248999D01*
X150189501Y-63648999D02*
X140819499Y-63648999D01*
X140819499Y-63648999D02*
X140799500Y-63629000D01*
X164689500Y-61849000D02*
X158449500Y-61849000D01*
X158449500Y-61849000D02*
X156959500Y-63339000D01*
D23*
X106644500Y-52597000D02*
X106644500Y-70674000D01*
X106649501Y-70679001D02*
X107049500Y-71079000D01*
X106644500Y-70674000D02*
X106649501Y-70679001D01*
X105059500Y-49609000D02*
X105059500Y-51012000D01*
X105059500Y-51012000D02*
X106009501Y-51962001D01*
X106009501Y-51962001D02*
X106644500Y-52597000D01*
X108159501Y-46508999D02*
X105059500Y-49609000D01*
X119689500Y-46508999D02*
X108159501Y-46508999D01*
X122199499Y-46508999D02*
X119689500Y-46508999D01*
X126599500Y-50909000D02*
X122199499Y-46508999D01*
X157849500Y-46509000D02*
X153449500Y-50909000D01*
X153449500Y-50909000D02*
X126599500Y-50909000D01*
X111132500Y-50692000D02*
X110454500Y-50692000D01*
X111824500Y-53459000D02*
X111824500Y-51384000D01*
X111824500Y-51384000D02*
X111132500Y-50692000D01*
X110799500Y-73809000D02*
X110799500Y-54484000D01*
X110799500Y-54484000D02*
X111824500Y-53459000D01*
X126337501Y-51677001D02*
X121919500Y-47259000D01*
X113887500Y-47259000D02*
X110454500Y-50692000D01*
X117709500Y-47259000D02*
X113887500Y-47259000D01*
X121919500Y-47259000D02*
X117709500Y-47259000D01*
X158549500Y-47509000D02*
X154381499Y-51677001D01*
X154381499Y-51677001D02*
X126337501Y-51677001D01*
D24*
X161209500Y-46749000D02*
X161209500Y-43711081D01*
X143827539Y-52527012D02*
X155431488Y-52527012D01*
X161209500Y-43711081D02*
X161209500Y-42509000D01*
X141109500Y-53449000D02*
X142905551Y-53449000D01*
X142905551Y-53449000D02*
X143827539Y-52527012D01*
X155431488Y-52527012D02*
X161209500Y-46749000D01*
D23*
X162720000Y-50564500D02*
X164220000Y-49064500D01*
D25*
X142149500Y-78309000D02*
X139449500Y-78309000D01*
X173049500Y-83209000D02*
X147049500Y-83209000D01*
X147049500Y-83209000D02*
X142149500Y-78309000D01*
X191349500Y-66609000D02*
X189649500Y-66609000D01*
X189649500Y-66609000D02*
X173049500Y-83209000D01*
D22*
X190949500Y-66609000D02*
X191409500Y-67069000D01*
X189649500Y-66609000D02*
X190949500Y-66609000D01*
D23*
X137549500Y-50009000D02*
X141749500Y-50009000D01*
X136249500Y-48709000D02*
X137549500Y-50009000D01*
X138349500Y-42509000D02*
X136249500Y-44609000D01*
X136249500Y-44609000D02*
X136249500Y-48709000D01*
X149649500Y-45709000D02*
X137149500Y-45709000D01*
X149649500Y-46909000D02*
X137249500Y-46909000D01*
X137249500Y-46909000D02*
X137149500Y-47009000D01*
X149649500Y-48209000D02*
X137249500Y-48209000D01*
X137249500Y-48209000D02*
X137149500Y-48309000D01*
X118409500Y-59239000D02*
X114559500Y-63089000D01*
X139648500Y-58540000D02*
X179668500Y-58540000D01*
X138889500Y-59299000D02*
X139648500Y-58540000D01*
D26*
G36*
X165993500Y-40464938D02*
X165993501Y-46864152D01*
X165984568Y-46909124D01*
X166002491Y-46999103D01*
X166019959Y-47086922D01*
X166019993Y-47086973D01*
X166020006Y-47087037D01*
X166070966Y-47163259D01*
X166120744Y-47237757D01*
X166120797Y-47237792D01*
X166120832Y-47237845D01*
X166195445Y-47287670D01*
X166271579Y-47338542D01*
X166271643Y-47338555D01*
X166271694Y-47338589D01*
X166359280Y-47355987D01*
X166449500Y-47373933D01*
X166494470Y-47364988D01*
X199544000Y-47356121D01*
X199544001Y-84544000D01*
X100456000Y-84544000D01*
X100456000Y-81605955D01*
X101019000Y-81605955D01*
X101019000Y-82394045D01*
X101320589Y-83122146D01*
X101877854Y-83679411D01*
X102605955Y-83981000D01*
X103394045Y-83981000D01*
X104122146Y-83679411D01*
X104679411Y-83122146D01*
X104981000Y-82394045D01*
X104981000Y-81605955D01*
X104679411Y-80877854D01*
X104122146Y-80320589D01*
X103394045Y-80019000D01*
X102605955Y-80019000D01*
X101877854Y-80320589D01*
X101320589Y-80877854D01*
X101019000Y-81605955D01*
X100456000Y-81605955D01*
X100456000Y-79696400D01*
X108661236Y-79696400D01*
X108661236Y-81646400D01*
X108690806Y-81795059D01*
X108775014Y-81921086D01*
X108901041Y-82005294D01*
X109049700Y-82034864D01*
X110749700Y-82034864D01*
X110898359Y-82005294D01*
X111024386Y-81921086D01*
X111108594Y-81795059D01*
X111138164Y-81646400D01*
X111138164Y-80425162D01*
X111168700Y-80425162D01*
X111168700Y-80917639D01*
X111240124Y-81276712D01*
X111512200Y-81683901D01*
X111919389Y-81955976D01*
X112399700Y-82051516D01*
X112880012Y-81955976D01*
X113287201Y-81683901D01*
X113559276Y-81276711D01*
X113630700Y-80917638D01*
X113630700Y-80425162D01*
X113668700Y-80425162D01*
X113668700Y-80917639D01*
X113740124Y-81276712D01*
X114012200Y-81683901D01*
X114419389Y-81955976D01*
X114899700Y-82051516D01*
X115380012Y-81955976D01*
X115787201Y-81683901D01*
X116036921Y-81310168D01*
X116134647Y-81573971D01*
X116528507Y-81998897D01*
X117042810Y-82237876D01*
X117272700Y-82116555D01*
X117272700Y-80798400D01*
X117526700Y-80798400D01*
X117526700Y-82116555D01*
X117756590Y-82237876D01*
X118270893Y-81998897D01*
X118664753Y-81573971D01*
X118866020Y-81030667D01*
X118725865Y-80798400D01*
X117526700Y-80798400D01*
X117272700Y-80798400D01*
X117252700Y-80798400D01*
X117252700Y-80544400D01*
X117272700Y-80544400D01*
X117272700Y-79226245D01*
X117526700Y-79226245D01*
X117526700Y-80544400D01*
X118725865Y-80544400D01*
X118866020Y-80312133D01*
X118664753Y-79768829D01*
X118270893Y-79343903D01*
X117756590Y-79104924D01*
X117526700Y-79226245D01*
X117272700Y-79226245D01*
X117042810Y-79104924D01*
X116528507Y-79343903D01*
X116134647Y-79768829D01*
X116036921Y-80032632D01*
X115787201Y-79658899D01*
X115380011Y-79386824D01*
X114899700Y-79291284D01*
X114419388Y-79386824D01*
X114012199Y-79658899D01*
X113740124Y-80066089D01*
X113668700Y-80425162D01*
X113630700Y-80425162D01*
X113630700Y-80425161D01*
X113559276Y-80066088D01*
X113287201Y-79658899D01*
X112880011Y-79386824D01*
X112399700Y-79291284D01*
X111919388Y-79386824D01*
X111512199Y-79658899D01*
X111240124Y-80066089D01*
X111168700Y-80425162D01*
X111138164Y-80425162D01*
X111138164Y-79696400D01*
X111108594Y-79547741D01*
X111024386Y-79421714D01*
X110898359Y-79337506D01*
X110749700Y-79307936D01*
X109049700Y-79307936D01*
X108901041Y-79337506D01*
X108775014Y-79421714D01*
X108690806Y-79547741D01*
X108661236Y-79696400D01*
X100456000Y-79696400D01*
X100456000Y-78309000D01*
X138449282Y-78309000D01*
X138525419Y-78691767D01*
X138742239Y-79016261D01*
X139066733Y-79233081D01*
X139352884Y-79290000D01*
X141743158Y-79290000D01*
X146287511Y-83834355D01*
X146342239Y-83916261D01*
X146666733Y-84133081D01*
X146952884Y-84190000D01*
X146952889Y-84190000D01*
X147049499Y-84209217D01*
X147146109Y-84190000D01*
X172952885Y-84190000D01*
X173049500Y-84209218D01*
X173146115Y-84190000D01*
X173146116Y-84190000D01*
X173432267Y-84133081D01*
X173756761Y-83916261D01*
X173811493Y-83834349D01*
X177111540Y-80534302D01*
X189068500Y-80534302D01*
X189068500Y-81083698D01*
X189278745Y-81591273D01*
X189667227Y-81979755D01*
X190174802Y-82190000D01*
X190724198Y-82190000D01*
X191231773Y-81979755D01*
X191605573Y-81605955D01*
X195019000Y-81605955D01*
X195019000Y-82394045D01*
X195320589Y-83122146D01*
X195877854Y-83679411D01*
X196605955Y-83981000D01*
X197394045Y-83981000D01*
X198122146Y-83679411D01*
X198679411Y-83122146D01*
X198981000Y-82394045D01*
X198981000Y-81605955D01*
X198679411Y-80877854D01*
X198122146Y-80320589D01*
X197394045Y-80019000D01*
X196605955Y-80019000D01*
X195877854Y-80320589D01*
X195320589Y-80877854D01*
X195019000Y-81605955D01*
X191605573Y-81605955D01*
X191620255Y-81591273D01*
X191830500Y-81083698D01*
X191830500Y-80534302D01*
X191620255Y-80026727D01*
X191231773Y-79638245D01*
X190724198Y-79428000D01*
X190174802Y-79428000D01*
X189667227Y-79638245D01*
X189278745Y-80026727D01*
X189068500Y-80534302D01*
X177111540Y-80534302D01*
X181126842Y-76519000D01*
X195756343Y-76519000D01*
X195844122Y-76960294D01*
X196094095Y-77334405D01*
X196468206Y-77584378D01*
X196798109Y-77650000D01*
X198020891Y-77650000D01*
X198350794Y-77584378D01*
X198724905Y-77334405D01*
X198974878Y-76960294D01*
X199062657Y-76519000D01*
X198974878Y-76077706D01*
X198724905Y-75703595D01*
X198350794Y-75453622D01*
X198020891Y-75388000D01*
X196798109Y-75388000D01*
X196468206Y-75453622D01*
X196094095Y-75703595D01*
X195844122Y-76077706D01*
X195756343Y-76519000D01*
X181126842Y-76519000D01*
X182501820Y-75144022D01*
X189714084Y-75144022D01*
X189934853Y-75514743D01*
X190906512Y-75908119D01*
X191954747Y-75899713D01*
X192884147Y-75514743D01*
X193104916Y-75144022D01*
X191409500Y-73448605D01*
X189714084Y-75144022D01*
X182501820Y-75144022D01*
X184879831Y-72766012D01*
X188770381Y-72766012D01*
X188778787Y-73814247D01*
X189163757Y-74743647D01*
X189534478Y-74964416D01*
X191229895Y-73269000D01*
X191589105Y-73269000D01*
X193284522Y-74964416D01*
X193655243Y-74743647D01*
X194048619Y-73771988D01*
X194040213Y-72723753D01*
X193655243Y-71794353D01*
X193284522Y-71573584D01*
X191589105Y-73269000D01*
X191229895Y-73269000D01*
X189534478Y-71573584D01*
X189163757Y-71794353D01*
X188770381Y-72766012D01*
X184879831Y-72766012D01*
X186251865Y-71393978D01*
X189714084Y-71393978D01*
X191409500Y-73089395D01*
X193104916Y-71393978D01*
X192884147Y-71023257D01*
X191912488Y-70629881D01*
X190864253Y-70638287D01*
X189934853Y-71023257D01*
X189714084Y-71393978D01*
X186251865Y-71393978D01*
X189343282Y-68302562D01*
X189390985Y-68417728D01*
X190060772Y-69087515D01*
X190935890Y-69450000D01*
X191883110Y-69450000D01*
X192758228Y-69087515D01*
X193428015Y-68417728D01*
X193790500Y-67542610D01*
X193790500Y-66595390D01*
X193428015Y-65720272D01*
X192758228Y-65050485D01*
X191883110Y-64688000D01*
X190935890Y-64688000D01*
X190060772Y-65050485D01*
X189465968Y-65645289D01*
X189266733Y-65684919D01*
X188942239Y-65901739D01*
X188887511Y-65983645D01*
X172643158Y-82228000D01*
X157592158Y-82228000D01*
X157998693Y-82039097D01*
X158392553Y-81614171D01*
X158593820Y-81070867D01*
X158453665Y-80838600D01*
X157254500Y-80838600D01*
X157254500Y-80858600D01*
X157000500Y-80858600D01*
X157000500Y-80838600D01*
X156980500Y-80838600D01*
X156980500Y-80584600D01*
X157000500Y-80584600D01*
X157000500Y-79266445D01*
X157254500Y-79266445D01*
X157254500Y-80584600D01*
X158453665Y-80584600D01*
X158593820Y-80352333D01*
X158392553Y-79809029D01*
X157998693Y-79384103D01*
X157484390Y-79145124D01*
X157254500Y-79266445D01*
X157000500Y-79266445D01*
X156770610Y-79145124D01*
X156256307Y-79384103D01*
X155862447Y-79809029D01*
X155764721Y-80072832D01*
X155515001Y-79699099D01*
X155107811Y-79427024D01*
X154627500Y-79331484D01*
X154147188Y-79427024D01*
X153739999Y-79699099D01*
X153467924Y-80106289D01*
X153396500Y-80465362D01*
X153396500Y-80957839D01*
X153467924Y-81316912D01*
X153740000Y-81724101D01*
X154147189Y-81996176D01*
X154627500Y-82091716D01*
X155107812Y-81996176D01*
X155515001Y-81724101D01*
X155764721Y-81350368D01*
X155862447Y-81614171D01*
X156256307Y-82039097D01*
X156662842Y-82228000D01*
X147455844Y-82228000D01*
X144964443Y-79736600D01*
X148389036Y-79736600D01*
X148389036Y-81686600D01*
X148418606Y-81835259D01*
X148502814Y-81961286D01*
X148628841Y-82045494D01*
X148777500Y-82075064D01*
X150477500Y-82075064D01*
X150626159Y-82045494D01*
X150752186Y-81961286D01*
X150836394Y-81835259D01*
X150865964Y-81686600D01*
X150865964Y-80465362D01*
X150896500Y-80465362D01*
X150896500Y-80957839D01*
X150967924Y-81316912D01*
X151240000Y-81724101D01*
X151647189Y-81996176D01*
X152127500Y-82091716D01*
X152607812Y-81996176D01*
X153015001Y-81724101D01*
X153287076Y-81316911D01*
X153358500Y-80957838D01*
X153358500Y-80465361D01*
X153287076Y-80106288D01*
X153015001Y-79699099D01*
X152607811Y-79427024D01*
X152127500Y-79331484D01*
X151647188Y-79427024D01*
X151239999Y-79699099D01*
X150967924Y-80106289D01*
X150896500Y-80465362D01*
X150865964Y-80465362D01*
X150865964Y-79736600D01*
X150836394Y-79587941D01*
X150752186Y-79461914D01*
X150626159Y-79377706D01*
X150477500Y-79348136D01*
X148777500Y-79348136D01*
X148628841Y-79377706D01*
X148502814Y-79461914D01*
X148418606Y-79587941D01*
X148389036Y-79736600D01*
X144964443Y-79736600D01*
X142911492Y-77683650D01*
X142856761Y-77601739D01*
X142532267Y-77384919D01*
X142246116Y-77328000D01*
X142246115Y-77328000D01*
X142149500Y-77308782D01*
X142052885Y-77328000D01*
X139352884Y-77328000D01*
X139066733Y-77384919D01*
X138742239Y-77601739D01*
X138525419Y-77926233D01*
X138449282Y-78309000D01*
X100456000Y-78309000D01*
X100456000Y-75116777D01*
X127241328Y-75116777D01*
X127373020Y-75411657D01*
X128080536Y-75683261D01*
X128838132Y-75663436D01*
X129445980Y-75411657D01*
X129577672Y-75116777D01*
X128409500Y-73948605D01*
X127241328Y-75116777D01*
X100456000Y-75116777D01*
X100456000Y-73854250D01*
X101925500Y-73854250D01*
X101925500Y-74544810D01*
X102022173Y-74778199D01*
X102200802Y-74956827D01*
X102434191Y-75053500D01*
X103124750Y-75053500D01*
X103283500Y-74894750D01*
X103283500Y-73695500D01*
X103537500Y-73695500D01*
X103537500Y-74894750D01*
X103696250Y-75053500D01*
X104386809Y-75053500D01*
X104620198Y-74956827D01*
X104798827Y-74778199D01*
X104895500Y-74544810D01*
X104895500Y-73854250D01*
X104736750Y-73695500D01*
X103537500Y-73695500D01*
X103283500Y-73695500D01*
X102084250Y-73695500D01*
X101925500Y-73854250D01*
X100456000Y-73854250D01*
X100456000Y-72592190D01*
X101925500Y-72592190D01*
X101925500Y-73282750D01*
X102084250Y-73441500D01*
X103283500Y-73441500D01*
X103283500Y-73421500D01*
X103537500Y-73421500D01*
X103537500Y-73441500D01*
X104736750Y-73441500D01*
X104895500Y-73282750D01*
X104895500Y-72592190D01*
X104798827Y-72358801D01*
X104620198Y-72180173D01*
X104386809Y-72083500D01*
X104047321Y-72083500D01*
X104298001Y-71916001D01*
X104570076Y-71508812D01*
X104665616Y-71028500D01*
X104570076Y-70548188D01*
X104298001Y-70140999D01*
X103890812Y-69868924D01*
X103531739Y-69797500D01*
X103289261Y-69797500D01*
X102930188Y-69868924D01*
X102522999Y-70140999D01*
X102250924Y-70548188D01*
X102155384Y-71028500D01*
X102250924Y-71508812D01*
X102522999Y-71916001D01*
X102773679Y-72083500D01*
X102434191Y-72083500D01*
X102200802Y-72180173D01*
X102022173Y-72358801D01*
X101925500Y-72592190D01*
X100456000Y-72592190D01*
X100456000Y-68488500D01*
X102155384Y-68488500D01*
X102250924Y-68968812D01*
X102522999Y-69376001D01*
X102930188Y-69648076D01*
X103289261Y-69719500D01*
X103531739Y-69719500D01*
X103890812Y-69648076D01*
X104298001Y-69376001D01*
X104570076Y-68968812D01*
X104665616Y-68488500D01*
X104570076Y-68008188D01*
X104298001Y-67600999D01*
X103890812Y-67328924D01*
X103531739Y-67257500D01*
X103289261Y-67257500D01*
X102930188Y-67328924D01*
X102522999Y-67600999D01*
X102250924Y-68008188D01*
X102155384Y-68488500D01*
X100456000Y-68488500D01*
X100456000Y-65948500D01*
X102155384Y-65948500D01*
X102250924Y-66428812D01*
X102522999Y-66836001D01*
X102930188Y-67108076D01*
X103289261Y-67179500D01*
X103531739Y-67179500D01*
X103890812Y-67108076D01*
X104298001Y-66836001D01*
X104570076Y-66428812D01*
X104665616Y-65948500D01*
X104570076Y-65468188D01*
X104298001Y-65060999D01*
X103890812Y-64788924D01*
X103531739Y-64717500D01*
X103289261Y-64717500D01*
X102930188Y-64788924D01*
X102522999Y-65060999D01*
X102250924Y-65468188D01*
X102155384Y-65948500D01*
X100456000Y-65948500D01*
X100456000Y-58105955D01*
X101019000Y-58105955D01*
X101019000Y-58894045D01*
X101320589Y-59622146D01*
X101877854Y-60179411D01*
X102605955Y-60481000D01*
X103394045Y-60481000D01*
X104122146Y-60179411D01*
X104679411Y-59622146D01*
X104981000Y-58894045D01*
X104981000Y-58105955D01*
X104679411Y-57377854D01*
X104122146Y-56820589D01*
X103394045Y-56519000D01*
X102605955Y-56519000D01*
X101877854Y-56820589D01*
X101320589Y-57377854D01*
X101019000Y-58105955D01*
X100456000Y-58105955D01*
X100456000Y-50571824D01*
X100584519Y-50882096D01*
X101120404Y-51417981D01*
X101820572Y-51708000D01*
X102578428Y-51708000D01*
X103278596Y-51417981D01*
X103814481Y-50882096D01*
X104104500Y-50181928D01*
X104104500Y-49609000D01*
X104518099Y-49609000D01*
X104528500Y-49661291D01*
X104528501Y-50959705D01*
X104518099Y-51012000D01*
X104559310Y-51219185D01*
X104647049Y-51350496D01*
X104647051Y-51350498D01*
X104676672Y-51394829D01*
X104721003Y-51424450D01*
X105646940Y-52350387D01*
X105628500Y-52394905D01*
X105628500Y-52799095D01*
X105783176Y-53172518D01*
X106068982Y-53458324D01*
X106113500Y-53476764D01*
X106113501Y-70621705D01*
X106103099Y-70674000D01*
X106144310Y-70881185D01*
X106232049Y-71012496D01*
X106232051Y-71012498D01*
X106261672Y-71056829D01*
X106268500Y-71061391D01*
X106268500Y-71234351D01*
X106387400Y-71521401D01*
X106607099Y-71741100D01*
X106894149Y-71860000D01*
X107204851Y-71860000D01*
X107491901Y-71741100D01*
X107711600Y-71521401D01*
X107830500Y-71234351D01*
X107830500Y-70923649D01*
X107711600Y-70636599D01*
X107491901Y-70416900D01*
X107204851Y-70298000D01*
X107175500Y-70298000D01*
X107175500Y-53476764D01*
X107220018Y-53458324D01*
X107505824Y-53172518D01*
X107597000Y-52952398D01*
X107688176Y-53172518D01*
X107973982Y-53458324D01*
X108347405Y-53613000D01*
X108751595Y-53613000D01*
X109125018Y-53458324D01*
X109410824Y-53172518D01*
X109431036Y-53123722D01*
X109431036Y-53232000D01*
X109460606Y-53380659D01*
X109544814Y-53506686D01*
X109670841Y-53590894D01*
X109819500Y-53620464D01*
X110912089Y-53620464D01*
X110461003Y-54071550D01*
X110416672Y-54101171D01*
X110387051Y-54145502D01*
X110387049Y-54145504D01*
X110299310Y-54276815D01*
X110258099Y-54484000D01*
X110268501Y-54536295D01*
X110268500Y-73235499D01*
X110137400Y-73366599D01*
X110018500Y-73653649D01*
X110018500Y-73964351D01*
X110137400Y-74251401D01*
X110357099Y-74471100D01*
X110644149Y-74590000D01*
X110954851Y-74590000D01*
X111241901Y-74471100D01*
X111461600Y-74251401D01*
X111580500Y-73964351D01*
X111580500Y-73653649D01*
X111492019Y-73440036D01*
X126495239Y-73440036D01*
X126515064Y-74197632D01*
X126766843Y-74805480D01*
X127061723Y-74937172D01*
X128229895Y-73769000D01*
X128589105Y-73769000D01*
X129757277Y-74937172D01*
X130052157Y-74805480D01*
X130323761Y-74097964D01*
X130306559Y-73440596D01*
X131838500Y-73440596D01*
X131838500Y-74097404D01*
X132089850Y-74704216D01*
X132554284Y-75168650D01*
X133161096Y-75420000D01*
X133817904Y-75420000D01*
X134424716Y-75168650D01*
X134889150Y-74704216D01*
X135140500Y-74097404D01*
X135140500Y-73440596D01*
X134889150Y-72833784D01*
X134424716Y-72369350D01*
X133817904Y-72118000D01*
X133161096Y-72118000D01*
X132554284Y-72369350D01*
X132089850Y-72833784D01*
X131838500Y-73440596D01*
X130306559Y-73440596D01*
X130303936Y-73340368D01*
X130052157Y-72732520D01*
X129757277Y-72600828D01*
X128589105Y-73769000D01*
X128229895Y-73769000D01*
X127061723Y-72600828D01*
X126766843Y-72732520D01*
X126495239Y-73440036D01*
X111492019Y-73440036D01*
X111461600Y-73366599D01*
X111330500Y-73235499D01*
X111330500Y-72421223D01*
X127241328Y-72421223D01*
X128409500Y-73589395D01*
X129577672Y-72421223D01*
X129445980Y-72126343D01*
X128738464Y-71854739D01*
X127980868Y-71874564D01*
X127373020Y-72126343D01*
X127241328Y-72421223D01*
X111330500Y-72421223D01*
X111330500Y-65914750D01*
X113074500Y-65914750D01*
X113074500Y-66605310D01*
X113171173Y-66838699D01*
X113349802Y-67017327D01*
X113583191Y-67114000D01*
X114273750Y-67114000D01*
X114432500Y-66955250D01*
X114432500Y-65756000D01*
X114686500Y-65756000D01*
X114686500Y-66955250D01*
X114845250Y-67114000D01*
X115535809Y-67114000D01*
X115769198Y-67017327D01*
X115947827Y-66838699D01*
X116044500Y-66605310D01*
X116044500Y-65914750D01*
X115885750Y-65756000D01*
X114686500Y-65756000D01*
X114432500Y-65756000D01*
X113233250Y-65756000D01*
X113074500Y-65914750D01*
X111330500Y-65914750D01*
X111330500Y-64652690D01*
X113074500Y-64652690D01*
X113074500Y-65343250D01*
X113233250Y-65502000D01*
X114432500Y-65502000D01*
X114432500Y-65482000D01*
X114686500Y-65482000D01*
X114686500Y-65502000D01*
X115885750Y-65502000D01*
X116044500Y-65343250D01*
X116044500Y-64652690D01*
X115947827Y-64419301D01*
X115769198Y-64240673D01*
X115535809Y-64144000D01*
X115196321Y-64144000D01*
X115447001Y-63976501D01*
X115679193Y-63629000D01*
X140003201Y-63629000D01*
X140018500Y-63705914D01*
X140018500Y-63784351D01*
X140048516Y-63856816D01*
X140063815Y-63933730D01*
X140107384Y-63998935D01*
X140137400Y-64071401D01*
X140212860Y-64146861D01*
X140256430Y-64212068D01*
X140321637Y-64255638D01*
X140357099Y-64291100D01*
X140403432Y-64310292D01*
X140514768Y-64384684D01*
X140742581Y-64429999D01*
X140742585Y-64429999D01*
X140819499Y-64445298D01*
X140896413Y-64429999D01*
X150112587Y-64429999D01*
X150189501Y-64445298D01*
X150266415Y-64429999D01*
X150344852Y-64429999D01*
X150417315Y-64399984D01*
X150494232Y-64384684D01*
X150559439Y-64341114D01*
X150631902Y-64311099D01*
X150687363Y-64255638D01*
X150752570Y-64212068D01*
X150796140Y-64146861D01*
X150851601Y-64091400D01*
X150881616Y-64018937D01*
X150925186Y-63953730D01*
X150940486Y-63876813D01*
X150970501Y-63804350D01*
X150970501Y-63725917D01*
X150985801Y-63648999D01*
X150970501Y-63572081D01*
X150970501Y-63493648D01*
X150940486Y-63421185D01*
X150925186Y-63344268D01*
X150921667Y-63339000D01*
X156163201Y-63339000D01*
X156178500Y-63415914D01*
X156178500Y-63494351D01*
X156208516Y-63566816D01*
X156223815Y-63643730D01*
X156267384Y-63708936D01*
X156297400Y-63781401D01*
X156352862Y-63836863D01*
X156396431Y-63902069D01*
X156461637Y-63945638D01*
X156517099Y-64001100D01*
X156589564Y-64031116D01*
X156654770Y-64074685D01*
X156731684Y-64089984D01*
X156804149Y-64120000D01*
X156882586Y-64120000D01*
X156959500Y-64135299D01*
X157036414Y-64120000D01*
X157114851Y-64120000D01*
X157187316Y-64089984D01*
X157264230Y-64074685D01*
X157329435Y-64031116D01*
X157401901Y-64001100D01*
X157621600Y-63781401D01*
X157621601Y-63781399D01*
X158773001Y-62630000D01*
X164366000Y-62630000D01*
X176067859Y-74331859D01*
X176111431Y-74397069D01*
X176332541Y-74544810D01*
X176369769Y-74569685D01*
X176674500Y-74630300D01*
X176751418Y-74615000D01*
X178654849Y-74615000D01*
X178727312Y-74584985D01*
X178804229Y-74569685D01*
X178869436Y-74526115D01*
X178941899Y-74496100D01*
X178997360Y-74440639D01*
X179062567Y-74397069D01*
X179106137Y-74331862D01*
X179161598Y-74276401D01*
X179191613Y-74203938D01*
X179235183Y-74138731D01*
X179250483Y-74061814D01*
X179280498Y-73989351D01*
X179280498Y-73910918D01*
X179295798Y-73834000D01*
X179280498Y-73757082D01*
X179280498Y-73678649D01*
X179250483Y-73606186D01*
X179235183Y-73529269D01*
X179191613Y-73464062D01*
X179161598Y-73391599D01*
X179106137Y-73336138D01*
X179062567Y-73270931D01*
X178997360Y-73227361D01*
X178941899Y-73171900D01*
X178869436Y-73141885D01*
X178804229Y-73098315D01*
X178727312Y-73083015D01*
X178654849Y-73053000D01*
X176998000Y-73053000D01*
X167764000Y-63819000D01*
X195756343Y-63819000D01*
X195844122Y-64260294D01*
X196094095Y-64634405D01*
X196468206Y-64884378D01*
X196798109Y-64950000D01*
X198020891Y-64950000D01*
X198350794Y-64884378D01*
X198724905Y-64634405D01*
X198974878Y-64260294D01*
X199062657Y-63819000D01*
X198974878Y-63377706D01*
X198724905Y-63003595D01*
X198350794Y-62753622D01*
X198020891Y-62688000D01*
X196798109Y-62688000D01*
X196468206Y-62753622D01*
X196094095Y-63003595D01*
X195844122Y-63377706D01*
X195756343Y-63819000D01*
X167764000Y-63819000D01*
X165351601Y-61406601D01*
X165351600Y-61406599D01*
X165296139Y-61351138D01*
X165252569Y-61285931D01*
X165187362Y-61242361D01*
X165131901Y-61186900D01*
X165059438Y-61156885D01*
X164994231Y-61113315D01*
X164917314Y-61098015D01*
X164844851Y-61068000D01*
X164766414Y-61068000D01*
X164689500Y-61052701D01*
X164612586Y-61068000D01*
X158526413Y-61068000D01*
X158449499Y-61052701D01*
X158372585Y-61068000D01*
X158372582Y-61068000D01*
X158144769Y-61113315D01*
X157886431Y-61285931D01*
X157842861Y-61351138D01*
X156517101Y-62676899D01*
X156517099Y-62676900D01*
X156297400Y-62896599D01*
X156267384Y-62969065D01*
X156223815Y-63034270D01*
X156208516Y-63111184D01*
X156178500Y-63183649D01*
X156178500Y-63262086D01*
X156163201Y-63339000D01*
X150921667Y-63339000D01*
X150881616Y-63279061D01*
X150851601Y-63206598D01*
X150796140Y-63151137D01*
X150752570Y-63085930D01*
X150687363Y-63042360D01*
X150631902Y-62986899D01*
X150598632Y-62973118D01*
X150464232Y-62883315D01*
X150159502Y-62822701D01*
X149931771Y-62867999D01*
X141003133Y-62867999D01*
X140954851Y-62848000D01*
X140876414Y-62848000D01*
X140799500Y-62832701D01*
X140722586Y-62848000D01*
X140644149Y-62848000D01*
X140571684Y-62878016D01*
X140494770Y-62893315D01*
X140429564Y-62936884D01*
X140357099Y-62966900D01*
X140301638Y-63022361D01*
X140236431Y-63065931D01*
X140192862Y-63131137D01*
X140137400Y-63186599D01*
X140107384Y-63259064D01*
X140063815Y-63324270D01*
X140048516Y-63401184D01*
X140018500Y-63473649D01*
X140018500Y-63552086D01*
X140003201Y-63629000D01*
X115679193Y-63629000D01*
X115719076Y-63569312D01*
X115814616Y-63089000D01*
X115730969Y-62668478D01*
X118379447Y-60020000D01*
X118564851Y-60020000D01*
X118851901Y-59901100D01*
X119071600Y-59681401D01*
X119190500Y-59394351D01*
X119190500Y-59143649D01*
X138108500Y-59143649D01*
X138108500Y-59454351D01*
X138227400Y-59741401D01*
X138447099Y-59961100D01*
X138734149Y-60080000D01*
X139044851Y-60080000D01*
X139331901Y-59961100D01*
X139551600Y-59741401D01*
X139670500Y-59454351D01*
X139670500Y-59268948D01*
X139868448Y-59071000D01*
X179094999Y-59071000D01*
X179226099Y-59202100D01*
X179513149Y-59321000D01*
X179823851Y-59321000D01*
X180110901Y-59202100D01*
X180330600Y-58982401D01*
X180449500Y-58695351D01*
X180449500Y-58384649D01*
X180330600Y-58097599D01*
X180110901Y-57877900D01*
X179823851Y-57759000D01*
X179513149Y-57759000D01*
X179226099Y-57877900D01*
X179094999Y-58009000D01*
X139700789Y-58009000D01*
X139648499Y-57998599D01*
X139596209Y-58009000D01*
X139596206Y-58009000D01*
X139441314Y-58039810D01*
X139354827Y-58097599D01*
X139265671Y-58157171D01*
X139236050Y-58201502D01*
X138919552Y-58518000D01*
X138734149Y-58518000D01*
X138447099Y-58636900D01*
X138227400Y-58856599D01*
X138108500Y-59143649D01*
X119190500Y-59143649D01*
X119190500Y-59083649D01*
X119071600Y-58796599D01*
X118851901Y-58576900D01*
X118564851Y-58458000D01*
X118254149Y-58458000D01*
X117967099Y-58576900D01*
X117747400Y-58796599D01*
X117628500Y-59083649D01*
X117628500Y-59269053D01*
X114980022Y-61917531D01*
X114680739Y-61858000D01*
X114438261Y-61858000D01*
X114079188Y-61929424D01*
X113671999Y-62201499D01*
X113399924Y-62608688D01*
X113304384Y-63089000D01*
X113399924Y-63569312D01*
X113671999Y-63976501D01*
X113922679Y-64144000D01*
X113583191Y-64144000D01*
X113349802Y-64240673D01*
X113171173Y-64419301D01*
X113074500Y-64652690D01*
X111330500Y-64652690D01*
X111330500Y-60549000D01*
X113304384Y-60549000D01*
X113399924Y-61029312D01*
X113671999Y-61436501D01*
X114079188Y-61708576D01*
X114438261Y-61780000D01*
X114680739Y-61780000D01*
X115039812Y-61708576D01*
X115447001Y-61436501D01*
X115719076Y-61029312D01*
X115814616Y-60549000D01*
X115719076Y-60068688D01*
X115447001Y-59661499D01*
X115039812Y-59389424D01*
X114680739Y-59318000D01*
X114438261Y-59318000D01*
X114079188Y-59389424D01*
X113671999Y-59661499D01*
X113399924Y-60068688D01*
X113304384Y-60549000D01*
X111330500Y-60549000D01*
X111330500Y-58009000D01*
X113304384Y-58009000D01*
X113399924Y-58489312D01*
X113671999Y-58896501D01*
X114079188Y-59168576D01*
X114438261Y-59240000D01*
X114680739Y-59240000D01*
X115039812Y-59168576D01*
X115447001Y-58896501D01*
X115719076Y-58489312D01*
X115814616Y-58009000D01*
X115719076Y-57528688D01*
X115610298Y-57365890D01*
X188728024Y-57365890D01*
X188897855Y-57775924D01*
X189288142Y-58204183D01*
X189686463Y-58391245D01*
X189281999Y-58661499D01*
X189009924Y-59068688D01*
X188914384Y-59549000D01*
X189009924Y-60029312D01*
X189281999Y-60436501D01*
X189689188Y-60708576D01*
X190048261Y-60780000D01*
X190290739Y-60780000D01*
X190649812Y-60708576D01*
X191057001Y-60436501D01*
X191329076Y-60029312D01*
X191424616Y-59549000D01*
X191329076Y-59068688D01*
X191057001Y-58661499D01*
X190652537Y-58391245D01*
X191050858Y-58204183D01*
X191140376Y-58105955D01*
X195019000Y-58105955D01*
X195019000Y-58894045D01*
X195320589Y-59622146D01*
X195877854Y-60179411D01*
X196605955Y-60481000D01*
X197394045Y-60481000D01*
X198122146Y-60179411D01*
X198679411Y-59622146D01*
X198981000Y-58894045D01*
X198981000Y-58105955D01*
X198679411Y-57377854D01*
X198122146Y-56820589D01*
X197394045Y-56519000D01*
X196605955Y-56519000D01*
X195877854Y-56820589D01*
X195320589Y-57377854D01*
X195019000Y-58105955D01*
X191140376Y-58105955D01*
X191441145Y-57775924D01*
X191610976Y-57365890D01*
X191489655Y-57136000D01*
X190296500Y-57136000D01*
X190296500Y-57156000D01*
X190042500Y-57156000D01*
X190042500Y-57136000D01*
X188849345Y-57136000D01*
X188728024Y-57365890D01*
X115610298Y-57365890D01*
X115447001Y-57121499D01*
X115039812Y-56849424D01*
X114680739Y-56778000D01*
X114438261Y-56778000D01*
X114079188Y-56849424D01*
X113671999Y-57121499D01*
X113399924Y-57528688D01*
X113304384Y-58009000D01*
X111330500Y-58009000D01*
X111330500Y-56652110D01*
X188728024Y-56652110D01*
X188849345Y-56882000D01*
X190042500Y-56882000D01*
X190042500Y-56862000D01*
X190296500Y-56862000D01*
X190296500Y-56882000D01*
X191489655Y-56882000D01*
X191610976Y-56652110D01*
X191441145Y-56242076D01*
X191050858Y-55813817D01*
X190652537Y-55626755D01*
X191057001Y-55356501D01*
X191329076Y-54949312D01*
X191424616Y-54469000D01*
X191329076Y-53988688D01*
X191057001Y-53581499D01*
X190649812Y-53309424D01*
X190290739Y-53238000D01*
X190048261Y-53238000D01*
X189689188Y-53309424D01*
X189281999Y-53581499D01*
X189009924Y-53988688D01*
X188914384Y-54469000D01*
X189009924Y-54949312D01*
X189281999Y-55356501D01*
X189686463Y-55626755D01*
X189288142Y-55813817D01*
X188897855Y-56242076D01*
X188728024Y-56652110D01*
X111330500Y-56652110D01*
X111330500Y-54796777D01*
X119621328Y-54796777D01*
X119753020Y-55091657D01*
X120460536Y-55363261D01*
X121218132Y-55343436D01*
X121825980Y-55091657D01*
X121957672Y-54796777D01*
X120789500Y-53628605D01*
X119621328Y-54796777D01*
X111330500Y-54796777D01*
X111330500Y-54703947D01*
X112162998Y-53871450D01*
X112207329Y-53841829D01*
X112240124Y-53792749D01*
X112324690Y-53666186D01*
X112365902Y-53459000D01*
X112355500Y-53406706D01*
X112355500Y-53120036D01*
X118875239Y-53120036D01*
X118895064Y-53877632D01*
X119146843Y-54485480D01*
X119441723Y-54617172D01*
X120609895Y-53449000D01*
X120969105Y-53449000D01*
X122137277Y-54617172D01*
X122432157Y-54485480D01*
X122703761Y-53777964D01*
X122683936Y-53020368D01*
X122432157Y-52412520D01*
X122137277Y-52280828D01*
X120969105Y-53449000D01*
X120609895Y-53449000D01*
X119441723Y-52280828D01*
X119146843Y-52412520D01*
X118875239Y-53120036D01*
X112355500Y-53120036D01*
X112355500Y-52101223D01*
X119621328Y-52101223D01*
X120789500Y-53269395D01*
X121957672Y-52101223D01*
X121825980Y-51806343D01*
X121118464Y-51534739D01*
X120360868Y-51554564D01*
X119753020Y-51806343D01*
X119621328Y-52101223D01*
X112355500Y-52101223D01*
X112355500Y-51436294D01*
X112365902Y-51384000D01*
X112324690Y-51176815D01*
X112324690Y-51176814D01*
X112249771Y-51064690D01*
X112236951Y-51045503D01*
X112236950Y-51045502D01*
X112207329Y-51001171D01*
X112162998Y-50971550D01*
X111544951Y-50353504D01*
X111544548Y-50352900D01*
X112473376Y-49424072D01*
X112994500Y-49424072D01*
X112994500Y-50181928D01*
X113284519Y-50882096D01*
X113820404Y-51417981D01*
X114520572Y-51708000D01*
X115278428Y-51708000D01*
X115978596Y-51417981D01*
X116514481Y-50882096D01*
X116804500Y-50181928D01*
X116804500Y-49424072D01*
X116514481Y-48723904D01*
X115978596Y-48188019D01*
X115278428Y-47898000D01*
X114520572Y-47898000D01*
X113820404Y-48188019D01*
X113284519Y-48723904D01*
X112994500Y-49424072D01*
X112473376Y-49424072D01*
X114107448Y-47790000D01*
X117135999Y-47790000D01*
X117267099Y-47921100D01*
X117554149Y-48040000D01*
X117864851Y-48040000D01*
X118151901Y-47921100D01*
X118283001Y-47790000D01*
X121699553Y-47790000D01*
X125925051Y-52015499D01*
X125954672Y-52059830D01*
X125999003Y-52089451D01*
X125999004Y-52089452D01*
X126130315Y-52177191D01*
X126337501Y-52218403D01*
X126389795Y-52208001D01*
X129855633Y-52208001D01*
X129549850Y-52513784D01*
X129298500Y-53120596D01*
X129298500Y-53777404D01*
X129549850Y-54384216D01*
X130014284Y-54848650D01*
X130621096Y-55100000D01*
X131277904Y-55100000D01*
X131884716Y-54848650D01*
X132349150Y-54384216D01*
X132600500Y-53777404D01*
X132600500Y-53120596D01*
X132349150Y-52513784D01*
X132043367Y-52208001D01*
X140015633Y-52208001D01*
X139709850Y-52513784D01*
X139458500Y-53120596D01*
X139458500Y-53777404D01*
X139709850Y-54384216D01*
X140174284Y-54848650D01*
X140781096Y-55100000D01*
X141437904Y-55100000D01*
X142044716Y-54848650D01*
X142509150Y-54384216D01*
X142531607Y-54330000D01*
X142818788Y-54330000D01*
X142905551Y-54347258D01*
X142992314Y-54330000D01*
X142992318Y-54330000D01*
X143249300Y-54278883D01*
X143540716Y-54084165D01*
X143589867Y-54010605D01*
X144192461Y-53408012D01*
X155344725Y-53408012D01*
X155431488Y-53425270D01*
X155518251Y-53408012D01*
X155518255Y-53408012D01*
X155775237Y-53356895D01*
X156066653Y-53162177D01*
X156115805Y-53088616D01*
X157275421Y-51929000D01*
X188914384Y-51929000D01*
X189009924Y-52409312D01*
X189281999Y-52816501D01*
X189689188Y-53088576D01*
X190048261Y-53160000D01*
X190290739Y-53160000D01*
X190649812Y-53088576D01*
X191057001Y-52816501D01*
X191329076Y-52409312D01*
X191424616Y-51929000D01*
X191329076Y-51448688D01*
X191057001Y-51041499D01*
X190649812Y-50769424D01*
X190290739Y-50698000D01*
X190048261Y-50698000D01*
X189689188Y-50769424D01*
X189281999Y-51041499D01*
X189009924Y-51448688D01*
X188914384Y-51929000D01*
X157275421Y-51929000D01*
X158639921Y-50564500D01*
X162178599Y-50564500D01*
X162219810Y-50771685D01*
X162337171Y-50947329D01*
X162512815Y-51064690D01*
X162720000Y-51105901D01*
X162927185Y-51064690D01*
X163058496Y-50976951D01*
X164632450Y-49402997D01*
X164720190Y-49271686D01*
X164761401Y-49064501D01*
X164720190Y-48857316D01*
X164602828Y-48681672D01*
X164427184Y-48564310D01*
X164299941Y-48539000D01*
X188931036Y-48539000D01*
X188931036Y-50239000D01*
X188960606Y-50387659D01*
X189044814Y-50513686D01*
X189170841Y-50597894D01*
X189319500Y-50627464D01*
X191019500Y-50627464D01*
X191168159Y-50597894D01*
X191294186Y-50513686D01*
X191378394Y-50387659D01*
X191407964Y-50239000D01*
X191407964Y-48539000D01*
X191378394Y-48390341D01*
X191294186Y-48264314D01*
X191168159Y-48180106D01*
X191019500Y-48150536D01*
X189319500Y-48150536D01*
X189170841Y-48180106D01*
X189044814Y-48264314D01*
X188960606Y-48390341D01*
X188931036Y-48539000D01*
X164299941Y-48539000D01*
X164219999Y-48523099D01*
X164012814Y-48564310D01*
X163881503Y-48652050D01*
X162307549Y-50226004D01*
X162219810Y-50357315D01*
X162178599Y-50564500D01*
X158639921Y-50564500D01*
X161771108Y-47433314D01*
X161844665Y-47384165D01*
X162039383Y-47092749D01*
X162090500Y-46835767D01*
X162090500Y-46835766D01*
X162107759Y-46749000D01*
X162090500Y-46662233D01*
X162090500Y-43400845D01*
X162097001Y-43396501D01*
X162369076Y-42989312D01*
X162464616Y-42509000D01*
X162494384Y-42509000D01*
X162589924Y-42989312D01*
X162861999Y-43396501D01*
X163269188Y-43668576D01*
X163628261Y-43740000D01*
X163870739Y-43740000D01*
X164229812Y-43668576D01*
X164637001Y-43396501D01*
X164909076Y-42989312D01*
X165004616Y-42509000D01*
X164909076Y-42028688D01*
X164637001Y-41621499D01*
X164229812Y-41349424D01*
X163870739Y-41278000D01*
X163628261Y-41278000D01*
X163269188Y-41349424D01*
X162861999Y-41621499D01*
X162589924Y-42028688D01*
X162494384Y-42509000D01*
X162464616Y-42509000D01*
X162369076Y-42028688D01*
X162097001Y-41621499D01*
X161689812Y-41349424D01*
X161330739Y-41278000D01*
X161088261Y-41278000D01*
X160729188Y-41349424D01*
X160321999Y-41621499D01*
X160049924Y-42028688D01*
X159954384Y-42509000D01*
X160049924Y-42989312D01*
X160321999Y-43396501D01*
X160328500Y-43400845D01*
X160328500Y-43797847D01*
X160328501Y-43797852D01*
X160328500Y-46384078D01*
X159330500Y-47382078D01*
X159330500Y-47353649D01*
X159211600Y-47066599D01*
X158991901Y-46846900D01*
X158704851Y-46728000D01*
X158604136Y-46728000D01*
X158630500Y-46664351D01*
X158630500Y-46353649D01*
X158511600Y-46066599D01*
X158291901Y-45846900D01*
X158004851Y-45728000D01*
X157694149Y-45728000D01*
X157407099Y-45846900D01*
X157187400Y-46066599D01*
X157068500Y-46353649D01*
X157068500Y-46539052D01*
X153229553Y-50378000D01*
X142442004Y-50378000D01*
X142530500Y-50164351D01*
X142530500Y-49853649D01*
X142411600Y-49566599D01*
X142191901Y-49346900D01*
X141904851Y-49228000D01*
X141594149Y-49228000D01*
X141307099Y-49346900D01*
X141175999Y-49478000D01*
X137769447Y-49478000D01*
X137359013Y-49067566D01*
X137591901Y-48971100D01*
X137811600Y-48751401D01*
X137816322Y-48740000D01*
X149175999Y-48740000D01*
X149307099Y-48871100D01*
X149594149Y-48990000D01*
X149904851Y-48990000D01*
X150191901Y-48871100D01*
X150411600Y-48651401D01*
X150530500Y-48364351D01*
X150530500Y-48053649D01*
X150411600Y-47766599D01*
X150204001Y-47559000D01*
X150411600Y-47351401D01*
X150530500Y-47064351D01*
X150530500Y-46753649D01*
X150411600Y-46466599D01*
X150254001Y-46309000D01*
X150411600Y-46151401D01*
X150530500Y-45864351D01*
X150530500Y-45553649D01*
X150411600Y-45266599D01*
X150191901Y-45046900D01*
X149904851Y-44928000D01*
X149594149Y-44928000D01*
X149307099Y-45046900D01*
X149175999Y-45178000D01*
X137723001Y-45178000D01*
X137591901Y-45046900D01*
X137304851Y-44928000D01*
X136994149Y-44928000D01*
X136780500Y-45016496D01*
X136780500Y-44828947D01*
X137928978Y-43680469D01*
X138228261Y-43740000D01*
X138470739Y-43740000D01*
X138829812Y-43668576D01*
X139237001Y-43396501D01*
X139509076Y-42989312D01*
X139604616Y-42509000D01*
X139634384Y-42509000D01*
X139729924Y-42989312D01*
X140001999Y-43396501D01*
X140409188Y-43668576D01*
X140768261Y-43740000D01*
X141010739Y-43740000D01*
X141369812Y-43668576D01*
X141777001Y-43396501D01*
X142049076Y-42989312D01*
X142144616Y-42509000D01*
X142174384Y-42509000D01*
X142269924Y-42989312D01*
X142541999Y-43396501D01*
X142949188Y-43668576D01*
X143308261Y-43740000D01*
X143550739Y-43740000D01*
X143909812Y-43668576D01*
X144317001Y-43396501D01*
X144589076Y-42989312D01*
X144684616Y-42509000D01*
X144714384Y-42509000D01*
X144809924Y-42989312D01*
X145081999Y-43396501D01*
X145489188Y-43668576D01*
X145848261Y-43740000D01*
X146090739Y-43740000D01*
X146449812Y-43668576D01*
X146857001Y-43396501D01*
X147129076Y-42989312D01*
X147224616Y-42509000D01*
X147254384Y-42509000D01*
X147349924Y-42989312D01*
X147621999Y-43396501D01*
X148029188Y-43668576D01*
X148388261Y-43740000D01*
X148630739Y-43740000D01*
X148989812Y-43668576D01*
X149397001Y-43396501D01*
X149669076Y-42989312D01*
X149764616Y-42509000D01*
X149794384Y-42509000D01*
X149889924Y-42989312D01*
X150161999Y-43396501D01*
X150569188Y-43668576D01*
X150928261Y-43740000D01*
X151170739Y-43740000D01*
X151529812Y-43668576D01*
X151937001Y-43396501D01*
X152209076Y-42989312D01*
X152304616Y-42509000D01*
X152334384Y-42509000D01*
X152429924Y-42989312D01*
X152701999Y-43396501D01*
X153109188Y-43668576D01*
X153468261Y-43740000D01*
X153710739Y-43740000D01*
X154069812Y-43668576D01*
X154477001Y-43396501D01*
X154749076Y-42989312D01*
X154844616Y-42509000D01*
X154874384Y-42509000D01*
X154969924Y-42989312D01*
X155241999Y-43396501D01*
X155649188Y-43668576D01*
X156008261Y-43740000D01*
X156250739Y-43740000D01*
X156609812Y-43668576D01*
X157017001Y-43396501D01*
X157289076Y-42989312D01*
X157384616Y-42509000D01*
X157414384Y-42509000D01*
X157509924Y-42989312D01*
X157781999Y-43396501D01*
X158189188Y-43668576D01*
X158548261Y-43740000D01*
X158790739Y-43740000D01*
X159149812Y-43668576D01*
X159557001Y-43396501D01*
X159829076Y-42989312D01*
X159924616Y-42509000D01*
X159829076Y-42028688D01*
X159557001Y-41621499D01*
X159149812Y-41349424D01*
X158790739Y-41278000D01*
X158548261Y-41278000D01*
X158189188Y-41349424D01*
X157781999Y-41621499D01*
X157509924Y-42028688D01*
X157414384Y-42509000D01*
X157384616Y-42509000D01*
X157289076Y-42028688D01*
X157017001Y-41621499D01*
X156609812Y-41349424D01*
X156250739Y-41278000D01*
X156008261Y-41278000D01*
X155649188Y-41349424D01*
X155241999Y-41621499D01*
X154969924Y-42028688D01*
X154874384Y-42509000D01*
X154844616Y-42509000D01*
X154749076Y-42028688D01*
X154477001Y-41621499D01*
X154069812Y-41349424D01*
X153710739Y-41278000D01*
X153468261Y-41278000D01*
X153109188Y-41349424D01*
X152701999Y-41621499D01*
X152429924Y-42028688D01*
X152334384Y-42509000D01*
X152304616Y-42509000D01*
X152209076Y-42028688D01*
X151937001Y-41621499D01*
X151529812Y-41349424D01*
X151170739Y-41278000D01*
X150928261Y-41278000D01*
X150569188Y-41349424D01*
X150161999Y-41621499D01*
X149889924Y-42028688D01*
X149794384Y-42509000D01*
X149764616Y-42509000D01*
X149669076Y-42028688D01*
X149397001Y-41621499D01*
X148989812Y-41349424D01*
X148630739Y-41278000D01*
X148388261Y-41278000D01*
X148029188Y-41349424D01*
X147621999Y-41621499D01*
X147349924Y-42028688D01*
X147254384Y-42509000D01*
X147224616Y-42509000D01*
X147129076Y-42028688D01*
X146857001Y-41621499D01*
X146449812Y-41349424D01*
X146090739Y-41278000D01*
X145848261Y-41278000D01*
X145489188Y-41349424D01*
X145081999Y-41621499D01*
X144809924Y-42028688D01*
X144714384Y-42509000D01*
X144684616Y-42509000D01*
X144589076Y-42028688D01*
X144317001Y-41621499D01*
X143909812Y-41349424D01*
X143550739Y-41278000D01*
X143308261Y-41278000D01*
X142949188Y-41349424D01*
X142541999Y-41621499D01*
X142269924Y-42028688D01*
X142174384Y-42509000D01*
X142144616Y-42509000D01*
X142049076Y-42028688D01*
X141777001Y-41621499D01*
X141369812Y-41349424D01*
X141010739Y-41278000D01*
X140768261Y-41278000D01*
X140409188Y-41349424D01*
X140001999Y-41621499D01*
X139729924Y-42028688D01*
X139634384Y-42509000D01*
X139604616Y-42509000D01*
X139509076Y-42028688D01*
X139237001Y-41621499D01*
X138829812Y-41349424D01*
X138470739Y-41278000D01*
X138228261Y-41278000D01*
X137869188Y-41349424D01*
X137461999Y-41621499D01*
X137189924Y-42028688D01*
X137094384Y-42509000D01*
X137178031Y-42929522D01*
X135911005Y-44196548D01*
X135866671Y-44226171D01*
X135749310Y-44401815D01*
X135718500Y-44556707D01*
X135718500Y-44556710D01*
X135708099Y-44609000D01*
X135718500Y-44661290D01*
X135718501Y-48656705D01*
X135708099Y-48709000D01*
X135749310Y-48916185D01*
X135837049Y-49047496D01*
X135837051Y-49047498D01*
X135866672Y-49091829D01*
X135911003Y-49121450D01*
X137137048Y-50347495D01*
X137157431Y-50378000D01*
X126819448Y-50378000D01*
X122611951Y-46170504D01*
X122582328Y-46126170D01*
X122406685Y-46008809D01*
X122251793Y-45977999D01*
X122251789Y-45977999D01*
X122199499Y-45967598D01*
X122147209Y-45977999D01*
X120263001Y-45977999D01*
X120131901Y-45846899D01*
X119844851Y-45727999D01*
X119534149Y-45727999D01*
X119247099Y-45846899D01*
X119115999Y-45977999D01*
X116084578Y-45977999D01*
X116514481Y-45548096D01*
X116804500Y-44847928D01*
X116804500Y-44090072D01*
X116514481Y-43389904D01*
X115978596Y-42854019D01*
X115835508Y-42794750D01*
X124164500Y-42794750D01*
X124164500Y-43485309D01*
X124261173Y-43718698D01*
X124439801Y-43897327D01*
X124673190Y-43994000D01*
X125363750Y-43994000D01*
X125522500Y-43835250D01*
X125522500Y-42636000D01*
X124323250Y-42636000D01*
X124164500Y-42794750D01*
X115835508Y-42794750D01*
X115278428Y-42564000D01*
X114520572Y-42564000D01*
X113820404Y-42854019D01*
X113284519Y-43389904D01*
X112994500Y-44090072D01*
X112994500Y-44847928D01*
X113284519Y-45548096D01*
X113714422Y-45977999D01*
X108211790Y-45977999D01*
X108159500Y-45967598D01*
X108107210Y-45977999D01*
X108107207Y-45977999D01*
X107952315Y-46008809D01*
X107776672Y-46126170D01*
X107747049Y-46170504D01*
X104721005Y-49196548D01*
X104676671Y-49226171D01*
X104559310Y-49401815D01*
X104528500Y-49556707D01*
X104528500Y-49556710D01*
X104518099Y-49609000D01*
X104104500Y-49609000D01*
X104104500Y-49424072D01*
X103814481Y-48723904D01*
X103278596Y-48188019D01*
X102578428Y-47898000D01*
X101820572Y-47898000D01*
X101120404Y-48188019D01*
X100584519Y-48723904D01*
X100456000Y-49034176D01*
X100456000Y-45237824D01*
X100584519Y-45548096D01*
X101120404Y-46083981D01*
X101820572Y-46374000D01*
X102578428Y-46374000D01*
X103278596Y-46083981D01*
X103814481Y-45548096D01*
X104104500Y-44847928D01*
X104104500Y-44090072D01*
X103814481Y-43389904D01*
X103278596Y-42854019D01*
X102578428Y-42564000D01*
X101820572Y-42564000D01*
X101120404Y-42854019D01*
X100584519Y-43389904D01*
X100456000Y-43700176D01*
X100456000Y-41532691D01*
X124164500Y-41532691D01*
X124164500Y-42223250D01*
X124323250Y-42382000D01*
X125522500Y-42382000D01*
X125522500Y-41182750D01*
X125776500Y-41182750D01*
X125776500Y-42382000D01*
X125796500Y-42382000D01*
X125796500Y-42636000D01*
X125776500Y-42636000D01*
X125776500Y-43835250D01*
X125935250Y-43994000D01*
X126625810Y-43994000D01*
X126859199Y-43897327D01*
X127037827Y-43718698D01*
X127134500Y-43485309D01*
X127134500Y-43145821D01*
X127301999Y-43396501D01*
X127709188Y-43668576D01*
X128068261Y-43740000D01*
X128310739Y-43740000D01*
X128669812Y-43668576D01*
X129077001Y-43396501D01*
X129349076Y-42989312D01*
X129444616Y-42509000D01*
X129474384Y-42509000D01*
X129569924Y-42989312D01*
X129841999Y-43396501D01*
X130249188Y-43668576D01*
X130608261Y-43740000D01*
X130850739Y-43740000D01*
X131209812Y-43668576D01*
X131617001Y-43396501D01*
X131889076Y-42989312D01*
X131984616Y-42509000D01*
X132014384Y-42509000D01*
X132109924Y-42989312D01*
X132381999Y-43396501D01*
X132789188Y-43668576D01*
X133148261Y-43740000D01*
X133390739Y-43740000D01*
X133749812Y-43668576D01*
X134157001Y-43396501D01*
X134429076Y-42989312D01*
X134524616Y-42509000D01*
X134554384Y-42509000D01*
X134649924Y-42989312D01*
X134921999Y-43396501D01*
X135329188Y-43668576D01*
X135688261Y-43740000D01*
X135930739Y-43740000D01*
X136289812Y-43668576D01*
X136697001Y-43396501D01*
X136969076Y-42989312D01*
X137064616Y-42509000D01*
X136969076Y-42028688D01*
X136697001Y-41621499D01*
X136289812Y-41349424D01*
X135930739Y-41278000D01*
X135688261Y-41278000D01*
X135329188Y-41349424D01*
X134921999Y-41621499D01*
X134649924Y-42028688D01*
X134554384Y-42509000D01*
X134524616Y-42509000D01*
X134429076Y-42028688D01*
X134157001Y-41621499D01*
X133749812Y-41349424D01*
X133390739Y-41278000D01*
X133148261Y-41278000D01*
X132789188Y-41349424D01*
X132381999Y-41621499D01*
X132109924Y-42028688D01*
X132014384Y-42509000D01*
X131984616Y-42509000D01*
X131889076Y-42028688D01*
X131617001Y-41621499D01*
X131209812Y-41349424D01*
X130850739Y-41278000D01*
X130608261Y-41278000D01*
X130249188Y-41349424D01*
X129841999Y-41621499D01*
X129569924Y-42028688D01*
X129474384Y-42509000D01*
X129444616Y-42509000D01*
X129349076Y-42028688D01*
X129077001Y-41621499D01*
X128669812Y-41349424D01*
X128310739Y-41278000D01*
X128068261Y-41278000D01*
X127709188Y-41349424D01*
X127301999Y-41621499D01*
X127134500Y-41872179D01*
X127134500Y-41532691D01*
X127037827Y-41299302D01*
X126859199Y-41120673D01*
X126625810Y-41024000D01*
X125935250Y-41024000D01*
X125776500Y-41182750D01*
X125522500Y-41182750D01*
X125363750Y-41024000D01*
X124673190Y-41024000D01*
X124439801Y-41120673D01*
X124261173Y-41299302D01*
X124164500Y-41532691D01*
X100456000Y-41532691D01*
X100456000Y-40456061D01*
X165993500Y-40464938D01*
X165993500Y-40464938D01*
G37*
X165993500Y-40464938D02*
X165993501Y-46864152D01*
X165984568Y-46909124D01*
X166002491Y-46999103D01*
X166019959Y-47086922D01*
X166019993Y-47086973D01*
X166020006Y-47087037D01*
X166070966Y-47163259D01*
X166120744Y-47237757D01*
X166120797Y-47237792D01*
X166120832Y-47237845D01*
X166195445Y-47287670D01*
X166271579Y-47338542D01*
X166271643Y-47338555D01*
X166271694Y-47338589D01*
X166359280Y-47355987D01*
X166449500Y-47373933D01*
X166494470Y-47364988D01*
X199544000Y-47356121D01*
X199544001Y-84544000D01*
X100456000Y-84544000D01*
X100456000Y-81605955D01*
X101019000Y-81605955D01*
X101019000Y-82394045D01*
X101320589Y-83122146D01*
X101877854Y-83679411D01*
X102605955Y-83981000D01*
X103394045Y-83981000D01*
X104122146Y-83679411D01*
X104679411Y-83122146D01*
X104981000Y-82394045D01*
X104981000Y-81605955D01*
X104679411Y-80877854D01*
X104122146Y-80320589D01*
X103394045Y-80019000D01*
X102605955Y-80019000D01*
X101877854Y-80320589D01*
X101320589Y-80877854D01*
X101019000Y-81605955D01*
X100456000Y-81605955D01*
X100456000Y-79696400D01*
X108661236Y-79696400D01*
X108661236Y-81646400D01*
X108690806Y-81795059D01*
X108775014Y-81921086D01*
X108901041Y-82005294D01*
X109049700Y-82034864D01*
X110749700Y-82034864D01*
X110898359Y-82005294D01*
X111024386Y-81921086D01*
X111108594Y-81795059D01*
X111138164Y-81646400D01*
X111138164Y-80425162D01*
X111168700Y-80425162D01*
X111168700Y-80917639D01*
X111240124Y-81276712D01*
X111512200Y-81683901D01*
X111919389Y-81955976D01*
X112399700Y-82051516D01*
X112880012Y-81955976D01*
X113287201Y-81683901D01*
X113559276Y-81276711D01*
X113630700Y-80917638D01*
X113630700Y-80425162D01*
X113668700Y-80425162D01*
X113668700Y-80917639D01*
X113740124Y-81276712D01*
X114012200Y-81683901D01*
X114419389Y-81955976D01*
X114899700Y-82051516D01*
X115380012Y-81955976D01*
X115787201Y-81683901D01*
X116036921Y-81310168D01*
X116134647Y-81573971D01*
X116528507Y-81998897D01*
X117042810Y-82237876D01*
X117272700Y-82116555D01*
X117272700Y-80798400D01*
X117526700Y-80798400D01*
X117526700Y-82116555D01*
X117756590Y-82237876D01*
X118270893Y-81998897D01*
X118664753Y-81573971D01*
X118866020Y-81030667D01*
X118725865Y-80798400D01*
X117526700Y-80798400D01*
X117272700Y-80798400D01*
X117252700Y-80798400D01*
X117252700Y-80544400D01*
X117272700Y-80544400D01*
X117272700Y-79226245D01*
X117526700Y-79226245D01*
X117526700Y-80544400D01*
X118725865Y-80544400D01*
X118866020Y-80312133D01*
X118664753Y-79768829D01*
X118270893Y-79343903D01*
X117756590Y-79104924D01*
X117526700Y-79226245D01*
X117272700Y-79226245D01*
X117042810Y-79104924D01*
X116528507Y-79343903D01*
X116134647Y-79768829D01*
X116036921Y-80032632D01*
X115787201Y-79658899D01*
X115380011Y-79386824D01*
X114899700Y-79291284D01*
X114419388Y-79386824D01*
X114012199Y-79658899D01*
X113740124Y-80066089D01*
X113668700Y-80425162D01*
X113630700Y-80425162D01*
X113630700Y-80425161D01*
X113559276Y-80066088D01*
X113287201Y-79658899D01*
X112880011Y-79386824D01*
X112399700Y-79291284D01*
X111919388Y-79386824D01*
X111512199Y-79658899D01*
X111240124Y-80066089D01*
X111168700Y-80425162D01*
X111138164Y-80425162D01*
X111138164Y-79696400D01*
X111108594Y-79547741D01*
X111024386Y-79421714D01*
X110898359Y-79337506D01*
X110749700Y-79307936D01*
X109049700Y-79307936D01*
X108901041Y-79337506D01*
X108775014Y-79421714D01*
X108690806Y-79547741D01*
X108661236Y-79696400D01*
X100456000Y-79696400D01*
X100456000Y-78309000D01*
X138449282Y-78309000D01*
X138525419Y-78691767D01*
X138742239Y-79016261D01*
X139066733Y-79233081D01*
X139352884Y-79290000D01*
X141743158Y-79290000D01*
X146287511Y-83834355D01*
X146342239Y-83916261D01*
X146666733Y-84133081D01*
X146952884Y-84190000D01*
X146952889Y-84190000D01*
X147049499Y-84209217D01*
X147146109Y-84190000D01*
X172952885Y-84190000D01*
X173049500Y-84209218D01*
X173146115Y-84190000D01*
X173146116Y-84190000D01*
X173432267Y-84133081D01*
X173756761Y-83916261D01*
X173811493Y-83834349D01*
X177111540Y-80534302D01*
X189068500Y-80534302D01*
X189068500Y-81083698D01*
X189278745Y-81591273D01*
X189667227Y-81979755D01*
X190174802Y-82190000D01*
X190724198Y-82190000D01*
X191231773Y-81979755D01*
X191605573Y-81605955D01*
X195019000Y-81605955D01*
X195019000Y-82394045D01*
X195320589Y-83122146D01*
X195877854Y-83679411D01*
X196605955Y-83981000D01*
X197394045Y-83981000D01*
X198122146Y-83679411D01*
X198679411Y-83122146D01*
X198981000Y-82394045D01*
X198981000Y-81605955D01*
X198679411Y-80877854D01*
X198122146Y-80320589D01*
X197394045Y-80019000D01*
X196605955Y-80019000D01*
X195877854Y-80320589D01*
X195320589Y-80877854D01*
X195019000Y-81605955D01*
X191605573Y-81605955D01*
X191620255Y-81591273D01*
X191830500Y-81083698D01*
X191830500Y-80534302D01*
X191620255Y-80026727D01*
X191231773Y-79638245D01*
X190724198Y-79428000D01*
X190174802Y-79428000D01*
X189667227Y-79638245D01*
X189278745Y-80026727D01*
X189068500Y-80534302D01*
X177111540Y-80534302D01*
X181126842Y-76519000D01*
X195756343Y-76519000D01*
X195844122Y-76960294D01*
X196094095Y-77334405D01*
X196468206Y-77584378D01*
X196798109Y-77650000D01*
X198020891Y-77650000D01*
X198350794Y-77584378D01*
X198724905Y-77334405D01*
X198974878Y-76960294D01*
X199062657Y-76519000D01*
X198974878Y-76077706D01*
X198724905Y-75703595D01*
X198350794Y-75453622D01*
X198020891Y-75388000D01*
X196798109Y-75388000D01*
X196468206Y-75453622D01*
X196094095Y-75703595D01*
X195844122Y-76077706D01*
X195756343Y-76519000D01*
X181126842Y-76519000D01*
X182501820Y-75144022D01*
X189714084Y-75144022D01*
X189934853Y-75514743D01*
X190906512Y-75908119D01*
X191954747Y-75899713D01*
X192884147Y-75514743D01*
X193104916Y-75144022D01*
X191409500Y-73448605D01*
X189714084Y-75144022D01*
X182501820Y-75144022D01*
X184879831Y-72766012D01*
X188770381Y-72766012D01*
X188778787Y-73814247D01*
X189163757Y-74743647D01*
X189534478Y-74964416D01*
X191229895Y-73269000D01*
X191589105Y-73269000D01*
X193284522Y-74964416D01*
X193655243Y-74743647D01*
X194048619Y-73771988D01*
X194040213Y-72723753D01*
X193655243Y-71794353D01*
X193284522Y-71573584D01*
X191589105Y-73269000D01*
X191229895Y-73269000D01*
X189534478Y-71573584D01*
X189163757Y-71794353D01*
X188770381Y-72766012D01*
X184879831Y-72766012D01*
X186251865Y-71393978D01*
X189714084Y-71393978D01*
X191409500Y-73089395D01*
X193104916Y-71393978D01*
X192884147Y-71023257D01*
X191912488Y-70629881D01*
X190864253Y-70638287D01*
X189934853Y-71023257D01*
X189714084Y-71393978D01*
X186251865Y-71393978D01*
X189343282Y-68302562D01*
X189390985Y-68417728D01*
X190060772Y-69087515D01*
X190935890Y-69450000D01*
X191883110Y-69450000D01*
X192758228Y-69087515D01*
X193428015Y-68417728D01*
X193790500Y-67542610D01*
X193790500Y-66595390D01*
X193428015Y-65720272D01*
X192758228Y-65050485D01*
X191883110Y-64688000D01*
X190935890Y-64688000D01*
X190060772Y-65050485D01*
X189465968Y-65645289D01*
X189266733Y-65684919D01*
X188942239Y-65901739D01*
X188887511Y-65983645D01*
X172643158Y-82228000D01*
X157592158Y-82228000D01*
X157998693Y-82039097D01*
X158392553Y-81614171D01*
X158593820Y-81070867D01*
X158453665Y-80838600D01*
X157254500Y-80838600D01*
X157254500Y-80858600D01*
X157000500Y-80858600D01*
X157000500Y-80838600D01*
X156980500Y-80838600D01*
X156980500Y-80584600D01*
X157000500Y-80584600D01*
X157000500Y-79266445D01*
X157254500Y-79266445D01*
X157254500Y-80584600D01*
X158453665Y-80584600D01*
X158593820Y-80352333D01*
X158392553Y-79809029D01*
X157998693Y-79384103D01*
X157484390Y-79145124D01*
X157254500Y-79266445D01*
X157000500Y-79266445D01*
X156770610Y-79145124D01*
X156256307Y-79384103D01*
X155862447Y-79809029D01*
X155764721Y-80072832D01*
X155515001Y-79699099D01*
X155107811Y-79427024D01*
X154627500Y-79331484D01*
X154147188Y-79427024D01*
X153739999Y-79699099D01*
X153467924Y-80106289D01*
X153396500Y-80465362D01*
X153396500Y-80957839D01*
X153467924Y-81316912D01*
X153740000Y-81724101D01*
X154147189Y-81996176D01*
X154627500Y-82091716D01*
X155107812Y-81996176D01*
X155515001Y-81724101D01*
X155764721Y-81350368D01*
X155862447Y-81614171D01*
X156256307Y-82039097D01*
X156662842Y-82228000D01*
X147455844Y-82228000D01*
X144964443Y-79736600D01*
X148389036Y-79736600D01*
X148389036Y-81686600D01*
X148418606Y-81835259D01*
X148502814Y-81961286D01*
X148628841Y-82045494D01*
X148777500Y-82075064D01*
X150477500Y-82075064D01*
X150626159Y-82045494D01*
X150752186Y-81961286D01*
X150836394Y-81835259D01*
X150865964Y-81686600D01*
X150865964Y-80465362D01*
X150896500Y-80465362D01*
X150896500Y-80957839D01*
X150967924Y-81316912D01*
X151240000Y-81724101D01*
X151647189Y-81996176D01*
X152127500Y-82091716D01*
X152607812Y-81996176D01*
X153015001Y-81724101D01*
X153287076Y-81316911D01*
X153358500Y-80957838D01*
X153358500Y-80465361D01*
X153287076Y-80106288D01*
X153015001Y-79699099D01*
X152607811Y-79427024D01*
X152127500Y-79331484D01*
X151647188Y-79427024D01*
X151239999Y-79699099D01*
X150967924Y-80106289D01*
X150896500Y-80465362D01*
X150865964Y-80465362D01*
X150865964Y-79736600D01*
X150836394Y-79587941D01*
X150752186Y-79461914D01*
X150626159Y-79377706D01*
X150477500Y-79348136D01*
X148777500Y-79348136D01*
X148628841Y-79377706D01*
X148502814Y-79461914D01*
X148418606Y-79587941D01*
X148389036Y-79736600D01*
X144964443Y-79736600D01*
X142911492Y-77683650D01*
X142856761Y-77601739D01*
X142532267Y-77384919D01*
X142246116Y-77328000D01*
X142246115Y-77328000D01*
X142149500Y-77308782D01*
X142052885Y-77328000D01*
X139352884Y-77328000D01*
X139066733Y-77384919D01*
X138742239Y-77601739D01*
X138525419Y-77926233D01*
X138449282Y-78309000D01*
X100456000Y-78309000D01*
X100456000Y-75116777D01*
X127241328Y-75116777D01*
X127373020Y-75411657D01*
X128080536Y-75683261D01*
X128838132Y-75663436D01*
X129445980Y-75411657D01*
X129577672Y-75116777D01*
X128409500Y-73948605D01*
X127241328Y-75116777D01*
X100456000Y-75116777D01*
X100456000Y-73854250D01*
X101925500Y-73854250D01*
X101925500Y-74544810D01*
X102022173Y-74778199D01*
X102200802Y-74956827D01*
X102434191Y-75053500D01*
X103124750Y-75053500D01*
X103283500Y-74894750D01*
X103283500Y-73695500D01*
X103537500Y-73695500D01*
X103537500Y-74894750D01*
X103696250Y-75053500D01*
X104386809Y-75053500D01*
X104620198Y-74956827D01*
X104798827Y-74778199D01*
X104895500Y-74544810D01*
X104895500Y-73854250D01*
X104736750Y-73695500D01*
X103537500Y-73695500D01*
X103283500Y-73695500D01*
X102084250Y-73695500D01*
X101925500Y-73854250D01*
X100456000Y-73854250D01*
X100456000Y-72592190D01*
X101925500Y-72592190D01*
X101925500Y-73282750D01*
X102084250Y-73441500D01*
X103283500Y-73441500D01*
X103283500Y-73421500D01*
X103537500Y-73421500D01*
X103537500Y-73441500D01*
X104736750Y-73441500D01*
X104895500Y-73282750D01*
X104895500Y-72592190D01*
X104798827Y-72358801D01*
X104620198Y-72180173D01*
X104386809Y-72083500D01*
X104047321Y-72083500D01*
X104298001Y-71916001D01*
X104570076Y-71508812D01*
X104665616Y-71028500D01*
X104570076Y-70548188D01*
X104298001Y-70140999D01*
X103890812Y-69868924D01*
X103531739Y-69797500D01*
X103289261Y-69797500D01*
X102930188Y-69868924D01*
X102522999Y-70140999D01*
X102250924Y-70548188D01*
X102155384Y-71028500D01*
X102250924Y-71508812D01*
X102522999Y-71916001D01*
X102773679Y-72083500D01*
X102434191Y-72083500D01*
X102200802Y-72180173D01*
X102022173Y-72358801D01*
X101925500Y-72592190D01*
X100456000Y-72592190D01*
X100456000Y-68488500D01*
X102155384Y-68488500D01*
X102250924Y-68968812D01*
X102522999Y-69376001D01*
X102930188Y-69648076D01*
X103289261Y-69719500D01*
X103531739Y-69719500D01*
X103890812Y-69648076D01*
X104298001Y-69376001D01*
X104570076Y-68968812D01*
X104665616Y-68488500D01*
X104570076Y-68008188D01*
X104298001Y-67600999D01*
X103890812Y-67328924D01*
X103531739Y-67257500D01*
X103289261Y-67257500D01*
X102930188Y-67328924D01*
X102522999Y-67600999D01*
X102250924Y-68008188D01*
X102155384Y-68488500D01*
X100456000Y-68488500D01*
X100456000Y-65948500D01*
X102155384Y-65948500D01*
X102250924Y-66428812D01*
X102522999Y-66836001D01*
X102930188Y-67108076D01*
X103289261Y-67179500D01*
X103531739Y-67179500D01*
X103890812Y-67108076D01*
X104298001Y-66836001D01*
X104570076Y-66428812D01*
X104665616Y-65948500D01*
X104570076Y-65468188D01*
X104298001Y-65060999D01*
X103890812Y-64788924D01*
X103531739Y-64717500D01*
X103289261Y-64717500D01*
X102930188Y-64788924D01*
X102522999Y-65060999D01*
X102250924Y-65468188D01*
X102155384Y-65948500D01*
X100456000Y-65948500D01*
X100456000Y-58105955D01*
X101019000Y-58105955D01*
X101019000Y-58894045D01*
X101320589Y-59622146D01*
X101877854Y-60179411D01*
X102605955Y-60481000D01*
X103394045Y-60481000D01*
X104122146Y-60179411D01*
X104679411Y-59622146D01*
X104981000Y-58894045D01*
X104981000Y-58105955D01*
X104679411Y-57377854D01*
X104122146Y-56820589D01*
X103394045Y-56519000D01*
X102605955Y-56519000D01*
X101877854Y-56820589D01*
X101320589Y-57377854D01*
X101019000Y-58105955D01*
X100456000Y-58105955D01*
X100456000Y-50571824D01*
X100584519Y-50882096D01*
X101120404Y-51417981D01*
X101820572Y-51708000D01*
X102578428Y-51708000D01*
X103278596Y-51417981D01*
X103814481Y-50882096D01*
X104104500Y-50181928D01*
X104104500Y-49609000D01*
X104518099Y-49609000D01*
X104528500Y-49661291D01*
X104528501Y-50959705D01*
X104518099Y-51012000D01*
X104559310Y-51219185D01*
X104647049Y-51350496D01*
X104647051Y-51350498D01*
X104676672Y-51394829D01*
X104721003Y-51424450D01*
X105646940Y-52350387D01*
X105628500Y-52394905D01*
X105628500Y-52799095D01*
X105783176Y-53172518D01*
X106068982Y-53458324D01*
X106113500Y-53476764D01*
X106113501Y-70621705D01*
X106103099Y-70674000D01*
X106144310Y-70881185D01*
X106232049Y-71012496D01*
X106232051Y-71012498D01*
X106261672Y-71056829D01*
X106268500Y-71061391D01*
X106268500Y-71234351D01*
X106387400Y-71521401D01*
X106607099Y-71741100D01*
X106894149Y-71860000D01*
X107204851Y-71860000D01*
X107491901Y-71741100D01*
X107711600Y-71521401D01*
X107830500Y-71234351D01*
X107830500Y-70923649D01*
X107711600Y-70636599D01*
X107491901Y-70416900D01*
X107204851Y-70298000D01*
X107175500Y-70298000D01*
X107175500Y-53476764D01*
X107220018Y-53458324D01*
X107505824Y-53172518D01*
X107597000Y-52952398D01*
X107688176Y-53172518D01*
X107973982Y-53458324D01*
X108347405Y-53613000D01*
X108751595Y-53613000D01*
X109125018Y-53458324D01*
X109410824Y-53172518D01*
X109431036Y-53123722D01*
X109431036Y-53232000D01*
X109460606Y-53380659D01*
X109544814Y-53506686D01*
X109670841Y-53590894D01*
X109819500Y-53620464D01*
X110912089Y-53620464D01*
X110461003Y-54071550D01*
X110416672Y-54101171D01*
X110387051Y-54145502D01*
X110387049Y-54145504D01*
X110299310Y-54276815D01*
X110258099Y-54484000D01*
X110268501Y-54536295D01*
X110268500Y-73235499D01*
X110137400Y-73366599D01*
X110018500Y-73653649D01*
X110018500Y-73964351D01*
X110137400Y-74251401D01*
X110357099Y-74471100D01*
X110644149Y-74590000D01*
X110954851Y-74590000D01*
X111241901Y-74471100D01*
X111461600Y-74251401D01*
X111580500Y-73964351D01*
X111580500Y-73653649D01*
X111492019Y-73440036D01*
X126495239Y-73440036D01*
X126515064Y-74197632D01*
X126766843Y-74805480D01*
X127061723Y-74937172D01*
X128229895Y-73769000D01*
X128589105Y-73769000D01*
X129757277Y-74937172D01*
X130052157Y-74805480D01*
X130323761Y-74097964D01*
X130306559Y-73440596D01*
X131838500Y-73440596D01*
X131838500Y-74097404D01*
X132089850Y-74704216D01*
X132554284Y-75168650D01*
X133161096Y-75420000D01*
X133817904Y-75420000D01*
X134424716Y-75168650D01*
X134889150Y-74704216D01*
X135140500Y-74097404D01*
X135140500Y-73440596D01*
X134889150Y-72833784D01*
X134424716Y-72369350D01*
X133817904Y-72118000D01*
X133161096Y-72118000D01*
X132554284Y-72369350D01*
X132089850Y-72833784D01*
X131838500Y-73440596D01*
X130306559Y-73440596D01*
X130303936Y-73340368D01*
X130052157Y-72732520D01*
X129757277Y-72600828D01*
X128589105Y-73769000D01*
X128229895Y-73769000D01*
X127061723Y-72600828D01*
X126766843Y-72732520D01*
X126495239Y-73440036D01*
X111492019Y-73440036D01*
X111461600Y-73366599D01*
X111330500Y-73235499D01*
X111330500Y-72421223D01*
X127241328Y-72421223D01*
X128409500Y-73589395D01*
X129577672Y-72421223D01*
X129445980Y-72126343D01*
X128738464Y-71854739D01*
X127980868Y-71874564D01*
X127373020Y-72126343D01*
X127241328Y-72421223D01*
X111330500Y-72421223D01*
X111330500Y-65914750D01*
X113074500Y-65914750D01*
X113074500Y-66605310D01*
X113171173Y-66838699D01*
X113349802Y-67017327D01*
X113583191Y-67114000D01*
X114273750Y-67114000D01*
X114432500Y-66955250D01*
X114432500Y-65756000D01*
X114686500Y-65756000D01*
X114686500Y-66955250D01*
X114845250Y-67114000D01*
X115535809Y-67114000D01*
X115769198Y-67017327D01*
X115947827Y-66838699D01*
X116044500Y-66605310D01*
X116044500Y-65914750D01*
X115885750Y-65756000D01*
X114686500Y-65756000D01*
X114432500Y-65756000D01*
X113233250Y-65756000D01*
X113074500Y-65914750D01*
X111330500Y-65914750D01*
X111330500Y-64652690D01*
X113074500Y-64652690D01*
X113074500Y-65343250D01*
X113233250Y-65502000D01*
X114432500Y-65502000D01*
X114432500Y-65482000D01*
X114686500Y-65482000D01*
X114686500Y-65502000D01*
X115885750Y-65502000D01*
X116044500Y-65343250D01*
X116044500Y-64652690D01*
X115947827Y-64419301D01*
X115769198Y-64240673D01*
X115535809Y-64144000D01*
X115196321Y-64144000D01*
X115447001Y-63976501D01*
X115679193Y-63629000D01*
X140003201Y-63629000D01*
X140018500Y-63705914D01*
X140018500Y-63784351D01*
X140048516Y-63856816D01*
X140063815Y-63933730D01*
X140107384Y-63998935D01*
X140137400Y-64071401D01*
X140212860Y-64146861D01*
X140256430Y-64212068D01*
X140321637Y-64255638D01*
X140357099Y-64291100D01*
X140403432Y-64310292D01*
X140514768Y-64384684D01*
X140742581Y-64429999D01*
X140742585Y-64429999D01*
X140819499Y-64445298D01*
X140896413Y-64429999D01*
X150112587Y-64429999D01*
X150189501Y-64445298D01*
X150266415Y-64429999D01*
X150344852Y-64429999D01*
X150417315Y-64399984D01*
X150494232Y-64384684D01*
X150559439Y-64341114D01*
X150631902Y-64311099D01*
X150687363Y-64255638D01*
X150752570Y-64212068D01*
X150796140Y-64146861D01*
X150851601Y-64091400D01*
X150881616Y-64018937D01*
X150925186Y-63953730D01*
X150940486Y-63876813D01*
X150970501Y-63804350D01*
X150970501Y-63725917D01*
X150985801Y-63648999D01*
X150970501Y-63572081D01*
X150970501Y-63493648D01*
X150940486Y-63421185D01*
X150925186Y-63344268D01*
X150921667Y-63339000D01*
X156163201Y-63339000D01*
X156178500Y-63415914D01*
X156178500Y-63494351D01*
X156208516Y-63566816D01*
X156223815Y-63643730D01*
X156267384Y-63708936D01*
X156297400Y-63781401D01*
X156352862Y-63836863D01*
X156396431Y-63902069D01*
X156461637Y-63945638D01*
X156517099Y-64001100D01*
X156589564Y-64031116D01*
X156654770Y-64074685D01*
X156731684Y-64089984D01*
X156804149Y-64120000D01*
X156882586Y-64120000D01*
X156959500Y-64135299D01*
X157036414Y-64120000D01*
X157114851Y-64120000D01*
X157187316Y-64089984D01*
X157264230Y-64074685D01*
X157329435Y-64031116D01*
X157401901Y-64001100D01*
X157621600Y-63781401D01*
X157621601Y-63781399D01*
X158773001Y-62630000D01*
X164366000Y-62630000D01*
X176067859Y-74331859D01*
X176111431Y-74397069D01*
X176332541Y-74544810D01*
X176369769Y-74569685D01*
X176674500Y-74630300D01*
X176751418Y-74615000D01*
X178654849Y-74615000D01*
X178727312Y-74584985D01*
X178804229Y-74569685D01*
X178869436Y-74526115D01*
X178941899Y-74496100D01*
X178997360Y-74440639D01*
X179062567Y-74397069D01*
X179106137Y-74331862D01*
X179161598Y-74276401D01*
X179191613Y-74203938D01*
X179235183Y-74138731D01*
X179250483Y-74061814D01*
X179280498Y-73989351D01*
X179280498Y-73910918D01*
X179295798Y-73834000D01*
X179280498Y-73757082D01*
X179280498Y-73678649D01*
X179250483Y-73606186D01*
X179235183Y-73529269D01*
X179191613Y-73464062D01*
X179161598Y-73391599D01*
X179106137Y-73336138D01*
X179062567Y-73270931D01*
X178997360Y-73227361D01*
X178941899Y-73171900D01*
X178869436Y-73141885D01*
X178804229Y-73098315D01*
X178727312Y-73083015D01*
X178654849Y-73053000D01*
X176998000Y-73053000D01*
X167764000Y-63819000D01*
X195756343Y-63819000D01*
X195844122Y-64260294D01*
X196094095Y-64634405D01*
X196468206Y-64884378D01*
X196798109Y-64950000D01*
X198020891Y-64950000D01*
X198350794Y-64884378D01*
X198724905Y-64634405D01*
X198974878Y-64260294D01*
X199062657Y-63819000D01*
X198974878Y-63377706D01*
X198724905Y-63003595D01*
X198350794Y-62753622D01*
X198020891Y-62688000D01*
X196798109Y-62688000D01*
X196468206Y-62753622D01*
X196094095Y-63003595D01*
X195844122Y-63377706D01*
X195756343Y-63819000D01*
X167764000Y-63819000D01*
X165351601Y-61406601D01*
X165351600Y-61406599D01*
X165296139Y-61351138D01*
X165252569Y-61285931D01*
X165187362Y-61242361D01*
X165131901Y-61186900D01*
X165059438Y-61156885D01*
X164994231Y-61113315D01*
X164917314Y-61098015D01*
X164844851Y-61068000D01*
X164766414Y-61068000D01*
X164689500Y-61052701D01*
X164612586Y-61068000D01*
X158526413Y-61068000D01*
X158449499Y-61052701D01*
X158372585Y-61068000D01*
X158372582Y-61068000D01*
X158144769Y-61113315D01*
X157886431Y-61285931D01*
X157842861Y-61351138D01*
X156517101Y-62676899D01*
X156517099Y-62676900D01*
X156297400Y-62896599D01*
X156267384Y-62969065D01*
X156223815Y-63034270D01*
X156208516Y-63111184D01*
X156178500Y-63183649D01*
X156178500Y-63262086D01*
X156163201Y-63339000D01*
X150921667Y-63339000D01*
X150881616Y-63279061D01*
X150851601Y-63206598D01*
X150796140Y-63151137D01*
X150752570Y-63085930D01*
X150687363Y-63042360D01*
X150631902Y-62986899D01*
X150598632Y-62973118D01*
X150464232Y-62883315D01*
X150159502Y-62822701D01*
X149931771Y-62867999D01*
X141003133Y-62867999D01*
X140954851Y-62848000D01*
X140876414Y-62848000D01*
X140799500Y-62832701D01*
X140722586Y-62848000D01*
X140644149Y-62848000D01*
X140571684Y-62878016D01*
X140494770Y-62893315D01*
X140429564Y-62936884D01*
X140357099Y-62966900D01*
X140301638Y-63022361D01*
X140236431Y-63065931D01*
X140192862Y-63131137D01*
X140137400Y-63186599D01*
X140107384Y-63259064D01*
X140063815Y-63324270D01*
X140048516Y-63401184D01*
X140018500Y-63473649D01*
X140018500Y-63552086D01*
X140003201Y-63629000D01*
X115679193Y-63629000D01*
X115719076Y-63569312D01*
X115814616Y-63089000D01*
X115730969Y-62668478D01*
X118379447Y-60020000D01*
X118564851Y-60020000D01*
X118851901Y-59901100D01*
X119071600Y-59681401D01*
X119190500Y-59394351D01*
X119190500Y-59143649D01*
X138108500Y-59143649D01*
X138108500Y-59454351D01*
X138227400Y-59741401D01*
X138447099Y-59961100D01*
X138734149Y-60080000D01*
X139044851Y-60080000D01*
X139331901Y-59961100D01*
X139551600Y-59741401D01*
X139670500Y-59454351D01*
X139670500Y-59268948D01*
X139868448Y-59071000D01*
X179094999Y-59071000D01*
X179226099Y-59202100D01*
X179513149Y-59321000D01*
X179823851Y-59321000D01*
X180110901Y-59202100D01*
X180330600Y-58982401D01*
X180449500Y-58695351D01*
X180449500Y-58384649D01*
X180330600Y-58097599D01*
X180110901Y-57877900D01*
X179823851Y-57759000D01*
X179513149Y-57759000D01*
X179226099Y-57877900D01*
X179094999Y-58009000D01*
X139700789Y-58009000D01*
X139648499Y-57998599D01*
X139596209Y-58009000D01*
X139596206Y-58009000D01*
X139441314Y-58039810D01*
X139354827Y-58097599D01*
X139265671Y-58157171D01*
X139236050Y-58201502D01*
X138919552Y-58518000D01*
X138734149Y-58518000D01*
X138447099Y-58636900D01*
X138227400Y-58856599D01*
X138108500Y-59143649D01*
X119190500Y-59143649D01*
X119190500Y-59083649D01*
X119071600Y-58796599D01*
X118851901Y-58576900D01*
X118564851Y-58458000D01*
X118254149Y-58458000D01*
X117967099Y-58576900D01*
X117747400Y-58796599D01*
X117628500Y-59083649D01*
X117628500Y-59269053D01*
X114980022Y-61917531D01*
X114680739Y-61858000D01*
X114438261Y-61858000D01*
X114079188Y-61929424D01*
X113671999Y-62201499D01*
X113399924Y-62608688D01*
X113304384Y-63089000D01*
X113399924Y-63569312D01*
X113671999Y-63976501D01*
X113922679Y-64144000D01*
X113583191Y-64144000D01*
X113349802Y-64240673D01*
X113171173Y-64419301D01*
X113074500Y-64652690D01*
X111330500Y-64652690D01*
X111330500Y-60549000D01*
X113304384Y-60549000D01*
X113399924Y-61029312D01*
X113671999Y-61436501D01*
X114079188Y-61708576D01*
X114438261Y-61780000D01*
X114680739Y-61780000D01*
X115039812Y-61708576D01*
X115447001Y-61436501D01*
X115719076Y-61029312D01*
X115814616Y-60549000D01*
X115719076Y-60068688D01*
X115447001Y-59661499D01*
X115039812Y-59389424D01*
X114680739Y-59318000D01*
X114438261Y-59318000D01*
X114079188Y-59389424D01*
X113671999Y-59661499D01*
X113399924Y-60068688D01*
X113304384Y-60549000D01*
X111330500Y-60549000D01*
X111330500Y-58009000D01*
X113304384Y-58009000D01*
X113399924Y-58489312D01*
X113671999Y-58896501D01*
X114079188Y-59168576D01*
X114438261Y-59240000D01*
X114680739Y-59240000D01*
X115039812Y-59168576D01*
X115447001Y-58896501D01*
X115719076Y-58489312D01*
X115814616Y-58009000D01*
X115719076Y-57528688D01*
X115610298Y-57365890D01*
X188728024Y-57365890D01*
X188897855Y-57775924D01*
X189288142Y-58204183D01*
X189686463Y-58391245D01*
X189281999Y-58661499D01*
X189009924Y-59068688D01*
X188914384Y-59549000D01*
X189009924Y-60029312D01*
X189281999Y-60436501D01*
X189689188Y-60708576D01*
X190048261Y-60780000D01*
X190290739Y-60780000D01*
X190649812Y-60708576D01*
X191057001Y-60436501D01*
X191329076Y-60029312D01*
X191424616Y-59549000D01*
X191329076Y-59068688D01*
X191057001Y-58661499D01*
X190652537Y-58391245D01*
X191050858Y-58204183D01*
X191140376Y-58105955D01*
X195019000Y-58105955D01*
X195019000Y-58894045D01*
X195320589Y-59622146D01*
X195877854Y-60179411D01*
X196605955Y-60481000D01*
X197394045Y-60481000D01*
X198122146Y-60179411D01*
X198679411Y-59622146D01*
X198981000Y-58894045D01*
X198981000Y-58105955D01*
X198679411Y-57377854D01*
X198122146Y-56820589D01*
X197394045Y-56519000D01*
X196605955Y-56519000D01*
X195877854Y-56820589D01*
X195320589Y-57377854D01*
X195019000Y-58105955D01*
X191140376Y-58105955D01*
X191441145Y-57775924D01*
X191610976Y-57365890D01*
X191489655Y-57136000D01*
X190296500Y-57136000D01*
X190296500Y-57156000D01*
X190042500Y-57156000D01*
X190042500Y-57136000D01*
X188849345Y-57136000D01*
X188728024Y-57365890D01*
X115610298Y-57365890D01*
X115447001Y-57121499D01*
X115039812Y-56849424D01*
X114680739Y-56778000D01*
X114438261Y-56778000D01*
X114079188Y-56849424D01*
X113671999Y-57121499D01*
X113399924Y-57528688D01*
X113304384Y-58009000D01*
X111330500Y-58009000D01*
X111330500Y-56652110D01*
X188728024Y-56652110D01*
X188849345Y-56882000D01*
X190042500Y-56882000D01*
X190042500Y-56862000D01*
X190296500Y-56862000D01*
X190296500Y-56882000D01*
X191489655Y-56882000D01*
X191610976Y-56652110D01*
X191441145Y-56242076D01*
X191050858Y-55813817D01*
X190652537Y-55626755D01*
X191057001Y-55356501D01*
X191329076Y-54949312D01*
X191424616Y-54469000D01*
X191329076Y-53988688D01*
X191057001Y-53581499D01*
X190649812Y-53309424D01*
X190290739Y-53238000D01*
X190048261Y-53238000D01*
X189689188Y-53309424D01*
X189281999Y-53581499D01*
X189009924Y-53988688D01*
X188914384Y-54469000D01*
X189009924Y-54949312D01*
X189281999Y-55356501D01*
X189686463Y-55626755D01*
X189288142Y-55813817D01*
X188897855Y-56242076D01*
X188728024Y-56652110D01*
X111330500Y-56652110D01*
X111330500Y-54796777D01*
X119621328Y-54796777D01*
X119753020Y-55091657D01*
X120460536Y-55363261D01*
X121218132Y-55343436D01*
X121825980Y-55091657D01*
X121957672Y-54796777D01*
X120789500Y-53628605D01*
X119621328Y-54796777D01*
X111330500Y-54796777D01*
X111330500Y-54703947D01*
X112162998Y-53871450D01*
X112207329Y-53841829D01*
X112240124Y-53792749D01*
X112324690Y-53666186D01*
X112365902Y-53459000D01*
X112355500Y-53406706D01*
X112355500Y-53120036D01*
X118875239Y-53120036D01*
X118895064Y-53877632D01*
X119146843Y-54485480D01*
X119441723Y-54617172D01*
X120609895Y-53449000D01*
X120969105Y-53449000D01*
X122137277Y-54617172D01*
X122432157Y-54485480D01*
X122703761Y-53777964D01*
X122683936Y-53020368D01*
X122432157Y-52412520D01*
X122137277Y-52280828D01*
X120969105Y-53449000D01*
X120609895Y-53449000D01*
X119441723Y-52280828D01*
X119146843Y-52412520D01*
X118875239Y-53120036D01*
X112355500Y-53120036D01*
X112355500Y-52101223D01*
X119621328Y-52101223D01*
X120789500Y-53269395D01*
X121957672Y-52101223D01*
X121825980Y-51806343D01*
X121118464Y-51534739D01*
X120360868Y-51554564D01*
X119753020Y-51806343D01*
X119621328Y-52101223D01*
X112355500Y-52101223D01*
X112355500Y-51436294D01*
X112365902Y-51384000D01*
X112324690Y-51176815D01*
X112324690Y-51176814D01*
X112249771Y-51064690D01*
X112236951Y-51045503D01*
X112236950Y-51045502D01*
X112207329Y-51001171D01*
X112162998Y-50971550D01*
X111544951Y-50353504D01*
X111544548Y-50352900D01*
X112473376Y-49424072D01*
X112994500Y-49424072D01*
X112994500Y-50181928D01*
X113284519Y-50882096D01*
X113820404Y-51417981D01*
X114520572Y-51708000D01*
X115278428Y-51708000D01*
X115978596Y-51417981D01*
X116514481Y-50882096D01*
X116804500Y-50181928D01*
X116804500Y-49424072D01*
X116514481Y-48723904D01*
X115978596Y-48188019D01*
X115278428Y-47898000D01*
X114520572Y-47898000D01*
X113820404Y-48188019D01*
X113284519Y-48723904D01*
X112994500Y-49424072D01*
X112473376Y-49424072D01*
X114107448Y-47790000D01*
X117135999Y-47790000D01*
X117267099Y-47921100D01*
X117554149Y-48040000D01*
X117864851Y-48040000D01*
X118151901Y-47921100D01*
X118283001Y-47790000D01*
X121699553Y-47790000D01*
X125925051Y-52015499D01*
X125954672Y-52059830D01*
X125999003Y-52089451D01*
X125999004Y-52089452D01*
X126130315Y-52177191D01*
X126337501Y-52218403D01*
X126389795Y-52208001D01*
X129855633Y-52208001D01*
X129549850Y-52513784D01*
X129298500Y-53120596D01*
X129298500Y-53777404D01*
X129549850Y-54384216D01*
X130014284Y-54848650D01*
X130621096Y-55100000D01*
X131277904Y-55100000D01*
X131884716Y-54848650D01*
X132349150Y-54384216D01*
X132600500Y-53777404D01*
X132600500Y-53120596D01*
X132349150Y-52513784D01*
X132043367Y-52208001D01*
X140015633Y-52208001D01*
X139709850Y-52513784D01*
X139458500Y-53120596D01*
X139458500Y-53777404D01*
X139709850Y-54384216D01*
X140174284Y-54848650D01*
X140781096Y-55100000D01*
X141437904Y-55100000D01*
X142044716Y-54848650D01*
X142509150Y-54384216D01*
X142531607Y-54330000D01*
X142818788Y-54330000D01*
X142905551Y-54347258D01*
X142992314Y-54330000D01*
X142992318Y-54330000D01*
X143249300Y-54278883D01*
X143540716Y-54084165D01*
X143589867Y-54010605D01*
X144192461Y-53408012D01*
X155344725Y-53408012D01*
X155431488Y-53425270D01*
X155518251Y-53408012D01*
X155518255Y-53408012D01*
X155775237Y-53356895D01*
X156066653Y-53162177D01*
X156115805Y-53088616D01*
X157275421Y-51929000D01*
X188914384Y-51929000D01*
X189009924Y-52409312D01*
X189281999Y-52816501D01*
X189689188Y-53088576D01*
X190048261Y-53160000D01*
X190290739Y-53160000D01*
X190649812Y-53088576D01*
X191057001Y-52816501D01*
X191329076Y-52409312D01*
X191424616Y-51929000D01*
X191329076Y-51448688D01*
X191057001Y-51041499D01*
X190649812Y-50769424D01*
X190290739Y-50698000D01*
X190048261Y-50698000D01*
X189689188Y-50769424D01*
X189281999Y-51041499D01*
X189009924Y-51448688D01*
X188914384Y-51929000D01*
X157275421Y-51929000D01*
X158639921Y-50564500D01*
X162178599Y-50564500D01*
X162219810Y-50771685D01*
X162337171Y-50947329D01*
X162512815Y-51064690D01*
X162720000Y-51105901D01*
X162927185Y-51064690D01*
X163058496Y-50976951D01*
X164632450Y-49402997D01*
X164720190Y-49271686D01*
X164761401Y-49064501D01*
X164720190Y-48857316D01*
X164602828Y-48681672D01*
X164427184Y-48564310D01*
X164299941Y-48539000D01*
X188931036Y-48539000D01*
X188931036Y-50239000D01*
X188960606Y-50387659D01*
X189044814Y-50513686D01*
X189170841Y-50597894D01*
X189319500Y-50627464D01*
X191019500Y-50627464D01*
X191168159Y-50597894D01*
X191294186Y-50513686D01*
X191378394Y-50387659D01*
X191407964Y-50239000D01*
X191407964Y-48539000D01*
X191378394Y-48390341D01*
X191294186Y-48264314D01*
X191168159Y-48180106D01*
X191019500Y-48150536D01*
X189319500Y-48150536D01*
X189170841Y-48180106D01*
X189044814Y-48264314D01*
X188960606Y-48390341D01*
X188931036Y-48539000D01*
X164299941Y-48539000D01*
X164219999Y-48523099D01*
X164012814Y-48564310D01*
X163881503Y-48652050D01*
X162307549Y-50226004D01*
X162219810Y-50357315D01*
X162178599Y-50564500D01*
X158639921Y-50564500D01*
X161771108Y-47433314D01*
X161844665Y-47384165D01*
X162039383Y-47092749D01*
X162090500Y-46835767D01*
X162090500Y-46835766D01*
X162107759Y-46749000D01*
X162090500Y-46662233D01*
X162090500Y-43400845D01*
X162097001Y-43396501D01*
X162369076Y-42989312D01*
X162464616Y-42509000D01*
X162494384Y-42509000D01*
X162589924Y-42989312D01*
X162861999Y-43396501D01*
X163269188Y-43668576D01*
X163628261Y-43740000D01*
X163870739Y-43740000D01*
X164229812Y-43668576D01*
X164637001Y-43396501D01*
X164909076Y-42989312D01*
X165004616Y-42509000D01*
X164909076Y-42028688D01*
X164637001Y-41621499D01*
X164229812Y-41349424D01*
X163870739Y-41278000D01*
X163628261Y-41278000D01*
X163269188Y-41349424D01*
X162861999Y-41621499D01*
X162589924Y-42028688D01*
X162494384Y-42509000D01*
X162464616Y-42509000D01*
X162369076Y-42028688D01*
X162097001Y-41621499D01*
X161689812Y-41349424D01*
X161330739Y-41278000D01*
X161088261Y-41278000D01*
X160729188Y-41349424D01*
X160321999Y-41621499D01*
X160049924Y-42028688D01*
X159954384Y-42509000D01*
X160049924Y-42989312D01*
X160321999Y-43396501D01*
X160328500Y-43400845D01*
X160328500Y-43797847D01*
X160328501Y-43797852D01*
X160328500Y-46384078D01*
X159330500Y-47382078D01*
X159330500Y-47353649D01*
X159211600Y-47066599D01*
X158991901Y-46846900D01*
X158704851Y-46728000D01*
X158604136Y-46728000D01*
X158630500Y-46664351D01*
X158630500Y-46353649D01*
X158511600Y-46066599D01*
X158291901Y-45846900D01*
X158004851Y-45728000D01*
X157694149Y-45728000D01*
X157407099Y-45846900D01*
X157187400Y-46066599D01*
X157068500Y-46353649D01*
X157068500Y-46539052D01*
X153229553Y-50378000D01*
X142442004Y-50378000D01*
X142530500Y-50164351D01*
X142530500Y-49853649D01*
X142411600Y-49566599D01*
X142191901Y-49346900D01*
X141904851Y-49228000D01*
X141594149Y-49228000D01*
X141307099Y-49346900D01*
X141175999Y-49478000D01*
X137769447Y-49478000D01*
X137359013Y-49067566D01*
X137591901Y-48971100D01*
X137811600Y-48751401D01*
X137816322Y-48740000D01*
X149175999Y-48740000D01*
X149307099Y-48871100D01*
X149594149Y-48990000D01*
X149904851Y-48990000D01*
X150191901Y-48871100D01*
X150411600Y-48651401D01*
X150530500Y-48364351D01*
X150530500Y-48053649D01*
X150411600Y-47766599D01*
X150204001Y-47559000D01*
X150411600Y-47351401D01*
X150530500Y-47064351D01*
X150530500Y-46753649D01*
X150411600Y-46466599D01*
X150254001Y-46309000D01*
X150411600Y-46151401D01*
X150530500Y-45864351D01*
X150530500Y-45553649D01*
X150411600Y-45266599D01*
X150191901Y-45046900D01*
X149904851Y-44928000D01*
X149594149Y-44928000D01*
X149307099Y-45046900D01*
X149175999Y-45178000D01*
X137723001Y-45178000D01*
X137591901Y-45046900D01*
X137304851Y-44928000D01*
X136994149Y-44928000D01*
X136780500Y-45016496D01*
X136780500Y-44828947D01*
X137928978Y-43680469D01*
X138228261Y-43740000D01*
X138470739Y-43740000D01*
X138829812Y-43668576D01*
X139237001Y-43396501D01*
X139509076Y-42989312D01*
X139604616Y-42509000D01*
X139634384Y-42509000D01*
X139729924Y-42989312D01*
X140001999Y-43396501D01*
X140409188Y-43668576D01*
X140768261Y-43740000D01*
X141010739Y-43740000D01*
X141369812Y-43668576D01*
X141777001Y-43396501D01*
X142049076Y-42989312D01*
X142144616Y-42509000D01*
X142174384Y-42509000D01*
X142269924Y-42989312D01*
X142541999Y-43396501D01*
X142949188Y-43668576D01*
X143308261Y-43740000D01*
X143550739Y-43740000D01*
X143909812Y-43668576D01*
X144317001Y-43396501D01*
X144589076Y-42989312D01*
X144684616Y-42509000D01*
X144714384Y-42509000D01*
X144809924Y-42989312D01*
X145081999Y-43396501D01*
X145489188Y-43668576D01*
X145848261Y-43740000D01*
X146090739Y-43740000D01*
X146449812Y-43668576D01*
X146857001Y-43396501D01*
X147129076Y-42989312D01*
X147224616Y-42509000D01*
X147254384Y-42509000D01*
X147349924Y-42989312D01*
X147621999Y-43396501D01*
X148029188Y-43668576D01*
X148388261Y-43740000D01*
X148630739Y-43740000D01*
X148989812Y-43668576D01*
X149397001Y-43396501D01*
X149669076Y-42989312D01*
X149764616Y-42509000D01*
X149794384Y-42509000D01*
X149889924Y-42989312D01*
X150161999Y-43396501D01*
X150569188Y-43668576D01*
X150928261Y-43740000D01*
X151170739Y-43740000D01*
X151529812Y-43668576D01*
X151937001Y-43396501D01*
X152209076Y-42989312D01*
X152304616Y-42509000D01*
X152334384Y-42509000D01*
X152429924Y-42989312D01*
X152701999Y-43396501D01*
X153109188Y-43668576D01*
X153468261Y-43740000D01*
X153710739Y-43740000D01*
X154069812Y-43668576D01*
X154477001Y-43396501D01*
X154749076Y-42989312D01*
X154844616Y-42509000D01*
X154874384Y-42509000D01*
X154969924Y-42989312D01*
X155241999Y-43396501D01*
X155649188Y-43668576D01*
X156008261Y-43740000D01*
X156250739Y-43740000D01*
X156609812Y-43668576D01*
X157017001Y-43396501D01*
X157289076Y-42989312D01*
X157384616Y-42509000D01*
X157414384Y-42509000D01*
X157509924Y-42989312D01*
X157781999Y-43396501D01*
X158189188Y-43668576D01*
X158548261Y-43740000D01*
X158790739Y-43740000D01*
X159149812Y-43668576D01*
X159557001Y-43396501D01*
X159829076Y-42989312D01*
X159924616Y-42509000D01*
X159829076Y-42028688D01*
X159557001Y-41621499D01*
X159149812Y-41349424D01*
X158790739Y-41278000D01*
X158548261Y-41278000D01*
X158189188Y-41349424D01*
X157781999Y-41621499D01*
X157509924Y-42028688D01*
X157414384Y-42509000D01*
X157384616Y-42509000D01*
X157289076Y-42028688D01*
X157017001Y-41621499D01*
X156609812Y-41349424D01*
X156250739Y-41278000D01*
X156008261Y-41278000D01*
X155649188Y-41349424D01*
X155241999Y-41621499D01*
X154969924Y-42028688D01*
X154874384Y-42509000D01*
X154844616Y-42509000D01*
X154749076Y-42028688D01*
X154477001Y-41621499D01*
X154069812Y-41349424D01*
X153710739Y-41278000D01*
X153468261Y-41278000D01*
X153109188Y-41349424D01*
X152701999Y-41621499D01*
X152429924Y-42028688D01*
X152334384Y-42509000D01*
X152304616Y-42509000D01*
X152209076Y-42028688D01*
X151937001Y-41621499D01*
X151529812Y-41349424D01*
X151170739Y-41278000D01*
X150928261Y-41278000D01*
X150569188Y-41349424D01*
X150161999Y-41621499D01*
X149889924Y-42028688D01*
X149794384Y-42509000D01*
X149764616Y-42509000D01*
X149669076Y-42028688D01*
X149397001Y-41621499D01*
X148989812Y-41349424D01*
X148630739Y-41278000D01*
X148388261Y-41278000D01*
X148029188Y-41349424D01*
X147621999Y-41621499D01*
X147349924Y-42028688D01*
X147254384Y-42509000D01*
X147224616Y-42509000D01*
X147129076Y-42028688D01*
X146857001Y-41621499D01*
X146449812Y-41349424D01*
X146090739Y-41278000D01*
X145848261Y-41278000D01*
X145489188Y-41349424D01*
X145081999Y-41621499D01*
X144809924Y-42028688D01*
X144714384Y-42509000D01*
X144684616Y-42509000D01*
X144589076Y-42028688D01*
X144317001Y-41621499D01*
X143909812Y-41349424D01*
X143550739Y-41278000D01*
X143308261Y-41278000D01*
X142949188Y-41349424D01*
X142541999Y-41621499D01*
X142269924Y-42028688D01*
X142174384Y-42509000D01*
X142144616Y-42509000D01*
X142049076Y-42028688D01*
X141777001Y-41621499D01*
X141369812Y-41349424D01*
X141010739Y-41278000D01*
X140768261Y-41278000D01*
X140409188Y-41349424D01*
X140001999Y-41621499D01*
X139729924Y-42028688D01*
X139634384Y-42509000D01*
X139604616Y-42509000D01*
X139509076Y-42028688D01*
X139237001Y-41621499D01*
X138829812Y-41349424D01*
X138470739Y-41278000D01*
X138228261Y-41278000D01*
X137869188Y-41349424D01*
X137461999Y-41621499D01*
X137189924Y-42028688D01*
X137094384Y-42509000D01*
X137178031Y-42929522D01*
X135911005Y-44196548D01*
X135866671Y-44226171D01*
X135749310Y-44401815D01*
X135718500Y-44556707D01*
X135718500Y-44556710D01*
X135708099Y-44609000D01*
X135718500Y-44661290D01*
X135718501Y-48656705D01*
X135708099Y-48709000D01*
X135749310Y-48916185D01*
X135837049Y-49047496D01*
X135837051Y-49047498D01*
X135866672Y-49091829D01*
X135911003Y-49121450D01*
X137137048Y-50347495D01*
X137157431Y-50378000D01*
X126819448Y-50378000D01*
X122611951Y-46170504D01*
X122582328Y-46126170D01*
X122406685Y-46008809D01*
X122251793Y-45977999D01*
X122251789Y-45977999D01*
X122199499Y-45967598D01*
X122147209Y-45977999D01*
X120263001Y-45977999D01*
X120131901Y-45846899D01*
X119844851Y-45727999D01*
X119534149Y-45727999D01*
X119247099Y-45846899D01*
X119115999Y-45977999D01*
X116084578Y-45977999D01*
X116514481Y-45548096D01*
X116804500Y-44847928D01*
X116804500Y-44090072D01*
X116514481Y-43389904D01*
X115978596Y-42854019D01*
X115835508Y-42794750D01*
X124164500Y-42794750D01*
X124164500Y-43485309D01*
X124261173Y-43718698D01*
X124439801Y-43897327D01*
X124673190Y-43994000D01*
X125363750Y-43994000D01*
X125522500Y-43835250D01*
X125522500Y-42636000D01*
X124323250Y-42636000D01*
X124164500Y-42794750D01*
X115835508Y-42794750D01*
X115278428Y-42564000D01*
X114520572Y-42564000D01*
X113820404Y-42854019D01*
X113284519Y-43389904D01*
X112994500Y-44090072D01*
X112994500Y-44847928D01*
X113284519Y-45548096D01*
X113714422Y-45977999D01*
X108211790Y-45977999D01*
X108159500Y-45967598D01*
X108107210Y-45977999D01*
X108107207Y-45977999D01*
X107952315Y-46008809D01*
X107776672Y-46126170D01*
X107747049Y-46170504D01*
X104721005Y-49196548D01*
X104676671Y-49226171D01*
X104559310Y-49401815D01*
X104528500Y-49556707D01*
X104528500Y-49556710D01*
X104518099Y-49609000D01*
X104104500Y-49609000D01*
X104104500Y-49424072D01*
X103814481Y-48723904D01*
X103278596Y-48188019D01*
X102578428Y-47898000D01*
X101820572Y-47898000D01*
X101120404Y-48188019D01*
X100584519Y-48723904D01*
X100456000Y-49034176D01*
X100456000Y-45237824D01*
X100584519Y-45548096D01*
X101120404Y-46083981D01*
X101820572Y-46374000D01*
X102578428Y-46374000D01*
X103278596Y-46083981D01*
X103814481Y-45548096D01*
X104104500Y-44847928D01*
X104104500Y-44090072D01*
X103814481Y-43389904D01*
X103278596Y-42854019D01*
X102578428Y-42564000D01*
X101820572Y-42564000D01*
X101120404Y-42854019D01*
X100584519Y-43389904D01*
X100456000Y-43700176D01*
X100456000Y-41532691D01*
X124164500Y-41532691D01*
X124164500Y-42223250D01*
X124323250Y-42382000D01*
X125522500Y-42382000D01*
X125522500Y-41182750D01*
X125776500Y-41182750D01*
X125776500Y-42382000D01*
X125796500Y-42382000D01*
X125796500Y-42636000D01*
X125776500Y-42636000D01*
X125776500Y-43835250D01*
X125935250Y-43994000D01*
X126625810Y-43994000D01*
X126859199Y-43897327D01*
X127037827Y-43718698D01*
X127134500Y-43485309D01*
X127134500Y-43145821D01*
X127301999Y-43396501D01*
X127709188Y-43668576D01*
X128068261Y-43740000D01*
X128310739Y-43740000D01*
X128669812Y-43668576D01*
X129077001Y-43396501D01*
X129349076Y-42989312D01*
X129444616Y-42509000D01*
X129474384Y-42509000D01*
X129569924Y-42989312D01*
X129841999Y-43396501D01*
X130249188Y-43668576D01*
X130608261Y-43740000D01*
X130850739Y-43740000D01*
X131209812Y-43668576D01*
X131617001Y-43396501D01*
X131889076Y-42989312D01*
X131984616Y-42509000D01*
X132014384Y-42509000D01*
X132109924Y-42989312D01*
X132381999Y-43396501D01*
X132789188Y-43668576D01*
X133148261Y-43740000D01*
X133390739Y-43740000D01*
X133749812Y-43668576D01*
X134157001Y-43396501D01*
X134429076Y-42989312D01*
X134524616Y-42509000D01*
X134554384Y-42509000D01*
X134649924Y-42989312D01*
X134921999Y-43396501D01*
X135329188Y-43668576D01*
X135688261Y-43740000D01*
X135930739Y-43740000D01*
X136289812Y-43668576D01*
X136697001Y-43396501D01*
X136969076Y-42989312D01*
X137064616Y-42509000D01*
X136969076Y-42028688D01*
X136697001Y-41621499D01*
X136289812Y-41349424D01*
X135930739Y-41278000D01*
X135688261Y-41278000D01*
X135329188Y-41349424D01*
X134921999Y-41621499D01*
X134649924Y-42028688D01*
X134554384Y-42509000D01*
X134524616Y-42509000D01*
X134429076Y-42028688D01*
X134157001Y-41621499D01*
X133749812Y-41349424D01*
X133390739Y-41278000D01*
X133148261Y-41278000D01*
X132789188Y-41349424D01*
X132381999Y-41621499D01*
X132109924Y-42028688D01*
X132014384Y-42509000D01*
X131984616Y-42509000D01*
X131889076Y-42028688D01*
X131617001Y-41621499D01*
X131209812Y-41349424D01*
X130850739Y-41278000D01*
X130608261Y-41278000D01*
X130249188Y-41349424D01*
X129841999Y-41621499D01*
X129569924Y-42028688D01*
X129474384Y-42509000D01*
X129444616Y-42509000D01*
X129349076Y-42028688D01*
X129077001Y-41621499D01*
X128669812Y-41349424D01*
X128310739Y-41278000D01*
X128068261Y-41278000D01*
X127709188Y-41349424D01*
X127301999Y-41621499D01*
X127134500Y-41872179D01*
X127134500Y-41532691D01*
X127037827Y-41299302D01*
X126859199Y-41120673D01*
X126625810Y-41024000D01*
X125935250Y-41024000D01*
X125776500Y-41182750D01*
X125522500Y-41182750D01*
X125363750Y-41024000D01*
X124673190Y-41024000D01*
X124439801Y-41120673D01*
X124261173Y-41299302D01*
X124164500Y-41532691D01*
X100456000Y-41532691D01*
X100456000Y-40456061D01*
X165993500Y-40464938D01*
G36*
X110701113Y-49694440D02*
X110656595Y-49676000D01*
X110252405Y-49676000D01*
X109878982Y-49830676D01*
X109593176Y-50116482D01*
X109502000Y-50336602D01*
X109410824Y-50116482D01*
X109125018Y-49830676D01*
X108751595Y-49676000D01*
X108347405Y-49676000D01*
X107973982Y-49830676D01*
X107763341Y-50041317D01*
X107761679Y-50037303D01*
X107532633Y-49983472D01*
X106824105Y-50692000D01*
X107532633Y-51400528D01*
X107761679Y-51346697D01*
X107763140Y-51342482D01*
X107973982Y-51553324D01*
X108194102Y-51644500D01*
X107973982Y-51735676D01*
X107688176Y-52021482D01*
X107597000Y-52241602D01*
X107505824Y-52021482D01*
X107295183Y-51810841D01*
X107299197Y-51809179D01*
X107353028Y-51580133D01*
X106644500Y-50871605D01*
X106630358Y-50885748D01*
X106450753Y-50706143D01*
X106464895Y-50692000D01*
X105756367Y-49983472D01*
X105590500Y-50022455D01*
X105590500Y-49828947D01*
X105615580Y-49803867D01*
X105935972Y-49803867D01*
X106644500Y-50512395D01*
X107353028Y-49803867D01*
X107299197Y-49574821D01*
X106821836Y-49409319D01*
X106317477Y-49439094D01*
X105989803Y-49574821D01*
X105935972Y-49803867D01*
X105615580Y-49803867D01*
X108379448Y-47039999D01*
X113355553Y-47039999D01*
X110701113Y-49694440D01*
X110701113Y-49694440D01*
G37*
X110701113Y-49694440D02*
X110656595Y-49676000D01*
X110252405Y-49676000D01*
X109878982Y-49830676D01*
X109593176Y-50116482D01*
X109502000Y-50336602D01*
X109410824Y-50116482D01*
X109125018Y-49830676D01*
X108751595Y-49676000D01*
X108347405Y-49676000D01*
X107973982Y-49830676D01*
X107763341Y-50041317D01*
X107761679Y-50037303D01*
X107532633Y-49983472D01*
X106824105Y-50692000D01*
X107532633Y-51400528D01*
X107761679Y-51346697D01*
X107763140Y-51342482D01*
X107973982Y-51553324D01*
X108194102Y-51644500D01*
X107973982Y-51735676D01*
X107688176Y-52021482D01*
X107597000Y-52241602D01*
X107505824Y-52021482D01*
X107295183Y-51810841D01*
X107299197Y-51809179D01*
X107353028Y-51580133D01*
X106644500Y-50871605D01*
X106630358Y-50885748D01*
X106450753Y-50706143D01*
X106464895Y-50692000D01*
X105756367Y-49983472D01*
X105590500Y-50022455D01*
X105590500Y-49828947D01*
X105615580Y-49803867D01*
X105935972Y-49803867D01*
X106644500Y-50512395D01*
X107353028Y-49803867D01*
X107299197Y-49574821D01*
X106821836Y-49409319D01*
X106317477Y-49439094D01*
X105989803Y-49574821D01*
X105935972Y-49803867D01*
X105615580Y-49803867D01*
X108379448Y-47039999D01*
X113355553Y-47039999D01*
X110701113Y-49694440D01*
M02*
